M48
;GenerationSoftware,Autodesk,EAGLE,9.6.1*%
;CreationDate,2024-10-08T05:01:13Z*%
FMAT,2
ICI,OFF
METRIC,TZ,000.000
T12C0.200
T11C0.250
T10C0.300
T9C0.350
T8C0.500
T7C0.650
T6C0.860
T5C1.016
T4C1.020
T3C1.200
T2C1.500
T1C1.750
%
G90
M71
T1
X15389Y-3246
X18818Y-1266
T2
X21817Y-3460
T3
X14324Y21530
X17355Y19780
T4
X3992Y-635
X6191Y-1905
X3992Y18415
X6191Y19685
T5
X-23812Y4445
X-23812Y9525
X-23812Y12065
X-23812Y6985
T6
X17286Y-5071
X19018Y-4071
T7
X20479Y12490
X20479Y5290
T8
X21729Y4760
X27679Y4400
X21729Y13020
X27679Y13380
T9
X-17145Y21749
X-12382Y22542
X-11112Y22384
X-28257Y13017
X-26987Y14446
X-25082Y19368
X-23971Y15557
X-28734Y4921
X-24606Y2381
X-23177Y1270
X-25876Y-952
X-12065Y-4286
X-17621Y-4445
X-15716Y-794
X2223Y2381
X-1905Y2381
X1746Y5080
X-3651Y6667
X-2699Y6667
X-2699Y5874
X-3651Y5874
X-3651Y5080
X-2699Y5080
X-7620Y3810
X-6350Y3651
X-1587Y4445
X-19526Y11112
X-11079Y13335
X-3492Y13337
X7779Y1429
X-20796Y15084
X-3492Y15237
X16637Y15557
X-4660Y8096
X5398Y8573
X17798Y457
X7144Y17463
X5219Y16828
X7937Y18256
X4286Y16828
X15399Y794
X-17463Y9684
X13017Y-1429
X21907Y1111
X-1587Y6032
X-318Y6032
X3016Y952
X4921Y952
X-2801Y3492
X-9525Y15237
X-22372Y15875
X11112Y12915
X9486Y14290
X22860Y10160
X22860Y8890
X19368Y1111
X-18256Y-2857
X-17304Y23495
X22860Y7779
T10
X-13076Y9881
X12700Y9525
X17939Y8573
X9684Y8890
X18972Y11271
X-19050Y14134
X18974Y9843
X20638Y10001
X7405Y10795
X10636Y6742
X7542Y4445
X16612Y8653
X9603Y6008
X-2889Y794
X20638Y8731
T11
X10063Y10704
X-10636Y9525
X-14446Y6350
X-12927Y6350
X-13159Y12445
X20105Y16351
X7881Y6985
X-14340Y4763
X-12927Y4763
X9676Y4445
X-19462Y20717
X-16674Y5868
X6667Y3334
X9049Y2699
X18415Y4389
X-9046Y-1217
X-15558Y5454
X-26745Y8702
X-19938Y-2114
X-10220Y20120
X7512Y5899
X-15975Y13945
X-7584Y12090
X-12942Y10636
X-13101Y11313
T12
X8573Y3945
X4978Y10160
X8573Y4945
X8573Y4445
M30