M48
;GenerationSoftware,Autodesk,EAGLE,9.6.1*%
;CreationDate,2024-02-18T05:53:27Z*%
FMAT,2
ICI,OFF
METRIC,TZ,000.000
T9C0.200
T8C0.250
T7C0.350
T6C0.450
T5C0.700
T4C0.860
T3C1.016
T2C1.020
T1C1.200
%
G90
M71
T1
X25559Y6985
X25559Y10485
T2
X9234Y-3551
X11434Y-4821
T3
X-19368Y14129
X-19368Y11589
X-19368Y16669
X-19368Y9049
T4
X22044Y-1008
X20311Y-2008
T5
X23307Y4411
X23307Y13051
X26687Y13051
X26687Y4411
T6
X22327Y5981
X22327Y9981
X22327Y7481
X22327Y11481
X23677Y11881
X23677Y10381
X23677Y7081
X23677Y5581
T7
X-17621Y-4286
X-18098Y-3492
X-19685Y-2064
X-20161Y-1270
X2857Y1111
X4445Y476
X1270Y4128
X-3651Y4763
X-2064Y5715
X-3016Y13811
X-3016Y11430
X-159Y9684
X1429Y9684
X-24130Y15557
X-25559Y14287
X-10795Y14605
X-21907Y14287
X-21907Y10160
X15716Y13811
X14922Y13811
X14129Y13811
X15716Y14605
X14922Y14605
X14129Y14605
X10795Y17145
X11747Y17145
X8414Y12224
X7620Y12224
X6826Y12224
X8414Y13017
X7620Y13017
X6826Y13017
X5874Y11430
X6826Y11430
X5874Y10478
X6826Y10478
X6826Y9525
X5874Y9525
X26511Y1746
X11112Y-3492
X17304Y-2699
X6350Y-318
X9684Y18891
X14922Y22542
X21431Y18574
X14605Y18574
X15240Y-4445
X24924Y2699
X1270Y6032
X20796Y16669
X17304Y16669
X18891Y14764
X16986Y18574
X7620Y18098
X19368Y11589
X-19685Y1746
X-19069Y-3632
X-4604Y7302
X-4286Y6350
X-4924Y19381
X-19707Y19773
X-26602Y8011
X-9572Y-1714
X19685Y9049
X17780Y7461
X18415Y4286
X15875Y10160
X21590Y8731
X18574Y8573
X7620Y14042
X8573Y10954
X6350Y2064
X-21273Y6032
X-27305Y4128
X-8890Y17463
X-7779Y17463
X-952Y14446
X159Y14446
X24130Y16669
X-5080Y1429
X-11271Y6826
X-13811Y6826
X-13652Y4286
X-10954Y4445
X-22066Y1905
X-20161Y4763
X-24130Y3651
X-16510Y13811
X-14129Y16986
X-9843Y11112
T8
X12904Y1111
X13223Y13652
X-8255Y3810
X18098Y794
X12700Y-159
X-10954Y12859
X12382Y13652
X11747Y12065
X12541Y12065
X13176Y12065
X15399Y-195
X-7144Y13176
X-7779Y13176
X-6350Y5239
X-6350Y4286
X14764Y1429
X20638Y2699
X15209Y666
X11430Y159
X16351Y1429
X12541Y14287
X13811Y13051
X-13970Y-318
X-13970Y476
X-13335Y1429
X18733Y-585
T9
X14053Y24
X14053Y-476
X14053Y-976
M30