G04 EAGLE Gerber RS-274X export*
G75*
%MOMM*%
%FSLAX34Y34*%
%LPD*%
%INTop Copper*%
%IPPOS*%
%AMOC8*
5,1,8,0,0,1.08239X$1,22.5*%
G01*
%ADD10R,0.800000X0.800000*%
%ADD11P,1.649562X8X112.500000*%
%ADD12R,1.100000X1.000000*%
%ADD13C,1.524000*%
%ADD14R,1.290000X1.290000*%
%ADD15C,1.290000*%
%ADD16R,0.420000X0.750000*%
%ADD17R,2.230000X1.800000*%
%ADD18C,0.254000*%
%ADD19R,0.300000X0.670000*%
%ADD20R,0.800000X0.400000*%
%ADD21R,1.750000X2.500000*%
%ADD22R,0.850000X2.200000*%
%ADD23R,1.000000X1.100000*%
%ADD24C,1.000000*%
%ADD25R,0.754800X0.754800*%
%ADD26C,0.754800*%
%ADD27C,1.200000*%
%ADD28R,1.530000X1.530000*%
%ADD29C,1.530000*%
%ADD30C,0.750000*%
%ADD31C,0.550000*%
%ADD32C,0.304800*%
%ADD33C,0.406400*%
%ADD34C,0.254000*%
%ADD35C,0.352400*%
%ADD36C,0.508000*%

G36*
X150853Y-84808D02*
X150853Y-84808D01*
X150959Y-84806D01*
X151011Y-84792D01*
X151064Y-84786D01*
X151164Y-84749D01*
X151265Y-84721D01*
X151342Y-84683D01*
X151363Y-84675D01*
X151375Y-84667D01*
X151410Y-84650D01*
X229758Y-39417D01*
X229760Y-39415D01*
X229764Y-39413D01*
X299392Y1327D01*
X299473Y1389D01*
X299559Y1444D01*
X299599Y1485D01*
X299644Y1520D01*
X299707Y1601D01*
X299777Y1675D01*
X299805Y1726D01*
X299840Y1771D01*
X299881Y1864D01*
X299931Y1954D01*
X299945Y2009D01*
X299968Y2062D01*
X299985Y2163D01*
X300010Y2262D01*
X300016Y2355D01*
X300019Y2376D01*
X300018Y2390D01*
X300020Y2422D01*
X300020Y172744D01*
X300007Y172849D01*
X300003Y172954D01*
X299987Y173006D01*
X299980Y173059D01*
X299942Y173158D01*
X299911Y173259D01*
X299883Y173305D01*
X299863Y173355D01*
X299801Y173441D01*
X299747Y173531D01*
X299708Y173569D01*
X299677Y173612D01*
X299595Y173680D01*
X299520Y173754D01*
X299448Y173801D01*
X299432Y173815D01*
X299418Y173822D01*
X299386Y173843D01*
X151410Y259275D01*
X151312Y259316D01*
X151219Y259365D01*
X151166Y259377D01*
X151116Y259398D01*
X151012Y259413D01*
X150909Y259438D01*
X150855Y259437D01*
X150802Y259444D01*
X150697Y259433D01*
X150591Y259431D01*
X150539Y259417D01*
X150486Y259411D01*
X150386Y259374D01*
X150285Y259346D01*
X150208Y259308D01*
X150187Y259300D01*
X150175Y259292D01*
X150140Y259275D01*
X56515Y205222D01*
X56431Y205158D01*
X56342Y205101D01*
X56305Y205062D01*
X56262Y205030D01*
X56196Y204947D01*
X56124Y204870D01*
X56098Y204823D01*
X56064Y204780D01*
X56021Y204684D01*
X55970Y204591D01*
X55957Y204539D01*
X55935Y204490D01*
X55917Y204385D01*
X55891Y204283D01*
X55886Y204198D01*
X55882Y204176D01*
X55883Y204161D01*
X55881Y204123D01*
X55881Y78144D01*
X55896Y78026D01*
X55903Y77907D01*
X55916Y77869D01*
X55921Y77828D01*
X55964Y77718D01*
X56001Y77605D01*
X56023Y77570D01*
X56038Y77533D01*
X56108Y77437D01*
X56171Y77336D01*
X56201Y77308D01*
X56224Y77275D01*
X56316Y77199D01*
X56403Y77118D01*
X56438Y77098D01*
X56469Y77073D01*
X56577Y77022D01*
X56681Y76964D01*
X56721Y76954D01*
X56757Y76937D01*
X56874Y76915D01*
X56989Y76885D01*
X57050Y76881D01*
X57070Y76877D01*
X57090Y76879D01*
X57150Y76875D01*
X66519Y76875D01*
X67412Y75982D01*
X67412Y73914D01*
X67427Y73796D01*
X67435Y73677D01*
X67447Y73639D01*
X67452Y73598D01*
X67496Y73488D01*
X67533Y73375D01*
X67554Y73340D01*
X67569Y73303D01*
X67639Y73207D01*
X67703Y73106D01*
X67732Y73078D01*
X67756Y73045D01*
X67848Y72969D01*
X67934Y72888D01*
X67970Y72868D01*
X68001Y72843D01*
X68109Y72792D01*
X68213Y72734D01*
X68252Y72724D01*
X68289Y72707D01*
X68405Y72685D01*
X68521Y72655D01*
X68581Y72651D01*
X68601Y72647D01*
X68621Y72649D01*
X68681Y72645D01*
X72595Y72645D01*
X93282Y51958D01*
X93282Y-9429D01*
X93295Y-9527D01*
X93298Y-9626D01*
X93314Y-9685D01*
X93322Y-9745D01*
X93359Y-9837D01*
X93386Y-9932D01*
X93417Y-9984D01*
X93439Y-10040D01*
X93497Y-10120D01*
X93548Y-10206D01*
X93614Y-10281D01*
X93626Y-10298D01*
X93635Y-10305D01*
X93654Y-10327D01*
X94923Y-11596D01*
X95002Y-11657D01*
X95074Y-11725D01*
X95127Y-11754D01*
X95175Y-11791D01*
X95266Y-11830D01*
X95352Y-11878D01*
X95411Y-11893D01*
X95466Y-11917D01*
X95564Y-11933D01*
X95660Y-11958D01*
X95760Y-11964D01*
X95781Y-11967D01*
X95793Y-11966D01*
X95821Y-11968D01*
X109522Y-11968D01*
X109660Y-11950D01*
X109799Y-11937D01*
X109818Y-11930D01*
X109838Y-11928D01*
X109967Y-11877D01*
X110098Y-11830D01*
X110115Y-11818D01*
X110133Y-11811D01*
X110246Y-11729D01*
X110361Y-11651D01*
X110374Y-11636D01*
X110391Y-11624D01*
X110480Y-11517D01*
X110571Y-11413D01*
X110581Y-11395D01*
X110594Y-11379D01*
X110653Y-11253D01*
X110716Y-11129D01*
X110721Y-11110D01*
X110729Y-11091D01*
X110755Y-10955D01*
X110786Y-10819D01*
X110785Y-10799D01*
X110789Y-10779D01*
X110780Y-10641D01*
X110776Y-10501D01*
X110770Y-10482D01*
X110769Y-10462D01*
X110726Y-10330D01*
X110688Y-10196D01*
X110677Y-10178D01*
X110671Y-10159D01*
X110597Y-10041D01*
X110526Y-9922D01*
X110508Y-9901D01*
X110501Y-9890D01*
X110486Y-9876D01*
X110420Y-9801D01*
X109425Y-8807D01*
X109425Y2457D01*
X109653Y2685D01*
X109714Y2763D01*
X109782Y2835D01*
X109811Y2888D01*
X109848Y2936D01*
X109888Y3027D01*
X109936Y3114D01*
X109951Y3172D01*
X109975Y3228D01*
X109990Y3323D01*
X110683Y4016D01*
X110756Y4110D01*
X110835Y4199D01*
X110853Y4235D01*
X110878Y4267D01*
X110925Y4377D01*
X110979Y4482D01*
X110988Y4522D01*
X111004Y4559D01*
X111023Y4677D01*
X111049Y4793D01*
X111048Y4833D01*
X111054Y4873D01*
X111043Y4992D01*
X111039Y5111D01*
X111028Y5149D01*
X111024Y5190D01*
X110984Y5302D01*
X110951Y5416D01*
X110930Y5451D01*
X110917Y5489D01*
X110850Y5588D01*
X110789Y5690D01*
X110750Y5735D01*
X110738Y5752D01*
X110723Y5766D01*
X110683Y5811D01*
X109425Y7068D01*
X109425Y18332D01*
X110318Y19225D01*
X118497Y19225D01*
X118595Y19237D01*
X118694Y19240D01*
X118752Y19257D01*
X118812Y19265D01*
X118904Y19301D01*
X118999Y19329D01*
X119052Y19359D01*
X119108Y19382D01*
X119188Y19440D01*
X119273Y19490D01*
X119349Y19556D01*
X119365Y19568D01*
X119373Y19578D01*
X119394Y19596D01*
X123804Y24006D01*
X123864Y24084D01*
X123932Y24156D01*
X123961Y24209D01*
X123998Y24257D01*
X124038Y24348D01*
X124086Y24435D01*
X124101Y24493D01*
X124125Y24549D01*
X124140Y24647D01*
X124165Y24743D01*
X124171Y24843D01*
X124175Y24863D01*
X124173Y24875D01*
X124175Y24903D01*
X124175Y34207D01*
X125098Y35129D01*
X125106Y35130D01*
X125125Y35137D01*
X125145Y35140D01*
X125274Y35191D01*
X125405Y35238D01*
X125422Y35249D01*
X125441Y35257D01*
X125553Y35338D01*
X125669Y35416D01*
X125682Y35432D01*
X125698Y35443D01*
X125787Y35551D01*
X125879Y35655D01*
X125888Y35673D01*
X125901Y35688D01*
X125960Y35814D01*
X126024Y35938D01*
X126028Y35958D01*
X126037Y35976D01*
X126063Y36113D01*
X126093Y36248D01*
X126093Y36269D01*
X126096Y36288D01*
X126088Y36427D01*
X126084Y36566D01*
X126078Y36586D01*
X126077Y36606D01*
X126034Y36738D01*
X125995Y36872D01*
X125985Y36889D01*
X125979Y36908D01*
X125904Y37026D01*
X125834Y37146D01*
X125815Y37167D01*
X125808Y37177D01*
X125793Y37191D01*
X125727Y37266D01*
X124675Y38318D01*
X124675Y50582D01*
X125568Y51475D01*
X136832Y51475D01*
X137725Y50582D01*
X137725Y38318D01*
X136673Y37266D01*
X136588Y37157D01*
X136499Y37050D01*
X136490Y37031D01*
X136478Y37015D01*
X136423Y36888D01*
X136363Y36762D01*
X136360Y36742D01*
X136351Y36723D01*
X136330Y36585D01*
X136304Y36449D01*
X136305Y36429D01*
X136302Y36409D01*
X136315Y36270D01*
X136323Y36132D01*
X136330Y36113D01*
X136331Y36093D01*
X136379Y35961D01*
X136421Y35830D01*
X136432Y35812D01*
X136439Y35793D01*
X136517Y35678D01*
X136592Y35561D01*
X136606Y35547D01*
X136618Y35530D01*
X136722Y35438D01*
X136823Y35343D01*
X136841Y35333D01*
X136856Y35320D01*
X136980Y35256D01*
X137102Y35189D01*
X137121Y35184D01*
X137139Y35175D01*
X137275Y35145D01*
X137291Y35141D01*
X138225Y34207D01*
X138225Y26028D01*
X138237Y25930D01*
X138240Y25831D01*
X138257Y25773D01*
X138265Y25713D01*
X138301Y25621D01*
X138329Y25526D01*
X138345Y25498D01*
X138351Y25435D01*
X138358Y25416D01*
X138360Y25396D01*
X138411Y25267D01*
X138458Y25136D01*
X138470Y25119D01*
X138477Y25101D01*
X138559Y24988D01*
X138637Y24873D01*
X138652Y24860D01*
X138664Y24843D01*
X138771Y24754D01*
X138875Y24663D01*
X138893Y24653D01*
X138909Y24640D01*
X139034Y24581D01*
X139159Y24518D01*
X139178Y24513D01*
X139197Y24505D01*
X139333Y24479D01*
X139469Y24448D01*
X139489Y24449D01*
X139509Y24445D01*
X139648Y24454D01*
X139787Y24458D01*
X139806Y24464D01*
X139826Y24465D01*
X139959Y24508D01*
X140092Y24546D01*
X140110Y24557D01*
X140129Y24563D01*
X140247Y24637D01*
X140366Y24708D01*
X140387Y24726D01*
X140398Y24733D01*
X140412Y24748D01*
X140487Y24814D01*
X140804Y25131D01*
X140864Y25209D01*
X140932Y25281D01*
X140961Y25334D01*
X140998Y25382D01*
X141038Y25473D01*
X141086Y25560D01*
X141101Y25618D01*
X141125Y25674D01*
X141140Y25772D01*
X141165Y25868D01*
X141171Y25968D01*
X141175Y25988D01*
X141173Y26000D01*
X141175Y26028D01*
X141175Y34207D01*
X142098Y35129D01*
X142106Y35130D01*
X142125Y35137D01*
X142145Y35140D01*
X142274Y35191D01*
X142405Y35238D01*
X142422Y35249D01*
X142441Y35257D01*
X142553Y35338D01*
X142669Y35416D01*
X142682Y35432D01*
X142698Y35443D01*
X142787Y35551D01*
X142879Y35655D01*
X142888Y35673D01*
X142901Y35688D01*
X142960Y35814D01*
X143024Y35938D01*
X143028Y35958D01*
X143037Y35976D01*
X143063Y36113D01*
X143093Y36248D01*
X143093Y36269D01*
X143096Y36288D01*
X143088Y36427D01*
X143084Y36566D01*
X143078Y36586D01*
X143077Y36606D01*
X143034Y36738D01*
X142995Y36872D01*
X142985Y36889D01*
X142979Y36908D01*
X142904Y37026D01*
X142834Y37146D01*
X142815Y37167D01*
X142808Y37177D01*
X142793Y37191D01*
X142727Y37266D01*
X141675Y38318D01*
X141675Y50582D01*
X142568Y51475D01*
X153832Y51475D01*
X154725Y50582D01*
X154725Y42403D01*
X154737Y42305D01*
X154740Y42206D01*
X154757Y42148D01*
X154765Y42088D01*
X154801Y41996D01*
X154829Y41901D01*
X154859Y41848D01*
X154882Y41792D01*
X154940Y41712D01*
X154990Y41627D01*
X155056Y41551D01*
X155068Y41535D01*
X155078Y41527D01*
X155096Y41506D01*
X166307Y30295D01*
X166307Y18064D01*
X166320Y17966D01*
X166323Y17867D01*
X166339Y17808D01*
X166347Y17748D01*
X166384Y17656D01*
X166411Y17561D01*
X166442Y17509D01*
X166464Y17453D01*
X166522Y17373D01*
X166573Y17287D01*
X166639Y17212D01*
X166651Y17195D01*
X166660Y17188D01*
X166679Y17166D01*
X167787Y16058D01*
X167787Y12517D01*
X165800Y10530D01*
X165715Y10420D01*
X165626Y10313D01*
X165618Y10295D01*
X165605Y10279D01*
X165550Y10151D01*
X165491Y10025D01*
X165487Y10006D01*
X165479Y9987D01*
X165457Y9849D01*
X165431Y9713D01*
X165432Y9693D01*
X165429Y9673D01*
X165442Y9534D01*
X165451Y9396D01*
X165457Y9376D01*
X165459Y9356D01*
X165506Y9225D01*
X165549Y9093D01*
X165560Y9076D01*
X165567Y9057D01*
X165645Y8942D01*
X165719Y8824D01*
X165734Y8810D01*
X165745Y8794D01*
X165849Y8702D01*
X165951Y8606D01*
X165968Y8597D01*
X165984Y8583D01*
X166108Y8520D01*
X166229Y8453D01*
X166249Y8448D01*
X166267Y8439D01*
X166403Y8408D01*
X166537Y8373D01*
X166565Y8372D01*
X166577Y8369D01*
X166598Y8370D01*
X166698Y8363D01*
X167398Y8363D01*
X167496Y8376D01*
X167595Y8379D01*
X167653Y8395D01*
X167713Y8403D01*
X167805Y8440D01*
X167900Y8467D01*
X167953Y8498D01*
X168009Y8520D01*
X168089Y8578D01*
X168174Y8629D01*
X168250Y8695D01*
X168266Y8707D01*
X168274Y8716D01*
X168295Y8735D01*
X182310Y22750D01*
X182370Y22828D01*
X182438Y22900D01*
X182468Y22953D01*
X182505Y23001D01*
X182544Y23092D01*
X182592Y23178D01*
X182607Y23237D01*
X182631Y23293D01*
X182647Y23391D01*
X182671Y23486D01*
X182678Y23586D01*
X182681Y23607D01*
X182680Y23619D01*
X182682Y23647D01*
X182682Y27507D01*
X183575Y28400D01*
X195838Y28400D01*
X196731Y27507D01*
X196731Y24701D01*
X196746Y24583D01*
X196753Y24465D01*
X196766Y24426D01*
X196771Y24386D01*
X196815Y24275D01*
X196851Y24162D01*
X196873Y24128D01*
X196888Y24090D01*
X196958Y23994D01*
X197021Y23893D01*
X197051Y23866D01*
X197075Y23833D01*
X197166Y23757D01*
X197253Y23675D01*
X197289Y23656D01*
X197320Y23630D01*
X197427Y23579D01*
X197532Y23522D01*
X197571Y23512D01*
X197607Y23495D01*
X197724Y23472D01*
X197840Y23442D01*
X197900Y23439D01*
X197920Y23435D01*
X197940Y23436D01*
X198000Y23432D01*
X198342Y23432D01*
X198440Y23445D01*
X198539Y23448D01*
X198597Y23464D01*
X198657Y23472D01*
X198749Y23509D01*
X198844Y23536D01*
X198897Y23567D01*
X198953Y23589D01*
X199033Y23647D01*
X199118Y23698D01*
X199194Y23764D01*
X199210Y23776D01*
X199218Y23785D01*
X199239Y23804D01*
X201729Y26293D01*
X201789Y26372D01*
X201857Y26444D01*
X201886Y26497D01*
X201923Y26545D01*
X201963Y26636D01*
X202011Y26722D01*
X202026Y26781D01*
X202050Y26836D01*
X202065Y26934D01*
X202090Y27030D01*
X202096Y27130D01*
X202100Y27151D01*
X202098Y27163D01*
X202100Y27191D01*
X202100Y28758D01*
X204604Y31262D01*
X208146Y31262D01*
X210650Y28758D01*
X210650Y25217D01*
X208146Y22713D01*
X206578Y22713D01*
X206480Y22700D01*
X206381Y22697D01*
X206323Y22681D01*
X206263Y22673D01*
X206171Y22636D01*
X206076Y22609D01*
X206023Y22578D01*
X205967Y22556D01*
X205887Y22498D01*
X205802Y22447D01*
X205726Y22381D01*
X205710Y22369D01*
X205702Y22360D01*
X205681Y22341D01*
X201183Y17843D01*
X198000Y17843D01*
X197882Y17828D01*
X197763Y17820D01*
X197725Y17808D01*
X197685Y17803D01*
X197574Y17759D01*
X197461Y17722D01*
X197427Y17701D01*
X197389Y17686D01*
X197293Y17616D01*
X197192Y17552D01*
X197164Y17523D01*
X197132Y17499D01*
X197056Y17407D01*
X196974Y17321D01*
X196955Y17285D01*
X196929Y17254D01*
X196878Y17146D01*
X196821Y17042D01*
X196811Y17003D01*
X196793Y16966D01*
X196771Y16850D01*
X196741Y16734D01*
X196737Y16674D01*
X196734Y16654D01*
X196735Y16634D01*
X196731Y16574D01*
X196731Y16244D01*
X195838Y15350D01*
X183341Y15350D01*
X183243Y15338D01*
X183144Y15335D01*
X183086Y15318D01*
X183025Y15311D01*
X182933Y15274D01*
X182838Y15247D01*
X182786Y15216D01*
X182730Y15194D01*
X182650Y15135D01*
X182564Y15085D01*
X182489Y15019D01*
X182472Y15007D01*
X182465Y14997D01*
X182444Y14979D01*
X180256Y12791D01*
X180171Y12682D01*
X180082Y12575D01*
X180074Y12556D01*
X180061Y12540D01*
X180006Y12412D01*
X179947Y12287D01*
X179943Y12267D01*
X179935Y12248D01*
X179913Y12110D01*
X179887Y11974D01*
X179888Y11954D01*
X179885Y11934D01*
X179898Y11795D01*
X179907Y11657D01*
X179913Y11638D01*
X179915Y11618D01*
X179962Y11486D01*
X180005Y11355D01*
X180016Y11337D01*
X180023Y11318D01*
X180101Y11203D01*
X180175Y11086D01*
X180190Y11072D01*
X180201Y11055D01*
X180305Y10963D01*
X180407Y10868D01*
X180424Y10858D01*
X180440Y10845D01*
X180563Y10781D01*
X180685Y10714D01*
X180705Y10709D01*
X180723Y10700D01*
X180859Y10670D01*
X180993Y10635D01*
X181021Y10633D01*
X181033Y10630D01*
X181054Y10631D01*
X181154Y10625D01*
X184333Y10625D01*
X186837Y8121D01*
X186837Y4579D01*
X184441Y2183D01*
X184356Y2073D01*
X184267Y1966D01*
X184258Y1948D01*
X184246Y1932D01*
X184190Y1804D01*
X184131Y1678D01*
X184128Y1659D01*
X184120Y1640D01*
X184098Y1502D01*
X184072Y1366D01*
X184073Y1346D01*
X184070Y1326D01*
X184083Y1187D01*
X184091Y1049D01*
X184098Y1029D01*
X184100Y1009D01*
X184147Y878D01*
X184189Y746D01*
X184200Y729D01*
X184207Y710D01*
X184285Y595D01*
X184360Y477D01*
X184374Y463D01*
X184386Y447D01*
X184490Y355D01*
X184591Y259D01*
X184609Y250D01*
X184624Y236D01*
X184748Y173D01*
X184870Y106D01*
X184889Y101D01*
X184907Y92D01*
X185043Y61D01*
X185178Y26D01*
X185206Y25D01*
X185218Y22D01*
X185238Y23D01*
X185338Y16D01*
X187508Y16D01*
X190012Y-2488D01*
X190012Y-6029D01*
X187508Y-8533D01*
X185941Y-8533D01*
X185843Y-8546D01*
X185744Y-8549D01*
X185685Y-8565D01*
X185625Y-8573D01*
X185533Y-8610D01*
X185438Y-8637D01*
X185386Y-8668D01*
X185330Y-8690D01*
X185250Y-8748D01*
X185164Y-8799D01*
X185089Y-8865D01*
X185072Y-8877D01*
X185065Y-8886D01*
X185043Y-8905D01*
X178007Y-15941D01*
X149589Y-15941D01*
X149471Y-15956D01*
X149353Y-15964D01*
X149314Y-15976D01*
X149274Y-15981D01*
X149163Y-16025D01*
X149050Y-16062D01*
X149016Y-16083D01*
X148978Y-16098D01*
X148882Y-16168D01*
X148781Y-16232D01*
X148754Y-16261D01*
X148721Y-16285D01*
X148645Y-16377D01*
X148563Y-16463D01*
X148544Y-16499D01*
X148518Y-16530D01*
X148467Y-16638D01*
X148410Y-16742D01*
X148400Y-16781D01*
X148383Y-16818D01*
X148360Y-16935D01*
X148330Y-17050D01*
X148327Y-17110D01*
X148323Y-17130D01*
X148324Y-17150D01*
X148320Y-17211D01*
X148320Y-27924D01*
X148334Y-28032D01*
X148339Y-28142D01*
X148357Y-28217D01*
X148360Y-28239D01*
X148366Y-28255D01*
X148377Y-28298D01*
X148537Y-28818D01*
X148467Y-28951D01*
X148443Y-29016D01*
X148410Y-29075D01*
X148387Y-29164D01*
X148355Y-29249D01*
X148348Y-29317D01*
X148330Y-29383D01*
X148320Y-29544D01*
X148320Y-29695D01*
X147935Y-30079D01*
X147868Y-30166D01*
X147794Y-30247D01*
X147754Y-30313D01*
X147740Y-30331D01*
X147734Y-30347D01*
X147710Y-30384D01*
X147434Y-30908D01*
X147410Y-30972D01*
X147377Y-31032D01*
X147361Y-31095D01*
X147350Y-31118D01*
X147344Y-31146D01*
X147322Y-31205D01*
X147315Y-31273D01*
X147297Y-31340D01*
X147293Y-31416D01*
X147290Y-31431D01*
X147291Y-31446D01*
X147287Y-31500D01*
X147287Y-35794D01*
X146394Y-36687D01*
X134131Y-36687D01*
X133238Y-35794D01*
X133238Y-24701D01*
X133223Y-24583D01*
X133215Y-24465D01*
X133203Y-24426D01*
X133198Y-24386D01*
X133154Y-24275D01*
X133117Y-24162D01*
X133096Y-24128D01*
X133081Y-24090D01*
X133011Y-23994D01*
X132947Y-23893D01*
X132918Y-23866D01*
X132894Y-23833D01*
X132802Y-23757D01*
X132716Y-23675D01*
X132680Y-23656D01*
X132649Y-23630D01*
X132541Y-23579D01*
X132437Y-23522D01*
X132398Y-23512D01*
X132361Y-23495D01*
X132245Y-23472D01*
X132129Y-23442D01*
X132069Y-23439D01*
X132049Y-23435D01*
X132029Y-23436D01*
X131969Y-23432D01*
X90917Y-23432D01*
X82930Y-15445D01*
X82930Y31654D01*
X82918Y31752D01*
X82915Y31851D01*
X82898Y31910D01*
X82890Y31970D01*
X82854Y32062D01*
X82826Y32157D01*
X82796Y32209D01*
X82773Y32265D01*
X82715Y32345D01*
X82665Y32431D01*
X82599Y32506D01*
X82587Y32523D01*
X82577Y32530D01*
X82559Y32552D01*
X69031Y46079D01*
X68937Y46153D01*
X68847Y46231D01*
X68811Y46250D01*
X68779Y46274D01*
X68670Y46322D01*
X68564Y46376D01*
X68525Y46385D01*
X68488Y46401D01*
X68370Y46419D01*
X68254Y46445D01*
X68214Y46444D01*
X68174Y46451D01*
X68055Y46439D01*
X67936Y46436D01*
X67897Y46425D01*
X67857Y46421D01*
X67745Y46380D01*
X67630Y46347D01*
X67596Y46327D01*
X67558Y46313D01*
X67459Y46246D01*
X67357Y46186D01*
X67311Y46146D01*
X67294Y46135D01*
X67281Y46119D01*
X67236Y46079D01*
X66519Y45363D01*
X57150Y45363D01*
X57032Y45348D01*
X56913Y45340D01*
X56875Y45328D01*
X56834Y45323D01*
X56724Y45279D01*
X56611Y45242D01*
X56576Y45221D01*
X56539Y45206D01*
X56443Y45136D01*
X56342Y45072D01*
X56314Y45043D01*
X56281Y45019D01*
X56206Y44927D01*
X56124Y44841D01*
X56104Y44805D01*
X56079Y44774D01*
X56028Y44666D01*
X55970Y44562D01*
X55960Y44523D01*
X55943Y44486D01*
X55921Y44370D01*
X55891Y44254D01*
X55887Y44194D01*
X55883Y44174D01*
X55885Y44154D01*
X55881Y44094D01*
X55881Y43219D01*
X55896Y43101D01*
X55903Y42982D01*
X55916Y42944D01*
X55921Y42903D01*
X55964Y42793D01*
X56001Y42680D01*
X56023Y42645D01*
X56038Y42608D01*
X56108Y42512D01*
X56171Y42411D01*
X56201Y42383D01*
X56224Y42350D01*
X56316Y42274D01*
X56403Y42193D01*
X56438Y42173D01*
X56469Y42148D01*
X56577Y42097D01*
X56681Y42039D01*
X56721Y42029D01*
X56757Y42012D01*
X56874Y41990D01*
X56989Y41960D01*
X57050Y41956D01*
X57070Y41952D01*
X57090Y41954D01*
X57150Y41950D01*
X66519Y41950D01*
X67412Y41057D01*
X67412Y28793D01*
X66666Y28048D01*
X66606Y27969D01*
X66538Y27897D01*
X66509Y27844D01*
X66472Y27796D01*
X66432Y27705D01*
X66384Y27619D01*
X66369Y27560D01*
X66345Y27505D01*
X66330Y27407D01*
X66305Y27311D01*
X66299Y27211D01*
X66295Y27190D01*
X66297Y27178D01*
X66295Y27150D01*
X66295Y25828D01*
X66307Y25730D01*
X66310Y25631D01*
X66327Y25573D01*
X66335Y25513D01*
X66371Y25421D01*
X66399Y25325D01*
X66429Y25273D01*
X66452Y25217D01*
X66510Y25137D01*
X66560Y25051D01*
X66626Y24976D01*
X66638Y24960D01*
X66648Y24952D01*
X66666Y24931D01*
X67972Y23625D01*
X68775Y21687D01*
X68775Y19588D01*
X67972Y17650D01*
X66488Y16166D01*
X64549Y15363D01*
X62451Y15363D01*
X60512Y16166D01*
X59028Y17650D01*
X58323Y19353D01*
X58288Y19414D01*
X58262Y19479D01*
X58210Y19551D01*
X58165Y19629D01*
X58117Y19680D01*
X58076Y19736D01*
X58006Y19793D01*
X57944Y19858D01*
X57884Y19894D01*
X57831Y19939D01*
X57749Y19977D01*
X57673Y20024D01*
X57606Y20045D01*
X57543Y20074D01*
X57455Y20091D01*
X57369Y20118D01*
X57299Y20121D01*
X57231Y20134D01*
X57141Y20129D01*
X57051Y20133D01*
X56983Y20119D01*
X56913Y20114D01*
X56828Y20087D01*
X56740Y20069D01*
X56677Y20038D01*
X56611Y20016D01*
X56535Y19968D01*
X56454Y19929D01*
X56401Y19884D01*
X56342Y19846D01*
X56280Y19781D01*
X56212Y19723D01*
X56172Y19665D01*
X56124Y19615D01*
X56081Y19536D01*
X56029Y19462D01*
X56004Y19397D01*
X55970Y19336D01*
X55948Y19249D01*
X55916Y19165D01*
X55908Y19096D01*
X55891Y19028D01*
X55881Y18867D01*
X55881Y-29498D01*
X55894Y-29602D01*
X55898Y-29708D01*
X55914Y-29760D01*
X55921Y-29813D01*
X55959Y-29911D01*
X55990Y-30013D01*
X56018Y-30059D01*
X56038Y-30109D01*
X56100Y-30194D01*
X56154Y-30285D01*
X56193Y-30323D01*
X56224Y-30366D01*
X56306Y-30434D01*
X56381Y-30508D01*
X56453Y-30555D01*
X56469Y-30569D01*
X56483Y-30576D01*
X56515Y-30597D01*
X150140Y-84650D01*
X150238Y-84691D01*
X150331Y-84740D01*
X150384Y-84752D01*
X150434Y-84773D01*
X150538Y-84788D01*
X150641Y-84813D01*
X150695Y-84812D01*
X150748Y-84819D01*
X150853Y-84808D01*
G37*
G36*
X52506Y-20304D02*
X52506Y-20304D01*
X52624Y-20297D01*
X52663Y-20284D01*
X52703Y-20279D01*
X52814Y-20236D01*
X52927Y-20199D01*
X52961Y-20177D01*
X52999Y-20162D01*
X53095Y-20093D01*
X53196Y-20029D01*
X53223Y-19999D01*
X53256Y-19976D01*
X53332Y-19884D01*
X53414Y-19797D01*
X53433Y-19762D01*
X53459Y-19731D01*
X53510Y-19623D01*
X53567Y-19519D01*
X53577Y-19479D01*
X53594Y-19443D01*
X53617Y-19326D01*
X53647Y-19211D01*
X53650Y-19151D01*
X53654Y-19131D01*
X53653Y-19110D01*
X53657Y-19050D01*
X53657Y90686D01*
X53644Y90785D01*
X53641Y90883D01*
X53625Y90942D01*
X53617Y91002D01*
X53581Y91094D01*
X53553Y91189D01*
X53522Y91241D01*
X53500Y91297D01*
X53442Y91377D01*
X53391Y91463D01*
X53325Y91538D01*
X53313Y91555D01*
X53304Y91563D01*
X53285Y91584D01*
X53225Y91643D01*
X53225Y99981D01*
X53210Y100099D01*
X53203Y100218D01*
X53190Y100256D01*
X53185Y100297D01*
X53142Y100407D01*
X53105Y100520D01*
X53083Y100555D01*
X53068Y100592D01*
X52999Y100688D01*
X52935Y100789D01*
X52905Y100817D01*
X52882Y100850D01*
X52790Y100926D01*
X52703Y101007D01*
X52668Y101027D01*
X52637Y101052D01*
X52529Y101103D01*
X52425Y101161D01*
X52385Y101171D01*
X52349Y101188D01*
X52232Y101210D01*
X52117Y101240D01*
X52057Y101244D01*
X52037Y101248D01*
X52016Y101246D01*
X51956Y101250D01*
X43554Y101250D01*
X43472Y101272D01*
X43372Y101278D01*
X43352Y101281D01*
X43340Y101280D01*
X43311Y101282D01*
X-22801Y101282D01*
X-22801Y182210D01*
X-22816Y182328D01*
X-22823Y182447D01*
X-22836Y182485D01*
X-22841Y182525D01*
X-22885Y182636D01*
X-22921Y182749D01*
X-22943Y182783D01*
X-22958Y182821D01*
X-23028Y182917D01*
X-23092Y183018D01*
X-23121Y183046D01*
X-23145Y183078D01*
X-23237Y183154D01*
X-23323Y183236D01*
X-23359Y183255D01*
X-23390Y183281D01*
X-23497Y183332D01*
X-23602Y183389D01*
X-23641Y183400D01*
X-23677Y183417D01*
X-23794Y183439D01*
X-23910Y183469D01*
X-23970Y183473D01*
X-23990Y183477D01*
X-24010Y183475D01*
X-24070Y183479D01*
X-34060Y183479D01*
X-34178Y183464D01*
X-34297Y183457D01*
X-34335Y183444D01*
X-34376Y183439D01*
X-34486Y183395D01*
X-34599Y183359D01*
X-34634Y183337D01*
X-34671Y183322D01*
X-34767Y183252D01*
X-34868Y183189D01*
X-34896Y183159D01*
X-34929Y183135D01*
X-35005Y183044D01*
X-35086Y182957D01*
X-35106Y182922D01*
X-35131Y182890D01*
X-35182Y182783D01*
X-35240Y182678D01*
X-35250Y182639D01*
X-35267Y182603D01*
X-35289Y182486D01*
X-35319Y182371D01*
X-35323Y182310D01*
X-35327Y182290D01*
X-35325Y182270D01*
X-35329Y182210D01*
X-35329Y66072D01*
X-37216Y64185D01*
X-37277Y64107D01*
X-37345Y64035D01*
X-37374Y63982D01*
X-37411Y63934D01*
X-37450Y63843D01*
X-37498Y63756D01*
X-37513Y63698D01*
X-37537Y63642D01*
X-37553Y63544D01*
X-37578Y63448D01*
X-37584Y63348D01*
X-37587Y63328D01*
X-37586Y63316D01*
X-37588Y63288D01*
X-37588Y62451D01*
X-38391Y60512D01*
X-39875Y59028D01*
X-41813Y58225D01*
X-43912Y58225D01*
X-45850Y59028D01*
X-47334Y60512D01*
X-48137Y62451D01*
X-48137Y64549D01*
X-47337Y66480D01*
X-47306Y66595D01*
X-47267Y66708D01*
X-47264Y66748D01*
X-47253Y66787D01*
X-47252Y66906D01*
X-47242Y67025D01*
X-47249Y67064D01*
X-47248Y67105D01*
X-47276Y67221D01*
X-47297Y67338D01*
X-47313Y67375D01*
X-47323Y67414D01*
X-47378Y67520D01*
X-47427Y67628D01*
X-47452Y67660D01*
X-47471Y67695D01*
X-47551Y67783D01*
X-47626Y67876D01*
X-47658Y67901D01*
X-47685Y67931D01*
X-47785Y67996D01*
X-47880Y68068D01*
X-47934Y68094D01*
X-47951Y68105D01*
X-47970Y68112D01*
X-48024Y68139D01*
X-49025Y68553D01*
X-50509Y70037D01*
X-51312Y71976D01*
X-51312Y74074D01*
X-50509Y76013D01*
X-49025Y77497D01*
X-48282Y77805D01*
X-48257Y77819D01*
X-48229Y77828D01*
X-48119Y77898D01*
X-48006Y77962D01*
X-47985Y77983D01*
X-47960Y77998D01*
X-47871Y78093D01*
X-47778Y78183D01*
X-47762Y78209D01*
X-47742Y78230D01*
X-47679Y78344D01*
X-47611Y78454D01*
X-47603Y78483D01*
X-47588Y78509D01*
X-47556Y78634D01*
X-47518Y78758D01*
X-47516Y78788D01*
X-47509Y78816D01*
X-47499Y78977D01*
X-47499Y176149D01*
X-47511Y176247D01*
X-47514Y176346D01*
X-47531Y176404D01*
X-47539Y176464D01*
X-47575Y176557D01*
X-47603Y176652D01*
X-47633Y176704D01*
X-47656Y176760D01*
X-47714Y176840D01*
X-47764Y176926D01*
X-47830Y177001D01*
X-47842Y177017D01*
X-47852Y177025D01*
X-47870Y177046D01*
X-53931Y183107D01*
X-54010Y183168D01*
X-54082Y183236D01*
X-54135Y183265D01*
X-54183Y183302D01*
X-54274Y183342D01*
X-54360Y183389D01*
X-54419Y183405D01*
X-54475Y183429D01*
X-54572Y183444D01*
X-54668Y183469D01*
X-54768Y183475D01*
X-54789Y183478D01*
X-54801Y183477D01*
X-54829Y183479D01*
X-64735Y183479D01*
X-64853Y183464D01*
X-64972Y183457D01*
X-65010Y183444D01*
X-65050Y183439D01*
X-65161Y183395D01*
X-65274Y183359D01*
X-65308Y183337D01*
X-65346Y183322D01*
X-65442Y183252D01*
X-65543Y183189D01*
X-65571Y183159D01*
X-65603Y183135D01*
X-65679Y183044D01*
X-65761Y182957D01*
X-65780Y182922D01*
X-65806Y182890D01*
X-65857Y182783D01*
X-65914Y182678D01*
X-65925Y182639D01*
X-65942Y182603D01*
X-65964Y182486D01*
X-65994Y182371D01*
X-65998Y182310D01*
X-66002Y182290D01*
X-66000Y182270D01*
X-66004Y182210D01*
X-66004Y123507D01*
X-66274Y123507D01*
X-66411Y123489D01*
X-66550Y123476D01*
X-66569Y123469D01*
X-66589Y123467D01*
X-66718Y123416D01*
X-66849Y123369D01*
X-66866Y123357D01*
X-66885Y123350D01*
X-66997Y123268D01*
X-67112Y123190D01*
X-67126Y123175D01*
X-67142Y123163D01*
X-67231Y123056D01*
X-67323Y122952D01*
X-67332Y122934D01*
X-67345Y122918D01*
X-67404Y122792D01*
X-67468Y122668D01*
X-67472Y122649D01*
X-67481Y122630D01*
X-67507Y122494D01*
X-67537Y122358D01*
X-67537Y122338D01*
X-67540Y122318D01*
X-67532Y122180D01*
X-67528Y122040D01*
X-67522Y122021D01*
X-67521Y122001D01*
X-67478Y121868D01*
X-67439Y121735D01*
X-67429Y121717D01*
X-67423Y121698D01*
X-67348Y121581D01*
X-67278Y121461D01*
X-67259Y121440D01*
X-67252Y121429D01*
X-67238Y121415D01*
X-67171Y121340D01*
X-65913Y120082D01*
X-65913Y110818D01*
X-66806Y109925D01*
X-76069Y109925D01*
X-76962Y110818D01*
X-76962Y116137D01*
X-76975Y116236D01*
X-76978Y116335D01*
X-76994Y116393D01*
X-77002Y116453D01*
X-77039Y116545D01*
X-77066Y116640D01*
X-77097Y116692D01*
X-77119Y116749D01*
X-77177Y116829D01*
X-77228Y116914D01*
X-77294Y116989D01*
X-77306Y117006D01*
X-77315Y117014D01*
X-77334Y117035D01*
X-83434Y123135D01*
X-83512Y123196D01*
X-83584Y123264D01*
X-83637Y123293D01*
X-83685Y123330D01*
X-83776Y123369D01*
X-83863Y123417D01*
X-83921Y123432D01*
X-83977Y123456D01*
X-84075Y123472D01*
X-84171Y123497D01*
X-84271Y123503D01*
X-84291Y123506D01*
X-84304Y123505D01*
X-84332Y123507D01*
X-86787Y123507D01*
X-87643Y124363D01*
X-87646Y124388D01*
X-87653Y124506D01*
X-87666Y124545D01*
X-87671Y124585D01*
X-87714Y124696D01*
X-87751Y124809D01*
X-87773Y124843D01*
X-87788Y124881D01*
X-87858Y124977D01*
X-87921Y125078D01*
X-87951Y125105D01*
X-87974Y125138D01*
X-88066Y125214D01*
X-88153Y125296D01*
X-88188Y125315D01*
X-88219Y125341D01*
X-88327Y125392D01*
X-88431Y125449D01*
X-88471Y125459D01*
X-88507Y125476D01*
X-88624Y125499D01*
X-88739Y125529D01*
X-88800Y125532D01*
X-88820Y125536D01*
X-88840Y125535D01*
X-88900Y125539D01*
X-106015Y125539D01*
X-106113Y125526D01*
X-106212Y125523D01*
X-106271Y125507D01*
X-106331Y125499D01*
X-106423Y125462D01*
X-106518Y125435D01*
X-106570Y125404D01*
X-106626Y125382D01*
X-106706Y125324D01*
X-106792Y125273D01*
X-106867Y125207D01*
X-106884Y125195D01*
X-106891Y125186D01*
X-106913Y125167D01*
X-107767Y124313D01*
X-111308Y124313D01*
X-113812Y126817D01*
X-113812Y130358D01*
X-111308Y132862D01*
X-107767Y132862D01*
X-106913Y132008D01*
X-106834Y131947D01*
X-106762Y131879D01*
X-106709Y131850D01*
X-106661Y131813D01*
X-106570Y131774D01*
X-106484Y131726D01*
X-106425Y131711D01*
X-106369Y131687D01*
X-106272Y131671D01*
X-106176Y131646D01*
X-106076Y131640D01*
X-106055Y131637D01*
X-106043Y131638D01*
X-106015Y131636D01*
X-88900Y131636D01*
X-88782Y131651D01*
X-88663Y131659D01*
X-88625Y131671D01*
X-88584Y131676D01*
X-88474Y131720D01*
X-88361Y131757D01*
X-88326Y131778D01*
X-88289Y131793D01*
X-88193Y131863D01*
X-88092Y131927D01*
X-88064Y131956D01*
X-88031Y131980D01*
X-87956Y132072D01*
X-87874Y132158D01*
X-87854Y132194D01*
X-87829Y132225D01*
X-87778Y132333D01*
X-87720Y132437D01*
X-87710Y132476D01*
X-87693Y132513D01*
X-87671Y132629D01*
X-87641Y132745D01*
X-87637Y132805D01*
X-87633Y132825D01*
X-87635Y132845D01*
X-87631Y132905D01*
X-87631Y139700D01*
X-87643Y139798D01*
X-87646Y139897D01*
X-87663Y139955D01*
X-87671Y140016D01*
X-87707Y140108D01*
X-87735Y140203D01*
X-87765Y140255D01*
X-87788Y140311D01*
X-87846Y140391D01*
X-87896Y140477D01*
X-87962Y140552D01*
X-87974Y140569D01*
X-87984Y140576D01*
X-88003Y140598D01*
X-126103Y178698D01*
X-126182Y178759D01*
X-126254Y178827D01*
X-126307Y178856D01*
X-126355Y178893D01*
X-126446Y178933D01*
X-126532Y178981D01*
X-126591Y178996D01*
X-126647Y179020D01*
X-126745Y179035D01*
X-126840Y179060D01*
X-126940Y179066D01*
X-126961Y179070D01*
X-126973Y179068D01*
X-127001Y179070D01*
X-199727Y179067D01*
X-199820Y179055D01*
X-199914Y179053D01*
X-199977Y179035D01*
X-200043Y179027D01*
X-200130Y178992D01*
X-200220Y178967D01*
X-200277Y178934D01*
X-200338Y178910D01*
X-200414Y178855D01*
X-200495Y178808D01*
X-200581Y178733D01*
X-200596Y178723D01*
X-200602Y178716D01*
X-200617Y178703D01*
X-227887Y151894D01*
X-232093Y156101D01*
X-232093Y160338D01*
X-232106Y160436D01*
X-232109Y160535D01*
X-232126Y160593D01*
X-232133Y160653D01*
X-232170Y160745D01*
X-232197Y160840D01*
X-232228Y160892D01*
X-232250Y160949D01*
X-232308Y161029D01*
X-232359Y161114D01*
X-232425Y161190D01*
X-232437Y161206D01*
X-232446Y161214D01*
X-232465Y161235D01*
X-237228Y165998D01*
X-237306Y166058D01*
X-237378Y166126D01*
X-237431Y166155D01*
X-237479Y166192D01*
X-237570Y166232D01*
X-237656Y166280D01*
X-237715Y166295D01*
X-237771Y166319D01*
X-237869Y166334D01*
X-237964Y166359D01*
X-238064Y166365D01*
X-238085Y166369D01*
X-238097Y166367D01*
X-238125Y166369D01*
X-246063Y166369D01*
X-246161Y166357D01*
X-246260Y166354D01*
X-246318Y166337D01*
X-246378Y166329D01*
X-246470Y166293D01*
X-246565Y166265D01*
X-246617Y166235D01*
X-246674Y166212D01*
X-246754Y166154D01*
X-246839Y166104D01*
X-246915Y166038D01*
X-246931Y166026D01*
X-246939Y166016D01*
X-246960Y165998D01*
X-267598Y145360D01*
X-267658Y145282D01*
X-267726Y145210D01*
X-267755Y145157D01*
X-267792Y145109D01*
X-267832Y145018D01*
X-267880Y144931D01*
X-267895Y144873D01*
X-267919Y144817D01*
X-267934Y144719D01*
X-267959Y144623D01*
X-267965Y144523D01*
X-267969Y144503D01*
X-267967Y144491D01*
X-267969Y144463D01*
X-267969Y141288D01*
X-267957Y141189D01*
X-267954Y141090D01*
X-267937Y141032D01*
X-267929Y140972D01*
X-267893Y140880D01*
X-267865Y140785D01*
X-267835Y140733D01*
X-267812Y140676D01*
X-267754Y140596D01*
X-267704Y140511D01*
X-267638Y140435D01*
X-267626Y140419D01*
X-267616Y140411D01*
X-267598Y140390D01*
X-246479Y119271D01*
X-247459Y61934D01*
X-247445Y61805D01*
X-247437Y61676D01*
X-247428Y61647D01*
X-247425Y61618D01*
X-247379Y61496D01*
X-247339Y61373D01*
X-247324Y61348D01*
X-247313Y61320D01*
X-247239Y61214D01*
X-247169Y61104D01*
X-247148Y61084D01*
X-247131Y61060D01*
X-247032Y60976D01*
X-246938Y60886D01*
X-246912Y60872D01*
X-246889Y60853D01*
X-246773Y60796D01*
X-246659Y60733D01*
X-246630Y60726D01*
X-246604Y60712D01*
X-246477Y60686D01*
X-246351Y60653D01*
X-246309Y60651D01*
X-246293Y60647D01*
X-246271Y60648D01*
X-246190Y60643D01*
X-219620Y60643D01*
X-219521Y60656D01*
X-219422Y60659D01*
X-219364Y60675D01*
X-219304Y60683D01*
X-219212Y60719D01*
X-219117Y60747D01*
X-219065Y60778D01*
X-219008Y60800D01*
X-218928Y60858D01*
X-218843Y60909D01*
X-218768Y60975D01*
X-218751Y60987D01*
X-218743Y60996D01*
X-218722Y61015D01*
X-217921Y61816D01*
X-217916Y61823D01*
X-217908Y61829D01*
X-217818Y61949D01*
X-217727Y62067D01*
X-217723Y62075D01*
X-217717Y62083D01*
X-217646Y62228D01*
X-217197Y63313D01*
X-215713Y64797D01*
X-213774Y65600D01*
X-211676Y65600D01*
X-209737Y64797D01*
X-208253Y63313D01*
X-207450Y61374D01*
X-207450Y59276D01*
X-208253Y57337D01*
X-209737Y55853D01*
X-211676Y55050D01*
X-213867Y55050D01*
X-213900Y55059D01*
X-213930Y55060D01*
X-213959Y55066D01*
X-214089Y55062D01*
X-214218Y55065D01*
X-214247Y55058D01*
X-214277Y55057D01*
X-214402Y55021D01*
X-214527Y54990D01*
X-214554Y54977D01*
X-214582Y54968D01*
X-214694Y54902D01*
X-214808Y54842D01*
X-214830Y54822D01*
X-214856Y54807D01*
X-214977Y54700D01*
X-216147Y53530D01*
X-246356Y53530D01*
X-246463Y53516D01*
X-246571Y53511D01*
X-246620Y53496D01*
X-246671Y53490D01*
X-246772Y53450D01*
X-246875Y53418D01*
X-246919Y53392D01*
X-246967Y53373D01*
X-247054Y53309D01*
X-247147Y53253D01*
X-247183Y53216D01*
X-247224Y53186D01*
X-247293Y53103D01*
X-247369Y53025D01*
X-247394Y52981D01*
X-247427Y52941D01*
X-247473Y52843D01*
X-247527Y52749D01*
X-247541Y52700D01*
X-247562Y52653D01*
X-247583Y52547D01*
X-247612Y52443D01*
X-247618Y52362D01*
X-247622Y52341D01*
X-247621Y52324D01*
X-247625Y52282D01*
X-248282Y13879D01*
X-248268Y13757D01*
X-248262Y13634D01*
X-248251Y13599D01*
X-248247Y13563D01*
X-248204Y13448D01*
X-248167Y13331D01*
X-248148Y13300D01*
X-248135Y13265D01*
X-248064Y13164D01*
X-248000Y13060D01*
X-247974Y13035D01*
X-247953Y13005D01*
X-247859Y12925D01*
X-247771Y12840D01*
X-247739Y12822D01*
X-247711Y12798D01*
X-247601Y12744D01*
X-247494Y12683D01*
X-247459Y12674D01*
X-247426Y12658D01*
X-247306Y12632D01*
X-247187Y12600D01*
X-247134Y12596D01*
X-247115Y12592D01*
X-247094Y12593D01*
X-247026Y12588D01*
X-202027Y12102D01*
X-201882Y12119D01*
X-201737Y12133D01*
X-201724Y12137D01*
X-201711Y12139D01*
X-201575Y12191D01*
X-201438Y12240D01*
X-201427Y12248D01*
X-201414Y12252D01*
X-201295Y12337D01*
X-201175Y12419D01*
X-201166Y12429D01*
X-201155Y12436D01*
X-201060Y12548D01*
X-200964Y12657D01*
X-200958Y12669D01*
X-200949Y12679D01*
X-200886Y12810D01*
X-200820Y12940D01*
X-200817Y12953D01*
X-200811Y12965D01*
X-200782Y13108D01*
X-200750Y13251D01*
X-200750Y13264D01*
X-200748Y13277D01*
X-200755Y13423D01*
X-200760Y13569D01*
X-200763Y13581D01*
X-200764Y13595D01*
X-200807Y13734D01*
X-200848Y13874D01*
X-200855Y13886D01*
X-200859Y13898D01*
X-200935Y14021D01*
X-201010Y14148D01*
X-201022Y14162D01*
X-201026Y14169D01*
X-201038Y14180D01*
X-201116Y14269D01*
X-201322Y14475D01*
X-202125Y16413D01*
X-202125Y18512D01*
X-201322Y20450D01*
X-199838Y21934D01*
X-197899Y22737D01*
X-195801Y22737D01*
X-193733Y21881D01*
X-193705Y21873D01*
X-193679Y21860D01*
X-193552Y21831D01*
X-193427Y21797D01*
X-193397Y21797D01*
X-193368Y21790D01*
X-193239Y21794D01*
X-193109Y21792D01*
X-193080Y21799D01*
X-193050Y21800D01*
X-192926Y21836D01*
X-192799Y21866D01*
X-192773Y21880D01*
X-192745Y21888D01*
X-192633Y21954D01*
X-192518Y22015D01*
X-192496Y22035D01*
X-192471Y22050D01*
X-192350Y22156D01*
X-191519Y22987D01*
X-182256Y22987D01*
X-181363Y22094D01*
X-181363Y13134D01*
X-181349Y13023D01*
X-181343Y12911D01*
X-181329Y12866D01*
X-181323Y12819D01*
X-181282Y12715D01*
X-181248Y12607D01*
X-181223Y12567D01*
X-181206Y12523D01*
X-181140Y12432D01*
X-181081Y12337D01*
X-181047Y12304D01*
X-181019Y12266D01*
X-180933Y12194D01*
X-180852Y12116D01*
X-180811Y12093D01*
X-180774Y12063D01*
X-180672Y12015D01*
X-180575Y11960D01*
X-180529Y11948D01*
X-180486Y11928D01*
X-180376Y11906D01*
X-180268Y11877D01*
X-180195Y11872D01*
X-180174Y11868D01*
X-180156Y11869D01*
X-180107Y11865D01*
X-178063Y11843D01*
X-172010Y5790D01*
X-171932Y5729D01*
X-171860Y5661D01*
X-171807Y5632D01*
X-171759Y5595D01*
X-171668Y5556D01*
X-171581Y5508D01*
X-171523Y5493D01*
X-171467Y5469D01*
X-171369Y5453D01*
X-171273Y5428D01*
X-171173Y5422D01*
X-171153Y5419D01*
X-171141Y5420D01*
X-171113Y5418D01*
X-150750Y5418D01*
X-150632Y5433D01*
X-150513Y5440D01*
X-150475Y5453D01*
X-150434Y5458D01*
X-150324Y5502D01*
X-150210Y5538D01*
X-150176Y5560D01*
X-150139Y5575D01*
X-150042Y5645D01*
X-149942Y5709D01*
X-149914Y5738D01*
X-149881Y5762D01*
X-149805Y5854D01*
X-149724Y5940D01*
X-149704Y5976D01*
X-149678Y6007D01*
X-149628Y6114D01*
X-149570Y6219D01*
X-149560Y6258D01*
X-149543Y6295D01*
X-149521Y6411D01*
X-149491Y6527D01*
X-149487Y6587D01*
X-149483Y6607D01*
X-149484Y6627D01*
X-149481Y6687D01*
X-149481Y20313D01*
X-135185Y34608D01*
X-88094Y34608D01*
X-87976Y34623D01*
X-87857Y34631D01*
X-87819Y34643D01*
X-87778Y34648D01*
X-87668Y34692D01*
X-87555Y34729D01*
X-87520Y34750D01*
X-87483Y34765D01*
X-87387Y34835D01*
X-87286Y34899D01*
X-87258Y34928D01*
X-87225Y34952D01*
X-87149Y35044D01*
X-87068Y35130D01*
X-87048Y35166D01*
X-87023Y35197D01*
X-86972Y35305D01*
X-86914Y35409D01*
X-86904Y35448D01*
X-86887Y35485D01*
X-86865Y35601D01*
X-86835Y35717D01*
X-86831Y35777D01*
X-86827Y35797D01*
X-86829Y35817D01*
X-86825Y35877D01*
X-86825Y39871D01*
X-85408Y41287D01*
X-85347Y41366D01*
X-85279Y41438D01*
X-85250Y41491D01*
X-85213Y41539D01*
X-85174Y41630D01*
X-85126Y41716D01*
X-85111Y41775D01*
X-85087Y41831D01*
X-85071Y41928D01*
X-85046Y42024D01*
X-85040Y42124D01*
X-85037Y42145D01*
X-85038Y42157D01*
X-85036Y42185D01*
X-85036Y44249D01*
X-85049Y44347D01*
X-85052Y44446D01*
X-85068Y44504D01*
X-85076Y44564D01*
X-85113Y44657D01*
X-85140Y44752D01*
X-85171Y44804D01*
X-85193Y44860D01*
X-85251Y44940D01*
X-85302Y45026D01*
X-85368Y45101D01*
X-85380Y45117D01*
X-85389Y45125D01*
X-85408Y45146D01*
X-88928Y48666D01*
X-89006Y48727D01*
X-89078Y48795D01*
X-89131Y48824D01*
X-89179Y48861D01*
X-89270Y48900D01*
X-89356Y48948D01*
X-89415Y48963D01*
X-89471Y48987D01*
X-89569Y49003D01*
X-89664Y49028D01*
X-89764Y49034D01*
X-89785Y49037D01*
X-89797Y49036D01*
X-89825Y49038D01*
X-97644Y49038D01*
X-98537Y49931D01*
X-98537Y61517D01*
X-98544Y61568D01*
X-98541Y61618D01*
X-98563Y61725D01*
X-98577Y61833D01*
X-98596Y61880D01*
X-98606Y61930D01*
X-98654Y62027D01*
X-98694Y62128D01*
X-98724Y62169D01*
X-98746Y62215D01*
X-98843Y62344D01*
X-120327Y87380D01*
X-120442Y87484D01*
X-120556Y87589D01*
X-120559Y87591D01*
X-120563Y87593D01*
X-120700Y87666D01*
X-120836Y87739D01*
X-120840Y87740D01*
X-120844Y87742D01*
X-120995Y87777D01*
X-121145Y87814D01*
X-121151Y87815D01*
X-121153Y87815D01*
X-121161Y87815D01*
X-121306Y87823D01*
X-183666Y87054D01*
X-183756Y87041D01*
X-183847Y87039D01*
X-183913Y87020D01*
X-183981Y87010D01*
X-184065Y86976D01*
X-184153Y86950D01*
X-184212Y86915D01*
X-184275Y86889D01*
X-184348Y86835D01*
X-184427Y86789D01*
X-184517Y86709D01*
X-184530Y86699D01*
X-184535Y86693D01*
X-184548Y86682D01*
X-189887Y81343D01*
X-197463Y81343D01*
X-202820Y86700D01*
X-202820Y94275D01*
X-197463Y99632D01*
X-189887Y99632D01*
X-184792Y94537D01*
X-184707Y94471D01*
X-184629Y94399D01*
X-184582Y94374D01*
X-184541Y94342D01*
X-184442Y94299D01*
X-184348Y94249D01*
X-184297Y94237D01*
X-184249Y94216D01*
X-184143Y94199D01*
X-184039Y94173D01*
X-183956Y94169D01*
X-183935Y94166D01*
X-183919Y94167D01*
X-183879Y94165D01*
X-120892Y94942D01*
X-120850Y94948D01*
X-120807Y94946D01*
X-120693Y94969D01*
X-120577Y94985D01*
X-120538Y95002D01*
X-120496Y95010D01*
X-120391Y95062D01*
X-120368Y95071D01*
X-119038Y94969D01*
X-119017Y94971D01*
X-118926Y94966D01*
X-117606Y94982D01*
X-117573Y94968D01*
X-117537Y94945D01*
X-117427Y94907D01*
X-117405Y94898D01*
X-116536Y93885D01*
X-116520Y93871D01*
X-116459Y93803D01*
X-115514Y92882D01*
X-115501Y92849D01*
X-115492Y92807D01*
X-115441Y92702D01*
X-115396Y92594D01*
X-115371Y92560D01*
X-115352Y92521D01*
X-115255Y92393D01*
X-89630Y62530D01*
X-89520Y62431D01*
X-89413Y62330D01*
X-89403Y62325D01*
X-89394Y62316D01*
X-89264Y62248D01*
X-89135Y62177D01*
X-89123Y62174D01*
X-89112Y62168D01*
X-88969Y62134D01*
X-88827Y62097D01*
X-88811Y62096D01*
X-88803Y62095D01*
X-88787Y62095D01*
X-88666Y62087D01*
X-85381Y62087D01*
X-84488Y61194D01*
X-84488Y53375D01*
X-84475Y53277D01*
X-84472Y53178D01*
X-84456Y53120D01*
X-84448Y53060D01*
X-84411Y52967D01*
X-84384Y52872D01*
X-84353Y52820D01*
X-84331Y52764D01*
X-84273Y52684D01*
X-84222Y52598D01*
X-84156Y52523D01*
X-84144Y52507D01*
X-84135Y52499D01*
X-84116Y52478D01*
X-78939Y47300D01*
X-78939Y41060D01*
X-78926Y40962D01*
X-78923Y40863D01*
X-78907Y40804D01*
X-78899Y40744D01*
X-78862Y40652D01*
X-78835Y40557D01*
X-78804Y40505D01*
X-78782Y40449D01*
X-78724Y40369D01*
X-78673Y40283D01*
X-78607Y40208D01*
X-78595Y40191D01*
X-78586Y40184D01*
X-78567Y40162D01*
X-78275Y39871D01*
X-78275Y35877D01*
X-78260Y35759D01*
X-78253Y35641D01*
X-78240Y35602D01*
X-78235Y35562D01*
X-78192Y35451D01*
X-78155Y35338D01*
X-78133Y35304D01*
X-78118Y35266D01*
X-78049Y35170D01*
X-77985Y35069D01*
X-77955Y35042D01*
X-77932Y35009D01*
X-77840Y34933D01*
X-77753Y34851D01*
X-77718Y34832D01*
X-77687Y34806D01*
X-77579Y34755D01*
X-77475Y34698D01*
X-77435Y34688D01*
X-77399Y34671D01*
X-77282Y34648D01*
X-77167Y34618D01*
X-77107Y34615D01*
X-77087Y34611D01*
X-77066Y34612D01*
X-77006Y34608D01*
X-32704Y34608D01*
X-32606Y34621D01*
X-32507Y34624D01*
X-32449Y34640D01*
X-32389Y34648D01*
X-32296Y34685D01*
X-32201Y34712D01*
X-32149Y34743D01*
X-32093Y34765D01*
X-32013Y34823D01*
X-31927Y34874D01*
X-31852Y34940D01*
X-31836Y34952D01*
X-31828Y34961D01*
X-31807Y34980D01*
X6112Y72899D01*
X36094Y72899D01*
X36212Y72914D01*
X36330Y72921D01*
X36369Y72934D01*
X36409Y72939D01*
X36520Y72982D01*
X36633Y73019D01*
X36667Y73041D01*
X36705Y73056D01*
X36801Y73125D01*
X36902Y73189D01*
X36929Y73219D01*
X36962Y73242D01*
X37038Y73334D01*
X37120Y73421D01*
X37139Y73456D01*
X37165Y73487D01*
X37216Y73595D01*
X37273Y73699D01*
X37283Y73739D01*
X37300Y73775D01*
X37323Y73892D01*
X37353Y74007D01*
X37356Y74067D01*
X37360Y74087D01*
X37359Y74108D01*
X37363Y74168D01*
X37363Y75982D01*
X38256Y76875D01*
X49519Y76875D01*
X50412Y75982D01*
X50412Y63718D01*
X49519Y62825D01*
X38256Y62825D01*
X37363Y63718D01*
X37363Y65532D01*
X37348Y65650D01*
X37340Y65769D01*
X37328Y65807D01*
X37323Y65848D01*
X37279Y65958D01*
X37242Y66071D01*
X37221Y66106D01*
X37206Y66143D01*
X37136Y66239D01*
X37072Y66340D01*
X37043Y66368D01*
X37019Y66401D01*
X36927Y66477D01*
X36841Y66558D01*
X36805Y66578D01*
X36774Y66603D01*
X36666Y66654D01*
X36562Y66712D01*
X36523Y66722D01*
X36486Y66739D01*
X36370Y66761D01*
X36254Y66791D01*
X36194Y66795D01*
X36174Y66799D01*
X36154Y66797D01*
X36094Y66801D01*
X9164Y66801D01*
X9065Y66789D01*
X8966Y66786D01*
X8908Y66769D01*
X8848Y66761D01*
X8756Y66725D01*
X8661Y66697D01*
X8609Y66667D01*
X8552Y66644D01*
X8472Y66586D01*
X8387Y66536D01*
X8312Y66470D01*
X8295Y66458D01*
X8287Y66448D01*
X8266Y66430D01*
X-27495Y30668D01*
X-29653Y28511D01*
X-132134Y28511D01*
X-132232Y28498D01*
X-132331Y28495D01*
X-132389Y28479D01*
X-132449Y28471D01*
X-132541Y28435D01*
X-132636Y28407D01*
X-132689Y28376D01*
X-132745Y28354D01*
X-132825Y28296D01*
X-132910Y28245D01*
X-132986Y28179D01*
X-133002Y28167D01*
X-133010Y28158D01*
X-133031Y28139D01*
X-133730Y27440D01*
X-133815Y27331D01*
X-133904Y27224D01*
X-133912Y27205D01*
X-133925Y27189D01*
X-133980Y27061D01*
X-134039Y26936D01*
X-134043Y26916D01*
X-134051Y26897D01*
X-134073Y26759D01*
X-134099Y26623D01*
X-134098Y26603D01*
X-134101Y26583D01*
X-134088Y26444D01*
X-134079Y26306D01*
X-134073Y26287D01*
X-134071Y26267D01*
X-134024Y26136D01*
X-133981Y26004D01*
X-133970Y25986D01*
X-133964Y25967D01*
X-133886Y25853D01*
X-133811Y25735D01*
X-133796Y25721D01*
X-133785Y25704D01*
X-133681Y25612D01*
X-133579Y25517D01*
X-133562Y25507D01*
X-133547Y25494D01*
X-133423Y25431D01*
X-133301Y25363D01*
X-133281Y25358D01*
X-133263Y25349D01*
X-133127Y25319D01*
X-132993Y25284D01*
X-132965Y25282D01*
X-132953Y25279D01*
X-132933Y25280D01*
X-132832Y25274D01*
X-21401Y25274D01*
X-21303Y25286D01*
X-21204Y25289D01*
X-21146Y25306D01*
X-21086Y25314D01*
X-20993Y25350D01*
X-20898Y25378D01*
X-20846Y25408D01*
X-20790Y25431D01*
X-20710Y25489D01*
X-20624Y25539D01*
X-20549Y25605D01*
X-20532Y25617D01*
X-20525Y25627D01*
X-20504Y25645D01*
X9287Y55436D01*
X36094Y55436D01*
X36212Y55451D01*
X36330Y55459D01*
X36369Y55471D01*
X36409Y55476D01*
X36520Y55520D01*
X36633Y55557D01*
X36667Y55578D01*
X36705Y55593D01*
X36801Y55663D01*
X36902Y55727D01*
X36929Y55756D01*
X36962Y55780D01*
X37038Y55872D01*
X37120Y55958D01*
X37139Y55994D01*
X37165Y56025D01*
X37216Y56133D01*
X37273Y56237D01*
X37283Y56276D01*
X37300Y56313D01*
X37323Y56429D01*
X37353Y56545D01*
X37356Y56605D01*
X37360Y56625D01*
X37359Y56645D01*
X37363Y56705D01*
X37363Y58519D01*
X38256Y59412D01*
X49519Y59412D01*
X50412Y58519D01*
X50412Y46256D01*
X49519Y45363D01*
X38256Y45363D01*
X37363Y46256D01*
X37363Y48070D01*
X37348Y48188D01*
X37340Y48306D01*
X37328Y48345D01*
X37323Y48385D01*
X37279Y48496D01*
X37242Y48609D01*
X37221Y48643D01*
X37206Y48681D01*
X37136Y48777D01*
X37072Y48878D01*
X37043Y48905D01*
X37019Y48938D01*
X36927Y49014D01*
X36841Y49096D01*
X36805Y49115D01*
X36774Y49141D01*
X36666Y49192D01*
X36562Y49249D01*
X36523Y49259D01*
X36486Y49276D01*
X36370Y49299D01*
X36254Y49329D01*
X36194Y49332D01*
X36174Y49336D01*
X36154Y49335D01*
X36094Y49339D01*
X12339Y49339D01*
X12240Y49326D01*
X12141Y49323D01*
X12083Y49307D01*
X12023Y49299D01*
X11931Y49262D01*
X11836Y49235D01*
X11784Y49204D01*
X11727Y49182D01*
X11647Y49124D01*
X11562Y49073D01*
X11487Y49007D01*
X11470Y48995D01*
X11462Y48986D01*
X11441Y48967D01*
X-8498Y29028D01*
X-8583Y28918D01*
X-8672Y28811D01*
X-8680Y28793D01*
X-8693Y28777D01*
X-8748Y28649D01*
X-8807Y28523D01*
X-8811Y28504D01*
X-8819Y28485D01*
X-8841Y28347D01*
X-8867Y28211D01*
X-8866Y28191D01*
X-8869Y28171D01*
X-8856Y28032D01*
X-8847Y27894D01*
X-8841Y27874D01*
X-8839Y27854D01*
X-8792Y27723D01*
X-8749Y27591D01*
X-8739Y27574D01*
X-8732Y27555D01*
X-8654Y27440D01*
X-8579Y27322D01*
X-8564Y27308D01*
X-8553Y27292D01*
X-8449Y27200D01*
X-8348Y27104D01*
X-8330Y27095D01*
X-8315Y27081D01*
X-8191Y27018D01*
X-8069Y26951D01*
X-8050Y26946D01*
X-8031Y26937D01*
X-7896Y26906D01*
X-7761Y26871D01*
X-7733Y26870D01*
X-7721Y26867D01*
X-7701Y26868D01*
X-7600Y26861D01*
X8761Y26861D01*
X8860Y26874D01*
X8959Y26877D01*
X9017Y26893D01*
X9077Y26901D01*
X9169Y26938D01*
X9264Y26965D01*
X9316Y26996D01*
X9373Y27018D01*
X9453Y27076D01*
X9538Y27127D01*
X9613Y27193D01*
X9630Y27205D01*
X9638Y27214D01*
X9659Y27233D01*
X20400Y37974D01*
X36094Y37974D01*
X36212Y37989D01*
X36330Y37996D01*
X36369Y38009D01*
X36409Y38014D01*
X36520Y38057D01*
X36633Y38094D01*
X36667Y38116D01*
X36705Y38131D01*
X36801Y38200D01*
X36902Y38264D01*
X36929Y38294D01*
X36962Y38317D01*
X37038Y38409D01*
X37120Y38496D01*
X37139Y38531D01*
X37165Y38562D01*
X37216Y38670D01*
X37273Y38774D01*
X37283Y38814D01*
X37300Y38850D01*
X37323Y38967D01*
X37353Y39082D01*
X37356Y39142D01*
X37360Y39162D01*
X37359Y39183D01*
X37363Y39243D01*
X37363Y41057D01*
X38256Y41950D01*
X49519Y41950D01*
X50412Y41057D01*
X50412Y28793D01*
X49519Y27900D01*
X38256Y27900D01*
X37363Y28793D01*
X37363Y30607D01*
X37348Y30725D01*
X37340Y30844D01*
X37328Y30882D01*
X37323Y30923D01*
X37279Y31033D01*
X37242Y31146D01*
X37221Y31181D01*
X37206Y31218D01*
X37136Y31314D01*
X37072Y31415D01*
X37043Y31443D01*
X37019Y31476D01*
X36927Y31552D01*
X36841Y31633D01*
X36805Y31653D01*
X36774Y31678D01*
X36666Y31729D01*
X36562Y31787D01*
X36523Y31797D01*
X36486Y31814D01*
X36370Y31836D01*
X36254Y31866D01*
X36194Y31870D01*
X36174Y31874D01*
X36154Y31872D01*
X36094Y31876D01*
X23451Y31876D01*
X23353Y31864D01*
X23254Y31861D01*
X23196Y31844D01*
X23136Y31836D01*
X23043Y31800D01*
X22948Y31772D01*
X22896Y31742D01*
X22840Y31719D01*
X22760Y31661D01*
X22674Y31611D01*
X22599Y31545D01*
X22583Y31533D01*
X22575Y31523D01*
X22554Y31505D01*
X13970Y22921D01*
X12193Y21144D01*
X12120Y21050D01*
X12042Y20961D01*
X12023Y20925D01*
X11998Y20893D01*
X11951Y20783D01*
X11897Y20678D01*
X11888Y20638D01*
X11872Y20601D01*
X11853Y20483D01*
X11827Y20367D01*
X11828Y20327D01*
X11822Y20287D01*
X11833Y20168D01*
X11837Y20050D01*
X11848Y20011D01*
X11852Y19970D01*
X11892Y19858D01*
X11925Y19744D01*
X11946Y19709D01*
X11960Y19671D01*
X12027Y19572D01*
X12087Y19470D01*
X12127Y19425D01*
X12138Y19408D01*
X12153Y19394D01*
X12193Y19349D01*
X24131Y7412D01*
X24131Y-3175D01*
X24143Y-3273D01*
X24146Y-3372D01*
X24163Y-3430D01*
X24171Y-3491D01*
X24207Y-3583D01*
X24235Y-3678D01*
X24265Y-3730D01*
X24288Y-3786D01*
X24346Y-3866D01*
X24396Y-3952D01*
X24462Y-4027D01*
X24474Y-4044D01*
X24484Y-4051D01*
X24503Y-4073D01*
X40378Y-19948D01*
X40456Y-20008D01*
X40528Y-20076D01*
X40581Y-20105D01*
X40629Y-20142D01*
X40720Y-20182D01*
X40806Y-20230D01*
X40865Y-20245D01*
X40921Y-20269D01*
X41019Y-20284D01*
X41114Y-20309D01*
X41214Y-20315D01*
X41235Y-20319D01*
X41247Y-20317D01*
X41275Y-20319D01*
X52388Y-20319D01*
X52506Y-20304D01*
G37*
G36*
X-149209Y-86377D02*
X-149209Y-86377D01*
X-149132Y-86378D01*
X-149108Y-86369D01*
X-149087Y-86367D01*
X-149048Y-86347D01*
X-148976Y-86320D01*
X-132476Y-76820D01*
X-132454Y-76801D01*
X-132428Y-76789D01*
X-132394Y-76751D01*
X-132391Y-76749D01*
X-132388Y-76745D01*
X-132380Y-76736D01*
X-132327Y-76689D01*
X-132314Y-76663D01*
X-132295Y-76641D01*
X-132272Y-76574D01*
X-132241Y-76509D01*
X-132240Y-76480D01*
X-132230Y-76453D01*
X-132235Y-76382D01*
X-132232Y-76311D01*
X-132242Y-76284D01*
X-132244Y-76255D01*
X-132286Y-76164D01*
X-132301Y-76124D01*
X-132308Y-76116D01*
X-132314Y-76104D01*
X-132734Y-75495D01*
X-100728Y-57017D01*
X-100670Y-56973D01*
X-100608Y-56939D01*
X-100544Y-56878D01*
X-100474Y-56825D01*
X-100430Y-56768D01*
X-100378Y-56719D01*
X-100331Y-56644D01*
X-100277Y-56575D01*
X-100247Y-56510D01*
X-100210Y-56449D01*
X-100183Y-56365D01*
X-100147Y-56285D01*
X-100135Y-56214D01*
X-100114Y-56146D01*
X-100109Y-56058D01*
X-100094Y-55971D01*
X-100100Y-55900D01*
X-100096Y-55828D01*
X-100113Y-55742D01*
X-100121Y-55654D01*
X-100144Y-55587D01*
X-100158Y-55517D01*
X-100218Y-55367D01*
X-100730Y-54304D01*
X-100732Y-54300D01*
X-100734Y-54296D01*
X-100818Y-54168D01*
X-100903Y-54037D01*
X-100906Y-54034D01*
X-100908Y-54030D01*
X-101022Y-53927D01*
X-101046Y-53905D01*
X-101238Y-53281D01*
X-101244Y-53268D01*
X-101247Y-53254D01*
X-101307Y-53105D01*
X-101586Y-52526D01*
X-101578Y-52492D01*
X-101578Y-52488D01*
X-101578Y-52484D01*
X-101585Y-52331D01*
X-101591Y-52174D01*
X-101592Y-52170D01*
X-101592Y-52166D01*
X-101630Y-52009D01*
X-102180Y-50222D01*
X-102182Y-50219D01*
X-102183Y-50215D01*
X-102248Y-50072D01*
X-102311Y-49933D01*
X-102314Y-49930D01*
X-102316Y-49926D01*
X-102414Y-49805D01*
X-102433Y-49781D01*
X-102530Y-49136D01*
X-102534Y-49122D01*
X-102535Y-49107D01*
X-102572Y-48951D01*
X-102761Y-48337D01*
X-102749Y-48304D01*
X-102748Y-48300D01*
X-102747Y-48296D01*
X-102735Y-48181D01*
X-102718Y-48092D01*
X-102721Y-48049D01*
X-102714Y-47988D01*
X-102715Y-47984D01*
X-102714Y-47980D01*
X-102728Y-47820D01*
X-103006Y-45971D01*
X-103007Y-45967D01*
X-103007Y-45963D01*
X-103050Y-45817D01*
X-103092Y-45665D01*
X-103094Y-45661D01*
X-103096Y-45657D01*
X-103173Y-45526D01*
X-103190Y-45496D01*
X-103190Y-44844D01*
X-103192Y-44829D01*
X-103190Y-44815D01*
X-103204Y-44655D01*
X-103299Y-44020D01*
X-103282Y-43989D01*
X-103281Y-43985D01*
X-103279Y-43982D01*
X-103241Y-43832D01*
X-103201Y-43682D01*
X-103201Y-43678D01*
X-103200Y-43674D01*
X-103189Y-43513D01*
X-103189Y-41643D01*
X-103189Y-41639D01*
X-103189Y-41635D01*
X-103207Y-41501D01*
X-103211Y-41428D01*
X-103219Y-41404D01*
X-103229Y-41328D01*
X-103230Y-41324D01*
X-103231Y-41320D01*
X-103289Y-41176D01*
X-103300Y-41147D01*
X-103203Y-40502D01*
X-103202Y-40487D01*
X-103199Y-40473D01*
X-103188Y-40312D01*
X-103188Y-39671D01*
X-103167Y-39643D01*
X-103165Y-39639D01*
X-103163Y-39636D01*
X-103102Y-39495D01*
X-103040Y-39351D01*
X-103040Y-39347D01*
X-103038Y-39343D01*
X-103004Y-39186D01*
X-102725Y-37337D01*
X-102725Y-37333D01*
X-102723Y-37329D01*
X-102721Y-37174D01*
X-102717Y-37019D01*
X-102718Y-37015D01*
X-102718Y-37011D01*
X-102754Y-36860D01*
X-102761Y-36830D01*
X-102568Y-36206D01*
X-102566Y-36192D01*
X-102560Y-36178D01*
X-102526Y-36021D01*
X-102430Y-35386D01*
X-102405Y-35362D01*
X-102402Y-35359D01*
X-102399Y-35356D01*
X-102318Y-35224D01*
X-102236Y-35093D01*
X-102235Y-35089D01*
X-102233Y-35085D01*
X-102175Y-34935D01*
X-101624Y-33148D01*
X-101623Y-33144D01*
X-101621Y-33140D01*
X-101596Y-32990D01*
X-101589Y-32949D01*
X-101572Y-32861D01*
X-101572Y-32855D01*
X-101569Y-32835D01*
X-101569Y-32831D01*
X-101568Y-32827D01*
X-101581Y-32676D01*
X-101584Y-32641D01*
X-101300Y-32053D01*
X-101296Y-32039D01*
X-101288Y-32027D01*
X-101242Y-31906D01*
X-101241Y-31904D01*
X-101241Y-31903D01*
X-101231Y-31876D01*
X-101042Y-31263D01*
X-101013Y-31243D01*
X-101010Y-31240D01*
X-101007Y-31237D01*
X-100904Y-31116D01*
X-100806Y-31001D01*
X-100804Y-30998D01*
X-100802Y-30995D01*
X-100723Y-30854D01*
X-99911Y-29170D01*
X-99910Y-29166D01*
X-99907Y-29162D01*
X-99858Y-29013D01*
X-99810Y-28868D01*
X-99810Y-28864D01*
X-99808Y-28860D01*
X-99798Y-28703D01*
X-99796Y-28674D01*
X-99428Y-28135D01*
X-99421Y-28122D01*
X-99412Y-28111D01*
X-99333Y-27971D01*
X-99054Y-27393D01*
X-99023Y-27377D01*
X-99020Y-27374D01*
X-99016Y-27373D01*
X-98899Y-27270D01*
X-98782Y-27169D01*
X-98780Y-27166D01*
X-98777Y-27163D01*
X-98678Y-27036D01*
X-97624Y-25491D01*
X-97622Y-25488D01*
X-97620Y-25485D01*
X-97550Y-25346D01*
X-97479Y-25208D01*
X-97478Y-25204D01*
X-97477Y-25201D01*
X-97443Y-25049D01*
X-97436Y-25019D01*
X-96993Y-24540D01*
X-96984Y-24529D01*
X-96973Y-24519D01*
X-96874Y-24392D01*
X-96679Y-24106D01*
X-96638Y-24026D01*
X-96588Y-23950D01*
X-96566Y-23885D01*
X-96534Y-23823D01*
X-96514Y-23735D01*
X-96485Y-23649D01*
X-96480Y-23580D01*
X-96464Y-23513D01*
X-96467Y-23422D01*
X-96460Y-23332D01*
X-96472Y-23264D01*
X-96474Y-23195D01*
X-96499Y-23108D01*
X-96514Y-23019D01*
X-96543Y-22956D01*
X-96562Y-22889D01*
X-96608Y-22812D01*
X-96645Y-22729D01*
X-96688Y-22675D01*
X-96723Y-22615D01*
X-96787Y-22551D01*
X-96843Y-22481D01*
X-96899Y-22439D01*
X-96947Y-22390D01*
X-97025Y-22344D01*
X-97097Y-22289D01*
X-97207Y-22235D01*
X-97221Y-22227D01*
X-97228Y-22225D01*
X-97242Y-22218D01*
X-98708Y-21611D01*
X-100192Y-20127D01*
X-100995Y-18189D01*
X-100995Y-16090D01*
X-100192Y-14151D01*
X-98708Y-12668D01*
X-96770Y-11865D01*
X-94671Y-11865D01*
X-92732Y-12668D01*
X-91249Y-14151D01*
X-90446Y-16090D01*
X-90446Y-16309D01*
X-90429Y-16440D01*
X-90425Y-16487D01*
X-90423Y-16517D01*
X-90422Y-16520D01*
X-90418Y-16572D01*
X-90409Y-16598D01*
X-90406Y-16625D01*
X-90357Y-16747D01*
X-90314Y-16872D01*
X-90299Y-16895D01*
X-90289Y-16920D01*
X-90211Y-17027D01*
X-90138Y-17138D01*
X-90118Y-17156D01*
X-90102Y-17178D01*
X-90000Y-17262D01*
X-89902Y-17351D01*
X-89878Y-17363D01*
X-89857Y-17381D01*
X-89738Y-17437D01*
X-89620Y-17498D01*
X-89594Y-17505D01*
X-89569Y-17516D01*
X-89440Y-17541D01*
X-89311Y-17571D01*
X-89284Y-17571D01*
X-89257Y-17576D01*
X-89125Y-17568D01*
X-88993Y-17565D01*
X-88967Y-17558D01*
X-88939Y-17556D01*
X-88814Y-17515D01*
X-88686Y-17480D01*
X-88652Y-17463D01*
X-88637Y-17458D01*
X-88619Y-17446D01*
X-88542Y-17409D01*
X-87889Y-17032D01*
X-87886Y-17029D01*
X-87882Y-17028D01*
X-87758Y-16933D01*
X-87636Y-16840D01*
X-87633Y-16837D01*
X-87630Y-16834D01*
X-87536Y-16714D01*
X-87515Y-16687D01*
X-86907Y-16449D01*
X-86895Y-16442D01*
X-86881Y-16438D01*
X-86737Y-16367D01*
X-86181Y-16046D01*
X-86146Y-16051D01*
X-86142Y-16050D01*
X-86138Y-16051D01*
X-85985Y-16032D01*
X-85830Y-16015D01*
X-85826Y-16013D01*
X-85822Y-16013D01*
X-85669Y-15963D01*
X-83928Y-15281D01*
X-83924Y-15279D01*
X-83920Y-15278D01*
X-83783Y-15202D01*
X-83649Y-15129D01*
X-83646Y-15126D01*
X-83642Y-15124D01*
X-83530Y-15018D01*
X-83506Y-14996D01*
X-82870Y-14851D01*
X-82856Y-14846D01*
X-82842Y-14844D01*
X-82689Y-14795D01*
X-82091Y-14561D01*
X-82058Y-14571D01*
X-82053Y-14571D01*
X-82049Y-14572D01*
X-81896Y-14576D01*
X-81740Y-14582D01*
X-81736Y-14581D01*
X-81732Y-14581D01*
X-81573Y-14555D01*
X-79750Y-14140D01*
X-79746Y-14138D01*
X-79742Y-14138D01*
X-79598Y-14085D01*
X-79451Y-14031D01*
X-79447Y-14028D01*
X-79443Y-14027D01*
X-79317Y-13939D01*
X-79290Y-13921D01*
X-78640Y-13872D01*
X-78626Y-13869D01*
X-78611Y-13870D01*
X-78452Y-13844D01*
X-77826Y-13701D01*
X-77794Y-13716D01*
X-77790Y-13717D01*
X-77787Y-13719D01*
X-77633Y-13746D01*
X-77482Y-13774D01*
X-77478Y-13774D01*
X-77474Y-13775D01*
X-77313Y-13773D01*
X-75448Y-13634D01*
X-75444Y-13633D01*
X-75440Y-13633D01*
X-75287Y-13601D01*
X-75136Y-13571D01*
X-75133Y-13569D01*
X-75128Y-13568D01*
X-74989Y-13499D01*
X-74961Y-13486D01*
X-74311Y-13535D01*
X-74296Y-13534D01*
X-74282Y-13537D01*
X-74121Y-13535D01*
X-73481Y-13487D01*
X-73451Y-13507D01*
X-73448Y-13508D01*
X-73444Y-13510D01*
X-73297Y-13560D01*
X-73151Y-13611D01*
X-73147Y-13611D01*
X-73143Y-13613D01*
X-72984Y-13635D01*
X-71119Y-13775D01*
X-71115Y-13775D01*
X-71111Y-13776D01*
X-70956Y-13767D01*
X-70801Y-13759D01*
X-70797Y-13758D01*
X-70793Y-13758D01*
X-70646Y-13711D01*
X-70616Y-13701D01*
X-69979Y-13847D01*
X-69965Y-13848D01*
X-69951Y-13853D01*
X-69792Y-13875D01*
X-69152Y-13923D01*
X-69126Y-13947D01*
X-69122Y-13949D01*
X-69119Y-13951D01*
X-68980Y-14023D01*
X-68844Y-14095D01*
X-68840Y-14096D01*
X-68837Y-14097D01*
X-68682Y-14143D01*
X-66859Y-14560D01*
X-66855Y-14560D01*
X-66851Y-14562D01*
X-66698Y-14576D01*
X-66543Y-14591D01*
X-66539Y-14591D01*
X-66535Y-14591D01*
X-66381Y-14567D01*
X-66351Y-14562D01*
X-65743Y-14800D01*
X-65729Y-14804D01*
X-65717Y-14811D01*
X-65562Y-14856D01*
X-64936Y-14999D01*
X-64914Y-15027D01*
X-64911Y-15029D01*
X-64908Y-15032D01*
X-64782Y-15124D01*
X-64658Y-15215D01*
X-64654Y-15216D01*
X-64651Y-15219D01*
X-64505Y-15287D01*
X-62764Y-15971D01*
X-62760Y-15972D01*
X-62757Y-15974D01*
X-62609Y-16010D01*
X-62456Y-16049D01*
X-62452Y-16049D01*
X-62448Y-16050D01*
X-62293Y-16049D01*
X-62262Y-16049D01*
X-61697Y-16375D01*
X-61683Y-16381D01*
X-61672Y-16389D01*
X-61526Y-16457D01*
X-60928Y-16692D01*
X-60910Y-16722D01*
X-60907Y-16725D01*
X-60905Y-16729D01*
X-60794Y-16838D01*
X-60685Y-16946D01*
X-60681Y-16949D01*
X-60678Y-16951D01*
X-60544Y-17041D01*
X-58925Y-17976D01*
X-58922Y-17978D01*
X-58918Y-17980D01*
X-58775Y-18039D01*
X-58632Y-18099D01*
X-58628Y-18100D01*
X-58624Y-18102D01*
X-58473Y-18123D01*
X-58440Y-18128D01*
X-57930Y-18535D01*
X-57917Y-18543D01*
X-57907Y-18553D01*
X-57877Y-18573D01*
X-57874Y-18575D01*
X-57868Y-18579D01*
X-57773Y-18642D01*
X-57217Y-18963D01*
X-57204Y-18995D01*
X-57202Y-18999D01*
X-57200Y-19003D01*
X-57107Y-19126D01*
X-57015Y-19251D01*
X-57011Y-19253D01*
X-57009Y-19257D01*
X-56890Y-19365D01*
X-55428Y-20531D01*
X-55425Y-20534D01*
X-55422Y-20536D01*
X-55289Y-20616D01*
X-55157Y-20697D01*
X-55153Y-20698D01*
X-55149Y-20700D01*
X-55001Y-20745D01*
X-54971Y-20754D01*
X-54527Y-21232D01*
X-54516Y-21242D01*
X-54507Y-21253D01*
X-54388Y-21361D01*
X-53886Y-21762D01*
X-53878Y-21796D01*
X-53876Y-21800D01*
X-53875Y-21804D01*
X-53836Y-21876D01*
X-53829Y-21897D01*
X-53799Y-21944D01*
X-53729Y-22077D01*
X-53726Y-22080D01*
X-53724Y-22083D01*
X-53666Y-22155D01*
X-53659Y-22165D01*
X-53651Y-22173D01*
X-53622Y-22208D01*
X-52351Y-23579D01*
X-52348Y-23582D01*
X-52345Y-23585D01*
X-52224Y-23685D01*
X-52107Y-23783D01*
X-52103Y-23785D01*
X-52100Y-23788D01*
X-51960Y-23854D01*
X-51931Y-23867D01*
X-51564Y-24407D01*
X-51555Y-24417D01*
X-51548Y-24430D01*
X-51446Y-24555D01*
X-51009Y-25026D01*
X-51006Y-25061D01*
X-51005Y-25064D01*
X-51005Y-25069D01*
X-50951Y-25217D01*
X-50901Y-25361D01*
X-50898Y-25364D01*
X-50897Y-25368D01*
X-50815Y-25506D01*
X-50161Y-26466D01*
X-50113Y-26520D01*
X-50073Y-26580D01*
X-50008Y-26639D01*
X-49950Y-26705D01*
X-49891Y-26745D01*
X-49837Y-26793D01*
X-49759Y-26834D01*
X-49687Y-26883D01*
X-49619Y-26908D01*
X-49555Y-26941D01*
X-49470Y-26961D01*
X-49388Y-26991D01*
X-49316Y-26997D01*
X-49246Y-27014D01*
X-49158Y-27012D01*
X-49071Y-27020D01*
X-49000Y-27009D01*
X-48928Y-27008D01*
X-48844Y-26984D01*
X-48757Y-26970D01*
X-48691Y-26942D01*
X-48622Y-26922D01*
X-48477Y-26851D01*
X-16472Y-8373D01*
X-16177Y-9000D01*
X-16159Y-9023D01*
X-16149Y-9051D01*
X-16100Y-9103D01*
X-16058Y-9160D01*
X-16033Y-9174D01*
X-16013Y-9195D01*
X-15948Y-9224D01*
X-15886Y-9260D01*
X-15857Y-9264D01*
X-15831Y-9275D01*
X-15760Y-9276D01*
X-15689Y-9285D01*
X-15661Y-9278D01*
X-15632Y-9278D01*
X-15539Y-9243D01*
X-15498Y-9232D01*
X-15489Y-9225D01*
X-15476Y-9220D01*
X775Y136D01*
X17026Y-9220D01*
X17054Y-9229D01*
X17078Y-9246D01*
X17147Y-9261D01*
X17215Y-9283D01*
X17244Y-9281D01*
X17272Y-9287D01*
X17342Y-9273D01*
X17413Y-9267D01*
X17439Y-9254D01*
X17467Y-9248D01*
X17526Y-9208D01*
X17589Y-9176D01*
X17608Y-9153D01*
X17632Y-9137D01*
X17689Y-9055D01*
X17716Y-9022D01*
X17719Y-9011D01*
X17727Y-9000D01*
X18022Y-8373D01*
X30077Y-15333D01*
X30217Y-15392D01*
X30357Y-15452D01*
X30364Y-15454D01*
X30370Y-15456D01*
X30520Y-15478D01*
X30671Y-15502D01*
X30678Y-15502D01*
X30685Y-15503D01*
X30835Y-15487D01*
X30988Y-15473D01*
X30994Y-15470D01*
X31001Y-15470D01*
X31144Y-15416D01*
X31287Y-15365D01*
X31293Y-15361D01*
X31299Y-15359D01*
X31425Y-15271D01*
X31550Y-15186D01*
X31555Y-15181D01*
X31560Y-15177D01*
X31661Y-15061D01*
X31761Y-14948D01*
X31764Y-14942D01*
X31768Y-14937D01*
X31836Y-14800D01*
X31905Y-14665D01*
X31907Y-14658D01*
X31910Y-14652D01*
X31941Y-14503D01*
X31975Y-14354D01*
X31975Y-14348D01*
X31976Y-14341D01*
X31970Y-14189D01*
X31965Y-14036D01*
X31963Y-14030D01*
X31963Y-14023D01*
X31919Y-13876D01*
X31877Y-13731D01*
X31873Y-13725D01*
X31871Y-13719D01*
X31792Y-13588D01*
X31715Y-13457D01*
X31709Y-13450D01*
X31707Y-13446D01*
X31699Y-13439D01*
X31609Y-13336D01*
X24614Y-6341D01*
X22605Y-4333D01*
X22605Y6254D01*
X22593Y6352D01*
X22590Y6451D01*
X22573Y6510D01*
X22565Y6570D01*
X22529Y6662D01*
X22501Y6757D01*
X22471Y6809D01*
X22448Y6865D01*
X22390Y6945D01*
X22340Y7031D01*
X22274Y7106D01*
X22262Y7123D01*
X22252Y7130D01*
X22234Y7152D01*
X11914Y17471D01*
X11836Y17532D01*
X11764Y17600D01*
X11711Y17629D01*
X11663Y17666D01*
X11572Y17705D01*
X11485Y17753D01*
X11427Y17768D01*
X11371Y17792D01*
X11273Y17808D01*
X11177Y17833D01*
X11077Y17839D01*
X11057Y17842D01*
X11045Y17841D01*
X11017Y17843D01*
X10109Y17843D01*
X8765Y18582D01*
X8731Y18592D01*
X8689Y18616D01*
X8609Y18644D01*
X8608Y18644D01*
X7175Y19143D01*
X5741Y19642D01*
X5677Y19664D01*
X5643Y19669D01*
X5596Y19685D01*
X2453Y20217D01*
X2418Y20216D01*
X2369Y20224D01*
X-819Y20224D01*
X-854Y20217D01*
X-903Y20217D01*
X-4046Y19685D01*
X-4079Y19672D01*
X-4127Y19664D01*
X-7139Y18616D01*
X-7169Y18598D01*
X-7215Y18582D01*
X-8559Y17843D01*
X-10657Y17843D01*
X-10756Y17830D01*
X-10855Y17827D01*
X-10913Y17811D01*
X-10973Y17803D01*
X-11065Y17766D01*
X-11160Y17739D01*
X-11212Y17708D01*
X-11269Y17686D01*
X-11349Y17628D01*
X-11434Y17577D01*
X-11510Y17511D01*
X-11526Y17499D01*
X-11534Y17490D01*
X-11555Y17471D01*
X-28900Y126D01*
X-121095Y126D01*
X-121213Y111D01*
X-121331Y104D01*
X-121370Y92D01*
X-121410Y86D01*
X-121521Y43D01*
X-121634Y6D01*
X-121668Y-16D01*
X-121706Y-31D01*
X-121802Y-100D01*
X-121903Y-164D01*
X-121930Y-194D01*
X-121963Y-217D01*
X-122039Y-309D01*
X-122121Y-396D01*
X-122140Y-431D01*
X-122166Y-462D01*
X-122217Y-570D01*
X-122274Y-674D01*
X-122284Y-714D01*
X-122301Y-750D01*
X-122324Y-867D01*
X-122354Y-982D01*
X-122357Y-1042D01*
X-122361Y-1062D01*
X-122360Y-1083D01*
X-122364Y-1143D01*
X-122364Y-7519D01*
X-122349Y-7637D01*
X-122341Y-7755D01*
X-122329Y-7794D01*
X-122324Y-7834D01*
X-122280Y-7945D01*
X-122243Y-8058D01*
X-122222Y-8092D01*
X-122207Y-8130D01*
X-122137Y-8226D01*
X-122073Y-8327D01*
X-122044Y-8354D01*
X-122020Y-8387D01*
X-121928Y-8463D01*
X-121842Y-8545D01*
X-121806Y-8564D01*
X-121775Y-8590D01*
X-121667Y-8641D01*
X-121563Y-8698D01*
X-121524Y-8708D01*
X-121487Y-8725D01*
X-121371Y-8748D01*
X-121255Y-8778D01*
X-121195Y-8781D01*
X-121175Y-8785D01*
X-121155Y-8784D01*
X-121095Y-8788D01*
X-119281Y-8788D01*
X-118388Y-9681D01*
X-118388Y-20944D01*
X-119281Y-21837D01*
X-131544Y-21837D01*
X-132453Y-20929D01*
X-132547Y-20856D01*
X-132636Y-20777D01*
X-132672Y-20759D01*
X-132704Y-20734D01*
X-132813Y-20686D01*
X-132919Y-20632D01*
X-132958Y-20624D01*
X-132996Y-20608D01*
X-133113Y-20589D01*
X-133229Y-20563D01*
X-133270Y-20564D01*
X-133310Y-20558D01*
X-133428Y-20569D01*
X-133547Y-20572D01*
X-133586Y-20584D01*
X-133626Y-20587D01*
X-133738Y-20628D01*
X-133853Y-20661D01*
X-133888Y-20681D01*
X-133926Y-20695D01*
X-134024Y-20762D01*
X-134127Y-20822D01*
X-134172Y-20862D01*
X-134189Y-20874D01*
X-134202Y-20889D01*
X-134248Y-20929D01*
X-135156Y-21837D01*
X-147419Y-21837D01*
X-148312Y-20944D01*
X-148312Y-9681D01*
X-147419Y-8788D01*
X-143197Y-8788D01*
X-143059Y-8770D01*
X-142920Y-8757D01*
X-142901Y-8750D01*
X-142881Y-8748D01*
X-142752Y-8697D01*
X-142621Y-8650D01*
X-142604Y-8638D01*
X-142586Y-8631D01*
X-142473Y-8549D01*
X-142358Y-8471D01*
X-142345Y-8456D01*
X-142328Y-8444D01*
X-142239Y-8337D01*
X-142148Y-8233D01*
X-142138Y-8215D01*
X-142125Y-8199D01*
X-142066Y-8073D01*
X-142003Y-7949D01*
X-141999Y-7930D01*
X-141990Y-7911D01*
X-141964Y-7775D01*
X-141933Y-7639D01*
X-141934Y-7619D01*
X-141930Y-7599D01*
X-141939Y-7461D01*
X-141943Y-7321D01*
X-141949Y-7302D01*
X-141950Y-7282D01*
X-141993Y-7150D01*
X-142031Y-7016D01*
X-142042Y-6998D01*
X-142048Y-6979D01*
X-142122Y-6861D01*
X-142193Y-6742D01*
X-142211Y-6721D01*
X-142218Y-6710D01*
X-142233Y-6696D01*
X-142299Y-6621D01*
X-143912Y-5008D01*
X-143991Y-4947D01*
X-144063Y-4879D01*
X-144116Y-4850D01*
X-144164Y-4813D01*
X-144255Y-4774D01*
X-144341Y-4726D01*
X-144400Y-4711D01*
X-144456Y-4687D01*
X-144553Y-4671D01*
X-144649Y-4646D01*
X-144749Y-4640D01*
X-144770Y-4637D01*
X-144782Y-4638D01*
X-144810Y-4636D01*
X-147818Y-4636D01*
X-147916Y-4649D01*
X-148016Y-4652D01*
X-148074Y-4668D01*
X-148134Y-4676D01*
X-148226Y-4713D01*
X-148321Y-4740D01*
X-148373Y-4771D01*
X-148430Y-4793D01*
X-148510Y-4851D01*
X-148595Y-4902D01*
X-148670Y-4968D01*
X-148687Y-4980D01*
X-148695Y-4989D01*
X-148716Y-5008D01*
X-151660Y-7952D01*
X-151733Y-8046D01*
X-151811Y-8135D01*
X-151830Y-8171D01*
X-151854Y-8203D01*
X-151902Y-8312D01*
X-151956Y-8418D01*
X-151965Y-8458D01*
X-151981Y-8495D01*
X-151999Y-8613D01*
X-152026Y-8729D01*
X-152024Y-8769D01*
X-152031Y-8809D01*
X-152019Y-8928D01*
X-152016Y-9046D01*
X-152005Y-9085D01*
X-152001Y-9126D01*
X-151960Y-9238D01*
X-151927Y-9352D01*
X-151907Y-9387D01*
X-151893Y-9425D01*
X-151826Y-9523D01*
X-151766Y-9626D01*
X-151726Y-9671D01*
X-151725Y-9672D01*
X-151725Y-20944D01*
X-152618Y-21837D01*
X-164882Y-21837D01*
X-165775Y-20944D01*
X-165775Y-9681D01*
X-164882Y-8788D01*
X-161644Y-8788D01*
X-161546Y-8775D01*
X-161447Y-8772D01*
X-161389Y-8756D01*
X-161329Y-8748D01*
X-161237Y-8711D01*
X-161142Y-8684D01*
X-161090Y-8653D01*
X-161033Y-8631D01*
X-160953Y-8573D01*
X-160868Y-8522D01*
X-160792Y-8456D01*
X-160776Y-8444D01*
X-160768Y-8435D01*
X-160747Y-8416D01*
X-159641Y-7310D01*
X-150605Y1726D01*
X-150520Y1836D01*
X-150431Y1943D01*
X-150423Y1961D01*
X-150410Y1977D01*
X-150355Y2105D01*
X-150296Y2231D01*
X-150292Y2250D01*
X-150284Y2269D01*
X-150262Y2407D01*
X-150236Y2543D01*
X-150237Y2563D01*
X-150234Y2583D01*
X-150247Y2722D01*
X-150256Y2860D01*
X-150262Y2879D01*
X-150264Y2900D01*
X-150311Y3031D01*
X-150354Y3163D01*
X-150364Y3180D01*
X-150371Y3199D01*
X-150449Y3314D01*
X-150524Y3432D01*
X-150539Y3445D01*
X-150550Y3462D01*
X-150654Y3554D01*
X-150755Y3649D01*
X-150773Y3659D01*
X-150788Y3673D01*
X-150912Y3736D01*
X-151034Y3803D01*
X-151053Y3808D01*
X-151072Y3817D01*
X-151207Y3848D01*
X-151342Y3882D01*
X-151370Y3884D01*
X-151382Y3887D01*
X-151402Y3886D01*
X-151503Y3893D01*
X-172270Y3893D01*
X-178336Y9958D01*
X-178409Y10015D01*
X-178475Y10079D01*
X-178534Y10112D01*
X-178587Y10153D01*
X-178672Y10190D01*
X-178752Y10235D01*
X-178817Y10253D01*
X-178879Y10280D01*
X-178970Y10294D01*
X-179059Y10318D01*
X-179176Y10327D01*
X-179193Y10330D01*
X-179202Y10329D01*
X-179220Y10330D01*
X-245374Y11045D01*
X-245454Y11036D01*
X-247048Y11063D01*
X-247051Y11063D01*
X-247056Y11063D01*
X-248211Y11076D01*
X-249014Y11907D01*
X-249016Y11909D01*
X-249020Y11913D01*
X-249827Y12738D01*
X-249807Y13891D01*
X-249807Y13894D01*
X-249807Y13899D01*
X-249791Y15423D01*
X-249783Y15521D01*
X-249779Y15540D01*
X-249780Y15550D01*
X-249778Y15573D01*
X-248024Y118112D01*
X-248036Y118221D01*
X-248039Y118330D01*
X-248053Y118378D01*
X-248058Y118428D01*
X-248097Y118531D01*
X-248128Y118636D01*
X-248153Y118679D01*
X-248170Y118725D01*
X-248233Y118815D01*
X-248289Y118910D01*
X-248340Y118968D01*
X-248353Y118986D01*
X-248366Y118997D01*
X-248396Y119031D01*
X-269495Y140130D01*
X-269495Y145620D01*
X-247220Y167895D01*
X-236967Y167895D01*
X-230568Y161495D01*
X-230568Y157258D01*
X-230555Y157160D01*
X-230552Y157061D01*
X-230536Y157003D01*
X-230528Y156943D01*
X-230491Y156851D01*
X-230464Y156756D01*
X-230433Y156703D01*
X-230411Y156647D01*
X-230353Y156567D01*
X-230302Y156482D01*
X-230236Y156406D01*
X-230224Y156390D01*
X-230215Y156382D01*
X-230196Y156361D01*
X-228767Y154932D01*
X-228678Y154862D01*
X-228593Y154786D01*
X-228552Y154765D01*
X-228516Y154737D01*
X-228412Y154692D01*
X-228311Y154639D01*
X-228266Y154629D01*
X-228224Y154611D01*
X-228112Y154593D01*
X-228001Y154567D01*
X-227955Y154568D01*
X-227910Y154561D01*
X-227797Y154572D01*
X-227683Y154574D01*
X-227639Y154586D01*
X-227593Y154591D01*
X-227486Y154629D01*
X-227377Y154660D01*
X-227337Y154683D01*
X-227294Y154698D01*
X-227200Y154762D01*
X-227102Y154819D01*
X-227049Y154865D01*
X-227031Y154877D01*
X-227019Y154891D01*
X-226980Y154924D01*
X-201698Y179779D01*
X-201695Y179782D01*
X-201690Y179787D01*
X-200875Y180602D01*
X-199719Y180592D01*
X-199715Y180593D01*
X-199708Y180592D01*
X-128684Y180596D01*
X-127214Y180596D01*
X-125843Y180596D01*
X-125190Y179943D01*
X-125190Y179942D01*
X-123835Y178588D01*
X-123835Y178587D01*
X-86105Y140858D01*
X-86105Y132905D01*
X-86090Y132787D01*
X-86083Y132669D01*
X-86070Y132630D01*
X-86065Y132590D01*
X-86022Y132479D01*
X-85985Y132366D01*
X-85963Y132332D01*
X-85948Y132294D01*
X-85879Y132198D01*
X-85815Y132097D01*
X-85785Y132070D01*
X-85762Y132037D01*
X-85670Y131961D01*
X-85583Y131879D01*
X-85548Y131860D01*
X-85517Y131834D01*
X-85409Y131783D01*
X-85305Y131726D01*
X-85265Y131716D01*
X-85229Y131699D01*
X-85112Y131676D01*
X-84997Y131646D01*
X-84937Y131643D01*
X-84917Y131639D01*
X-84896Y131640D01*
X-84836Y131636D01*
X-84137Y131636D01*
X-84019Y131651D01*
X-83901Y131659D01*
X-83862Y131671D01*
X-83822Y131676D01*
X-83711Y131720D01*
X-83598Y131757D01*
X-83564Y131778D01*
X-83526Y131793D01*
X-83430Y131863D01*
X-83329Y131927D01*
X-83302Y131956D01*
X-83269Y131980D01*
X-83193Y132072D01*
X-83111Y132158D01*
X-83092Y132194D01*
X-83066Y132225D01*
X-83015Y132333D01*
X-82958Y132437D01*
X-82948Y132476D01*
X-82931Y132513D01*
X-82908Y132629D01*
X-82878Y132745D01*
X-82875Y132805D01*
X-82871Y132825D01*
X-82872Y132845D01*
X-82868Y132905D01*
X-82868Y146839D01*
X-81752Y147956D01*
X-68799Y147956D01*
X-68681Y147971D01*
X-68562Y147978D01*
X-68523Y147991D01*
X-68483Y147996D01*
X-68373Y148039D01*
X-68259Y148076D01*
X-68225Y148098D01*
X-68188Y148113D01*
X-68091Y148182D01*
X-67991Y148246D01*
X-67963Y148276D01*
X-67930Y148299D01*
X-67854Y148391D01*
X-67773Y148478D01*
X-67753Y148513D01*
X-67727Y148544D01*
X-67677Y148652D01*
X-67619Y148756D01*
X-67609Y148796D01*
X-67592Y148832D01*
X-67570Y148949D01*
X-67540Y149064D01*
X-67536Y149124D01*
X-67532Y149144D01*
X-67533Y149165D01*
X-67530Y149225D01*
X-67530Y183367D01*
X-65892Y185005D01*
X-58893Y185005D01*
X-58755Y185022D01*
X-58617Y185035D01*
X-58597Y185042D01*
X-58577Y185044D01*
X-58448Y185095D01*
X-58317Y185143D01*
X-58300Y185154D01*
X-58282Y185161D01*
X-58169Y185243D01*
X-58054Y185321D01*
X-58041Y185336D01*
X-58024Y185348D01*
X-57935Y185456D01*
X-57844Y185560D01*
X-57834Y185578D01*
X-57821Y185593D01*
X-57762Y185719D01*
X-57699Y185843D01*
X-57695Y185863D01*
X-57686Y185881D01*
X-57660Y186017D01*
X-57629Y186153D01*
X-57630Y186173D01*
X-57626Y186193D01*
X-57635Y186332D01*
X-57639Y186471D01*
X-57645Y186491D01*
X-57646Y186511D01*
X-57689Y186643D01*
X-57727Y186777D01*
X-57738Y186794D01*
X-57744Y186813D01*
X-57818Y186931D01*
X-57889Y187050D01*
X-57908Y187072D01*
X-57914Y187082D01*
X-57929Y187096D01*
X-57995Y187171D01*
X-61088Y190264D01*
X-61177Y190333D01*
X-61210Y190364D01*
X-61214Y190367D01*
X-61261Y190409D01*
X-61303Y190431D01*
X-61340Y190459D01*
X-61443Y190504D01*
X-61543Y190556D01*
X-61588Y190567D01*
X-61632Y190586D01*
X-61743Y190603D01*
X-61852Y190629D01*
X-61899Y190628D01*
X-61946Y190636D01*
X-61952Y190635D01*
X-61972Y190640D01*
X-61976Y190641D01*
X-61980Y190643D01*
X-62133Y190663D01*
X-62287Y190684D01*
X-62291Y190683D01*
X-62295Y190684D01*
X-62449Y190665D01*
X-62603Y190647D01*
X-62607Y190645D01*
X-62611Y190645D01*
X-62764Y190596D01*
X-64505Y189912D01*
X-64508Y189910D01*
X-64512Y189909D01*
X-64647Y189834D01*
X-64784Y189760D01*
X-64787Y189757D01*
X-64791Y189755D01*
X-64903Y189648D01*
X-64926Y189627D01*
X-65562Y189481D01*
X-65576Y189476D01*
X-65590Y189475D01*
X-65743Y189425D01*
X-66341Y189191D01*
X-66374Y189201D01*
X-66379Y189201D01*
X-66383Y189202D01*
X-66537Y189206D01*
X-66692Y189212D01*
X-66696Y189211D01*
X-66700Y189211D01*
X-66859Y189185D01*
X-68682Y188768D01*
X-68686Y188767D01*
X-68690Y188766D01*
X-68835Y188712D01*
X-68981Y188659D01*
X-68984Y188657D01*
X-68988Y188655D01*
X-69114Y188568D01*
X-69141Y188549D01*
X-69792Y188500D01*
X-69806Y188497D01*
X-69821Y188498D01*
X-69979Y188472D01*
X-70605Y188329D01*
X-70637Y188343D01*
X-70641Y188344D01*
X-70645Y188346D01*
X-70798Y188373D01*
X-70950Y188402D01*
X-70954Y188401D01*
X-70958Y188402D01*
X-71119Y188400D01*
X-72984Y188260D01*
X-72988Y188259D01*
X-72992Y188259D01*
X-73144Y188227D01*
X-73295Y188196D01*
X-73299Y188195D01*
X-73303Y188194D01*
X-73441Y188126D01*
X-73470Y188111D01*
X-74121Y188160D01*
X-74135Y188159D01*
X-74150Y188162D01*
X-74311Y188160D01*
X-74951Y188112D01*
X-74980Y188131D01*
X-74984Y188132D01*
X-74987Y188135D01*
X-75134Y188184D01*
X-75280Y188235D01*
X-75285Y188236D01*
X-75288Y188237D01*
X-75448Y188259D01*
X-77313Y188398D01*
X-77317Y188398D01*
X-77321Y188399D01*
X-77477Y188390D01*
X-77630Y188382D01*
X-77634Y188381D01*
X-77638Y188380D01*
X-77787Y188333D01*
X-77816Y188324D01*
X-78452Y188469D01*
X-78467Y188470D01*
X-78480Y188475D01*
X-78640Y188497D01*
X-79280Y188545D01*
X-79306Y188568D01*
X-79309Y188570D01*
X-79313Y188573D01*
X-79449Y188644D01*
X-79587Y188716D01*
X-79592Y188717D01*
X-79595Y188719D01*
X-79750Y188765D01*
X-81573Y189180D01*
X-81577Y189181D01*
X-81581Y189182D01*
X-81733Y189196D01*
X-81889Y189211D01*
X-81893Y189211D01*
X-81897Y189211D01*
X-82049Y189187D01*
X-82081Y189182D01*
X-82689Y189420D01*
X-82703Y189424D01*
X-82716Y189430D01*
X-82870Y189476D01*
X-83496Y189619D01*
X-83518Y189646D01*
X-83522Y189648D01*
X-83524Y189651D01*
X-83650Y189743D01*
X-83775Y189834D01*
X-83779Y189835D01*
X-83782Y189838D01*
X-83928Y189906D01*
X-85669Y190588D01*
X-85673Y190589D01*
X-85676Y190591D01*
X-85827Y190628D01*
X-85977Y190666D01*
X-85981Y190666D01*
X-85985Y190667D01*
X-86138Y190666D01*
X-86171Y190666D01*
X-86737Y190992D01*
X-86750Y190998D01*
X-86762Y191006D01*
X-86907Y191074D01*
X-87505Y191309D01*
X-87523Y191339D01*
X-87526Y191341D01*
X-87528Y191345D01*
X-87638Y191453D01*
X-87749Y191563D01*
X-87752Y191565D01*
X-87755Y191568D01*
X-87889Y191657D01*
X-89509Y192591D01*
X-89513Y192593D01*
X-89516Y192595D01*
X-89660Y192655D01*
X-89802Y192714D01*
X-89806Y192715D01*
X-89810Y192717D01*
X-89966Y192739D01*
X-89995Y192743D01*
X-90505Y193149D01*
X-90517Y193157D01*
X-90527Y193167D01*
X-90661Y193256D01*
X-91218Y193577D01*
X-91231Y193610D01*
X-91233Y193613D01*
X-91235Y193617D01*
X-91327Y193739D01*
X-91421Y193865D01*
X-91424Y193867D01*
X-91426Y193871D01*
X-91545Y193979D01*
X-93008Y195144D01*
X-93011Y195147D01*
X-93014Y195149D01*
X-93145Y195228D01*
X-93279Y195310D01*
X-93283Y195311D01*
X-93287Y195313D01*
X-93434Y195357D01*
X-93465Y195367D01*
X-93909Y195845D01*
X-93921Y195854D01*
X-93929Y195866D01*
X-94049Y195974D01*
X-94550Y196374D01*
X-94559Y196408D01*
X-94561Y196411D01*
X-94562Y196415D01*
X-94635Y196552D01*
X-94708Y196688D01*
X-94711Y196692D01*
X-94713Y196695D01*
X-94815Y196820D01*
X-96087Y198190D01*
X-96090Y198193D01*
X-96093Y198196D01*
X-96211Y198294D01*
X-96331Y198394D01*
X-96335Y198396D01*
X-96338Y198399D01*
X-96476Y198464D01*
X-96506Y198478D01*
X-96874Y199017D01*
X-96884Y199028D01*
X-96891Y199041D01*
X-96993Y199165D01*
X-97429Y199636D01*
X-97432Y199671D01*
X-97434Y199675D01*
X-97434Y199679D01*
X-97487Y199825D01*
X-97538Y199971D01*
X-97541Y199974D01*
X-97542Y199978D01*
X-97624Y200116D01*
X-98678Y201661D01*
X-98681Y201664D01*
X-98683Y201668D01*
X-98786Y201783D01*
X-98889Y201899D01*
X-98892Y201902D01*
X-98895Y201905D01*
X-99023Y201990D01*
X-99050Y202008D01*
X-99333Y202596D01*
X-99341Y202608D01*
X-99346Y202622D01*
X-99428Y202760D01*
X-99790Y203291D01*
X-99788Y203326D01*
X-99788Y203330D01*
X-99788Y203334D01*
X-99819Y203486D01*
X-99848Y203638D01*
X-99850Y203642D01*
X-99850Y203646D01*
X-99911Y203795D01*
X-100723Y205479D01*
X-100725Y205483D01*
X-100726Y205487D01*
X-100812Y205617D01*
X-100896Y205746D01*
X-100899Y205749D01*
X-100901Y205752D01*
X-101017Y205858D01*
X-101039Y205878D01*
X-101231Y206501D01*
X-101237Y206515D01*
X-101240Y206529D01*
X-101300Y206678D01*
X-101579Y207256D01*
X-101572Y207291D01*
X-101572Y207295D01*
X-101571Y207299D01*
X-101578Y207453D01*
X-101585Y207608D01*
X-101586Y207612D01*
X-101586Y207616D01*
X-101624Y207773D01*
X-102175Y209560D01*
X-102177Y209563D01*
X-102178Y209567D01*
X-102243Y209709D01*
X-102307Y209849D01*
X-102309Y209853D01*
X-102311Y209856D01*
X-102410Y209977D01*
X-102428Y210001D01*
X-102526Y210646D01*
X-102530Y210660D01*
X-102530Y210674D01*
X-102568Y210831D01*
X-102758Y211444D01*
X-102745Y211477D01*
X-102745Y211481D01*
X-102743Y211485D01*
X-102727Y211642D01*
X-102711Y211793D01*
X-102711Y211797D01*
X-102711Y211802D01*
X-102725Y211962D01*
X-103004Y213811D01*
X-103005Y213815D01*
X-103005Y213819D01*
X-103048Y213968D01*
X-103090Y214117D01*
X-103093Y214121D01*
X-103094Y214125D01*
X-103172Y214258D01*
X-103188Y214285D01*
X-103188Y214937D01*
X-103190Y214952D01*
X-103189Y214966D01*
X-103203Y215127D01*
X-103299Y215761D01*
X-103281Y215792D01*
X-103280Y215796D01*
X-103278Y215800D01*
X-103241Y215945D01*
X-103200Y216099D01*
X-103200Y216104D01*
X-103199Y216108D01*
X-103189Y216268D01*
X-103189Y218138D01*
X-103190Y218142D01*
X-103190Y218146D01*
X-103210Y218300D01*
X-103229Y218454D01*
X-103231Y218457D01*
X-103231Y218462D01*
X-103290Y218606D01*
X-103301Y218634D01*
X-103204Y219280D01*
X-103204Y219294D01*
X-103200Y219308D01*
X-103190Y219469D01*
X-103190Y220111D01*
X-103169Y220139D01*
X-103167Y220142D01*
X-103164Y220146D01*
X-103104Y220287D01*
X-103042Y220430D01*
X-103042Y220435D01*
X-103040Y220438D01*
X-103006Y220596D01*
X-102728Y222445D01*
X-102728Y222449D01*
X-102727Y222453D01*
X-102724Y222605D01*
X-102720Y222763D01*
X-102721Y222767D01*
X-102721Y222771D01*
X-102757Y222921D01*
X-102764Y222952D01*
X-102572Y223576D01*
X-102570Y223590D01*
X-102564Y223603D01*
X-102530Y223761D01*
X-102435Y224395D01*
X-102409Y224420D01*
X-102407Y224423D01*
X-102404Y224426D01*
X-102323Y224558D01*
X-102241Y224689D01*
X-102240Y224693D01*
X-102237Y224697D01*
X-102180Y224847D01*
X-101630Y226634D01*
X-101629Y226638D01*
X-101627Y226642D01*
X-101602Y226796D01*
X-101575Y226948D01*
X-101575Y226952D01*
X-101575Y226956D01*
X-101588Y227109D01*
X-101590Y227142D01*
X-101307Y227730D01*
X-101303Y227743D01*
X-101295Y227756D01*
X-101238Y227906D01*
X-101049Y228520D01*
X-101020Y228540D01*
X-101018Y228543D01*
X-101014Y228545D01*
X-100916Y228662D01*
X-100814Y228782D01*
X-100812Y228785D01*
X-100809Y228788D01*
X-100730Y228929D01*
X-100218Y229992D01*
X-100196Y230060D01*
X-100164Y230124D01*
X-100145Y230211D01*
X-100118Y230294D01*
X-100112Y230365D01*
X-100097Y230435D01*
X-100101Y230523D01*
X-100095Y230611D01*
X-100108Y230681D01*
X-100111Y230753D01*
X-100136Y230838D01*
X-100152Y230924D01*
X-100181Y230989D01*
X-100202Y231058D01*
X-100248Y231133D01*
X-100284Y231213D01*
X-100330Y231269D01*
X-100367Y231330D01*
X-100429Y231392D01*
X-100485Y231460D01*
X-100542Y231503D01*
X-100594Y231553D01*
X-100728Y231642D01*
X-132734Y250120D01*
X-132314Y250729D01*
X-132303Y250756D01*
X-132284Y250778D01*
X-132264Y250846D01*
X-132236Y250912D01*
X-132236Y250941D01*
X-132228Y250968D01*
X-132236Y251040D01*
X-132236Y251111D01*
X-132247Y251137D01*
X-132250Y251166D01*
X-132285Y251228D01*
X-132313Y251294D01*
X-132333Y251314D01*
X-132348Y251339D01*
X-132425Y251403D01*
X-132455Y251433D01*
X-132465Y251437D01*
X-132476Y251445D01*
X-148976Y260945D01*
X-149049Y260969D01*
X-149119Y261000D01*
X-149143Y261001D01*
X-149165Y261008D01*
X-149241Y261002D01*
X-149318Y261003D01*
X-149342Y260994D01*
X-149363Y260992D01*
X-149402Y260972D01*
X-149474Y260945D01*
X-165974Y251445D01*
X-165996Y251426D01*
X-166022Y251414D01*
X-166070Y251361D01*
X-166123Y251314D01*
X-166136Y251288D01*
X-166155Y251266D01*
X-166178Y251199D01*
X-166209Y251134D01*
X-166211Y251105D01*
X-166220Y251078D01*
X-166215Y251007D01*
X-166218Y250936D01*
X-166208Y250909D01*
X-166206Y250880D01*
X-166164Y250789D01*
X-166149Y250749D01*
X-166142Y250741D01*
X-166136Y250729D01*
X-165716Y250120D01*
X-197722Y231642D01*
X-197780Y231598D01*
X-197842Y231564D01*
X-197906Y231503D01*
X-197976Y231450D01*
X-198020Y231393D01*
X-198072Y231344D01*
X-198119Y231269D01*
X-198173Y231200D01*
X-198203Y231135D01*
X-198240Y231074D01*
X-198267Y230990D01*
X-198303Y230910D01*
X-198315Y230839D01*
X-198336Y230771D01*
X-198341Y230683D01*
X-198356Y230596D01*
X-198350Y230525D01*
X-198354Y230453D01*
X-198337Y230367D01*
X-198329Y230279D01*
X-198306Y230212D01*
X-198292Y230142D01*
X-198232Y229992D01*
X-197720Y228929D01*
X-197718Y228925D01*
X-197716Y228921D01*
X-197632Y228793D01*
X-197547Y228662D01*
X-197544Y228659D01*
X-197542Y228655D01*
X-197428Y228552D01*
X-197404Y228530D01*
X-197212Y227906D01*
X-197206Y227893D01*
X-197203Y227879D01*
X-197143Y227730D01*
X-196864Y227151D01*
X-196872Y227117D01*
X-196872Y227113D01*
X-196872Y227109D01*
X-196865Y226955D01*
X-196859Y226799D01*
X-196858Y226795D01*
X-196858Y226791D01*
X-196820Y226634D01*
X-196270Y224847D01*
X-196268Y224844D01*
X-196267Y224840D01*
X-196202Y224697D01*
X-196139Y224558D01*
X-196136Y224555D01*
X-196134Y224551D01*
X-196036Y224430D01*
X-196017Y224406D01*
X-195920Y223761D01*
X-195916Y223747D01*
X-195915Y223732D01*
X-195878Y223576D01*
X-195689Y222962D01*
X-195701Y222929D01*
X-195702Y222925D01*
X-195703Y222921D01*
X-195719Y222763D01*
X-195736Y222613D01*
X-195735Y222609D01*
X-195736Y222605D01*
X-195722Y222445D01*
X-195444Y220596D01*
X-195443Y220592D01*
X-195443Y220588D01*
X-195400Y220438D01*
X-195358Y220290D01*
X-195356Y220286D01*
X-195354Y220282D01*
X-195277Y220151D01*
X-195260Y220121D01*
X-195260Y219469D01*
X-195258Y219454D01*
X-195260Y219440D01*
X-195246Y219280D01*
X-195151Y218645D01*
X-195168Y218614D01*
X-195169Y218610D01*
X-195171Y218607D01*
X-195210Y218454D01*
X-195249Y218307D01*
X-195249Y218303D01*
X-195250Y218299D01*
X-195261Y218138D01*
X-195261Y216268D01*
X-195261Y216264D01*
X-195261Y216260D01*
X-195241Y216106D01*
X-195221Y215953D01*
X-195220Y215949D01*
X-195219Y215945D01*
X-195161Y215799D01*
X-195150Y215772D01*
X-195247Y215127D01*
X-195248Y215112D01*
X-195251Y215098D01*
X-195262Y214937D01*
X-195262Y214296D01*
X-195283Y214268D01*
X-195285Y214264D01*
X-195287Y214261D01*
X-195348Y214118D01*
X-195410Y213976D01*
X-195410Y213972D01*
X-195412Y213968D01*
X-195446Y213811D01*
X-195725Y211962D01*
X-195725Y211958D01*
X-195727Y211954D01*
X-195729Y211799D01*
X-195733Y211644D01*
X-195732Y211640D01*
X-195732Y211636D01*
X-195696Y211485D01*
X-195689Y211455D01*
X-195882Y210831D01*
X-195884Y210817D01*
X-195890Y210803D01*
X-195924Y210646D01*
X-196020Y210011D01*
X-196045Y209987D01*
X-196048Y209984D01*
X-196051Y209981D01*
X-196132Y209849D01*
X-196214Y209718D01*
X-196215Y209714D01*
X-196217Y209710D01*
X-196275Y209560D01*
X-196826Y207773D01*
X-196827Y207769D01*
X-196829Y207765D01*
X-196854Y207615D01*
X-196881Y207460D01*
X-196881Y207456D01*
X-196882Y207452D01*
X-196869Y207299D01*
X-196866Y207266D01*
X-197150Y206678D01*
X-197154Y206664D01*
X-197162Y206652D01*
X-197219Y206501D01*
X-197408Y205888D01*
X-197437Y205868D01*
X-197440Y205865D01*
X-197443Y205862D01*
X-197543Y205744D01*
X-197644Y205626D01*
X-197646Y205623D01*
X-197648Y205620D01*
X-197727Y205479D01*
X-198040Y204830D01*
X-198067Y204749D01*
X-198104Y204672D01*
X-198118Y204599D01*
X-198141Y204528D01*
X-198147Y204443D01*
X-198164Y204359D01*
X-198159Y204285D01*
X-198164Y204211D01*
X-198149Y204127D01*
X-198144Y204042D01*
X-198121Y203971D01*
X-198108Y203898D01*
X-198072Y203821D01*
X-198046Y203739D01*
X-198006Y203677D01*
X-197975Y203609D01*
X-197921Y203543D01*
X-197876Y203471D01*
X-197821Y203420D01*
X-197775Y203362D01*
X-197706Y203311D01*
X-197644Y203253D01*
X-197579Y203217D01*
X-197519Y203173D01*
X-197440Y203140D01*
X-197365Y203099D01*
X-197294Y203081D01*
X-197225Y203053D01*
X-197140Y203041D01*
X-197058Y203020D01*
X-196920Y203011D01*
X-196910Y203010D01*
X-196906Y203010D01*
X-196897Y203010D01*
X-196023Y203010D01*
X-194085Y202207D01*
X-192601Y200723D01*
X-191798Y198784D01*
X-191798Y196686D01*
X-192601Y194747D01*
X-194085Y193263D01*
X-196023Y192460D01*
X-198122Y192460D01*
X-200061Y193263D01*
X-201544Y194747D01*
X-201990Y195823D01*
X-202058Y195943D01*
X-202122Y196064D01*
X-202137Y196081D01*
X-202148Y196100D01*
X-202243Y196198D01*
X-202335Y196300D01*
X-202354Y196312D01*
X-202369Y196328D01*
X-202486Y196400D01*
X-202601Y196476D01*
X-202621Y196483D01*
X-202640Y196494D01*
X-202771Y196535D01*
X-202901Y196580D01*
X-202923Y196582D01*
X-202944Y196588D01*
X-203081Y196595D01*
X-203218Y196606D01*
X-203240Y196602D01*
X-203262Y196603D01*
X-203396Y196575D01*
X-203532Y196552D01*
X-203552Y196543D01*
X-203573Y196539D01*
X-203697Y196478D01*
X-203822Y196422D01*
X-203847Y196405D01*
X-203859Y196399D01*
X-203875Y196386D01*
X-203954Y196330D01*
X-204401Y195974D01*
X-204412Y195963D01*
X-204424Y195956D01*
X-204541Y195845D01*
X-204977Y195374D01*
X-205012Y195369D01*
X-205016Y195367D01*
X-205020Y195366D01*
X-205162Y195303D01*
X-205303Y195241D01*
X-205306Y195238D01*
X-205310Y195236D01*
X-205442Y195144D01*
X-206905Y193979D01*
X-206907Y193976D01*
X-206911Y193974D01*
X-207018Y193862D01*
X-207126Y193751D01*
X-207128Y193748D01*
X-207131Y193745D01*
X-207208Y193609D01*
X-207223Y193582D01*
X-207789Y193256D01*
X-207800Y193247D01*
X-207813Y193242D01*
X-207945Y193149D01*
X-208447Y192749D01*
X-208482Y192749D01*
X-208486Y192748D01*
X-208490Y192748D01*
X-208638Y192707D01*
X-208789Y192666D01*
X-208793Y192664D01*
X-208797Y192663D01*
X-208941Y192591D01*
X-210561Y191657D01*
X-210564Y191654D01*
X-210568Y191653D01*
X-210692Y191558D01*
X-210814Y191465D01*
X-210817Y191462D01*
X-210820Y191459D01*
X-210916Y191337D01*
X-210935Y191312D01*
X-211543Y191074D01*
X-211555Y191067D01*
X-211569Y191063D01*
X-211713Y190992D01*
X-212269Y190671D01*
X-212304Y190676D01*
X-212308Y190675D01*
X-212312Y190676D01*
X-212465Y190657D01*
X-212620Y190640D01*
X-212624Y190638D01*
X-212628Y190638D01*
X-212781Y190588D01*
X-214522Y189906D01*
X-214526Y189904D01*
X-214530Y189903D01*
X-214667Y189827D01*
X-214801Y189754D01*
X-214804Y189751D01*
X-214808Y189749D01*
X-214922Y189641D01*
X-214944Y189621D01*
X-215580Y189476D01*
X-215594Y189471D01*
X-215608Y189469D01*
X-215761Y189420D01*
X-216359Y189186D01*
X-216392Y189196D01*
X-216396Y189196D01*
X-216401Y189197D01*
X-216559Y189201D01*
X-216710Y189207D01*
X-216714Y189206D01*
X-216718Y189206D01*
X-216877Y189180D01*
X-218700Y188765D01*
X-218704Y188763D01*
X-218708Y188763D01*
X-218852Y188710D01*
X-218999Y188656D01*
X-219003Y188653D01*
X-219007Y188652D01*
X-219134Y188563D01*
X-219160Y188546D01*
X-219810Y188497D01*
X-219824Y188494D01*
X-219839Y188495D01*
X-219998Y188469D01*
X-220624Y188326D01*
X-220656Y188341D01*
X-220660Y188342D01*
X-220663Y188344D01*
X-220817Y188371D01*
X-220968Y188399D01*
X-220972Y188399D01*
X-220976Y188400D01*
X-221137Y188398D01*
X-223002Y188259D01*
X-223006Y188258D01*
X-223010Y188258D01*
X-223163Y188226D01*
X-223314Y188196D01*
X-223317Y188194D01*
X-223322Y188193D01*
X-223461Y188124D01*
X-223489Y188111D01*
X-224139Y188160D01*
X-224154Y188159D01*
X-224168Y188162D01*
X-224329Y188160D01*
X-224969Y188112D01*
X-224999Y188132D01*
X-225002Y188133D01*
X-225006Y188135D01*
X-225153Y188185D01*
X-225299Y188236D01*
X-225303Y188236D01*
X-225307Y188238D01*
X-225466Y188260D01*
X-227331Y188400D01*
X-227335Y188400D01*
X-227339Y188401D01*
X-227494Y188392D01*
X-227649Y188384D01*
X-227653Y188383D01*
X-227657Y188383D01*
X-227804Y188336D01*
X-227834Y188326D01*
X-228471Y188472D01*
X-228485Y188473D01*
X-228499Y188478D01*
X-228658Y188500D01*
X-229298Y188548D01*
X-229324Y188572D01*
X-229328Y188574D01*
X-229331Y188576D01*
X-229470Y188648D01*
X-229606Y188720D01*
X-229610Y188721D01*
X-229613Y188722D01*
X-229768Y188768D01*
X-231591Y189185D01*
X-231595Y189185D01*
X-231599Y189187D01*
X-231752Y189201D01*
X-231907Y189216D01*
X-231911Y189216D01*
X-231915Y189216D01*
X-232069Y189192D01*
X-232099Y189187D01*
X-232707Y189425D01*
X-232721Y189429D01*
X-232733Y189436D01*
X-232888Y189481D01*
X-233514Y189624D01*
X-233536Y189652D01*
X-233539Y189654D01*
X-233542Y189657D01*
X-233670Y189750D01*
X-233792Y189840D01*
X-233796Y189841D01*
X-233799Y189844D01*
X-233945Y189912D01*
X-235686Y190596D01*
X-235690Y190597D01*
X-235693Y190599D01*
X-235844Y190636D01*
X-235994Y190674D01*
X-235998Y190674D01*
X-236002Y190675D01*
X-236157Y190674D01*
X-236188Y190674D01*
X-236753Y191000D01*
X-236767Y191006D01*
X-236778Y191014D01*
X-236924Y191082D01*
X-237522Y191317D01*
X-237540Y191347D01*
X-237543Y191350D01*
X-237545Y191354D01*
X-237656Y191463D01*
X-237765Y191571D01*
X-237769Y191574D01*
X-237772Y191576D01*
X-237906Y191666D01*
X-239525Y192601D01*
X-239528Y192603D01*
X-239532Y192605D01*
X-239675Y192664D01*
X-239818Y192724D01*
X-239822Y192725D01*
X-239826Y192727D01*
X-239977Y192748D01*
X-240010Y192753D01*
X-240520Y193160D01*
X-240533Y193168D01*
X-240543Y193178D01*
X-240677Y193267D01*
X-241233Y193588D01*
X-241246Y193620D01*
X-241248Y193624D01*
X-241250Y193628D01*
X-241343Y193751D01*
X-241435Y193876D01*
X-241439Y193878D01*
X-241441Y193882D01*
X-241560Y193990D01*
X-243022Y195156D01*
X-243025Y195159D01*
X-243028Y195161D01*
X-243161Y195241D01*
X-243293Y195322D01*
X-243297Y195323D01*
X-243301Y195325D01*
X-243449Y195370D01*
X-243479Y195379D01*
X-243923Y195857D01*
X-243934Y195867D01*
X-243943Y195878D01*
X-244062Y195986D01*
X-244564Y196387D01*
X-244572Y196421D01*
X-244574Y196425D01*
X-244575Y196429D01*
X-244647Y196561D01*
X-244721Y196702D01*
X-244724Y196705D01*
X-244726Y196708D01*
X-244828Y196833D01*
X-246099Y198204D01*
X-246102Y198207D01*
X-246105Y198210D01*
X-246225Y198310D01*
X-246343Y198408D01*
X-246347Y198410D01*
X-246350Y198413D01*
X-246490Y198479D01*
X-246519Y198492D01*
X-246886Y199032D01*
X-246895Y199042D01*
X-246902Y199055D01*
X-247004Y199180D01*
X-247441Y199651D01*
X-247444Y199686D01*
X-247445Y199689D01*
X-247445Y199694D01*
X-247498Y199840D01*
X-247549Y199986D01*
X-247552Y199989D01*
X-247553Y199993D01*
X-247635Y200131D01*
X-248289Y201091D01*
X-248337Y201145D01*
X-248377Y201205D01*
X-248442Y201264D01*
X-248500Y201330D01*
X-248559Y201370D01*
X-248613Y201418D01*
X-248691Y201459D01*
X-248763Y201508D01*
X-248831Y201533D01*
X-248895Y201566D01*
X-248980Y201586D01*
X-249062Y201616D01*
X-249134Y201622D01*
X-249204Y201639D01*
X-249292Y201637D01*
X-249379Y201645D01*
X-249450Y201634D01*
X-249522Y201633D01*
X-249606Y201609D01*
X-249693Y201595D01*
X-249759Y201567D01*
X-249828Y201547D01*
X-249973Y201476D01*
X-281976Y182999D01*
X-282292Y183666D01*
X-282310Y183689D01*
X-282320Y183716D01*
X-282369Y183768D01*
X-282412Y183825D01*
X-282437Y183840D01*
X-282457Y183861D01*
X-282522Y183889D01*
X-282584Y183925D01*
X-282612Y183929D01*
X-282639Y183940D01*
X-282710Y183941D01*
X-282781Y183950D01*
X-282809Y183942D01*
X-282838Y183942D01*
X-282931Y183907D01*
X-282972Y183896D01*
X-282981Y183889D01*
X-282994Y183884D01*
X-299471Y174345D01*
X-299528Y174293D01*
X-299590Y174248D01*
X-299602Y174228D01*
X-299620Y174213D01*
X-299653Y174143D01*
X-299692Y174077D01*
X-299696Y174052D01*
X-299705Y174033D01*
X-299707Y173989D01*
X-299720Y173913D01*
X-299743Y154874D01*
X-299737Y154845D01*
X-299739Y154816D01*
X-299717Y154749D01*
X-299703Y154679D01*
X-299687Y154655D01*
X-299678Y154627D01*
X-299631Y154573D01*
X-299591Y154515D01*
X-299567Y154499D01*
X-299548Y154477D01*
X-299483Y154446D01*
X-299423Y154407D01*
X-299395Y154403D01*
X-299369Y154390D01*
X-299269Y154381D01*
X-299227Y154374D01*
X-299217Y154377D01*
X-299203Y154375D01*
X-298470Y154435D01*
X-298470Y117464D01*
X-298461Y117393D01*
X-298462Y117321D01*
X-298441Y117236D01*
X-298430Y117149D01*
X-298404Y117082D01*
X-298387Y117012D01*
X-298346Y116935D01*
X-298313Y116853D01*
X-298271Y116795D01*
X-298237Y116731D01*
X-298178Y116667D01*
X-298127Y116595D01*
X-298071Y116550D01*
X-298023Y116497D01*
X-297949Y116449D01*
X-297882Y116393D01*
X-297817Y116362D01*
X-297756Y116323D01*
X-297673Y116295D01*
X-297594Y116257D01*
X-297523Y116244D01*
X-297455Y116221D01*
X-297296Y116198D01*
X-296130Y116111D01*
X-296126Y116111D01*
X-296122Y116110D01*
X-295967Y116119D01*
X-295813Y116127D01*
X-295809Y116128D01*
X-295805Y116129D01*
X-295656Y116176D01*
X-295627Y116185D01*
X-294991Y116040D01*
X-294976Y116038D01*
X-294963Y116034D01*
X-294803Y116012D01*
X-294164Y115964D01*
X-294162Y115962D01*
X-294137Y115940D01*
X-294134Y115938D01*
X-294130Y115935D01*
X-293993Y115864D01*
X-293856Y115792D01*
X-293852Y115791D01*
X-293848Y115789D01*
X-293694Y115744D01*
X-291873Y115328D01*
X-291869Y115328D01*
X-291865Y115326D01*
X-291709Y115312D01*
X-291556Y115297D01*
X-291552Y115297D01*
X-291548Y115297D01*
X-291392Y115322D01*
X-291364Y115326D01*
X-290757Y115088D01*
X-290743Y115084D01*
X-290730Y115078D01*
X-290575Y115032D01*
X-289950Y114889D01*
X-289927Y114862D01*
X-289924Y114860D01*
X-289921Y114856D01*
X-289794Y114764D01*
X-289671Y114674D01*
X-289667Y114672D01*
X-289664Y114670D01*
X-289518Y114602D01*
X-287779Y113919D01*
X-287775Y113918D01*
X-287772Y113916D01*
X-287619Y113879D01*
X-287471Y113841D01*
X-287467Y113841D01*
X-287463Y113840D01*
X-287305Y113842D01*
X-287277Y113842D01*
X-286712Y113516D01*
X-286698Y113510D01*
X-286686Y113501D01*
X-286541Y113433D01*
X-285943Y113199D01*
X-285925Y113169D01*
X-285922Y113166D01*
X-285920Y113162D01*
X-285809Y113053D01*
X-285700Y112944D01*
X-285696Y112942D01*
X-285693Y112939D01*
X-285559Y112850D01*
X-283942Y111916D01*
X-283938Y111915D01*
X-283935Y111912D01*
X-283792Y111853D01*
X-283649Y111793D01*
X-283644Y111792D01*
X-283641Y111791D01*
X-283487Y111769D01*
X-283456Y111765D01*
X-282946Y111358D01*
X-282934Y111350D01*
X-282923Y111340D01*
X-282789Y111251D01*
X-282233Y110930D01*
X-282220Y110898D01*
X-282218Y110894D01*
X-282216Y110890D01*
X-282123Y110767D01*
X-282030Y110642D01*
X-282027Y110640D01*
X-282025Y110636D01*
X-281906Y110528D01*
X-280445Y109364D01*
X-280442Y109362D01*
X-280439Y109359D01*
X-280306Y109279D01*
X-280174Y109198D01*
X-280170Y109197D01*
X-280166Y109195D01*
X-280018Y109151D01*
X-279988Y109141D01*
X-279544Y108663D01*
X-279533Y108654D01*
X-279524Y108642D01*
X-279405Y108534D01*
X-278903Y108134D01*
X-278895Y108100D01*
X-278893Y108096D01*
X-278892Y108092D01*
X-278818Y107956D01*
X-278745Y107819D01*
X-278743Y107816D01*
X-278741Y107812D01*
X-278639Y107687D01*
X-277369Y106318D01*
X-277365Y106316D01*
X-277363Y106312D01*
X-277245Y106215D01*
X-277125Y106114D01*
X-277121Y106112D01*
X-277118Y106110D01*
X-276978Y106044D01*
X-276949Y106030D01*
X-276582Y105491D01*
X-276572Y105480D01*
X-276565Y105468D01*
X-276463Y105343D01*
X-276027Y104872D01*
X-276024Y104837D01*
X-276022Y104834D01*
X-276022Y104829D01*
X-275969Y104682D01*
X-275918Y104538D01*
X-275916Y104534D01*
X-275914Y104530D01*
X-275832Y104392D01*
X-274780Y102849D01*
X-274777Y102845D01*
X-274775Y102842D01*
X-274674Y102728D01*
X-274569Y102610D01*
X-274566Y102608D01*
X-274563Y102605D01*
X-274437Y102520D01*
X-274408Y102501D01*
X-274125Y101913D01*
X-274117Y101901D01*
X-274112Y101888D01*
X-274030Y101749D01*
X-273669Y101219D01*
X-273671Y101184D01*
X-273670Y101180D01*
X-273670Y101176D01*
X-273640Y101022D01*
X-273611Y100871D01*
X-273609Y100868D01*
X-273608Y100864D01*
X-273548Y100714D01*
X-272738Y99032D01*
X-272735Y99028D01*
X-272734Y99024D01*
X-272649Y98895D01*
X-272565Y98765D01*
X-272562Y98762D01*
X-272559Y98759D01*
X-272445Y98654D01*
X-272422Y98633D01*
X-272229Y98009D01*
X-272223Y97996D01*
X-272221Y97982D01*
X-272160Y97833D01*
X-271882Y97254D01*
X-271889Y97220D01*
X-271889Y97216D01*
X-271890Y97212D01*
X-271882Y97058D01*
X-271876Y96902D01*
X-271875Y96898D01*
X-271875Y96894D01*
X-271837Y96738D01*
X-271287Y94953D01*
X-271285Y94949D01*
X-271284Y94945D01*
X-271220Y94806D01*
X-271156Y94663D01*
X-271153Y94660D01*
X-271151Y94656D01*
X-271055Y94537D01*
X-271034Y94512D01*
X-270937Y93866D01*
X-270933Y93852D01*
X-270932Y93838D01*
X-270894Y93681D01*
X-270705Y93068D01*
X-270718Y93035D01*
X-270718Y93031D01*
X-270719Y93027D01*
X-270735Y92873D01*
X-270752Y92719D01*
X-270752Y92715D01*
X-270752Y92711D01*
X-270738Y92551D01*
X-270460Y90704D01*
X-270459Y90700D01*
X-270459Y90696D01*
X-270416Y90547D01*
X-270374Y90398D01*
X-270371Y90394D01*
X-270370Y90390D01*
X-270291Y90256D01*
X-270276Y90230D01*
X-270276Y89577D01*
X-270274Y89563D01*
X-270275Y89548D01*
X-270262Y89388D01*
X-270196Y88953D01*
X-270195Y88949D01*
X-270195Y88945D01*
X-270151Y88795D01*
X-270110Y88647D01*
X-270108Y88643D01*
X-270106Y88639D01*
X-270028Y88506D01*
X-269950Y88372D01*
X-269947Y88369D01*
X-269945Y88365D01*
X-269838Y88245D01*
X-267355Y85761D01*
X-267277Y85700D01*
X-267205Y85632D01*
X-267152Y85603D01*
X-267104Y85566D01*
X-267013Y85527D01*
X-266926Y85479D01*
X-266867Y85464D01*
X-266812Y85440D01*
X-266714Y85424D01*
X-266618Y85400D01*
X-266518Y85393D01*
X-266498Y85390D01*
X-266485Y85391D01*
X-266457Y85389D01*
X-264971Y85389D01*
X-263032Y84586D01*
X-261548Y83102D01*
X-260745Y81164D01*
X-260745Y79065D01*
X-261548Y77127D01*
X-263032Y75643D01*
X-264971Y74840D01*
X-267069Y74840D01*
X-269008Y75643D01*
X-270210Y76845D01*
X-270296Y76911D01*
X-270376Y76985D01*
X-270421Y77009D01*
X-270461Y77040D01*
X-270561Y77083D01*
X-270657Y77134D01*
X-270706Y77146D01*
X-270753Y77166D01*
X-270860Y77183D01*
X-270966Y77209D01*
X-271017Y77208D01*
X-271067Y77216D01*
X-271175Y77206D01*
X-271284Y77204D01*
X-271333Y77191D01*
X-271384Y77186D01*
X-271486Y77149D01*
X-271591Y77121D01*
X-271635Y77096D01*
X-271683Y77078D01*
X-271773Y77017D01*
X-271868Y76964D01*
X-271904Y76928D01*
X-271946Y76900D01*
X-272018Y76818D01*
X-272096Y76743D01*
X-272123Y76699D01*
X-272157Y76661D01*
X-272206Y76564D01*
X-272263Y76472D01*
X-272291Y76398D01*
X-272301Y76378D01*
X-272305Y76362D01*
X-272320Y76321D01*
X-272419Y76002D01*
X-272447Y75982D01*
X-272450Y75979D01*
X-272453Y75976D01*
X-272554Y75857D01*
X-272654Y75740D01*
X-272656Y75737D01*
X-272659Y75734D01*
X-272738Y75593D01*
X-273548Y73911D01*
X-273549Y73907D01*
X-273551Y73903D01*
X-273600Y73756D01*
X-273649Y73609D01*
X-273649Y73605D01*
X-273650Y73601D01*
X-273660Y73448D01*
X-273663Y73415D01*
X-274030Y72876D01*
X-274037Y72863D01*
X-274046Y72852D01*
X-274125Y72712D01*
X-274404Y72133D01*
X-274435Y72118D01*
X-274438Y72115D01*
X-274442Y72113D01*
X-274559Y72010D01*
X-274676Y71910D01*
X-274678Y71906D01*
X-274681Y71903D01*
X-274780Y71776D01*
X-275832Y70233D01*
X-275834Y70230D01*
X-275837Y70226D01*
X-275905Y70090D01*
X-275977Y69950D01*
X-275978Y69946D01*
X-275980Y69942D01*
X-276013Y69792D01*
X-276020Y69760D01*
X-276463Y69282D01*
X-276472Y69270D01*
X-276483Y69261D01*
X-276582Y69134D01*
X-276943Y68603D01*
X-276977Y68593D01*
X-276980Y68590D01*
X-276984Y68589D01*
X-277116Y68505D01*
X-277245Y68423D01*
X-277248Y68420D01*
X-277252Y68417D01*
X-277369Y68307D01*
X-278639Y66938D01*
X-278641Y66934D01*
X-278644Y66932D01*
X-278733Y66806D01*
X-278824Y66679D01*
X-278826Y66675D01*
X-278828Y66672D01*
X-278882Y66530D01*
X-278895Y66498D01*
X-279405Y66091D01*
X-279415Y66081D01*
X-279427Y66073D01*
X-279544Y65962D01*
X-279981Y65491D01*
X-280015Y65486D01*
X-280019Y65484D01*
X-280023Y65483D01*
X-280165Y65420D01*
X-280306Y65358D01*
X-280310Y65355D01*
X-280313Y65353D01*
X-280445Y65261D01*
X-281906Y64097D01*
X-281908Y64094D01*
X-281912Y64092D01*
X-282017Y63982D01*
X-282127Y63869D01*
X-282129Y63865D01*
X-282132Y63862D01*
X-282208Y63728D01*
X-282224Y63700D01*
X-282789Y63374D01*
X-282801Y63365D01*
X-282814Y63359D01*
X-282946Y63267D01*
X-283448Y62867D01*
X-283483Y62866D01*
X-283487Y62865D01*
X-283491Y62865D01*
X-283640Y62824D01*
X-283790Y62783D01*
X-283793Y62781D01*
X-283797Y62780D01*
X-283942Y62709D01*
X-285559Y61775D01*
X-285562Y61772D01*
X-285566Y61771D01*
X-285692Y61674D01*
X-285812Y61583D01*
X-285815Y61579D01*
X-285818Y61577D01*
X-285914Y61454D01*
X-285933Y61430D01*
X-286541Y61192D01*
X-286553Y61185D01*
X-286567Y61181D01*
X-286712Y61109D01*
X-287267Y60788D01*
X-287302Y60793D01*
X-287306Y60793D01*
X-287310Y60793D01*
X-287465Y60774D01*
X-287618Y60757D01*
X-287622Y60755D01*
X-287626Y60755D01*
X-287779Y60706D01*
X-289518Y60023D01*
X-289522Y60021D01*
X-289526Y60020D01*
X-289661Y59945D01*
X-289797Y59871D01*
X-289800Y59868D01*
X-289804Y59866D01*
X-289917Y59759D01*
X-289939Y59738D01*
X-290575Y59593D01*
X-290589Y59588D01*
X-290603Y59586D01*
X-290757Y59537D01*
X-291354Y59303D01*
X-291388Y59312D01*
X-291392Y59313D01*
X-291396Y59314D01*
X-291550Y59318D01*
X-291706Y59323D01*
X-291710Y59323D01*
X-291714Y59323D01*
X-291873Y59297D01*
X-293694Y58881D01*
X-293697Y58880D01*
X-293702Y58879D01*
X-293846Y58826D01*
X-293992Y58772D01*
X-293996Y58770D01*
X-294000Y58768D01*
X-294127Y58680D01*
X-294153Y58662D01*
X-294803Y58613D01*
X-294818Y58611D01*
X-294832Y58611D01*
X-294991Y58585D01*
X-295617Y58442D01*
X-295649Y58457D01*
X-295653Y58458D01*
X-295656Y58460D01*
X-295811Y58487D01*
X-295961Y58515D01*
X-295965Y58515D01*
X-295969Y58516D01*
X-296130Y58514D01*
X-297296Y58427D01*
X-297366Y58412D01*
X-297438Y58408D01*
X-297522Y58381D01*
X-297608Y58363D01*
X-297672Y58332D01*
X-297740Y58310D01*
X-297815Y58263D01*
X-297894Y58225D01*
X-297948Y58178D01*
X-298009Y58140D01*
X-298069Y58076D01*
X-298136Y58019D01*
X-298178Y57960D01*
X-298227Y57908D01*
X-298269Y57831D01*
X-298320Y57760D01*
X-298346Y57692D01*
X-298381Y57630D01*
X-298402Y57545D01*
X-298434Y57463D01*
X-298442Y57391D01*
X-298460Y57322D01*
X-298470Y57161D01*
X-298470Y20190D01*
X-299203Y20250D01*
X-299232Y20246D01*
X-299260Y20251D01*
X-299330Y20234D01*
X-299401Y20226D01*
X-299426Y20211D01*
X-299454Y20205D01*
X-299511Y20162D01*
X-299573Y20127D01*
X-299591Y20104D01*
X-299614Y20087D01*
X-299650Y20025D01*
X-299693Y19968D01*
X-299700Y19940D01*
X-299715Y19915D01*
X-299732Y19817D01*
X-299742Y19776D01*
X-299740Y19765D01*
X-299743Y19751D01*
X-299720Y712D01*
X-299704Y637D01*
X-299696Y560D01*
X-299685Y540D01*
X-299680Y517D01*
X-299636Y454D01*
X-299599Y387D01*
X-299579Y370D01*
X-299567Y353D01*
X-299530Y329D01*
X-299471Y280D01*
X-282994Y-9259D01*
X-282966Y-9268D01*
X-282942Y-9285D01*
X-282873Y-9300D01*
X-282805Y-9322D01*
X-282776Y-9320D01*
X-282748Y-9326D01*
X-282678Y-9313D01*
X-282607Y-9307D01*
X-282581Y-9294D01*
X-282553Y-9288D01*
X-282493Y-9248D01*
X-282430Y-9216D01*
X-282412Y-9193D01*
X-282388Y-9177D01*
X-282330Y-9095D01*
X-282303Y-9063D01*
X-282300Y-9052D01*
X-282292Y-9041D01*
X-281976Y-8374D01*
X-249973Y-26851D01*
X-249906Y-26879D01*
X-249844Y-26916D01*
X-249760Y-26940D01*
X-249680Y-26974D01*
X-249608Y-26985D01*
X-249539Y-27005D01*
X-249452Y-27008D01*
X-249365Y-27021D01*
X-249293Y-27013D01*
X-249221Y-27016D01*
X-249136Y-26997D01*
X-249049Y-26988D01*
X-248981Y-26962D01*
X-248911Y-26947D01*
X-248833Y-26907D01*
X-248751Y-26877D01*
X-248691Y-26836D01*
X-248627Y-26803D01*
X-248561Y-26745D01*
X-248489Y-26695D01*
X-248442Y-26641D01*
X-248388Y-26593D01*
X-248289Y-26466D01*
X-247635Y-25506D01*
X-247633Y-25503D01*
X-247631Y-25500D01*
X-247561Y-25362D01*
X-247490Y-25223D01*
X-247490Y-25219D01*
X-247488Y-25215D01*
X-247454Y-25062D01*
X-247448Y-25033D01*
X-247004Y-24555D01*
X-246996Y-24543D01*
X-246985Y-24534D01*
X-246886Y-24407D01*
X-246524Y-23876D01*
X-246491Y-23865D01*
X-246488Y-23863D01*
X-246484Y-23862D01*
X-246355Y-23780D01*
X-246222Y-23695D01*
X-246219Y-23692D01*
X-246216Y-23690D01*
X-246099Y-23579D01*
X-244828Y-22208D01*
X-244826Y-22205D01*
X-244822Y-22202D01*
X-244751Y-22102D01*
X-244698Y-22038D01*
X-244684Y-22008D01*
X-244643Y-21950D01*
X-244641Y-21946D01*
X-244639Y-21942D01*
X-244583Y-21797D01*
X-244575Y-21776D01*
X-244571Y-21768D01*
X-244062Y-21361D01*
X-244052Y-21351D01*
X-244040Y-21343D01*
X-243923Y-21232D01*
X-243487Y-20762D01*
X-243452Y-20756D01*
X-243448Y-20754D01*
X-243444Y-20754D01*
X-243303Y-20690D01*
X-243161Y-20628D01*
X-243158Y-20625D01*
X-243154Y-20624D01*
X-243022Y-20531D01*
X-241560Y-19365D01*
X-241557Y-19362D01*
X-241554Y-19360D01*
X-241447Y-19249D01*
X-241339Y-19137D01*
X-241337Y-19133D01*
X-241334Y-19130D01*
X-241258Y-18997D01*
X-241242Y-18968D01*
X-240677Y-18642D01*
X-240665Y-18633D01*
X-240652Y-18627D01*
X-240520Y-18535D01*
X-240019Y-18135D01*
X-239983Y-18134D01*
X-239979Y-18133D01*
X-239975Y-18133D01*
X-239829Y-18092D01*
X-239676Y-18051D01*
X-239673Y-18049D01*
X-239669Y-18048D01*
X-239525Y-17976D01*
X-237906Y-17041D01*
X-237902Y-17038D01*
X-237898Y-17037D01*
X-237776Y-16942D01*
X-237652Y-16848D01*
X-237650Y-16845D01*
X-237646Y-16843D01*
X-237550Y-16720D01*
X-237532Y-16696D01*
X-236924Y-16457D01*
X-236911Y-16450D01*
X-236898Y-16446D01*
X-236753Y-16375D01*
X-236198Y-16054D01*
X-236163Y-16059D01*
X-236159Y-16058D01*
X-236155Y-16059D01*
X-236001Y-16040D01*
X-235847Y-16022D01*
X-235843Y-16020D01*
X-235839Y-16020D01*
X-235686Y-15971D01*
X-233945Y-15287D01*
X-233942Y-15285D01*
X-233938Y-15284D01*
X-233804Y-15210D01*
X-233666Y-15135D01*
X-233663Y-15132D01*
X-233659Y-15130D01*
X-233548Y-15024D01*
X-233524Y-15002D01*
X-232888Y-14856D01*
X-232874Y-14851D01*
X-232860Y-14850D01*
X-232707Y-14800D01*
X-232109Y-14566D01*
X-232076Y-14576D01*
X-232071Y-14576D01*
X-232067Y-14577D01*
X-231913Y-14581D01*
X-231758Y-14587D01*
X-231754Y-14586D01*
X-231750Y-14586D01*
X-231591Y-14560D01*
X-229768Y-14143D01*
X-229764Y-14142D01*
X-229760Y-14141D01*
X-229615Y-14087D01*
X-229469Y-14034D01*
X-229466Y-14032D01*
X-229462Y-14030D01*
X-229337Y-13943D01*
X-229309Y-13924D01*
X-228658Y-13875D01*
X-228644Y-13872D01*
X-228629Y-13873D01*
X-228471Y-13847D01*
X-227845Y-13704D01*
X-227813Y-13718D01*
X-227809Y-13719D01*
X-227805Y-13721D01*
X-227652Y-13748D01*
X-227500Y-13777D01*
X-227496Y-13776D01*
X-227492Y-13777D01*
X-227331Y-13775D01*
X-225466Y-13635D01*
X-225462Y-13634D01*
X-225458Y-13634D01*
X-225306Y-13602D01*
X-225155Y-13571D01*
X-225151Y-13570D01*
X-225147Y-13569D01*
X-225009Y-13501D01*
X-224980Y-13486D01*
X-224329Y-13535D01*
X-224315Y-13534D01*
X-224300Y-13537D01*
X-224139Y-13535D01*
X-223499Y-13487D01*
X-223470Y-13506D01*
X-223466Y-13507D01*
X-223463Y-13510D01*
X-223316Y-13559D01*
X-223170Y-13610D01*
X-223165Y-13611D01*
X-223162Y-13612D01*
X-223002Y-13634D01*
X-221137Y-13773D01*
X-221133Y-13773D01*
X-221129Y-13774D01*
X-220973Y-13765D01*
X-220820Y-13757D01*
X-220816Y-13756D01*
X-220812Y-13755D01*
X-220663Y-13708D01*
X-220634Y-13699D01*
X-219998Y-13844D01*
X-219983Y-13845D01*
X-219970Y-13850D01*
X-219810Y-13872D01*
X-219170Y-13920D01*
X-219144Y-13943D01*
X-219141Y-13945D01*
X-219137Y-13948D01*
X-219001Y-14019D01*
X-218863Y-14091D01*
X-218858Y-14092D01*
X-218855Y-14094D01*
X-218700Y-14140D01*
X-216877Y-14555D01*
X-216873Y-14556D01*
X-216869Y-14557D01*
X-216717Y-14571D01*
X-216561Y-14586D01*
X-216557Y-14586D01*
X-216553Y-14586D01*
X-216401Y-14562D01*
X-216369Y-14557D01*
X-215761Y-14795D01*
X-215747Y-14799D01*
X-215734Y-14805D01*
X-215580Y-14851D01*
X-214944Y-14996D01*
X-214896Y-15001D01*
X-214893Y-15001D01*
X-214842Y-15006D01*
X-214742Y-15025D01*
X-214685Y-15021D01*
X-214627Y-15027D01*
X-214526Y-15012D01*
X-214425Y-15005D01*
X-214370Y-14988D01*
X-214313Y-14979D01*
X-214219Y-14939D01*
X-214122Y-14907D01*
X-214074Y-14876D01*
X-214021Y-14854D01*
X-213940Y-14792D01*
X-213854Y-14737D01*
X-213814Y-14695D01*
X-213768Y-14660D01*
X-213706Y-14580D01*
X-213636Y-14505D01*
X-213608Y-14455D01*
X-213572Y-14410D01*
X-213531Y-14316D01*
X-213482Y-14227D01*
X-213468Y-14171D01*
X-213445Y-14118D01*
X-213428Y-14018D01*
X-213403Y-13919D01*
X-213397Y-13834D01*
X-213395Y-13822D01*
X-213395Y-13821D01*
X-202875Y-3301D01*
X-200350Y-3301D01*
X-168401Y-35250D01*
X-168401Y-48888D01*
X-170187Y-50674D01*
X-183825Y-50674D01*
X-185611Y-48888D01*
X-185611Y-44651D01*
X-185624Y-44553D01*
X-185627Y-44454D01*
X-185643Y-44396D01*
X-185651Y-44336D01*
X-185688Y-44243D01*
X-185715Y-44148D01*
X-185746Y-44096D01*
X-185768Y-44040D01*
X-185826Y-43960D01*
X-185877Y-43874D01*
X-185943Y-43799D01*
X-185955Y-43782D01*
X-185964Y-43775D01*
X-185983Y-43754D01*
X-187982Y-41754D01*
X-188006Y-41736D01*
X-188025Y-41714D01*
X-188131Y-41639D01*
X-188234Y-41559D01*
X-188261Y-41547D01*
X-188285Y-41530D01*
X-188406Y-41485D01*
X-188526Y-41433D01*
X-188555Y-41428D01*
X-188582Y-41418D01*
X-188711Y-41403D01*
X-188840Y-41383D01*
X-188869Y-41386D01*
X-188898Y-41383D01*
X-189027Y-41401D01*
X-189156Y-41413D01*
X-189184Y-41423D01*
X-189213Y-41427D01*
X-189366Y-41479D01*
X-189644Y-41594D01*
X-191742Y-41594D01*
X-193506Y-40864D01*
X-193554Y-40850D01*
X-193599Y-40829D01*
X-193707Y-40809D01*
X-193813Y-40780D01*
X-193863Y-40779D01*
X-193912Y-40770D01*
X-194021Y-40776D01*
X-194131Y-40775D01*
X-194179Y-40786D01*
X-194229Y-40789D01*
X-194333Y-40823D01*
X-194440Y-40849D01*
X-194484Y-40872D01*
X-194532Y-40888D01*
X-194624Y-40946D01*
X-194721Y-40998D01*
X-194758Y-41031D01*
X-194800Y-41058D01*
X-194875Y-41138D01*
X-194956Y-41211D01*
X-194984Y-41253D01*
X-195018Y-41289D01*
X-195071Y-41385D01*
X-195131Y-41477D01*
X-195147Y-41524D01*
X-195171Y-41568D01*
X-195199Y-41674D01*
X-195234Y-41778D01*
X-195238Y-41828D01*
X-195251Y-41876D01*
X-195261Y-42037D01*
X-195261Y-43513D01*
X-195260Y-43517D01*
X-195260Y-43521D01*
X-195240Y-43676D01*
X-195221Y-43829D01*
X-195219Y-43832D01*
X-195219Y-43837D01*
X-195160Y-43982D01*
X-195149Y-44009D01*
X-195246Y-44655D01*
X-195246Y-44669D01*
X-195250Y-44683D01*
X-195260Y-44844D01*
X-195260Y-45486D01*
X-195281Y-45514D01*
X-195283Y-45517D01*
X-195286Y-45521D01*
X-195347Y-45665D01*
X-195408Y-45806D01*
X-195408Y-45810D01*
X-195410Y-45813D01*
X-195444Y-45971D01*
X-195722Y-47820D01*
X-195722Y-47824D01*
X-195723Y-47828D01*
X-195724Y-47891D01*
X-195732Y-47931D01*
X-195727Y-48017D01*
X-195730Y-48138D01*
X-195729Y-48142D01*
X-195729Y-48146D01*
X-195715Y-48203D01*
X-195712Y-48248D01*
X-195686Y-48329D01*
X-195878Y-48951D01*
X-195880Y-48965D01*
X-195886Y-48978D01*
X-195920Y-49136D01*
X-196015Y-49770D01*
X-196041Y-49795D01*
X-196043Y-49798D01*
X-196046Y-49801D01*
X-196127Y-49933D01*
X-196209Y-50065D01*
X-196210Y-50068D01*
X-196213Y-50072D01*
X-196270Y-50223D01*
X-196820Y-52009D01*
X-196821Y-52013D01*
X-196823Y-52017D01*
X-196849Y-52174D01*
X-196875Y-52323D01*
X-196875Y-52327D01*
X-196875Y-52331D01*
X-196862Y-52484D01*
X-196860Y-52517D01*
X-197143Y-53105D01*
X-197147Y-53118D01*
X-197155Y-53131D01*
X-197212Y-53281D01*
X-197401Y-53895D01*
X-197430Y-53915D01*
X-197432Y-53918D01*
X-197436Y-53920D01*
X-197535Y-54038D01*
X-197636Y-54157D01*
X-197638Y-54160D01*
X-197641Y-54163D01*
X-197720Y-54304D01*
X-198232Y-55367D01*
X-198254Y-55435D01*
X-198286Y-55499D01*
X-198305Y-55586D01*
X-198332Y-55669D01*
X-198338Y-55740D01*
X-198353Y-55810D01*
X-198349Y-55898D01*
X-198355Y-55986D01*
X-198342Y-56056D01*
X-198339Y-56128D01*
X-198314Y-56213D01*
X-198298Y-56299D01*
X-198269Y-56364D01*
X-198248Y-56433D01*
X-198202Y-56508D01*
X-198166Y-56588D01*
X-198120Y-56644D01*
X-198083Y-56705D01*
X-198021Y-56767D01*
X-197965Y-56835D01*
X-197908Y-56878D01*
X-197856Y-56928D01*
X-197722Y-57017D01*
X-165716Y-75495D01*
X-166136Y-76104D01*
X-166147Y-76131D01*
X-166166Y-76153D01*
X-166186Y-76221D01*
X-166214Y-76287D01*
X-166214Y-76316D01*
X-166222Y-76343D01*
X-166214Y-76415D01*
X-166215Y-76486D01*
X-166203Y-76512D01*
X-166200Y-76541D01*
X-166165Y-76603D01*
X-166137Y-76669D01*
X-166117Y-76689D01*
X-166102Y-76714D01*
X-166039Y-76766D01*
X-166035Y-76772D01*
X-166026Y-76777D01*
X-166025Y-76778D01*
X-165995Y-76808D01*
X-165985Y-76812D01*
X-165974Y-76820D01*
X-149474Y-86320D01*
X-149401Y-86344D01*
X-149331Y-86375D01*
X-149307Y-86376D01*
X-149285Y-86383D01*
X-149209Y-86377D01*
G37*
G36*
X26786Y102820D02*
X26786Y102820D01*
X26885Y102823D01*
X26943Y102839D01*
X27003Y102847D01*
X27095Y102884D01*
X27190Y102911D01*
X27243Y102942D01*
X27299Y102964D01*
X27379Y103022D01*
X27464Y103073D01*
X27540Y103139D01*
X27556Y103151D01*
X27564Y103160D01*
X27585Y103179D01*
X27706Y103300D01*
X38969Y103300D01*
X39090Y103179D01*
X39168Y103118D01*
X39240Y103050D01*
X39293Y103021D01*
X39341Y102984D01*
X39432Y102945D01*
X39519Y102897D01*
X39577Y102882D01*
X39633Y102858D01*
X39731Y102842D01*
X39827Y102817D01*
X39927Y102811D01*
X39947Y102808D01*
X39959Y102809D01*
X39987Y102807D01*
X51956Y102807D01*
X52074Y102822D01*
X52193Y102830D01*
X52231Y102842D01*
X52272Y102847D01*
X52382Y102891D01*
X52495Y102928D01*
X52530Y102949D01*
X52567Y102964D01*
X52663Y103034D01*
X52764Y103098D01*
X52792Y103127D01*
X52825Y103151D01*
X52901Y103243D01*
X52982Y103329D01*
X53002Y103365D01*
X53027Y103396D01*
X53078Y103504D01*
X53136Y103608D01*
X53146Y103647D01*
X53163Y103684D01*
X53185Y103800D01*
X53215Y103916D01*
X53219Y103976D01*
X53223Y103996D01*
X53221Y104016D01*
X53225Y104076D01*
X53225Y117907D01*
X53983Y118665D01*
X54044Y118743D01*
X54112Y118815D01*
X54141Y118868D01*
X54178Y118916D01*
X54218Y119007D01*
X54266Y119094D01*
X54281Y119152D01*
X54305Y119208D01*
X54320Y119306D01*
X54345Y119402D01*
X54351Y119502D01*
X54355Y119522D01*
X54353Y119534D01*
X54355Y119562D01*
X54355Y201776D01*
X54339Y201908D01*
X54328Y202040D01*
X54319Y202065D01*
X54315Y202092D01*
X54267Y202215D01*
X54223Y202340D01*
X54208Y202363D01*
X54198Y202388D01*
X54121Y202495D01*
X54047Y202605D01*
X54027Y202623D01*
X54012Y202645D01*
X53910Y202729D01*
X53811Y202818D01*
X53787Y202830D01*
X53767Y202848D01*
X53647Y202904D01*
X53530Y202966D01*
X53503Y202972D01*
X53479Y202983D01*
X53349Y203008D01*
X53220Y203038D01*
X53193Y203038D01*
X53167Y203043D01*
X53034Y203035D01*
X52902Y203032D01*
X52876Y203025D01*
X52849Y203023D01*
X52723Y202983D01*
X52596Y202947D01*
X52561Y202930D01*
X52547Y202925D01*
X52528Y202914D01*
X52451Y202876D01*
X18022Y182998D01*
X17727Y183625D01*
X17709Y183648D01*
X17699Y183676D01*
X17650Y183728D01*
X17608Y183785D01*
X17583Y183799D01*
X17563Y183820D01*
X17498Y183849D01*
X17436Y183885D01*
X17407Y183889D01*
X17381Y183900D01*
X17310Y183901D01*
X17239Y183910D01*
X17211Y183903D01*
X17182Y183903D01*
X17089Y183868D01*
X17048Y183857D01*
X17039Y183850D01*
X17026Y183845D01*
X775Y174489D01*
X-15476Y183845D01*
X-15504Y183854D01*
X-15528Y183871D01*
X-15597Y183886D01*
X-15665Y183908D01*
X-15694Y183906D01*
X-15722Y183912D01*
X-15792Y183898D01*
X-15863Y183892D01*
X-15889Y183879D01*
X-15917Y183873D01*
X-15976Y183833D01*
X-16039Y183801D01*
X-16058Y183778D01*
X-16082Y183762D01*
X-16139Y183680D01*
X-16166Y183647D01*
X-16169Y183636D01*
X-16177Y183625D01*
X-16472Y182998D01*
X-19372Y184672D01*
X-19494Y184724D01*
X-19613Y184780D01*
X-19640Y184785D01*
X-19665Y184796D01*
X-19796Y184815D01*
X-19926Y184840D01*
X-19953Y184838D01*
X-19979Y184842D01*
X-20111Y184828D01*
X-20243Y184820D01*
X-20269Y184812D01*
X-20296Y184809D01*
X-20420Y184763D01*
X-20546Y184722D01*
X-20569Y184708D01*
X-20594Y184698D01*
X-20703Y184623D01*
X-20814Y184552D01*
X-20833Y184532D01*
X-20855Y184517D01*
X-20942Y184417D01*
X-21032Y184320D01*
X-21045Y184297D01*
X-21063Y184276D01*
X-21122Y184158D01*
X-21186Y184042D01*
X-21193Y184016D01*
X-21205Y183991D01*
X-21232Y183862D01*
X-21265Y183734D01*
X-21268Y183696D01*
X-21271Y183680D01*
X-21270Y183659D01*
X-21276Y183573D01*
X-21276Y104076D01*
X-21261Y103958D01*
X-21253Y103840D01*
X-21241Y103801D01*
X-21236Y103761D01*
X-21192Y103650D01*
X-21155Y103537D01*
X-21134Y103503D01*
X-21119Y103465D01*
X-21049Y103369D01*
X-20985Y103268D01*
X-20956Y103241D01*
X-20932Y103208D01*
X-20840Y103132D01*
X-20753Y103050D01*
X-20718Y103031D01*
X-20687Y103005D01*
X-20579Y102954D01*
X-20475Y102897D01*
X-20436Y102887D01*
X-20399Y102870D01*
X-20282Y102847D01*
X-20167Y102817D01*
X-20107Y102814D01*
X-20087Y102810D01*
X-20067Y102811D01*
X-20006Y102807D01*
X26688Y102807D01*
X26786Y102820D01*
G37*
%LPC*%
G36*
X242707Y62259D02*
X242707Y62259D01*
X242641Y62266D01*
X242577Y62283D01*
X242416Y62293D01*
X241730Y62293D01*
X241729Y62294D01*
X241640Y62362D01*
X241558Y62437D01*
X241515Y62459D01*
X241478Y62489D01*
X241375Y62533D01*
X241276Y62585D01*
X241206Y62606D01*
X241186Y62615D01*
X241168Y62618D01*
X241122Y62632D01*
X215642Y68627D01*
X215601Y68632D01*
X215560Y68644D01*
X215400Y68660D01*
X180735Y69993D01*
X180701Y69990D01*
X180668Y69994D01*
X180543Y69976D01*
X180418Y69966D01*
X180386Y69954D01*
X180353Y69950D01*
X180201Y69898D01*
X178849Y69338D01*
X176751Y69338D01*
X174856Y70122D01*
X174826Y70131D01*
X174798Y70145D01*
X174673Y70173D01*
X174550Y70206D01*
X174518Y70207D01*
X174488Y70214D01*
X174327Y70218D01*
X173453Y70188D01*
X173439Y70193D01*
X172675Y71017D01*
X172659Y71031D01*
X172610Y71083D01*
X149003Y93116D01*
X148986Y93128D01*
X148940Y93171D01*
X147235Y94566D01*
X147170Y94607D01*
X147112Y94655D01*
X147036Y94691D01*
X146965Y94735D01*
X146893Y94758D01*
X146824Y94791D01*
X146742Y94807D01*
X146662Y94832D01*
X146586Y94836D01*
X146511Y94851D01*
X146428Y94845D01*
X146345Y94850D01*
X146270Y94836D01*
X146194Y94831D01*
X146115Y94805D01*
X146033Y94789D01*
X145964Y94756D01*
X145892Y94733D01*
X145821Y94688D01*
X145746Y94652D01*
X145687Y94603D01*
X145623Y94563D01*
X145566Y94502D01*
X145502Y94448D01*
X145457Y94387D01*
X145405Y94331D01*
X145365Y94258D01*
X145316Y94190D01*
X145288Y94119D01*
X145251Y94053D01*
X145231Y93972D01*
X145200Y93894D01*
X145191Y93818D01*
X145172Y93745D01*
X145162Y93584D01*
X145162Y70979D01*
X143822Y69639D01*
X130815Y69639D01*
X129476Y70979D01*
X129476Y74754D01*
X129464Y74844D01*
X129463Y74935D01*
X129460Y74947D01*
X129476Y76206D01*
X129475Y76212D01*
X129476Y76222D01*
X129476Y77491D01*
X129482Y77515D01*
X129491Y77636D01*
X129494Y77651D01*
X129493Y77659D01*
X129494Y77676D01*
X129765Y98843D01*
X129760Y98883D01*
X129763Y98923D01*
X129743Y99040D01*
X129729Y99159D01*
X129715Y99197D01*
X129708Y99236D01*
X129658Y99345D01*
X129616Y99456D01*
X129593Y99489D01*
X129576Y99526D01*
X129483Y99657D01*
X127708Y101852D01*
X127688Y101871D01*
X127673Y101893D01*
X127574Y101981D01*
X127478Y102073D01*
X127455Y102086D01*
X127435Y102104D01*
X127317Y102164D01*
X127201Y102229D01*
X127175Y102236D01*
X127152Y102248D01*
X127022Y102277D01*
X126894Y102312D01*
X126867Y102312D01*
X126841Y102318D01*
X126709Y102314D01*
X126576Y102315D01*
X126550Y102309D01*
X126523Y102308D01*
X126396Y102271D01*
X126267Y102240D01*
X126244Y102227D01*
X126218Y102220D01*
X126104Y102152D01*
X125987Y102090D01*
X125967Y102072D01*
X125944Y102058D01*
X125823Y101952D01*
X124896Y101025D01*
X124835Y100946D01*
X124767Y100874D01*
X124738Y100821D01*
X124701Y100773D01*
X124662Y100682D01*
X124614Y100596D01*
X124599Y100537D01*
X124575Y100481D01*
X124559Y100384D01*
X124534Y100288D01*
X124528Y100188D01*
X124525Y100167D01*
X124526Y100155D01*
X124524Y100127D01*
X124524Y70490D01*
X123185Y69151D01*
X110178Y69151D01*
X108838Y70490D01*
X108838Y96197D01*
X109280Y96639D01*
X109365Y96748D01*
X109453Y96855D01*
X109462Y96874D01*
X109475Y96890D01*
X109530Y97018D01*
X109589Y97143D01*
X109593Y97163D01*
X109601Y97182D01*
X109623Y97320D01*
X109649Y97456D01*
X109648Y97476D01*
X109651Y97496D01*
X109638Y97635D01*
X109629Y97773D01*
X109623Y97792D01*
X109621Y97812D01*
X109574Y97943D01*
X109531Y98075D01*
X109520Y98093D01*
X109513Y98112D01*
X109435Y98226D01*
X109361Y98344D01*
X109346Y98358D01*
X109335Y98375D01*
X109231Y98467D01*
X109129Y98562D01*
X109111Y98572D01*
X109096Y98585D01*
X108973Y98648D01*
X108851Y98716D01*
X108831Y98721D01*
X108813Y98730D01*
X108677Y98760D01*
X108543Y98795D01*
X108515Y98797D01*
X108503Y98800D01*
X108482Y98799D01*
X108382Y98805D01*
X85294Y98805D01*
X85176Y98790D01*
X85057Y98783D01*
X85019Y98770D01*
X84978Y98765D01*
X84868Y98722D01*
X84755Y98685D01*
X84720Y98663D01*
X84683Y98648D01*
X84587Y98579D01*
X84486Y98515D01*
X84458Y98485D01*
X84425Y98462D01*
X84349Y98370D01*
X84268Y98283D01*
X84248Y98248D01*
X84223Y98217D01*
X84172Y98109D01*
X84114Y98005D01*
X84104Y97965D01*
X84087Y97929D01*
X84065Y97812D01*
X84035Y97697D01*
X84031Y97637D01*
X84027Y97617D01*
X84029Y97596D01*
X84025Y97536D01*
X84025Y92643D01*
X83132Y91750D01*
X73868Y91750D01*
X72975Y92643D01*
X72975Y97980D01*
X73009Y98059D01*
X73063Y98165D01*
X73072Y98204D01*
X73088Y98241D01*
X73107Y98359D01*
X73133Y98475D01*
X73132Y98516D01*
X73138Y98555D01*
X73127Y98674D01*
X73123Y98793D01*
X73112Y98832D01*
X73108Y98872D01*
X73068Y98984D01*
X73035Y99098D01*
X73014Y99133D01*
X73001Y99171D01*
X72934Y99270D01*
X72873Y99372D01*
X72834Y99417D01*
X72822Y99434D01*
X72807Y99448D01*
X72767Y99493D01*
X71818Y100442D01*
X71818Y117045D01*
X73455Y118682D01*
X121808Y118682D01*
X121944Y118546D01*
X122022Y118485D01*
X122094Y118417D01*
X122147Y118388D01*
X122195Y118351D01*
X122286Y118312D01*
X122373Y118264D01*
X122431Y118249D01*
X122487Y118225D01*
X122585Y118209D01*
X122681Y118184D01*
X122781Y118178D01*
X122801Y118175D01*
X122813Y118176D01*
X122841Y118174D01*
X126492Y118174D01*
X126569Y118135D01*
X126608Y118126D01*
X126645Y118110D01*
X126763Y118092D01*
X126879Y118065D01*
X126920Y118067D01*
X126960Y118060D01*
X127078Y118071D01*
X127197Y118075D01*
X127236Y118086D01*
X127276Y118090D01*
X127388Y118130D01*
X127503Y118163D01*
X127521Y118174D01*
X131159Y118174D01*
X131257Y118187D01*
X131356Y118190D01*
X131414Y118206D01*
X131474Y118214D01*
X131566Y118251D01*
X131661Y118278D01*
X131714Y118309D01*
X131770Y118331D01*
X131850Y118389D01*
X131935Y118440D01*
X132011Y118506D01*
X132027Y118518D01*
X132035Y118527D01*
X132056Y118546D01*
X132192Y118682D01*
X155145Y118682D01*
X170648Y103179D01*
X170727Y103118D01*
X170799Y103050D01*
X170852Y103021D01*
X170900Y102984D01*
X170991Y102945D01*
X171077Y102897D01*
X171136Y102882D01*
X171191Y102858D01*
X171289Y102842D01*
X171385Y102817D01*
X171485Y102811D01*
X171506Y102808D01*
X171518Y102809D01*
X171546Y102807D01*
X202719Y102807D01*
X202788Y102816D01*
X202857Y102815D01*
X203015Y102842D01*
X241121Y111988D01*
X241222Y112026D01*
X241327Y112056D01*
X241371Y112082D01*
X241418Y112100D01*
X241507Y112163D01*
X241601Y112218D01*
X241660Y112270D01*
X241678Y112283D01*
X241689Y112296D01*
X241722Y112324D01*
X241730Y112332D01*
X242407Y112332D01*
X242475Y112341D01*
X242544Y112340D01*
X242703Y112367D01*
X243361Y112525D01*
X243371Y112519D01*
X243470Y112474D01*
X243565Y112422D01*
X243614Y112409D01*
X243660Y112388D01*
X243768Y112370D01*
X243873Y112342D01*
X243952Y112337D01*
X243974Y112334D01*
X243990Y112335D01*
X244034Y112332D01*
X244045Y112332D01*
X244524Y111854D01*
X244578Y111811D01*
X244626Y111762D01*
X244758Y111669D01*
X245335Y111315D01*
X245338Y111304D01*
X245376Y111203D01*
X245406Y111098D01*
X245432Y111054D01*
X245450Y111007D01*
X245513Y110918D01*
X245568Y110824D01*
X245620Y110765D01*
X245633Y110747D01*
X245646Y110736D01*
X245674Y110703D01*
X245682Y110695D01*
X245682Y110018D01*
X245691Y109950D01*
X245690Y109881D01*
X245717Y109722D01*
X245875Y109064D01*
X245869Y109054D01*
X245824Y108955D01*
X245772Y108860D01*
X245759Y108811D01*
X245738Y108765D01*
X245720Y108657D01*
X245692Y108552D01*
X245687Y108473D01*
X245684Y108451D01*
X245685Y108435D01*
X245682Y108391D01*
X245682Y66244D01*
X245696Y66133D01*
X245702Y66021D01*
X245716Y65976D01*
X245722Y65928D01*
X245763Y65824D01*
X245796Y65717D01*
X245831Y65652D01*
X245839Y65632D01*
X245850Y65618D01*
X245872Y65575D01*
X245873Y65574D01*
X245716Y64907D01*
X245709Y64841D01*
X245692Y64777D01*
X245682Y64616D01*
X245682Y63930D01*
X245681Y63929D01*
X245613Y63840D01*
X245538Y63758D01*
X245516Y63715D01*
X245486Y63678D01*
X245442Y63575D01*
X245390Y63476D01*
X245369Y63406D01*
X245360Y63386D01*
X245357Y63368D01*
X245343Y63322D01*
X245343Y63321D01*
X244760Y62960D01*
X244708Y62918D01*
X244651Y62884D01*
X244530Y62778D01*
X244045Y62293D01*
X244044Y62293D01*
X243933Y62279D01*
X243821Y62273D01*
X243776Y62259D01*
X243728Y62253D01*
X243624Y62212D01*
X243517Y62179D01*
X243452Y62144D01*
X243432Y62136D01*
X243418Y62125D01*
X243375Y62103D01*
X243374Y62102D01*
X242707Y62259D01*
G37*
%LPD*%
G36*
X243018Y63834D02*
X243018Y63834D01*
X243124Y63841D01*
X243175Y63857D01*
X243228Y63865D01*
X243326Y63906D01*
X243427Y63939D01*
X243472Y63967D01*
X243521Y63988D01*
X243606Y64052D01*
X243696Y64109D01*
X243732Y64148D01*
X243775Y64180D01*
X243841Y64263D01*
X243914Y64340D01*
X243939Y64387D01*
X243972Y64429D01*
X244016Y64526D01*
X244067Y64619D01*
X244080Y64670D01*
X244102Y64719D01*
X244120Y64824D01*
X244147Y64927D01*
X244152Y65011D01*
X244156Y65033D01*
X244154Y65048D01*
X244157Y65088D01*
X244157Y109538D01*
X244143Y109646D01*
X244138Y109755D01*
X244123Y109803D01*
X244117Y109853D01*
X244077Y109955D01*
X244045Y110059D01*
X244018Y110102D01*
X244000Y110149D01*
X243936Y110237D01*
X243879Y110330D01*
X243843Y110365D01*
X243813Y110406D01*
X243729Y110476D01*
X243651Y110552D01*
X243607Y110577D01*
X243568Y110609D01*
X243469Y110655D01*
X243375Y110710D01*
X243326Y110723D01*
X243280Y110744D01*
X243173Y110765D01*
X243068Y110794D01*
X243017Y110795D01*
X242968Y110804D01*
X242859Y110797D01*
X242750Y110799D01*
X242672Y110786D01*
X242651Y110784D01*
X242634Y110779D01*
X242591Y110772D01*
X203050Y101282D01*
X170388Y101282D01*
X154885Y116785D01*
X154807Y116846D01*
X154735Y116914D01*
X154682Y116943D01*
X154634Y116980D01*
X154543Y117019D01*
X154456Y117067D01*
X154398Y117082D01*
X154342Y117106D01*
X154244Y117122D01*
X154148Y117147D01*
X154048Y117153D01*
X154028Y117156D01*
X154016Y117155D01*
X153988Y117157D01*
X134840Y117157D01*
X134742Y117144D01*
X134643Y117141D01*
X134585Y117125D01*
X134525Y117117D01*
X134433Y117081D01*
X134338Y117053D01*
X134285Y117022D01*
X134229Y117000D01*
X134149Y116942D01*
X134064Y116891D01*
X133988Y116825D01*
X133972Y116813D01*
X133964Y116804D01*
X133943Y116785D01*
X133495Y116338D01*
X133478Y116335D01*
X133368Y116292D01*
X133255Y116255D01*
X133220Y116233D01*
X133183Y116218D01*
X133087Y116149D01*
X132986Y116085D01*
X132958Y116055D01*
X132925Y116032D01*
X132849Y115940D01*
X132768Y115853D01*
X132748Y115818D01*
X132723Y115787D01*
X132672Y115679D01*
X132614Y115575D01*
X132604Y115535D01*
X132587Y115499D01*
X132565Y115382D01*
X132535Y115267D01*
X132531Y115207D01*
X132527Y115187D01*
X132529Y115166D01*
X132525Y115106D01*
X132525Y109360D01*
X132537Y109262D01*
X132540Y109163D01*
X132557Y109104D01*
X132565Y109044D01*
X132601Y108952D01*
X132629Y108857D01*
X132659Y108805D01*
X132682Y108749D01*
X132740Y108669D01*
X132790Y108583D01*
X132856Y108508D01*
X132868Y108491D01*
X132878Y108483D01*
X132897Y108462D01*
X133918Y107441D01*
X133933Y107429D01*
X134012Y107356D01*
X149977Y94294D01*
X173759Y72097D01*
X173802Y72066D01*
X173839Y72028D01*
X173930Y71973D01*
X174017Y71911D01*
X174066Y71892D01*
X174111Y71864D01*
X174213Y71834D01*
X174313Y71795D01*
X174365Y71788D01*
X174416Y71773D01*
X174576Y71757D01*
X200924Y70743D01*
X201047Y70754D01*
X201170Y70758D01*
X201205Y70768D01*
X201241Y70771D01*
X201357Y70812D01*
X201476Y70846D01*
X201507Y70865D01*
X201541Y70877D01*
X201643Y70945D01*
X201750Y71008D01*
X201789Y71043D01*
X201805Y71053D01*
X201819Y71069D01*
X201870Y71114D01*
X202056Y71300D01*
X207519Y71300D01*
X208010Y70809D01*
X208069Y70763D01*
X208121Y70710D01*
X208194Y70666D01*
X208261Y70614D01*
X208330Y70584D01*
X208394Y70546D01*
X208475Y70521D01*
X208553Y70488D01*
X208627Y70476D01*
X208698Y70455D01*
X208859Y70438D01*
X215729Y70174D01*
X242597Y63852D01*
X242703Y63841D01*
X242807Y63821D01*
X242860Y63824D01*
X242913Y63819D01*
X243018Y63834D01*
G37*
G36*
X-31853Y6236D02*
X-31853Y6236D01*
X-31754Y6239D01*
X-31696Y6256D01*
X-31636Y6264D01*
X-31543Y6300D01*
X-31448Y6328D01*
X-31396Y6358D01*
X-31340Y6381D01*
X-31260Y6439D01*
X-31174Y6489D01*
X-31099Y6555D01*
X-31083Y6567D01*
X-31075Y6577D01*
X-31054Y6595D01*
X-20640Y17010D01*
X-20554Y17119D01*
X-20466Y17226D01*
X-20457Y17245D01*
X-20445Y17261D01*
X-20389Y17389D01*
X-20330Y17514D01*
X-20326Y17534D01*
X-20318Y17553D01*
X-20296Y17691D01*
X-20270Y17827D01*
X-20272Y17847D01*
X-20268Y17867D01*
X-20281Y18006D01*
X-20290Y18144D01*
X-20296Y18163D01*
X-20298Y18183D01*
X-20345Y18315D01*
X-20388Y18446D01*
X-20399Y18464D01*
X-20406Y18483D01*
X-20484Y18598D01*
X-20558Y18715D01*
X-20573Y18729D01*
X-20584Y18746D01*
X-20689Y18838D01*
X-20790Y18933D01*
X-20808Y18943D01*
X-20823Y18956D01*
X-20947Y19020D01*
X-21068Y19087D01*
X-21088Y19092D01*
X-21106Y19101D01*
X-21242Y19131D01*
X-21376Y19166D01*
X-21404Y19168D01*
X-21416Y19171D01*
X-21437Y19170D01*
X-21537Y19176D01*
X-129129Y19176D01*
X-129267Y19159D01*
X-129406Y19146D01*
X-129425Y19139D01*
X-129445Y19136D01*
X-129574Y19085D01*
X-129705Y19038D01*
X-129722Y19027D01*
X-129740Y19019D01*
X-129853Y18938D01*
X-129968Y18860D01*
X-129981Y18844D01*
X-129998Y18833D01*
X-130087Y18725D01*
X-130178Y18621D01*
X-130188Y18603D01*
X-130201Y18588D01*
X-130260Y18462D01*
X-130323Y18338D01*
X-130327Y18318D01*
X-130336Y18300D01*
X-130362Y18163D01*
X-130393Y18028D01*
X-130392Y18007D01*
X-130396Y17988D01*
X-130387Y17849D01*
X-130383Y17710D01*
X-130377Y17690D01*
X-130376Y17670D01*
X-130333Y17538D01*
X-130295Y17404D01*
X-130284Y17387D01*
X-130278Y17368D01*
X-130204Y17250D01*
X-130133Y17130D01*
X-130115Y17109D01*
X-130108Y17099D01*
X-130093Y17085D01*
X-130027Y17010D01*
X-129075Y16058D01*
X-129075Y14850D01*
X-129063Y14752D01*
X-129060Y14653D01*
X-129043Y14595D01*
X-129035Y14535D01*
X-128999Y14442D01*
X-128971Y14347D01*
X-128941Y14295D01*
X-128918Y14239D01*
X-128860Y14159D01*
X-128810Y14073D01*
X-128744Y13998D01*
X-128732Y13982D01*
X-128722Y13974D01*
X-128704Y13953D01*
X-121346Y6595D01*
X-121268Y6535D01*
X-121196Y6467D01*
X-121143Y6438D01*
X-121095Y6401D01*
X-121004Y6361D01*
X-120918Y6313D01*
X-120859Y6298D01*
X-120803Y6274D01*
X-120705Y6259D01*
X-120610Y6234D01*
X-120510Y6228D01*
X-120489Y6224D01*
X-120477Y6226D01*
X-120449Y6224D01*
X-31951Y6224D01*
X-31853Y6236D01*
G37*
G36*
X-97559Y-56578D02*
X-97559Y-56578D01*
X-97531Y-56578D01*
X-97433Y-56541D01*
X-97394Y-56530D01*
X-97386Y-56524D01*
X-97376Y-56520D01*
X-50576Y-29520D01*
X-50555Y-29502D01*
X-50530Y-29491D01*
X-50481Y-29437D01*
X-50427Y-29388D01*
X-50415Y-29364D01*
X-50396Y-29344D01*
X-50372Y-29275D01*
X-50341Y-29209D01*
X-50340Y-29182D01*
X-50330Y-29156D01*
X-50335Y-29083D01*
X-50332Y-29010D01*
X-50341Y-28985D01*
X-50343Y-28958D01*
X-50387Y-28862D01*
X-50401Y-28824D01*
X-50408Y-28817D01*
X-50412Y-28806D01*
X-52686Y-25470D01*
X-52709Y-25447D01*
X-52732Y-25411D01*
X-55478Y-22451D01*
X-55504Y-22432D01*
X-55532Y-22400D01*
X-58688Y-19881D01*
X-58717Y-19867D01*
X-58750Y-19839D01*
X-62246Y-17819D01*
X-62276Y-17809D01*
X-62313Y-17787D01*
X-66071Y-16311D01*
X-66103Y-16305D01*
X-66143Y-16289D01*
X-70079Y-15389D01*
X-70111Y-15388D01*
X-70153Y-15378D01*
X-74179Y-15075D01*
X-74210Y-15079D01*
X-74254Y-15075D01*
X-78280Y-15375D01*
X-78311Y-15384D01*
X-78354Y-15386D01*
X-82290Y-16283D01*
X-82319Y-16297D01*
X-82362Y-16305D01*
X-86121Y-17779D01*
X-86148Y-17797D01*
X-86188Y-17812D01*
X-89685Y-19829D01*
X-89709Y-19850D01*
X-89747Y-19871D01*
X-92905Y-22388D01*
X-92925Y-22412D01*
X-92959Y-22439D01*
X-95707Y-25397D01*
X-95723Y-25425D01*
X-95753Y-25456D01*
X-98029Y-28791D01*
X-98041Y-28820D01*
X-98066Y-28856D01*
X-99819Y-32493D01*
X-99827Y-32524D01*
X-99846Y-32562D01*
X-101038Y-36420D01*
X-101041Y-36452D01*
X-101054Y-36493D01*
X-101657Y-40485D01*
X-101656Y-40517D01*
X-101663Y-40560D01*
X-101664Y-44598D01*
X-101661Y-44612D01*
X-101663Y-44621D01*
X-101658Y-44641D01*
X-101659Y-44672D01*
X-101058Y-48665D01*
X-101047Y-48695D01*
X-101042Y-48737D01*
X-99853Y-52596D01*
X-99838Y-52624D01*
X-99826Y-52666D01*
X-98075Y-56304D01*
X-98058Y-56326D01*
X-98049Y-56351D01*
X-97999Y-56404D01*
X-97955Y-56462D01*
X-97931Y-56476D01*
X-97912Y-56496D01*
X-97846Y-56525D01*
X-97782Y-56561D01*
X-97755Y-56565D01*
X-97730Y-56576D01*
X-97657Y-56576D01*
X-97585Y-56585D01*
X-97559Y-56578D01*
G37*
G36*
X-74222Y189704D02*
X-74222Y189704D01*
X-74179Y189700D01*
X-70153Y190003D01*
X-70122Y190011D01*
X-70079Y190014D01*
X-66143Y190914D01*
X-66114Y190927D01*
X-66071Y190936D01*
X-62313Y192412D01*
X-62286Y192429D01*
X-62246Y192444D01*
X-58750Y194464D01*
X-58726Y194485D01*
X-58688Y194506D01*
X-55532Y197025D01*
X-55512Y197049D01*
X-55478Y197076D01*
X-52732Y200036D01*
X-52716Y200064D01*
X-52686Y200095D01*
X-50412Y203431D01*
X-50402Y203457D01*
X-50385Y203477D01*
X-50364Y203547D01*
X-50335Y203615D01*
X-50336Y203642D01*
X-50328Y203668D01*
X-50336Y203741D01*
X-50336Y203814D01*
X-50347Y203839D01*
X-50350Y203866D01*
X-50386Y203929D01*
X-50414Y203996D01*
X-50434Y204015D01*
X-50447Y204039D01*
X-50528Y204106D01*
X-50558Y204134D01*
X-50567Y204138D01*
X-50576Y204145D01*
X-97376Y231145D01*
X-97401Y231154D01*
X-97424Y231169D01*
X-97495Y231185D01*
X-97564Y231208D01*
X-97591Y231206D01*
X-97618Y231212D01*
X-97689Y231198D01*
X-97762Y231193D01*
X-97787Y231180D01*
X-97813Y231175D01*
X-97874Y231134D01*
X-97939Y231101D01*
X-97956Y231080D01*
X-97979Y231065D01*
X-98040Y230979D01*
X-98065Y230948D01*
X-98068Y230938D01*
X-98075Y230929D01*
X-99826Y227291D01*
X-99833Y227260D01*
X-99853Y227221D01*
X-101042Y223362D01*
X-101045Y223331D01*
X-101058Y223290D01*
X-101659Y219297D01*
X-101657Y219265D01*
X-101664Y219223D01*
X-101663Y215185D01*
X-101657Y215155D01*
X-101659Y215143D01*
X-101657Y215135D01*
X-101657Y215110D01*
X-101054Y211118D01*
X-101043Y211088D01*
X-101038Y211045D01*
X-99846Y207187D01*
X-99831Y207159D01*
X-99819Y207118D01*
X-98066Y203481D01*
X-98047Y203455D01*
X-98029Y203416D01*
X-95753Y200081D01*
X-95730Y200059D01*
X-95707Y200022D01*
X-92959Y197064D01*
X-92934Y197045D01*
X-92905Y197013D01*
X-89747Y194496D01*
X-89719Y194482D01*
X-89685Y194454D01*
X-86188Y192437D01*
X-86158Y192427D01*
X-86121Y192404D01*
X-82362Y190930D01*
X-82330Y190925D01*
X-82290Y190908D01*
X-78354Y190011D01*
X-78322Y190010D01*
X-78280Y190000D01*
X-74254Y189700D01*
X-74222Y189704D01*
G37*
G36*
X-200761Y-56573D02*
X-200761Y-56573D01*
X-200688Y-56568D01*
X-200663Y-56555D01*
X-200637Y-56550D01*
X-200576Y-56509D01*
X-200511Y-56476D01*
X-200494Y-56455D01*
X-200471Y-56440D01*
X-200410Y-56354D01*
X-200385Y-56323D01*
X-200382Y-56313D01*
X-200375Y-56304D01*
X-198624Y-52666D01*
X-198617Y-52635D01*
X-198597Y-52596D01*
X-197408Y-48737D01*
X-197405Y-48706D01*
X-197392Y-48665D01*
X-196791Y-44672D01*
X-196793Y-44640D01*
X-196786Y-44598D01*
X-196787Y-40560D01*
X-196793Y-40529D01*
X-196793Y-40485D01*
X-197396Y-36493D01*
X-197407Y-36463D01*
X-197412Y-36420D01*
X-198604Y-32562D01*
X-198619Y-32534D01*
X-198631Y-32493D01*
X-200384Y-28856D01*
X-200403Y-28830D01*
X-200421Y-28791D01*
X-202697Y-25456D01*
X-202720Y-25434D01*
X-202743Y-25397D01*
X-205491Y-22439D01*
X-205516Y-22420D01*
X-205545Y-22388D01*
X-208703Y-19871D01*
X-208731Y-19857D01*
X-208765Y-19829D01*
X-212262Y-17812D01*
X-212292Y-17802D01*
X-212329Y-17779D01*
X-216088Y-16305D01*
X-216120Y-16300D01*
X-216160Y-16283D01*
X-220096Y-15386D01*
X-220128Y-15385D01*
X-220170Y-15375D01*
X-224197Y-15075D01*
X-224228Y-15079D01*
X-224271Y-15075D01*
X-228297Y-15378D01*
X-228328Y-15386D01*
X-228371Y-15389D01*
X-232307Y-16289D01*
X-232336Y-16302D01*
X-232379Y-16311D01*
X-236137Y-17787D01*
X-236164Y-17804D01*
X-236204Y-17819D01*
X-239700Y-19839D01*
X-239724Y-19860D01*
X-239762Y-19881D01*
X-242918Y-22400D01*
X-242938Y-22424D01*
X-242972Y-22451D01*
X-245718Y-25411D01*
X-245734Y-25439D01*
X-245764Y-25470D01*
X-248038Y-28806D01*
X-248048Y-28832D01*
X-248065Y-28852D01*
X-248086Y-28922D01*
X-248115Y-28990D01*
X-248115Y-29017D01*
X-248122Y-29043D01*
X-248114Y-29116D01*
X-248114Y-29189D01*
X-248103Y-29214D01*
X-248100Y-29241D01*
X-248064Y-29304D01*
X-248036Y-29371D01*
X-248016Y-29390D01*
X-248003Y-29414D01*
X-247922Y-29481D01*
X-247892Y-29509D01*
X-247883Y-29513D01*
X-247875Y-29520D01*
X-201075Y-56520D01*
X-201049Y-56529D01*
X-201026Y-56544D01*
X-200955Y-56560D01*
X-200886Y-56583D01*
X-200859Y-56581D01*
X-200832Y-56587D01*
X-200761Y-56573D01*
G37*
G36*
X-220170Y190000D02*
X-220170Y190000D01*
X-220139Y190009D01*
X-220096Y190011D01*
X-216160Y190908D01*
X-216131Y190922D01*
X-216088Y190930D01*
X-212329Y192404D01*
X-212302Y192422D01*
X-212262Y192437D01*
X-208765Y194454D01*
X-208741Y194475D01*
X-208703Y194496D01*
X-205545Y197013D01*
X-205525Y197037D01*
X-205491Y197064D01*
X-202743Y200022D01*
X-202727Y200050D01*
X-202697Y200081D01*
X-200421Y203416D01*
X-200409Y203445D01*
X-200384Y203481D01*
X-198631Y207118D01*
X-198623Y207149D01*
X-198604Y207187D01*
X-197412Y211045D01*
X-197409Y211077D01*
X-197396Y211118D01*
X-196793Y215110D01*
X-196794Y215142D01*
X-196787Y215185D01*
X-196786Y219223D01*
X-196792Y219254D01*
X-196791Y219297D01*
X-197392Y223290D01*
X-197403Y223320D01*
X-197408Y223362D01*
X-198597Y227221D01*
X-198612Y227249D01*
X-198624Y227291D01*
X-200375Y230929D01*
X-200392Y230951D01*
X-200401Y230976D01*
X-200451Y231029D01*
X-200495Y231087D01*
X-200519Y231101D01*
X-200538Y231121D01*
X-200604Y231150D01*
X-200668Y231186D01*
X-200695Y231190D01*
X-200720Y231201D01*
X-200793Y231201D01*
X-200865Y231210D01*
X-200891Y231203D01*
X-200919Y231203D01*
X-201017Y231166D01*
X-201056Y231155D01*
X-201064Y231149D01*
X-201075Y231145D01*
X-247875Y204145D01*
X-247895Y204127D01*
X-247920Y204116D01*
X-247969Y204062D01*
X-248024Y204013D01*
X-248035Y203989D01*
X-248054Y203969D01*
X-248078Y203900D01*
X-248109Y203834D01*
X-248111Y203807D01*
X-248120Y203781D01*
X-248115Y203708D01*
X-248118Y203635D01*
X-248109Y203610D01*
X-248107Y203583D01*
X-248063Y203487D01*
X-248049Y203449D01*
X-248042Y203442D01*
X-248038Y203431D01*
X-245764Y200095D01*
X-245741Y200072D01*
X-245718Y200036D01*
X-242972Y197076D01*
X-242946Y197057D01*
X-242918Y197025D01*
X-239762Y194506D01*
X-239733Y194492D01*
X-239700Y194464D01*
X-236204Y192444D01*
X-236174Y192434D01*
X-236137Y192412D01*
X-232379Y190936D01*
X-232347Y190930D01*
X-232307Y190914D01*
X-228371Y190014D01*
X-228339Y190013D01*
X-228297Y190003D01*
X-224271Y189700D01*
X-224240Y189704D01*
X-224197Y189700D01*
X-220170Y190000D01*
G37*
G36*
X-299199Y59816D02*
X-299199Y59816D01*
X-299188Y59815D01*
X-295164Y60116D01*
X-295133Y60125D01*
X-295090Y60127D01*
X-291156Y61025D01*
X-291127Y61038D01*
X-291084Y61047D01*
X-287328Y62522D01*
X-287301Y62539D01*
X-287261Y62554D01*
X-283766Y64572D01*
X-283742Y64593D01*
X-283704Y64614D01*
X-280549Y67130D01*
X-280529Y67154D01*
X-280494Y67181D01*
X-277750Y70139D01*
X-277733Y70166D01*
X-277703Y70197D01*
X-275430Y73531D01*
X-275417Y73561D01*
X-275393Y73596D01*
X-273642Y77232D01*
X-273634Y77263D01*
X-273614Y77301D01*
X-272425Y81157D01*
X-272422Y81189D01*
X-272408Y81230D01*
X-271807Y85220D01*
X-271808Y85252D01*
X-271801Y85295D01*
X-271801Y89330D01*
X-271808Y89361D01*
X-271807Y89405D01*
X-272408Y93395D01*
X-272419Y93425D01*
X-272425Y93468D01*
X-273614Y97324D01*
X-273630Y97352D01*
X-273642Y97393D01*
X-275393Y101029D01*
X-275412Y101055D01*
X-275430Y101094D01*
X-277703Y104428D01*
X-277726Y104450D01*
X-277750Y104486D01*
X-280494Y107444D01*
X-280520Y107463D01*
X-280549Y107495D01*
X-283704Y110011D01*
X-283732Y110026D01*
X-283766Y110053D01*
X-287261Y112071D01*
X-287291Y112081D01*
X-287328Y112103D01*
X-291084Y113578D01*
X-291116Y113583D01*
X-291156Y113600D01*
X-295090Y114498D01*
X-295122Y114498D01*
X-295164Y114509D01*
X-299188Y114810D01*
X-299215Y114807D01*
X-299242Y114811D01*
X-299312Y114795D01*
X-299385Y114785D01*
X-299409Y114772D01*
X-299435Y114765D01*
X-299494Y114722D01*
X-299557Y114685D01*
X-299573Y114664D01*
X-299595Y114648D01*
X-299632Y114585D01*
X-299676Y114526D01*
X-299683Y114500D01*
X-299697Y114477D01*
X-299714Y114373D01*
X-299724Y114333D01*
X-299722Y114324D01*
X-299724Y114313D01*
X-299724Y60313D01*
X-299719Y60286D01*
X-299721Y60259D01*
X-299699Y60189D01*
X-299685Y60118D01*
X-299669Y60095D01*
X-299661Y60069D01*
X-299613Y60014D01*
X-299572Y59954D01*
X-299549Y59939D01*
X-299531Y59918D01*
X-299466Y59886D01*
X-299405Y59847D01*
X-299378Y59842D01*
X-299353Y59830D01*
X-299249Y59820D01*
X-299208Y59814D01*
X-299199Y59816D01*
G37*
G36*
X109689Y100350D02*
X109689Y100350D01*
X109842Y100368D01*
X109847Y100370D01*
X109853Y100371D01*
X109995Y100427D01*
X110139Y100482D01*
X110145Y100486D01*
X110149Y100488D01*
X110156Y100493D01*
X110275Y100567D01*
X120455Y107839D01*
X120473Y107855D01*
X120494Y107868D01*
X120615Y107974D01*
X121104Y108462D01*
X121164Y108541D01*
X121232Y108613D01*
X121261Y108666D01*
X121298Y108714D01*
X121338Y108805D01*
X121386Y108891D01*
X121401Y108950D01*
X121425Y109006D01*
X121440Y109104D01*
X121465Y109199D01*
X121471Y109299D01*
X121475Y109320D01*
X121473Y109332D01*
X121475Y109360D01*
X121475Y115541D01*
X121458Y115679D01*
X121445Y115817D01*
X121438Y115836D01*
X121435Y115856D01*
X121384Y115986D01*
X121337Y116116D01*
X121326Y116133D01*
X121318Y116152D01*
X121237Y116264D01*
X121159Y116379D01*
X121143Y116393D01*
X121132Y116409D01*
X121025Y116498D01*
X120920Y116590D01*
X120902Y116599D01*
X120887Y116612D01*
X120761Y116671D01*
X120637Y116735D01*
X120617Y116739D01*
X120599Y116748D01*
X120463Y116774D01*
X120327Y116804D01*
X120306Y116804D01*
X120287Y116807D01*
X120148Y116799D01*
X120009Y116794D01*
X119989Y116789D01*
X119969Y116788D01*
X119837Y116745D01*
X119703Y116706D01*
X119686Y116696D01*
X119667Y116690D01*
X119549Y116615D01*
X119429Y116545D01*
X119408Y116526D01*
X119398Y116519D01*
X119384Y116505D01*
X119308Y116438D01*
X119246Y116375D01*
X115704Y116375D01*
X115295Y116785D01*
X115217Y116846D01*
X115144Y116914D01*
X115091Y116943D01*
X115043Y116980D01*
X114952Y117019D01*
X114866Y117067D01*
X114807Y117082D01*
X114752Y117106D01*
X114654Y117122D01*
X114558Y117147D01*
X114458Y117153D01*
X114437Y117156D01*
X114425Y117155D01*
X114397Y117157D01*
X85907Y117157D01*
X85898Y117156D01*
X85889Y117157D01*
X85741Y117136D01*
X85592Y117117D01*
X85583Y117113D01*
X85574Y117112D01*
X85422Y117060D01*
X85187Y116963D01*
X83088Y116963D01*
X82853Y117060D01*
X82844Y117063D01*
X82836Y117067D01*
X82691Y117105D01*
X82547Y117144D01*
X82537Y117144D01*
X82528Y117147D01*
X82368Y117157D01*
X77970Y117157D01*
X77961Y117156D01*
X77951Y117157D01*
X77803Y117136D01*
X77654Y117117D01*
X77646Y117113D01*
X77637Y117112D01*
X77484Y117060D01*
X77249Y116963D01*
X75044Y116963D01*
X74926Y116948D01*
X74807Y116940D01*
X74769Y116928D01*
X74728Y116923D01*
X74618Y116879D01*
X74505Y116842D01*
X74470Y116821D01*
X74433Y116806D01*
X74337Y116736D01*
X74236Y116672D01*
X74208Y116643D01*
X74175Y116619D01*
X74099Y116527D01*
X74018Y116441D01*
X73998Y116405D01*
X73973Y116374D01*
X73922Y116266D01*
X73864Y116162D01*
X73854Y116123D01*
X73837Y116086D01*
X73815Y115970D01*
X73785Y115854D01*
X73781Y115794D01*
X73777Y115774D01*
X73779Y115754D01*
X73775Y115694D01*
X73775Y101600D01*
X73790Y101482D01*
X73797Y101363D01*
X73810Y101325D01*
X73815Y101284D01*
X73858Y101174D01*
X73895Y101061D01*
X73917Y101026D01*
X73932Y100989D01*
X74001Y100893D01*
X74065Y100792D01*
X74095Y100764D01*
X74118Y100731D01*
X74210Y100656D01*
X74297Y100574D01*
X74332Y100554D01*
X74363Y100529D01*
X74471Y100478D01*
X74575Y100420D01*
X74615Y100410D01*
X74651Y100393D01*
X74768Y100371D01*
X74883Y100341D01*
X74943Y100337D01*
X74963Y100333D01*
X74984Y100335D01*
X75044Y100331D01*
X109538Y100331D01*
X109689Y100350D01*
G37*
G36*
X-171424Y-49145D02*
X-171424Y-49145D01*
X-171398Y-49147D01*
X-171251Y-49125D01*
X-171104Y-49108D01*
X-171079Y-49100D01*
X-171053Y-49096D01*
X-170915Y-49041D01*
X-170776Y-48991D01*
X-170754Y-48977D01*
X-170729Y-48967D01*
X-170608Y-48882D01*
X-170483Y-48802D01*
X-170465Y-48783D01*
X-170443Y-48768D01*
X-170344Y-48658D01*
X-170241Y-48551D01*
X-170227Y-48529D01*
X-170210Y-48509D01*
X-170138Y-48379D01*
X-170062Y-48252D01*
X-170054Y-48227D01*
X-170041Y-48204D01*
X-170001Y-48061D01*
X-169956Y-47920D01*
X-169954Y-47894D01*
X-169946Y-47869D01*
X-169927Y-47625D01*
X-169927Y-36513D01*
X-169941Y-36387D01*
X-169948Y-36261D01*
X-169961Y-36214D01*
X-169967Y-36166D01*
X-170009Y-36047D01*
X-170044Y-35926D01*
X-170068Y-35884D01*
X-170084Y-35838D01*
X-170153Y-35732D01*
X-170214Y-35622D01*
X-170254Y-35575D01*
X-170273Y-35545D01*
X-170308Y-35512D01*
X-170373Y-35435D01*
X-200535Y-5273D01*
X-200556Y-5257D01*
X-200573Y-5237D01*
X-200692Y-5148D01*
X-200808Y-5056D01*
X-200832Y-5045D01*
X-200853Y-5029D01*
X-200989Y-4971D01*
X-201124Y-4907D01*
X-201149Y-4902D01*
X-201173Y-4891D01*
X-201320Y-4865D01*
X-201464Y-4834D01*
X-201490Y-4834D01*
X-201516Y-4830D01*
X-201665Y-4837D01*
X-201813Y-4840D01*
X-201838Y-4846D01*
X-201864Y-4848D01*
X-202007Y-4889D01*
X-202151Y-4925D01*
X-202174Y-4937D01*
X-202199Y-4944D01*
X-202328Y-5017D01*
X-202460Y-5085D01*
X-202480Y-5102D01*
X-202503Y-5114D01*
X-202690Y-5273D01*
X-211421Y-14004D01*
X-211437Y-14025D01*
X-211457Y-14042D01*
X-211546Y-14161D01*
X-211637Y-14277D01*
X-211649Y-14301D01*
X-211664Y-14322D01*
X-211723Y-14458D01*
X-211786Y-14592D01*
X-211792Y-14618D01*
X-211802Y-14642D01*
X-211829Y-14788D01*
X-211860Y-14933D01*
X-211859Y-14959D01*
X-211864Y-14985D01*
X-211856Y-15134D01*
X-211854Y-15281D01*
X-211847Y-15307D01*
X-211846Y-15333D01*
X-211805Y-15476D01*
X-211769Y-15619D01*
X-211757Y-15643D01*
X-211749Y-15668D01*
X-211677Y-15797D01*
X-211609Y-15929D01*
X-211592Y-15949D01*
X-211579Y-15972D01*
X-211421Y-16158D01*
X-211089Y-16490D01*
X-211076Y-16501D01*
X-211065Y-16513D01*
X-210978Y-16580D01*
X-210968Y-16591D01*
X-210848Y-16731D01*
X-210671Y-16908D01*
X-210610Y-16956D01*
X-210556Y-17012D01*
X-210435Y-17095D01*
X-210398Y-17125D01*
X-210380Y-17133D01*
X-210355Y-17151D01*
X-209013Y-17925D01*
X-209002Y-17930D01*
X-208992Y-17937D01*
X-208843Y-17999D01*
X-208694Y-18063D01*
X-208681Y-18065D01*
X-208670Y-18070D01*
X-208511Y-18096D01*
X-208474Y-18103D01*
X-207960Y-18513D01*
X-207936Y-18527D01*
X-207772Y-18641D01*
X-207217Y-18961D01*
X-207127Y-19087D01*
X-207034Y-19220D01*
X-207025Y-19228D01*
X-207018Y-19239D01*
X-206839Y-19406D01*
X-205508Y-20467D01*
X-205497Y-20474D01*
X-205488Y-20483D01*
X-205349Y-20566D01*
X-205212Y-20652D01*
X-205200Y-20656D01*
X-205189Y-20662D01*
X-205035Y-20712D01*
X-205001Y-20724D01*
X-204554Y-21206D01*
X-204532Y-21224D01*
X-204387Y-21361D01*
X-203885Y-21760D01*
X-203815Y-21898D01*
X-203744Y-22043D01*
X-203736Y-22053D01*
X-203730Y-22064D01*
X-203578Y-22256D01*
X-202420Y-23504D01*
X-202410Y-23512D01*
X-202403Y-23522D01*
X-202278Y-23625D01*
X-202155Y-23731D01*
X-202144Y-23736D01*
X-202134Y-23744D01*
X-201989Y-23816D01*
X-201957Y-23833D01*
X-201587Y-24376D01*
X-201568Y-24397D01*
X-201444Y-24554D01*
X-201008Y-25024D01*
X-200960Y-25170D01*
X-200910Y-25325D01*
X-200904Y-25336D01*
X-200900Y-25348D01*
X-200779Y-25560D01*
X-199819Y-26967D01*
X-199811Y-26976D01*
X-199805Y-26988D01*
X-199696Y-27110D01*
X-199591Y-27230D01*
X-199581Y-27238D01*
X-199572Y-27247D01*
X-199440Y-27340D01*
X-199411Y-27362D01*
X-199125Y-27954D01*
X-199111Y-27977D01*
X-199011Y-28151D01*
X-198497Y-28905D01*
X-198490Y-28927D01*
X-198451Y-28998D01*
X-198420Y-29072D01*
X-198366Y-29149D01*
X-198320Y-29231D01*
X-198248Y-29316D01*
X-198219Y-29357D01*
X-198195Y-29378D01*
X-198162Y-29417D01*
X-195783Y-31796D01*
X-195763Y-31812D01*
X-195746Y-31832D01*
X-195626Y-31920D01*
X-195510Y-32013D01*
X-195486Y-32024D01*
X-195465Y-32039D01*
X-195329Y-32098D01*
X-195195Y-32161D01*
X-195169Y-32167D01*
X-195145Y-32177D01*
X-194999Y-32204D01*
X-194854Y-32235D01*
X-194828Y-32234D01*
X-194802Y-32239D01*
X-194654Y-32231D01*
X-194506Y-32229D01*
X-194481Y-32222D01*
X-194454Y-32221D01*
X-194312Y-32180D01*
X-194168Y-32144D01*
X-194145Y-32132D01*
X-194119Y-32125D01*
X-193990Y-32052D01*
X-193858Y-31984D01*
X-193838Y-31967D01*
X-193815Y-31954D01*
X-193699Y-31855D01*
X-191742Y-31045D01*
X-189644Y-31045D01*
X-187705Y-31848D01*
X-186221Y-33332D01*
X-185418Y-35270D01*
X-185418Y-37369D01*
X-186228Y-39323D01*
X-186294Y-39412D01*
X-186386Y-39528D01*
X-186397Y-39552D01*
X-186413Y-39573D01*
X-186472Y-39709D01*
X-186535Y-39844D01*
X-186541Y-39869D01*
X-186551Y-39893D01*
X-186577Y-40039D01*
X-186608Y-40184D01*
X-186608Y-40210D01*
X-186613Y-40236D01*
X-186605Y-40384D01*
X-186602Y-40533D01*
X-186596Y-40558D01*
X-186595Y-40584D01*
X-186554Y-40727D01*
X-186517Y-40871D01*
X-186505Y-40894D01*
X-186498Y-40919D01*
X-186426Y-41049D01*
X-186358Y-41180D01*
X-186341Y-41201D01*
X-186328Y-41223D01*
X-186169Y-41410D01*
X-184086Y-43493D01*
X-184086Y-47625D01*
X-184083Y-47651D01*
X-184085Y-47677D01*
X-184063Y-47824D01*
X-184046Y-47971D01*
X-184037Y-47996D01*
X-184033Y-48022D01*
X-183978Y-48160D01*
X-183928Y-48299D01*
X-183914Y-48321D01*
X-183904Y-48346D01*
X-183820Y-48467D01*
X-183739Y-48592D01*
X-183720Y-48610D01*
X-183706Y-48632D01*
X-183596Y-48731D01*
X-183489Y-48834D01*
X-183466Y-48848D01*
X-183447Y-48865D01*
X-183317Y-48937D01*
X-183190Y-49013D01*
X-183165Y-49021D01*
X-183142Y-49034D01*
X-182999Y-49074D01*
X-182858Y-49119D01*
X-182832Y-49121D01*
X-182806Y-49129D01*
X-182563Y-49148D01*
X-171450Y-49148D01*
X-171424Y-49145D01*
G37*
%LPC*%
G36*
X117368Y123776D02*
X117368Y123776D01*
X116475Y124669D01*
X116475Y126838D01*
X116463Y126937D01*
X116460Y127036D01*
X116451Y127065D01*
X116451Y130037D01*
X116439Y130136D01*
X116436Y130235D01*
X116419Y130293D01*
X116411Y130353D01*
X116375Y130445D01*
X116347Y130540D01*
X116317Y130592D01*
X116294Y130649D01*
X116236Y130729D01*
X116186Y130814D01*
X116120Y130889D01*
X116108Y130906D01*
X116098Y130914D01*
X116080Y130935D01*
X114864Y132151D01*
X114864Y136106D01*
X114849Y136224D01*
X114841Y136343D01*
X114829Y136381D01*
X114824Y136422D01*
X114780Y136532D01*
X114743Y136645D01*
X114722Y136680D01*
X114707Y136717D01*
X114637Y136813D01*
X114573Y136914D01*
X114544Y136942D01*
X114520Y136975D01*
X114428Y137051D01*
X114342Y137132D01*
X114306Y137152D01*
X114275Y137177D01*
X114167Y137228D01*
X114063Y137286D01*
X114024Y137296D01*
X113987Y137313D01*
X113871Y137335D01*
X113755Y137365D01*
X113695Y137369D01*
X113675Y137373D01*
X113655Y137371D01*
X113595Y137375D01*
X106375Y137375D01*
X106347Y137387D01*
X106249Y137403D01*
X106153Y137428D01*
X106053Y137434D01*
X106033Y137437D01*
X106021Y137436D01*
X105993Y137438D01*
X96531Y137438D01*
X95638Y138331D01*
X95638Y150594D01*
X96531Y151487D01*
X97337Y151487D01*
X97455Y151502D01*
X97573Y151510D01*
X97612Y151522D01*
X97652Y151527D01*
X97763Y151571D01*
X97876Y151608D01*
X97910Y151629D01*
X97948Y151644D01*
X98044Y151714D01*
X98145Y151778D01*
X98172Y151807D01*
X98205Y151831D01*
X98281Y151923D01*
X98363Y152009D01*
X98382Y152045D01*
X98408Y152076D01*
X98459Y152184D01*
X98516Y152288D01*
X98526Y152327D01*
X98543Y152364D01*
X98566Y152480D01*
X98596Y152596D01*
X98599Y152656D01*
X98603Y152676D01*
X98602Y152696D01*
X98606Y152756D01*
X98606Y153576D01*
X98593Y153674D01*
X98590Y153773D01*
X98574Y153831D01*
X98566Y153892D01*
X98529Y153984D01*
X98502Y154079D01*
X98471Y154131D01*
X98449Y154187D01*
X98391Y154267D01*
X98340Y154353D01*
X98274Y154428D01*
X98262Y154445D01*
X98253Y154452D01*
X98234Y154474D01*
X97679Y155029D01*
X97601Y155089D01*
X97529Y155157D01*
X97476Y155186D01*
X97428Y155223D01*
X97337Y155263D01*
X97250Y155311D01*
X97192Y155326D01*
X97136Y155350D01*
X97038Y155365D01*
X96942Y155390D01*
X96842Y155396D01*
X96822Y155400D01*
X96810Y155398D01*
X96782Y155400D01*
X89681Y155400D01*
X88788Y156293D01*
X88788Y167557D01*
X89681Y168450D01*
X101944Y168450D01*
X102837Y167557D01*
X102837Y160456D01*
X102850Y160358D01*
X102853Y160259D01*
X102869Y160201D01*
X102877Y160140D01*
X102914Y160048D01*
X102941Y159953D01*
X102972Y159901D01*
X102994Y159845D01*
X103052Y159765D01*
X103103Y159679D01*
X103169Y159604D01*
X103181Y159587D01*
X103190Y159580D01*
X103209Y159558D01*
X105719Y157048D01*
X105719Y152756D01*
X105734Y152638D01*
X105742Y152520D01*
X105754Y152481D01*
X105759Y152441D01*
X105803Y152330D01*
X105840Y152217D01*
X105861Y152183D01*
X105876Y152145D01*
X105946Y152049D01*
X106010Y151948D01*
X106039Y151921D01*
X106063Y151888D01*
X106155Y151812D01*
X106241Y151730D01*
X106277Y151711D01*
X106308Y151685D01*
X106416Y151634D01*
X106520Y151577D01*
X106559Y151567D01*
X106596Y151550D01*
X106712Y151527D01*
X106828Y151497D01*
X106888Y151494D01*
X106908Y151490D01*
X106928Y151491D01*
X106988Y151487D01*
X107794Y151487D01*
X108485Y150796D01*
X108563Y150736D01*
X108635Y150668D01*
X108688Y150639D01*
X108736Y150602D01*
X108827Y150562D01*
X108914Y150514D01*
X108972Y150499D01*
X109028Y150475D01*
X109126Y150460D01*
X109222Y150435D01*
X109322Y150429D01*
X109342Y150425D01*
X109354Y150427D01*
X109382Y150425D01*
X118844Y150425D01*
X119737Y149532D01*
X119737Y143300D01*
X119750Y143202D01*
X119753Y143103D01*
X119769Y143045D01*
X119777Y142985D01*
X119814Y142892D01*
X119841Y142797D01*
X119872Y142745D01*
X119894Y142689D01*
X119952Y142609D01*
X120003Y142523D01*
X120069Y142448D01*
X120081Y142432D01*
X120090Y142424D01*
X120109Y142403D01*
X120961Y141550D01*
X120961Y135202D01*
X120974Y135104D01*
X120977Y135005D01*
X120993Y134947D01*
X121001Y134887D01*
X121038Y134794D01*
X121065Y134699D01*
X121096Y134647D01*
X121118Y134591D01*
X121176Y134511D01*
X121227Y134425D01*
X121293Y134350D01*
X121305Y134334D01*
X121314Y134326D01*
X121333Y134305D01*
X122549Y133089D01*
X122549Y127053D01*
X122535Y126999D01*
X122529Y126899D01*
X122525Y126879D01*
X122527Y126866D01*
X122525Y126838D01*
X122525Y124669D01*
X121632Y123776D01*
X117368Y123776D01*
G37*
%LPD*%
%LPC*%
G36*
X75151Y135147D02*
X75151Y135147D01*
X73212Y135950D01*
X71728Y137434D01*
X70925Y139373D01*
X70925Y141471D01*
X71728Y143410D01*
X73212Y144894D01*
X75151Y145697D01*
X75834Y145697D01*
X75972Y145714D01*
X76110Y145727D01*
X76130Y145734D01*
X76150Y145737D01*
X76279Y145788D01*
X76410Y145835D01*
X76427Y145846D01*
X76445Y145854D01*
X76558Y145935D01*
X76673Y146013D01*
X76686Y146029D01*
X76703Y146040D01*
X76791Y146148D01*
X76883Y146252D01*
X76893Y146270D01*
X76905Y146285D01*
X76965Y146411D01*
X77028Y146535D01*
X77032Y146555D01*
X77041Y146573D01*
X77067Y146710D01*
X77098Y146845D01*
X77097Y146866D01*
X77101Y146885D01*
X77092Y147024D01*
X77088Y147163D01*
X77082Y147183D01*
X77081Y147203D01*
X77038Y147335D01*
X77000Y147469D01*
X76989Y147486D01*
X76983Y147505D01*
X76908Y147623D01*
X76838Y147743D01*
X76819Y147764D01*
X76813Y147774D01*
X76798Y147788D01*
X76732Y147863D01*
X75256Y149339D01*
X75256Y154131D01*
X75241Y154249D01*
X75233Y154368D01*
X75221Y154406D01*
X75216Y154447D01*
X75172Y154557D01*
X75135Y154670D01*
X75114Y154705D01*
X75099Y154742D01*
X75029Y154838D01*
X74965Y154939D01*
X74936Y154967D01*
X74912Y155000D01*
X74820Y155076D01*
X74734Y155157D01*
X74698Y155177D01*
X74667Y155202D01*
X74559Y155253D01*
X74455Y155311D01*
X74416Y155321D01*
X74379Y155338D01*
X74263Y155360D01*
X74147Y155390D01*
X74087Y155394D01*
X74067Y155398D01*
X74047Y155396D01*
X73987Y155400D01*
X72681Y155400D01*
X71788Y156293D01*
X71788Y167557D01*
X72681Y168450D01*
X84944Y168450D01*
X85837Y167557D01*
X85837Y156293D01*
X84944Y155400D01*
X83638Y155400D01*
X83520Y155385D01*
X83402Y155378D01*
X83363Y155365D01*
X83323Y155360D01*
X83212Y155317D01*
X83099Y155280D01*
X83065Y155258D01*
X83027Y155243D01*
X82931Y155174D01*
X82830Y155110D01*
X82803Y155080D01*
X82770Y155057D01*
X82694Y154965D01*
X82612Y154878D01*
X82593Y154843D01*
X82567Y154812D01*
X82516Y154704D01*
X82459Y154600D01*
X82449Y154560D01*
X82432Y154524D01*
X82409Y154407D01*
X82379Y154292D01*
X82376Y154232D01*
X82372Y154212D01*
X82373Y154191D01*
X82369Y154131D01*
X82369Y152811D01*
X82382Y152713D01*
X82385Y152614D01*
X82401Y152556D01*
X82409Y152496D01*
X82446Y152404D01*
X82473Y152309D01*
X82504Y152257D01*
X82526Y152200D01*
X82584Y152120D01*
X82635Y152035D01*
X82701Y151959D01*
X82713Y151943D01*
X82722Y151935D01*
X82741Y151914D01*
X82796Y151859D01*
X82874Y151798D01*
X82946Y151730D01*
X82999Y151701D01*
X83047Y151664D01*
X83138Y151625D01*
X83225Y151577D01*
X83283Y151562D01*
X83339Y151538D01*
X83437Y151522D01*
X83533Y151497D01*
X83633Y151491D01*
X83653Y151488D01*
X83665Y151489D01*
X83693Y151487D01*
X90794Y151487D01*
X91687Y150594D01*
X91687Y138331D01*
X90794Y137438D01*
X88452Y137438D01*
X88354Y137425D01*
X88255Y137422D01*
X88197Y137406D01*
X88137Y137398D01*
X88045Y137361D01*
X87950Y137334D01*
X87898Y137303D01*
X87841Y137281D01*
X87761Y137223D01*
X87676Y137172D01*
X87600Y137106D01*
X87584Y137094D01*
X87576Y137085D01*
X87555Y137066D01*
X86846Y136357D01*
X80121Y136357D01*
X80022Y136345D01*
X79923Y136342D01*
X79865Y136325D01*
X79805Y136317D01*
X79713Y136281D01*
X79618Y136253D01*
X79566Y136223D01*
X79509Y136200D01*
X79429Y136142D01*
X79344Y136092D01*
X79269Y136026D01*
X79252Y136014D01*
X79244Y136004D01*
X79223Y135986D01*
X79188Y135950D01*
X77249Y135147D01*
X75151Y135147D01*
G37*
%LPD*%
%LPC*%
G36*
X127368Y123776D02*
X127368Y123776D01*
X126475Y124669D01*
X126475Y126838D01*
X126463Y126937D01*
X126460Y127036D01*
X126451Y127066D01*
X126451Y134355D01*
X127588Y135491D01*
X127649Y135569D01*
X127717Y135642D01*
X127746Y135695D01*
X127783Y135743D01*
X127822Y135833D01*
X127870Y135920D01*
X127885Y135979D01*
X127909Y136034D01*
X127925Y136132D01*
X127950Y136228D01*
X127956Y136328D01*
X127959Y136348D01*
X127958Y136361D01*
X127960Y136389D01*
X127960Y138296D01*
X128898Y139233D01*
X128958Y139312D01*
X129026Y139384D01*
X129055Y139437D01*
X129092Y139485D01*
X129132Y139576D01*
X129180Y139662D01*
X129195Y139721D01*
X129219Y139777D01*
X129234Y139874D01*
X129259Y139970D01*
X129265Y140070D01*
X129269Y140091D01*
X129267Y140103D01*
X129269Y140131D01*
X129269Y152044D01*
X129254Y152162D01*
X129247Y152280D01*
X129234Y152319D01*
X129229Y152359D01*
X129186Y152470D01*
X129149Y152583D01*
X129127Y152617D01*
X129112Y152655D01*
X129043Y152751D01*
X128979Y152852D01*
X128949Y152879D01*
X128926Y152912D01*
X128834Y152988D01*
X128747Y153070D01*
X128712Y153089D01*
X128681Y153115D01*
X128573Y153166D01*
X128469Y153223D01*
X128429Y153233D01*
X128393Y153250D01*
X128276Y153273D01*
X128161Y153303D01*
X128101Y153306D01*
X128081Y153310D01*
X128060Y153309D01*
X128000Y153313D01*
X125568Y153313D01*
X124675Y154206D01*
X124675Y166469D01*
X125568Y167362D01*
X136832Y167362D01*
X137725Y166469D01*
X137725Y154206D01*
X136832Y153313D01*
X136636Y153313D01*
X136518Y153298D01*
X136399Y153290D01*
X136361Y153278D01*
X136320Y153273D01*
X136210Y153229D01*
X136097Y153192D01*
X136062Y153171D01*
X136025Y153156D01*
X135929Y153086D01*
X135828Y153022D01*
X135800Y152993D01*
X135767Y152969D01*
X135691Y152877D01*
X135610Y152791D01*
X135590Y152755D01*
X135565Y152724D01*
X135514Y152616D01*
X135456Y152512D01*
X135446Y152473D01*
X135429Y152436D01*
X135407Y152320D01*
X135377Y152204D01*
X135373Y152144D01*
X135369Y152124D01*
X135371Y152104D01*
X135367Y152044D01*
X135367Y139964D01*
X135379Y139866D01*
X135382Y139767D01*
X135399Y139708D01*
X135407Y139648D01*
X135443Y139556D01*
X135471Y139461D01*
X135501Y139409D01*
X135524Y139353D01*
X135582Y139273D01*
X135632Y139187D01*
X135698Y139112D01*
X135710Y139095D01*
X135720Y139088D01*
X135738Y139066D01*
X136509Y138296D01*
X136509Y136054D01*
X136524Y135936D01*
X136532Y135818D01*
X136544Y135779D01*
X136549Y135739D01*
X136593Y135628D01*
X136630Y135515D01*
X136651Y135481D01*
X136666Y135443D01*
X136736Y135347D01*
X136800Y135246D01*
X136829Y135219D01*
X136853Y135186D01*
X136945Y135110D01*
X137031Y135028D01*
X137067Y135009D01*
X137098Y134983D01*
X137206Y134932D01*
X137310Y134875D01*
X137349Y134865D01*
X137386Y134848D01*
X137502Y134825D01*
X137618Y134795D01*
X137678Y134792D01*
X137698Y134788D01*
X137718Y134789D01*
X137778Y134785D01*
X139883Y134785D01*
X142387Y132281D01*
X142387Y128740D01*
X139883Y126236D01*
X138794Y126236D01*
X138676Y126221D01*
X138557Y126213D01*
X138519Y126201D01*
X138478Y126196D01*
X138368Y126152D01*
X138255Y126115D01*
X138220Y126094D01*
X138183Y126079D01*
X138087Y126009D01*
X137986Y125945D01*
X137958Y125916D01*
X137925Y125892D01*
X137849Y125800D01*
X137768Y125714D01*
X137748Y125678D01*
X137723Y125647D01*
X137672Y125539D01*
X137614Y125435D01*
X137604Y125396D01*
X137587Y125359D01*
X137565Y125243D01*
X137535Y125127D01*
X137531Y125067D01*
X137527Y125047D01*
X137529Y125027D01*
X137525Y124967D01*
X137525Y124669D01*
X136632Y123776D01*
X127368Y123776D01*
G37*
%LPD*%
G36*
X122257Y70679D02*
X122257Y70679D01*
X122277Y70677D01*
X122378Y70699D01*
X122480Y70716D01*
X122498Y70725D01*
X122517Y70730D01*
X122606Y70783D01*
X122698Y70831D01*
X122711Y70846D01*
X122728Y70856D01*
X122796Y70934D01*
X122867Y71009D01*
X122875Y71027D01*
X122888Y71043D01*
X122927Y71139D01*
X122971Y71233D01*
X122973Y71252D01*
X122980Y71271D01*
X122999Y71438D01*
X122999Y101285D01*
X125951Y104237D01*
X126004Y104311D01*
X126063Y104380D01*
X126076Y104410D01*
X126094Y104436D01*
X126121Y104523D01*
X126155Y104608D01*
X126160Y104649D01*
X126167Y104672D01*
X126166Y104704D01*
X126174Y104775D01*
X126174Y115614D01*
X126172Y115624D01*
X126173Y115629D01*
X126171Y115638D01*
X126173Y115653D01*
X126151Y115755D01*
X126134Y115857D01*
X126125Y115874D01*
X126120Y115894D01*
X126067Y115983D01*
X126019Y116074D01*
X126005Y116088D01*
X125994Y116105D01*
X125916Y116172D01*
X125841Y116244D01*
X125823Y116252D01*
X125807Y116265D01*
X125711Y116304D01*
X125618Y116347D01*
X125598Y116349D01*
X125579Y116357D01*
X125413Y116375D01*
X123825Y116375D01*
X123805Y116372D01*
X123786Y116374D01*
X123684Y116352D01*
X123582Y116336D01*
X123565Y116326D01*
X123545Y116322D01*
X123456Y116269D01*
X123365Y116220D01*
X123351Y116206D01*
X123334Y116196D01*
X123267Y116117D01*
X123196Y116042D01*
X123187Y116024D01*
X123174Y116009D01*
X123135Y115913D01*
X123092Y115819D01*
X123090Y115799D01*
X123082Y115781D01*
X123064Y115614D01*
X123064Y108265D01*
X110587Y95788D01*
X110534Y95714D01*
X110474Y95645D01*
X110462Y95615D01*
X110443Y95589D01*
X110416Y95502D01*
X110382Y95417D01*
X110378Y95376D01*
X110371Y95353D01*
X110372Y95321D01*
X110364Y95250D01*
X110364Y71438D01*
X110367Y71418D01*
X110365Y71398D01*
X110387Y71297D01*
X110404Y71195D01*
X110413Y71177D01*
X110417Y71158D01*
X110470Y71069D01*
X110519Y70977D01*
X110533Y70964D01*
X110543Y70947D01*
X110622Y70879D01*
X110697Y70808D01*
X110715Y70800D01*
X110730Y70787D01*
X110826Y70748D01*
X110920Y70704D01*
X110940Y70702D01*
X110958Y70695D01*
X111125Y70676D01*
X122238Y70676D01*
X122257Y70679D01*
G37*
G36*
X142895Y71168D02*
X142895Y71168D01*
X142914Y71166D01*
X143016Y71188D01*
X143118Y71204D01*
X143135Y71214D01*
X143155Y71218D01*
X143244Y71271D01*
X143335Y71320D01*
X143349Y71334D01*
X143366Y71344D01*
X143433Y71423D01*
X143505Y71498D01*
X143513Y71516D01*
X143526Y71531D01*
X143565Y71627D01*
X143608Y71721D01*
X143610Y71741D01*
X143618Y71759D01*
X143636Y71926D01*
X143636Y95250D01*
X143622Y95340D01*
X143614Y95431D01*
X143602Y95461D01*
X143597Y95493D01*
X143554Y95573D01*
X143518Y95657D01*
X143492Y95689D01*
X143481Y95710D01*
X143458Y95732D01*
X143413Y95788D01*
X130936Y108265D01*
X130936Y115614D01*
X130933Y115634D01*
X130935Y115653D01*
X130913Y115755D01*
X130897Y115857D01*
X130887Y115874D01*
X130883Y115894D01*
X130830Y115983D01*
X130781Y116074D01*
X130767Y116088D01*
X130757Y116105D01*
X130678Y116172D01*
X130603Y116244D01*
X130585Y116252D01*
X130570Y116265D01*
X130474Y116304D01*
X130380Y116347D01*
X130360Y116349D01*
X130342Y116357D01*
X130175Y116375D01*
X129992Y116375D01*
X129941Y116426D01*
X129867Y116479D01*
X129798Y116538D01*
X129768Y116550D01*
X129742Y116569D01*
X129654Y116596D01*
X129570Y116630D01*
X129529Y116635D01*
X129507Y116642D01*
X129474Y116641D01*
X129403Y116649D01*
X128588Y116649D01*
X128568Y116646D01*
X128548Y116648D01*
X128447Y116626D01*
X128345Y116609D01*
X128327Y116600D01*
X128308Y116595D01*
X128219Y116542D01*
X128127Y116494D01*
X128114Y116480D01*
X128097Y116469D01*
X128029Y116391D01*
X127958Y116316D01*
X127950Y116298D01*
X127937Y116282D01*
X127898Y116186D01*
X127854Y116093D01*
X127852Y116073D01*
X127845Y116054D01*
X127826Y115888D01*
X127826Y104401D01*
X127835Y104350D01*
X127833Y104299D01*
X127854Y104230D01*
X127866Y104158D01*
X127890Y104113D01*
X127905Y104064D01*
X127968Y103965D01*
X127981Y103941D01*
X127988Y103934D01*
X127996Y103922D01*
X131303Y99832D01*
X131001Y76210D01*
X131002Y76206D01*
X131001Y76200D01*
X131001Y71926D01*
X131004Y71906D01*
X131002Y71887D01*
X131024Y71785D01*
X131041Y71683D01*
X131050Y71666D01*
X131055Y71646D01*
X131108Y71557D01*
X131156Y71466D01*
X131171Y71452D01*
X131181Y71435D01*
X131259Y71368D01*
X131334Y71296D01*
X131352Y71288D01*
X131368Y71275D01*
X131464Y71236D01*
X131558Y71193D01*
X131577Y71191D01*
X131596Y71183D01*
X131763Y71165D01*
X142875Y71165D01*
X142895Y71168D01*
G37*
%LPC*%
G36*
X152333Y-78387D02*
X152333Y-78387D01*
X148961Y-76990D01*
X146380Y-74409D01*
X144984Y-71037D01*
X144984Y-67387D01*
X146380Y-64015D01*
X148961Y-61434D01*
X152333Y-60037D01*
X155983Y-60037D01*
X159356Y-61434D01*
X161936Y-64015D01*
X163333Y-67387D01*
X163333Y-71037D01*
X161936Y-74409D01*
X159356Y-76990D01*
X155983Y-78387D01*
X152333Y-78387D01*
G37*
%LPD*%
%LPC*%
G36*
X-195494Y157543D02*
X-195494Y157543D01*
X-198855Y158935D01*
X-201428Y161507D01*
X-202820Y164868D01*
X-202820Y168507D01*
X-201428Y171868D01*
X-198855Y174440D01*
X-195494Y175832D01*
X-191856Y175832D01*
X-188495Y174440D01*
X-185922Y171868D01*
X-184530Y168507D01*
X-184530Y164868D01*
X-185922Y161507D01*
X-188495Y158935D01*
X-191856Y157543D01*
X-195494Y157543D01*
G37*
%LPD*%
%LPC*%
G36*
X-195494Y132143D02*
X-195494Y132143D01*
X-198855Y133535D01*
X-201428Y136107D01*
X-202820Y139468D01*
X-202820Y143107D01*
X-201428Y146468D01*
X-198855Y149040D01*
X-195494Y150432D01*
X-191856Y150432D01*
X-188495Y149040D01*
X-185922Y146468D01*
X-184530Y143107D01*
X-184530Y139468D01*
X-185922Y136107D01*
X-188495Y133535D01*
X-191856Y132143D01*
X-195494Y132143D01*
G37*
%LPD*%
%LPC*%
G36*
X-195494Y106743D02*
X-195494Y106743D01*
X-198855Y108135D01*
X-201428Y110707D01*
X-202820Y114068D01*
X-202820Y117707D01*
X-201428Y121068D01*
X-198855Y123640D01*
X-195494Y125032D01*
X-191856Y125032D01*
X-188495Y123640D01*
X-185922Y121068D01*
X-184530Y117707D01*
X-184530Y114068D01*
X-185922Y110707D01*
X-188495Y108135D01*
X-191856Y106743D01*
X-195494Y106743D01*
G37*
%LPD*%
%LPC*%
G36*
X199749Y-30201D02*
X199749Y-30201D01*
X192668Y-17935D01*
X192995Y-16715D01*
X205260Y-9633D01*
X206480Y-9960D01*
X213562Y-22226D01*
X213235Y-23446D01*
X200969Y-30528D01*
X199749Y-30201D01*
G37*
%LPD*%
G36*
X165545Y-6275D02*
X165545Y-6275D01*
X165644Y-6272D01*
X165702Y-6256D01*
X165762Y-6248D01*
X165854Y-6212D01*
X165949Y-6184D01*
X166001Y-6153D01*
X166058Y-6131D01*
X166138Y-6073D01*
X166223Y-6023D01*
X166299Y-5956D01*
X166315Y-5944D01*
X166323Y-5935D01*
X166344Y-5916D01*
X177916Y5656D01*
X177977Y5734D01*
X178045Y5806D01*
X178074Y5859D01*
X178111Y5907D01*
X178150Y5998D01*
X178198Y6085D01*
X178213Y6143D01*
X178237Y6199D01*
X178253Y6297D01*
X178278Y6393D01*
X178283Y6472D01*
X178285Y6486D01*
X178285Y6497D01*
X178287Y6513D01*
X178286Y6525D01*
X178288Y6553D01*
X178288Y7759D01*
X178270Y7896D01*
X178257Y8035D01*
X178250Y8054D01*
X178248Y8074D01*
X178197Y8203D01*
X178150Y8334D01*
X178138Y8351D01*
X178131Y8370D01*
X178049Y8482D01*
X177971Y8597D01*
X177956Y8611D01*
X177944Y8627D01*
X177837Y8716D01*
X177733Y8808D01*
X177715Y8817D01*
X177699Y8830D01*
X177573Y8889D01*
X177449Y8953D01*
X177430Y8957D01*
X177411Y8966D01*
X177275Y8992D01*
X177139Y9022D01*
X177119Y9022D01*
X177099Y9025D01*
X176961Y9017D01*
X176821Y9013D01*
X176802Y9007D01*
X176782Y9006D01*
X176649Y8963D01*
X176516Y8924D01*
X176498Y8914D01*
X176479Y8908D01*
X176361Y8833D01*
X176242Y8763D01*
X176221Y8744D01*
X176210Y8737D01*
X176196Y8722D01*
X176121Y8656D01*
X170239Y2774D01*
X161646Y2774D01*
X159637Y4783D01*
X158531Y5889D01*
X158422Y5973D01*
X158314Y6062D01*
X158296Y6071D01*
X158280Y6084D01*
X158152Y6139D01*
X158026Y6198D01*
X158007Y6202D01*
X157988Y6210D01*
X157850Y6232D01*
X157714Y6258D01*
X157694Y6257D01*
X157674Y6260D01*
X157535Y6247D01*
X157397Y6238D01*
X157378Y6232D01*
X157357Y6230D01*
X157226Y6183D01*
X157094Y6140D01*
X157077Y6129D01*
X157058Y6122D01*
X156943Y6044D01*
X156826Y5970D01*
X156812Y5955D01*
X156795Y5944D01*
X156703Y5840D01*
X156608Y5738D01*
X156598Y5720D01*
X156584Y5705D01*
X156521Y5582D01*
X156454Y5460D01*
X156449Y5440D01*
X156440Y5422D01*
X156409Y5286D01*
X156375Y5152D01*
X156373Y5124D01*
X156370Y5112D01*
X156371Y5091D01*
X156364Y4991D01*
X156364Y4890D01*
X153860Y2386D01*
X150106Y2386D01*
X150090Y2392D01*
X149993Y2408D01*
X149897Y2433D01*
X149797Y2439D01*
X149776Y2442D01*
X149764Y2441D01*
X149736Y2443D01*
X145081Y2443D01*
X144963Y2428D01*
X144845Y2420D01*
X144806Y2408D01*
X144766Y2403D01*
X144655Y2359D01*
X144542Y2322D01*
X144508Y2301D01*
X144470Y2286D01*
X144374Y2216D01*
X144273Y2152D01*
X144246Y2123D01*
X144213Y2099D01*
X144137Y2007D01*
X144055Y1921D01*
X144036Y1885D01*
X144010Y1854D01*
X143959Y1746D01*
X143902Y1642D01*
X143892Y1603D01*
X143875Y1566D01*
X143852Y1450D01*
X143822Y1334D01*
X143819Y1274D01*
X143815Y1254D01*
X143816Y1234D01*
X143812Y1174D01*
X143812Y-699D01*
X143827Y-817D01*
X143835Y-935D01*
X143847Y-974D01*
X143852Y-1014D01*
X143896Y-1125D01*
X143933Y-1238D01*
X143954Y-1272D01*
X143969Y-1310D01*
X144039Y-1406D01*
X144103Y-1507D01*
X144132Y-1534D01*
X144156Y-1567D01*
X144248Y-1643D01*
X144334Y-1725D01*
X144370Y-1744D01*
X144401Y-1770D01*
X144509Y-1821D01*
X144613Y-1878D01*
X144652Y-1888D01*
X144689Y-1905D01*
X144805Y-1928D01*
X144921Y-1958D01*
X144981Y-1961D01*
X145001Y-1965D01*
X145021Y-1964D01*
X145081Y-1968D01*
X148529Y-1968D01*
X152477Y-5916D01*
X152555Y-5977D01*
X152627Y-6045D01*
X152680Y-6074D01*
X152728Y-6111D01*
X152819Y-6150D01*
X152906Y-6198D01*
X152964Y-6213D01*
X153020Y-6237D01*
X153118Y-6253D01*
X153214Y-6278D01*
X153314Y-6284D01*
X153334Y-6287D01*
X153346Y-6286D01*
X153374Y-6288D01*
X165447Y-6288D01*
X165545Y-6275D01*
G37*
G36*
X-68213Y128219D02*
X-68213Y128219D01*
X-68162Y128221D01*
X-68130Y128238D01*
X-68094Y128247D01*
X-68054Y128279D01*
X-68010Y128304D01*
X-67989Y128334D01*
X-67960Y128357D01*
X-67939Y128404D01*
X-67910Y128445D01*
X-67902Y128487D01*
X-67889Y128515D01*
X-67890Y128546D01*
X-67882Y128588D01*
X-67882Y146050D01*
X-67894Y146100D01*
X-67896Y146151D01*
X-67913Y146183D01*
X-67922Y146219D01*
X-67954Y146258D01*
X-67979Y146303D01*
X-68009Y146324D01*
X-68032Y146352D01*
X-68079Y146373D01*
X-68120Y146403D01*
X-68162Y146411D01*
X-68190Y146423D01*
X-68221Y146422D01*
X-68263Y146430D01*
X-80963Y146430D01*
X-81012Y146419D01*
X-81063Y146417D01*
X-81095Y146399D01*
X-81131Y146391D01*
X-81171Y146358D01*
X-81215Y146334D01*
X-81237Y146304D01*
X-81265Y146281D01*
X-81286Y146234D01*
X-81315Y146192D01*
X-81323Y146150D01*
X-81336Y146122D01*
X-81335Y146092D01*
X-81343Y146050D01*
X-81343Y129824D01*
X-81325Y129750D01*
X-81312Y129676D01*
X-81306Y129665D01*
X-81303Y129656D01*
X-81280Y129627D01*
X-81231Y129555D01*
X-79995Y128319D01*
X-79930Y128279D01*
X-79868Y128235D01*
X-79856Y128233D01*
X-79847Y128227D01*
X-79810Y128224D01*
X-79726Y128207D01*
X-68263Y128207D01*
X-68213Y128219D01*
G37*
%LPC*%
G36*
X183575Y32350D02*
X183575Y32350D01*
X182682Y33244D01*
X182682Y36913D01*
X182678Y36943D01*
X182680Y36972D01*
X182658Y37100D01*
X182642Y37229D01*
X182631Y37256D01*
X182626Y37285D01*
X182572Y37404D01*
X182525Y37525D01*
X182507Y37548D01*
X182495Y37575D01*
X182414Y37677D01*
X182338Y37782D01*
X182315Y37801D01*
X182297Y37824D01*
X182193Y37902D01*
X182093Y37985D01*
X182066Y37997D01*
X182043Y38015D01*
X181898Y38086D01*
X181162Y38391D01*
X179678Y39875D01*
X178875Y41813D01*
X178875Y43912D01*
X179678Y45850D01*
X181162Y47334D01*
X183101Y48137D01*
X185199Y48137D01*
X187138Y47334D01*
X188700Y45772D01*
X188779Y45711D01*
X188851Y45643D01*
X188904Y45614D01*
X188952Y45577D01*
X189043Y45537D01*
X189129Y45490D01*
X189188Y45474D01*
X189244Y45450D01*
X189342Y45435D01*
X189437Y45410D01*
X189537Y45404D01*
X189558Y45401D01*
X189570Y45402D01*
X189598Y45400D01*
X195838Y45400D01*
X196731Y44507D01*
X196731Y33244D01*
X195838Y32350D01*
X183575Y32350D01*
G37*
%LPD*%
D10*
X-186888Y17463D03*
X-171888Y17463D03*
D11*
X-193675Y90488D03*
D12*
X-91513Y55563D03*
X-108513Y55563D03*
X-74613Y140725D03*
X-74613Y157725D03*
D13*
X-193675Y166688D03*
X-193675Y141288D03*
X-193675Y115888D03*
D14*
G36*
X211925Y-22441D02*
X200755Y-28891D01*
X194305Y-17721D01*
X205475Y-11271D01*
X211925Y-22441D01*
G37*
D15*
X220435Y-10081D03*
D16*
X204788Y80025D03*
X204788Y66025D03*
D17*
X182563Y87625D03*
X182563Y58425D03*
D18*
X145526Y5238D03*
X145526Y238D03*
X145526Y-4763D03*
X145526Y-9763D03*
X145526Y-14763D03*
X140526Y5238D03*
X140526Y238D03*
X140526Y-4763D03*
X140526Y-9763D03*
X140526Y-14763D03*
X135526Y5238D03*
X135526Y238D03*
X135526Y-4763D03*
X135526Y-9763D03*
X135526Y-14763D03*
D19*
X119500Y112649D03*
X124500Y112649D03*
X129500Y112649D03*
X134500Y112649D03*
X134500Y128651D03*
X129500Y128651D03*
X124500Y128651D03*
X119500Y128651D03*
D20*
X48500Y114275D03*
X48500Y104775D03*
X48500Y95275D03*
X78500Y95275D03*
X78500Y104775D03*
X78500Y114275D03*
D21*
X63500Y104775D03*
D22*
X137250Y82550D03*
X116750Y82550D03*
D12*
X112713Y160900D03*
X112713Y143900D03*
D23*
X85163Y144463D03*
X102163Y144463D03*
X148200Y160338D03*
X131200Y160338D03*
D12*
X148200Y28575D03*
X131200Y28575D03*
X116450Y12700D03*
X99450Y12700D03*
D23*
X131200Y44450D03*
X148200Y44450D03*
D12*
X116450Y-3175D03*
X99450Y-3175D03*
D23*
X43888Y52388D03*
X60888Y52388D03*
X43888Y34925D03*
X60888Y34925D03*
X43888Y69850D03*
X60888Y69850D03*
D12*
X123263Y-30163D03*
X140263Y-30163D03*
D23*
X149225Y127563D03*
X149225Y110563D03*
X104775Y127563D03*
X104775Y110563D03*
X93663Y127563D03*
X93663Y110563D03*
X33338Y96275D03*
X33338Y113275D03*
D24*
X-149225Y252513D03*
X1495Y164833D03*
X1495Y9793D03*
X-149225Y-77888D03*
X-220725Y211213D03*
X-77725Y211213D03*
X-77725Y-36588D03*
X-220725Y-36588D03*
X-292292Y169913D03*
X-292292Y4713D03*
X-292325Y87313D03*
D12*
X189706Y21875D03*
X189706Y38875D03*
D25*
X223275Y59813D03*
D26*
X223275Y74813D03*
X223275Y99813D03*
X223275Y114813D03*
X236775Y118813D03*
X236775Y103813D03*
X236775Y70813D03*
X236775Y55813D03*
D27*
X239075Y44113D02*
X227075Y44113D01*
X227075Y130513D02*
X239075Y130513D01*
X260875Y130513D02*
X272875Y130513D01*
X272875Y44113D02*
X260875Y44113D01*
D12*
X78813Y161925D03*
X95813Y161925D03*
D28*
G36*
X165706Y-53712D02*
X178956Y-46062D01*
X186606Y-59312D01*
X173356Y-66962D01*
X165706Y-53712D01*
G37*
D29*
X154158Y-69212D03*
D12*
X-158750Y-15313D03*
X-158750Y-32313D03*
X-141288Y-15313D03*
X-141288Y-32313D03*
X-125413Y-15313D03*
X-125413Y-32313D03*
D10*
X-71438Y115450D03*
X-71438Y100450D03*
D30*
X-50800Y14288D03*
X-112713Y68263D03*
X-138113Y68263D03*
X-136525Y42863D03*
X-109538Y44450D03*
X-220663Y19050D03*
X-201613Y47625D03*
X-241300Y36513D03*
X-165100Y138113D03*
X-141288Y169863D03*
X-98425Y111125D03*
X-176213Y-42863D03*
X-180975Y-34925D03*
X-196850Y-20638D03*
X-201613Y-12700D03*
X28575Y11113D03*
X36513Y-7938D03*
X12700Y60325D03*
X12700Y41275D03*
D31*
X-63500Y42863D03*
X-63500Y52388D03*
D30*
X-36513Y47625D03*
X-20638Y57150D03*
X-30163Y138113D03*
X-30163Y114300D03*
X-1588Y96838D03*
X14288Y96838D03*
X-241300Y155575D03*
X-255588Y142875D03*
X-107950Y146050D03*
X-219075Y142875D03*
X-219075Y101600D03*
D31*
X-77788Y131763D03*
X-71438Y131763D03*
X153988Y-1951D03*
X131763Y120650D03*
X125413Y120650D03*
X117475Y120650D03*
D30*
X157163Y138113D03*
X149225Y138113D03*
X141288Y138113D03*
X157163Y146050D03*
X149225Y146050D03*
X141288Y146050D03*
D31*
X123825Y136525D03*
X125413Y142875D03*
D30*
X107950Y171450D03*
X117475Y171450D03*
X84138Y122238D03*
X76200Y122238D03*
X68263Y122238D03*
X84138Y130175D03*
X76200Y130175D03*
X68263Y130175D03*
X58738Y114300D03*
X68263Y114300D03*
X58738Y104775D03*
X68263Y104775D03*
X68263Y95250D03*
X58738Y95250D03*
X274638Y117475D03*
X257175Y112713D03*
X258763Y90488D03*
X274638Y88900D03*
X257175Y63500D03*
X274638Y63500D03*
X265113Y17463D03*
X284163Y3175D03*
X120650Y-53975D03*
X87313Y-36513D03*
X61913Y-9525D03*
X63500Y198438D03*
X85725Y209550D03*
X109538Y222250D03*
X138113Y236538D03*
X177800Y230188D03*
X207963Y212725D03*
X233363Y198438D03*
X261938Y182563D03*
X241300Y166688D03*
X207963Y166688D03*
X173038Y166688D03*
X188913Y147638D03*
X169863Y185738D03*
X76200Y180975D03*
X193675Y115888D03*
X-196850Y17463D03*
D32*
X-186888Y17463D01*
D31*
X-82550Y38100D03*
D32*
X-81988Y38663D02*
X-81988Y46038D01*
X-81988Y38663D02*
X-82550Y38100D01*
X-81988Y46038D02*
X-91513Y55563D01*
D33*
X-119096Y91407D02*
X-193675Y90488D01*
X-91513Y59263D02*
X-91513Y55563D01*
X-91513Y59263D02*
X-119096Y91407D01*
D30*
X-190693Y-36320D03*
D32*
X-220457Y-36320D01*
X-220725Y-36588D01*
D30*
X-46038Y73025D03*
D32*
X-44450Y74613D01*
X-44450Y177938D01*
X-77725Y211213D01*
D30*
X-42863Y63500D03*
X-49239Y193815D03*
D32*
X-42863Y63500D02*
X-42213Y63500D01*
X-38378Y67335D01*
X-38378Y182954D01*
X-49239Y193815D01*
D30*
X-197073Y197735D03*
D32*
X-210550Y211213D01*
X-220725Y211213D01*
D30*
X-266020Y80115D03*
D32*
X-273218Y87313D02*
X-292325Y87313D01*
X-273218Y87313D02*
X-266020Y80115D01*
X-95720Y-18592D02*
X-77725Y-36588D01*
X-95720Y-18592D02*
X-95720Y-17139D01*
D30*
X-95720Y-17139D03*
D31*
X182563Y6350D03*
D34*
X147371Y-4763D02*
X145526Y-4763D01*
X147371Y-4763D02*
X151691Y-9083D01*
X167130Y-9083D01*
X182563Y6350D01*
X135526Y-4763D02*
X130175Y-4763D01*
X127000Y-1588D01*
D31*
X127000Y-1588D03*
D35*
X140526Y-4763D03*
D31*
X147638Y14288D03*
D34*
X200025Y20638D02*
X206375Y26988D01*
D31*
X206375Y26988D03*
D34*
X189706Y21875D02*
X185388Y21875D01*
X190944Y20638D02*
X200025Y20638D01*
X190944Y20638D02*
X189706Y21875D01*
X154580Y13792D02*
X148133Y13792D01*
X147638Y14288D01*
X154580Y13792D02*
X162804Y5569D01*
X169081Y5569D01*
X185388Y21875D01*
X150667Y5238D02*
X145526Y5238D01*
X150667Y5238D02*
X152090Y6660D01*
D31*
X152090Y6660D03*
D34*
X145526Y-14763D02*
X145526Y-28537D01*
X140263Y-30163D01*
X140526Y20901D02*
X148200Y28575D01*
X140526Y20901D02*
X140526Y5238D01*
X135526Y5238D02*
X135526Y24250D01*
X131200Y28575D01*
X131200Y27450D02*
X116450Y12700D01*
X131200Y27450D02*
X131200Y28575D01*
X131200Y27450D02*
X131200Y44450D01*
X135526Y-9763D02*
X123038Y-9763D01*
X116450Y-3175D01*
D31*
X114300Y1588D03*
D34*
X116450Y-563D01*
X116450Y-3175D01*
D32*
X117913Y133414D02*
X117913Y140288D01*
X119500Y131826D02*
X119500Y128651D01*
X119500Y131826D02*
X117913Y133414D01*
X117913Y140288D02*
X114300Y143900D01*
X112713Y143900D01*
X112150Y144463D01*
X102163Y144463D01*
D33*
X102163Y155575D02*
X95813Y161925D01*
X102163Y155575D02*
X102163Y144463D01*
D31*
X138113Y130511D03*
D32*
X136360Y130511D01*
X134500Y128651D01*
D35*
X140526Y238D03*
D31*
X129038Y11113D03*
D34*
X133550Y238D02*
X135526Y238D01*
X133550Y238D02*
X129038Y4749D01*
X129038Y11113D01*
D32*
X129500Y128651D02*
X129500Y133092D01*
X132318Y135910D01*
D34*
X132318Y138029D01*
X132318Y159220D02*
X131200Y160338D01*
D32*
X132318Y159220D02*
X132318Y138029D01*
D31*
X132235Y136525D03*
D34*
X132235Y137946D02*
X132318Y138029D01*
D32*
X132235Y137946D02*
X132235Y136525D01*
D30*
X196850Y90488D03*
X177800Y74613D03*
D34*
X185719Y42863D02*
X189706Y38875D01*
X185719Y42863D02*
X184150Y42863D01*
D30*
X184150Y42863D03*
X158750Y101600D03*
X215900Y87313D03*
X195263Y76200D03*
D36*
X85163Y140422D02*
X85163Y144463D01*
X85163Y140422D02*
X76200Y140422D01*
D30*
X76200Y140422D03*
X85725Y109538D03*
D33*
X85163Y144463D02*
X78813Y150813D01*
X78813Y161925D01*
D34*
X148200Y44450D02*
X163513Y29138D01*
X163513Y14288D01*
D31*
X163513Y14288D03*
X185738Y-4259D03*
D34*
X146624Y-9763D02*
X145526Y-9763D01*
X146624Y-9763D02*
X150008Y-13147D01*
X176849Y-13147D01*
X185738Y-4259D01*
X135526Y-14763D02*
X94138Y-14763D01*
X90488Y-11113D01*
X90488Y50800D01*
X71438Y69850D02*
X60888Y69850D01*
X71438Y69850D02*
X90488Y50800D01*
X66675Y52388D02*
X60888Y52388D01*
X85725Y33338D02*
X85725Y-14288D01*
X92075Y-20638D01*
X138214Y-20638D01*
X85725Y33338D02*
X66675Y52388D01*
X140526Y-14763D02*
X140526Y-18326D01*
X138214Y-20638D01*
D30*
X63500Y20638D03*
D34*
X63500Y32313D01*
X60888Y34925D01*
D35*
X140526Y-9763D03*
D31*
X-139700Y-3175D03*
D32*
X-141566Y-1310D01*
X-149329Y-1310D01*
X-146432Y-1588D02*
X-146432Y19050D01*
X-141288Y-1588D02*
X-139700Y-3175D01*
X-141288Y-1588D02*
X-146432Y-1588D01*
X-146432Y19050D02*
X-133922Y31560D01*
X7375Y69850D02*
X43888Y69850D01*
X7375Y69850D02*
X-30916Y31560D01*
X-133922Y31560D01*
X-149329Y-1310D02*
X-158750Y-10731D01*
X-158750Y-15313D01*
X10550Y52388D02*
X43888Y52388D01*
X10550Y52388D02*
X-19613Y22225D01*
D31*
X-139700Y4763D03*
D32*
X-139700Y17463D01*
X-134938Y22225D01*
X-19613Y22225D01*
X-133628Y-660D02*
X-137185Y2897D01*
X-137835Y2897D02*
X-139700Y4763D01*
X-137835Y2897D02*
X-137185Y2897D01*
X-133628Y-660D02*
X-133628Y-7653D01*
X-141288Y-15313D01*
X21663Y34925D02*
X43888Y34925D01*
X21663Y34925D02*
X10550Y23813D01*
X-9525Y23813D01*
X-30163Y3175D02*
X-122238Y3175D01*
X-133350Y14288D01*
X-30163Y3175D02*
X-9525Y23813D01*
D31*
X-133350Y14288D03*
D32*
X-125413Y6350D01*
X-125413Y-15313D01*
D30*
X-212725Y60325D03*
X-273050Y41275D03*
D33*
X-214382Y60325D02*
X-212725Y60325D01*
X-214382Y60325D02*
X-217621Y57087D01*
X-257239Y57087D02*
X-273050Y41275D01*
X-257239Y57087D02*
X-217621Y57087D01*
D30*
X-88900Y174625D03*
X-77788Y174625D03*
X-9525Y144463D03*
X1588Y144463D03*
D31*
X-109538Y128588D03*
D32*
X-84575Y128588D01*
X-71438Y115450D01*
M02*
