G04 EAGLE Gerber RS-274X export*
G75*
%MOMM*%
%FSLAX34Y34*%
%LPD*%
%INBottom Copper*%
%IPPOS*%
%AMOC8*
5,1,8,0,0,1.08239X$1,22.5*%
G01*
%ADD10R,1.399997X0.400000*%
%ADD11P,1.649562X8X112.500000*%
%ADD12R,1.100000X1.000000*%
%ADD13R,1.000000X1.100000*%
%ADD14R,1.300000X1.500000*%
%ADD15R,1.500000X1.300000*%
%ADD16C,1.524000*%
%ADD17R,0.550000X0.254000*%
%ADD18R,0.254000X0.550000*%
%ADD19R,5.600000X5.600000*%
%ADD20R,1.290000X1.290000*%
%ADD21C,1.290000*%
%ADD22R,0.600000X0.400000*%
%ADD23C,1.000000*%
%ADD24R,0.754800X0.754800*%
%ADD25C,0.754800*%
%ADD26C,1.200000*%
%ADD27C,1.530000*%
%ADD28C,1.800000*%
%ADD29R,1.930400X1.930400*%
%ADD30R,0.500000X0.800000*%
%ADD31C,0.750000*%
%ADD32C,0.550000*%
%ADD33C,0.304800*%
%ADD34C,0.254000*%
%ADD35C,0.406400*%
%ADD36C,0.352400*%
%ADD37C,0.508000*%

G36*
X133362Y-73230D02*
X133362Y-73230D01*
X133487Y-73224D01*
X133520Y-73214D01*
X133554Y-73210D01*
X133671Y-73167D01*
X133791Y-73130D01*
X133820Y-73112D01*
X133852Y-73100D01*
X133955Y-73028D01*
X134061Y-72963D01*
X134098Y-72929D01*
X134113Y-72918D01*
X134127Y-72902D01*
X134180Y-72854D01*
X134372Y-72653D01*
X134385Y-72636D01*
X134402Y-72621D01*
X134502Y-72495D01*
X134852Y-71987D01*
X134904Y-71971D01*
X134906Y-71969D01*
X134909Y-71968D01*
X135043Y-71885D01*
X135174Y-71804D01*
X135177Y-71801D01*
X135179Y-71800D01*
X135183Y-71795D01*
X135293Y-71695D01*
X135944Y-71017D01*
X136039Y-70889D01*
X136131Y-70767D01*
X136132Y-70764D01*
X136134Y-70762D01*
X136194Y-70616D01*
X136213Y-70568D01*
X136712Y-70194D01*
X136728Y-70179D01*
X136746Y-70167D01*
X136865Y-70058D01*
X137293Y-69613D01*
X137346Y-69605D01*
X137349Y-69604D01*
X137352Y-69604D01*
X137500Y-69542D01*
X137640Y-69484D01*
X137643Y-69482D01*
X137645Y-69481D01*
X137650Y-69477D01*
X137774Y-69396D01*
X138347Y-68965D01*
X138365Y-68947D01*
X138387Y-68934D01*
X138479Y-68837D01*
X138575Y-68744D01*
X138589Y-68722D01*
X138606Y-68703D01*
X138672Y-68586D01*
X138741Y-68473D01*
X138749Y-68448D01*
X138761Y-68426D01*
X138812Y-68273D01*
X138890Y-67974D01*
X139897Y-67425D01*
X139906Y-67418D01*
X139929Y-67407D01*
X198063Y-33441D01*
X198136Y-33385D01*
X198215Y-33336D01*
X198262Y-33288D01*
X198315Y-33248D01*
X198372Y-33175D01*
X198437Y-33108D01*
X198470Y-33050D01*
X198512Y-32997D01*
X198549Y-32912D01*
X198595Y-32832D01*
X198613Y-32767D01*
X198639Y-32706D01*
X198654Y-32615D01*
X198679Y-32525D01*
X198680Y-32458D01*
X198691Y-32392D01*
X198683Y-32300D01*
X198684Y-32207D01*
X198669Y-32142D01*
X198663Y-32076D01*
X198632Y-31988D01*
X198611Y-31898D01*
X198563Y-31792D01*
X198557Y-31776D01*
X198552Y-31769D01*
X198544Y-31751D01*
X197863Y-30464D01*
X197858Y-30457D01*
X197851Y-30442D01*
X197162Y-29202D01*
X197145Y-29129D01*
X197089Y-29006D01*
X197085Y-28995D01*
X197082Y-28991D01*
X197078Y-28982D01*
X190051Y-15709D01*
X189981Y-15608D01*
X189917Y-15505D01*
X189890Y-15479D01*
X189868Y-15448D01*
X189775Y-15369D01*
X189687Y-15284D01*
X189655Y-15266D01*
X189627Y-15242D01*
X189517Y-15188D01*
X189410Y-15128D01*
X189358Y-15110D01*
X189341Y-15102D01*
X189320Y-15098D01*
X189258Y-15076D01*
X188775Y-14947D01*
X186355Y-10755D01*
X186291Y-10671D01*
X186234Y-10582D01*
X186195Y-10545D01*
X186162Y-10502D01*
X186080Y-10436D01*
X186003Y-10364D01*
X185955Y-10338D01*
X185913Y-10304D01*
X185816Y-10261D01*
X185724Y-10210D01*
X185672Y-10197D01*
X185623Y-10175D01*
X185606Y-10172D01*
X184446Y-9012D01*
X184368Y-8952D01*
X184296Y-8884D01*
X184243Y-8855D01*
X184195Y-8818D01*
X184104Y-8778D01*
X184017Y-8730D01*
X183959Y-8715D01*
X183903Y-8691D01*
X183805Y-8676D01*
X183709Y-8651D01*
X183609Y-8645D01*
X183589Y-8641D01*
X183577Y-8643D01*
X183549Y-8641D01*
X182488Y-8641D01*
X173710Y137D01*
X173601Y223D01*
X173493Y311D01*
X173475Y320D01*
X173459Y332D01*
X173331Y388D01*
X173206Y447D01*
X173186Y451D01*
X173167Y459D01*
X173029Y481D01*
X172893Y507D01*
X172873Y505D01*
X172853Y508D01*
X172714Y495D01*
X172576Y487D01*
X172557Y481D01*
X172537Y479D01*
X172405Y431D01*
X172273Y389D01*
X172256Y378D01*
X172237Y371D01*
X172122Y293D01*
X172005Y219D01*
X171991Y204D01*
X171974Y192D01*
X171882Y88D01*
X171787Y-13D01*
X171777Y-31D01*
X171764Y-46D01*
X171700Y-170D01*
X171633Y-292D01*
X171628Y-311D01*
X171619Y-329D01*
X171589Y-465D01*
X171554Y-600D01*
X171552Y-628D01*
X171549Y-640D01*
X171550Y-660D01*
X171544Y-760D01*
X171544Y-7238D01*
X170651Y-8131D01*
X164622Y-8131D01*
X164524Y-8143D01*
X164425Y-8146D01*
X164367Y-8163D01*
X164307Y-8171D01*
X164215Y-8207D01*
X164120Y-8235D01*
X164067Y-8265D01*
X164011Y-8288D01*
X163931Y-8346D01*
X163846Y-8396D01*
X163770Y-8463D01*
X163754Y-8475D01*
X163746Y-8484D01*
X163725Y-8503D01*
X162384Y-9843D01*
X162307Y-9843D01*
X162209Y-9856D01*
X162110Y-9859D01*
X162052Y-9875D01*
X161992Y-9883D01*
X161900Y-9920D01*
X161805Y-9947D01*
X161752Y-9978D01*
X161696Y-10000D01*
X161616Y-10058D01*
X161531Y-10109D01*
X161455Y-10175D01*
X161439Y-10187D01*
X161431Y-10196D01*
X161410Y-10215D01*
X157211Y-14414D01*
X157177Y-14458D01*
X157136Y-14496D01*
X157080Y-14583D01*
X157016Y-14665D01*
X156994Y-14716D01*
X156964Y-14763D01*
X156957Y-14782D01*
X156100Y-15529D01*
X156086Y-15545D01*
X156036Y-15589D01*
X155229Y-16396D01*
X155166Y-16427D01*
X155069Y-16466D01*
X155024Y-16498D01*
X154975Y-16523D01*
X154847Y-16621D01*
X123455Y-43972D01*
X123406Y-44027D01*
X123351Y-44074D01*
X123301Y-44145D01*
X123243Y-44210D01*
X123210Y-44275D01*
X123168Y-44334D01*
X123137Y-44415D01*
X123097Y-44492D01*
X123081Y-44563D01*
X123055Y-44632D01*
X123045Y-44718D01*
X123026Y-44802D01*
X123028Y-44875D01*
X123020Y-44948D01*
X123032Y-45034D01*
X123034Y-45120D01*
X123054Y-45190D01*
X123064Y-45263D01*
X123116Y-45415D01*
X123516Y-46381D01*
X123516Y-50031D01*
X122120Y-53403D01*
X119539Y-55984D01*
X116167Y-57381D01*
X112517Y-57381D01*
X109145Y-55984D01*
X106564Y-53403D01*
X105167Y-50031D01*
X105167Y-46381D01*
X106564Y-43009D01*
X109145Y-40428D01*
X112517Y-39031D01*
X116167Y-39031D01*
X118457Y-39980D01*
X118596Y-40018D01*
X118735Y-40060D01*
X118750Y-40060D01*
X118763Y-40064D01*
X118908Y-40066D01*
X119053Y-40072D01*
X119067Y-40069D01*
X119081Y-40069D01*
X119223Y-40035D01*
X119364Y-40004D01*
X119377Y-39998D01*
X119391Y-39995D01*
X119519Y-39927D01*
X119648Y-39862D01*
X119664Y-39850D01*
X119672Y-39846D01*
X119685Y-39834D01*
X119776Y-39764D01*
X152217Y-11498D01*
X152231Y-11483D01*
X152281Y-11439D01*
X157122Y-6598D01*
X157183Y-6519D01*
X157251Y-6447D01*
X157280Y-6394D01*
X157317Y-6346D01*
X157357Y-6255D01*
X157405Y-6169D01*
X157420Y-6110D01*
X157444Y-6054D01*
X157459Y-5956D01*
X157484Y-5861D01*
X157490Y-5761D01*
X157494Y-5740D01*
X157492Y-5728D01*
X157494Y-5700D01*
X157494Y1009D01*
X157479Y1127D01*
X157472Y1246D01*
X157459Y1284D01*
X157454Y1324D01*
X157411Y1435D01*
X157374Y1548D01*
X157352Y1582D01*
X157337Y1620D01*
X157267Y1716D01*
X157204Y1817D01*
X157174Y1845D01*
X157150Y1877D01*
X157059Y1953D01*
X156972Y2035D01*
X156937Y2054D01*
X156906Y2080D01*
X156798Y2131D01*
X156694Y2188D01*
X156654Y2199D01*
X156618Y2216D01*
X156501Y2238D01*
X156386Y2268D01*
X156325Y2272D01*
X156305Y2276D01*
X156285Y2274D01*
X156225Y2278D01*
X152387Y2278D01*
X152355Y2296D01*
X152296Y2311D01*
X152241Y2335D01*
X152143Y2351D01*
X152047Y2375D01*
X151947Y2382D01*
X151927Y2385D01*
X151914Y2384D01*
X151886Y2386D01*
X150114Y2386D01*
X149996Y2371D01*
X149877Y2363D01*
X149839Y2351D01*
X149798Y2346D01*
X149688Y2302D01*
X149575Y2265D01*
X149540Y2244D01*
X149503Y2229D01*
X149407Y2159D01*
X149306Y2095D01*
X149278Y2066D01*
X149245Y2042D01*
X149169Y1950D01*
X149088Y1863D01*
X149068Y1828D01*
X149043Y1797D01*
X148992Y1689D01*
X148934Y1585D01*
X148924Y1546D01*
X148907Y1509D01*
X148885Y1392D01*
X148855Y1277D01*
X148851Y1217D01*
X148847Y1197D01*
X148849Y1177D01*
X148845Y1116D01*
X148845Y-2625D01*
X148847Y-2645D01*
X148851Y-2750D01*
X148953Y-3777D01*
X148952Y-3778D01*
X148934Y-3810D01*
X148905Y-3923D01*
X148168Y-4660D01*
X148156Y-4676D01*
X148084Y-4753D01*
X147545Y-5411D01*
X147525Y-5442D01*
X147500Y-5468D01*
X147441Y-5576D01*
X147376Y-5680D01*
X147365Y-5715D01*
X147347Y-5747D01*
X147318Y-5860D01*
X146581Y-6597D01*
X146569Y-6612D01*
X146497Y-6689D01*
X145843Y-7487D01*
X145841Y-7488D01*
X145806Y-7498D01*
X145706Y-7557D01*
X145081Y-7557D01*
X144963Y-7572D01*
X144845Y-7580D01*
X144806Y-7592D01*
X144766Y-7597D01*
X144655Y-7641D01*
X144542Y-7678D01*
X144508Y-7699D01*
X144470Y-7714D01*
X144374Y-7784D01*
X144273Y-7848D01*
X144246Y-7877D01*
X144213Y-7901D01*
X144137Y-7993D01*
X144055Y-8079D01*
X144036Y-8115D01*
X144010Y-8146D01*
X143959Y-8254D01*
X143902Y-8358D01*
X143892Y-8397D01*
X143875Y-8434D01*
X143852Y-8550D01*
X143822Y-8666D01*
X143819Y-8726D01*
X143815Y-8746D01*
X143816Y-8766D01*
X143812Y-8826D01*
X143812Y-11124D01*
X141801Y-13135D01*
X141739Y-13153D01*
X141686Y-13184D01*
X141630Y-13206D01*
X141550Y-13264D01*
X141465Y-13315D01*
X141389Y-13381D01*
X141373Y-13393D01*
X141365Y-13402D01*
X141344Y-13421D01*
X138362Y-16403D01*
X90238Y-16403D01*
X88230Y-14394D01*
X60705Y13130D01*
X60705Y15447D01*
X60693Y15545D01*
X60690Y15644D01*
X60673Y15702D01*
X60665Y15762D01*
X60629Y15854D01*
X60601Y15950D01*
X60571Y16002D01*
X60548Y16058D01*
X60490Y16138D01*
X60440Y16224D01*
X60374Y16299D01*
X60362Y16315D01*
X60352Y16323D01*
X60334Y16344D01*
X59028Y17650D01*
X58225Y19588D01*
X58225Y21687D01*
X59028Y23625D01*
X60512Y25109D01*
X62451Y25912D01*
X64549Y25912D01*
X66488Y25109D01*
X67972Y23625D01*
X68775Y21687D01*
X68775Y19588D01*
X67972Y17650D01*
X66928Y16606D01*
X66856Y16513D01*
X66777Y16423D01*
X66758Y16387D01*
X66734Y16355D01*
X66686Y16246D01*
X66632Y16140D01*
X66623Y16100D01*
X66607Y16063D01*
X66588Y15945D01*
X66562Y15830D01*
X66564Y15789D01*
X66557Y15749D01*
X66568Y15631D01*
X66572Y15512D01*
X66583Y15473D01*
X66587Y15433D01*
X66627Y15320D01*
X66661Y15206D01*
X66681Y15171D01*
X66695Y15133D01*
X66762Y15035D01*
X66822Y14932D01*
X66862Y14887D01*
X66873Y14870D01*
X66889Y14857D01*
X66928Y14811D01*
X92182Y-10442D01*
X92260Y-10503D01*
X92332Y-10571D01*
X92385Y-10600D01*
X92433Y-10637D01*
X92524Y-10676D01*
X92611Y-10724D01*
X92669Y-10739D01*
X92725Y-10763D01*
X92823Y-10779D01*
X92919Y-10804D01*
X93019Y-10810D01*
X93039Y-10813D01*
X93051Y-10812D01*
X93079Y-10814D01*
X102222Y-10814D01*
X102360Y-10796D01*
X102499Y-10783D01*
X102518Y-10776D01*
X102538Y-10774D01*
X102667Y-10723D01*
X102798Y-10676D01*
X102815Y-10664D01*
X102833Y-10657D01*
X102946Y-10575D01*
X103061Y-10497D01*
X103074Y-10482D01*
X103091Y-10470D01*
X103180Y-10363D01*
X103271Y-10259D01*
X103281Y-10241D01*
X103294Y-10225D01*
X103353Y-10099D01*
X103416Y-9975D01*
X103420Y-9956D01*
X103429Y-9937D01*
X103455Y-9801D01*
X103486Y-9665D01*
X103485Y-9645D01*
X103489Y-9625D01*
X103480Y-9487D01*
X103476Y-9347D01*
X103470Y-9328D01*
X103469Y-9308D01*
X103426Y-9175D01*
X103388Y-9042D01*
X103377Y-9024D01*
X103371Y-9005D01*
X103297Y-8887D01*
X103226Y-8768D01*
X103208Y-8747D01*
X103201Y-8736D01*
X103186Y-8722D01*
X103120Y-8647D01*
X92407Y2066D01*
X92328Y2127D01*
X92256Y2195D01*
X92203Y2224D01*
X92155Y2261D01*
X92064Y2300D01*
X91978Y2348D01*
X91919Y2363D01*
X91864Y2387D01*
X91766Y2403D01*
X91670Y2428D01*
X91570Y2434D01*
X91549Y2437D01*
X91537Y2436D01*
X91509Y2438D01*
X85943Y2438D01*
X85050Y3331D01*
X85050Y14594D01*
X85943Y15487D01*
X98207Y15487D01*
X99115Y14579D01*
X99209Y14506D01*
X99298Y14427D01*
X99334Y14409D01*
X99366Y14384D01*
X99476Y14336D01*
X99582Y14282D01*
X99621Y14274D01*
X99658Y14258D01*
X99776Y14239D01*
X99892Y14213D01*
X99932Y14214D01*
X99972Y14208D01*
X100091Y14219D01*
X100210Y14222D01*
X100249Y14234D01*
X100289Y14237D01*
X100401Y14278D01*
X100515Y14311D01*
X100550Y14331D01*
X100588Y14345D01*
X100687Y14412D01*
X100789Y14472D01*
X100834Y14512D01*
X100851Y14524D01*
X100865Y14539D01*
X100910Y14579D01*
X101818Y15487D01*
X114082Y15487D01*
X114975Y14594D01*
X114975Y7131D01*
X114990Y7013D01*
X114997Y6895D01*
X115010Y6856D01*
X115015Y6816D01*
X115058Y6705D01*
X115095Y6592D01*
X115117Y6558D01*
X115132Y6520D01*
X115201Y6424D01*
X115265Y6323D01*
X115295Y6296D01*
X115318Y6263D01*
X115410Y6187D01*
X115497Y6105D01*
X115532Y6086D01*
X115563Y6060D01*
X115671Y6009D01*
X115775Y5952D01*
X115815Y5942D01*
X115851Y5925D01*
X115968Y5902D01*
X116052Y5880D01*
X117199Y4734D01*
X117309Y4649D01*
X117416Y4560D01*
X117434Y4551D01*
X117450Y4539D01*
X117578Y4484D01*
X117704Y4424D01*
X117723Y4421D01*
X117742Y4413D01*
X117880Y4391D01*
X118016Y4365D01*
X118036Y4366D01*
X118056Y4363D01*
X118195Y4376D01*
X118333Y4384D01*
X118353Y4391D01*
X118373Y4393D01*
X118504Y4440D01*
X118636Y4482D01*
X118653Y4493D01*
X118672Y4500D01*
X118787Y4578D01*
X118905Y4653D01*
X118919Y4667D01*
X118935Y4679D01*
X119027Y4783D01*
X119123Y4884D01*
X119132Y4902D01*
X119146Y4917D01*
X119209Y5041D01*
X119276Y5163D01*
X119281Y5182D01*
X119290Y5200D01*
X119321Y5336D01*
X119356Y5471D01*
X119357Y5499D01*
X119360Y5511D01*
X119359Y5531D01*
X119366Y5631D01*
X119366Y48849D01*
X119348Y48987D01*
X119335Y49126D01*
X119328Y49145D01*
X119326Y49165D01*
X119275Y49294D01*
X119228Y49425D01*
X119216Y49442D01*
X119209Y49460D01*
X119127Y49573D01*
X119049Y49688D01*
X119034Y49701D01*
X119022Y49718D01*
X118915Y49807D01*
X118811Y49898D01*
X118793Y49908D01*
X118777Y49921D01*
X118651Y49980D01*
X118527Y50043D01*
X118508Y50048D01*
X118489Y50056D01*
X118353Y50082D01*
X118217Y50113D01*
X118197Y50112D01*
X118177Y50116D01*
X118039Y50107D01*
X117899Y50103D01*
X117880Y50097D01*
X117860Y50096D01*
X117727Y50053D01*
X117594Y50015D01*
X117576Y50004D01*
X117557Y49998D01*
X117440Y49924D01*
X117320Y49853D01*
X117299Y49834D01*
X117288Y49828D01*
X117274Y49813D01*
X117199Y49747D01*
X111116Y43664D01*
X111056Y43586D01*
X110988Y43514D01*
X110959Y43461D01*
X110922Y43413D01*
X110882Y43322D01*
X110834Y43235D01*
X110819Y43177D01*
X110795Y43121D01*
X110780Y43023D01*
X110755Y42927D01*
X110749Y42827D01*
X110745Y42807D01*
X110747Y42795D01*
X110745Y42767D01*
X110745Y33756D01*
X110760Y33638D01*
X110767Y33520D01*
X110780Y33481D01*
X110785Y33441D01*
X110828Y33330D01*
X110865Y33217D01*
X110887Y33183D01*
X110902Y33145D01*
X110971Y33049D01*
X111035Y32948D01*
X111065Y32921D01*
X111088Y32888D01*
X111180Y32812D01*
X111267Y32730D01*
X111302Y32711D01*
X111333Y32685D01*
X111441Y32634D01*
X111545Y32577D01*
X111585Y32567D01*
X111621Y32550D01*
X111738Y32527D01*
X111853Y32497D01*
X111913Y32494D01*
X111933Y32490D01*
X111954Y32491D01*
X112014Y32487D01*
X114082Y32487D01*
X114975Y31594D01*
X114975Y20331D01*
X114082Y19438D01*
X101818Y19438D01*
X100925Y20331D01*
X100925Y31594D01*
X101818Y32487D01*
X103886Y32487D01*
X104004Y32502D01*
X104123Y32510D01*
X104161Y32522D01*
X104202Y32527D01*
X104312Y32571D01*
X104425Y32608D01*
X104460Y32629D01*
X104497Y32644D01*
X104593Y32714D01*
X104694Y32778D01*
X104722Y32807D01*
X104755Y32831D01*
X104831Y32923D01*
X104912Y33009D01*
X104932Y33045D01*
X104957Y33076D01*
X105008Y33184D01*
X105066Y33288D01*
X105076Y33327D01*
X105093Y33364D01*
X105115Y33480D01*
X105145Y33596D01*
X105149Y33656D01*
X105153Y33676D01*
X105151Y33696D01*
X105155Y33756D01*
X105155Y45608D01*
X107164Y47616D01*
X134946Y75398D01*
X136955Y77407D01*
X166960Y77407D01*
X167078Y77422D01*
X167197Y77430D01*
X167235Y77442D01*
X167275Y77447D01*
X167386Y77491D01*
X167499Y77528D01*
X167534Y77549D01*
X167571Y77564D01*
X167667Y77634D01*
X167768Y77698D01*
X167796Y77727D01*
X167828Y77751D01*
X167904Y77843D01*
X167986Y77929D01*
X168005Y77965D01*
X168031Y77996D01*
X168082Y78104D01*
X168139Y78208D01*
X168150Y78247D01*
X168167Y78284D01*
X168189Y78400D01*
X168219Y78516D01*
X168223Y78576D01*
X168227Y78596D01*
X168225Y78616D01*
X168229Y78676D01*
X168229Y99214D01*
X169345Y100331D01*
X194872Y100331D01*
X194946Y100340D01*
X195021Y100340D01*
X195179Y100369D01*
X239706Y111500D01*
X239847Y111555D01*
X239989Y111608D01*
X239995Y111613D01*
X240003Y111615D01*
X240127Y111705D01*
X240167Y111733D01*
X240737Y111777D01*
X240763Y111782D01*
X240789Y111782D01*
X240948Y111811D01*
X241496Y111948D01*
X241539Y111928D01*
X241547Y111927D01*
X241554Y111924D01*
X241704Y111899D01*
X241753Y111890D01*
X242187Y111518D01*
X242209Y111504D01*
X242228Y111485D01*
X242360Y111393D01*
X242845Y111103D01*
X242862Y111058D01*
X242866Y111052D01*
X242869Y111045D01*
X242957Y110922D01*
X242986Y110880D01*
X243030Y110310D01*
X243035Y110284D01*
X243035Y110258D01*
X243064Y110099D01*
X243201Y109551D01*
X243181Y109508D01*
X243180Y109500D01*
X243177Y109493D01*
X243152Y109344D01*
X243126Y109195D01*
X243126Y109185D01*
X243125Y109180D01*
X243126Y109168D01*
X243128Y109034D01*
X244698Y88630D01*
X244708Y88580D01*
X244709Y88530D01*
X244740Y88425D01*
X244761Y88318D01*
X244784Y88273D01*
X244798Y88224D01*
X244853Y88131D01*
X244901Y88032D01*
X244934Y87994D01*
X244959Y87950D01*
X245066Y87830D01*
X251243Y81652D01*
X251321Y81592D01*
X251393Y81524D01*
X251446Y81495D01*
X251494Y81458D01*
X251585Y81418D01*
X251672Y81370D01*
X251730Y81355D01*
X251786Y81331D01*
X251884Y81316D01*
X251979Y81291D01*
X252079Y81285D01*
X252100Y81281D01*
X252112Y81283D01*
X252140Y81281D01*
X265902Y81281D01*
X267018Y80164D01*
X267018Y59536D01*
X265902Y58419D01*
X245273Y58419D01*
X243785Y59907D01*
X241133Y62560D01*
X241059Y62617D01*
X240992Y62681D01*
X240934Y62714D01*
X240881Y62755D01*
X240796Y62792D01*
X240715Y62837D01*
X240606Y62874D01*
X240590Y62881D01*
X240581Y62882D01*
X240562Y62889D01*
X219402Y68531D01*
X219278Y68548D01*
X219155Y68572D01*
X219121Y68569D01*
X219087Y68574D01*
X218963Y68560D01*
X218838Y68552D01*
X218805Y68541D01*
X218771Y68537D01*
X218654Y68492D01*
X218536Y68454D01*
X218506Y68435D01*
X218474Y68423D01*
X218372Y68351D01*
X218267Y68284D01*
X218243Y68258D01*
X218215Y68239D01*
X218135Y68143D01*
X218049Y68052D01*
X218032Y68022D01*
X218010Y67995D01*
X217956Y67883D01*
X217895Y67774D01*
X217887Y67740D01*
X217872Y67709D01*
X217847Y67586D01*
X217816Y67466D01*
X217813Y67415D01*
X217809Y67397D01*
X217810Y67376D01*
X217806Y67305D01*
X217806Y54625D01*
X217809Y54596D01*
X217807Y54566D01*
X217829Y54438D01*
X217846Y54310D01*
X217856Y54282D01*
X217861Y54253D01*
X217915Y54134D01*
X217963Y54014D01*
X217980Y53990D01*
X217992Y53963D01*
X218041Y53901D01*
X218121Y53708D01*
X218170Y53622D01*
X218211Y53532D01*
X218249Y53485D01*
X218279Y53432D01*
X218348Y53361D01*
X218410Y53283D01*
X218458Y53247D01*
X218500Y53204D01*
X218585Y53152D01*
X218664Y53092D01*
X218754Y53048D01*
X218771Y53037D01*
X218783Y53034D01*
X218784Y53033D01*
X218785Y53031D01*
X218804Y53011D01*
X218823Y52938D01*
X218839Y52841D01*
X218864Y52785D01*
X218879Y52727D01*
X218927Y52640D01*
X218967Y52549D01*
X219004Y52502D01*
X219034Y52449D01*
X219102Y52377D01*
X219163Y52299D01*
X219238Y52233D01*
X219252Y52218D01*
X219263Y52211D01*
X219264Y52211D01*
X219264Y52208D01*
X219300Y52145D01*
X219299Y52066D01*
X219305Y52044D01*
X219306Y52021D01*
X219344Y51890D01*
X219377Y51757D01*
X219388Y51737D01*
X219393Y51718D01*
X219393Y51712D01*
X219394Y51703D01*
X219393Y51693D01*
X219414Y51544D01*
X219433Y51396D01*
X219436Y51388D01*
X219438Y51378D01*
X219490Y51226D01*
X219501Y51199D01*
X219495Y51179D01*
X219462Y51092D01*
X219453Y51026D01*
X219436Y50961D01*
X219434Y50869D01*
X219423Y50777D01*
X219431Y50660D01*
X219431Y50643D01*
X219433Y50634D01*
X219434Y50616D01*
X219489Y50201D01*
X219483Y50191D01*
X219447Y50052D01*
X219408Y49914D01*
X219407Y49898D01*
X219403Y49883D01*
X219393Y49722D01*
X219393Y36350D01*
X219408Y36232D01*
X219416Y36114D01*
X219428Y36075D01*
X219433Y36035D01*
X219477Y35924D01*
X219514Y35811D01*
X219535Y35777D01*
X219550Y35739D01*
X219620Y35643D01*
X219684Y35542D01*
X219713Y35515D01*
X219737Y35482D01*
X219829Y35406D01*
X219915Y35324D01*
X219951Y35305D01*
X219982Y35279D01*
X220090Y35228D01*
X220194Y35171D01*
X220233Y35161D01*
X220270Y35144D01*
X220386Y35121D01*
X220502Y35091D01*
X220562Y35088D01*
X220582Y35084D01*
X220602Y35085D01*
X220662Y35081D01*
X221025Y35081D01*
X221918Y34188D01*
X221918Y22925D01*
X221025Y22032D01*
X210990Y22032D01*
X210892Y22019D01*
X210793Y22016D01*
X210735Y21999D01*
X210675Y21992D01*
X210582Y21955D01*
X210487Y21928D01*
X210435Y21897D01*
X210379Y21875D01*
X210299Y21817D01*
X210213Y21766D01*
X210138Y21700D01*
X210122Y21688D01*
X210114Y21679D01*
X210093Y21660D01*
X207164Y18732D01*
X192819Y18732D01*
X192814Y18731D01*
X192809Y18732D01*
X192655Y18711D01*
X192504Y18692D01*
X192499Y18690D01*
X192493Y18689D01*
X192349Y18631D01*
X192208Y18575D01*
X192204Y18572D01*
X192199Y18570D01*
X192074Y18478D01*
X191951Y18388D01*
X191947Y18384D01*
X191943Y18381D01*
X191846Y18262D01*
X191748Y18143D01*
X191746Y18138D01*
X191742Y18134D01*
X191677Y17993D01*
X191612Y17855D01*
X191611Y17850D01*
X191609Y17845D01*
X191581Y17693D01*
X191553Y17543D01*
X191553Y17538D01*
X191552Y17532D01*
X191563Y17379D01*
X191572Y17226D01*
X191574Y17221D01*
X191574Y17215D01*
X191623Y17068D01*
X191670Y16923D01*
X191673Y16919D01*
X191675Y16913D01*
X191754Y16773D01*
X192563Y15522D01*
X192577Y15506D01*
X192768Y15279D01*
X193010Y15106D01*
X193360Y14319D01*
X193370Y14303D01*
X193375Y14285D01*
X193454Y14145D01*
X193929Y13411D01*
X193925Y13366D01*
X193918Y13284D01*
X193960Y13035D01*
X193970Y12971D01*
X193953Y12896D01*
X193916Y12748D01*
X193916Y12742D01*
X193915Y12735D01*
X193918Y12581D01*
X193919Y12430D01*
X193921Y12424D01*
X193921Y12417D01*
X193962Y12270D01*
X194001Y12123D01*
X194005Y12117D01*
X194006Y12111D01*
X194078Y11967D01*
X194906Y10532D01*
X194579Y9312D01*
X181976Y2036D01*
X181876Y1960D01*
X181772Y1889D01*
X181750Y1864D01*
X181723Y1844D01*
X181645Y1745D01*
X181561Y1651D01*
X181546Y1621D01*
X181525Y1594D01*
X181474Y1479D01*
X181417Y1368D01*
X181410Y1335D01*
X181396Y1304D01*
X181375Y1180D01*
X181347Y1057D01*
X181348Y1024D01*
X181343Y990D01*
X181353Y865D01*
X181357Y739D01*
X181366Y707D01*
X181369Y673D01*
X181410Y555D01*
X181445Y434D01*
X181462Y405D01*
X181473Y373D01*
X181543Y268D01*
X181607Y160D01*
X181639Y123D01*
X181649Y108D01*
X181665Y93D01*
X181713Y39D01*
X182015Y-263D01*
X182104Y-331D01*
X182187Y-407D01*
X182229Y-428D01*
X182266Y-457D01*
X182369Y-502D01*
X182469Y-554D01*
X182515Y-565D01*
X182558Y-584D01*
X182669Y-601D01*
X182778Y-627D01*
X182825Y-626D01*
X182872Y-634D01*
X182984Y-623D01*
X183096Y-621D01*
X183142Y-608D01*
X183189Y-604D01*
X183295Y-566D01*
X183403Y-536D01*
X183467Y-504D01*
X183488Y-496D01*
X183503Y-486D01*
X183547Y-464D01*
X196054Y6757D01*
X197274Y6430D01*
X204412Y-5932D01*
X204409Y-5955D01*
X204387Y-6041D01*
X204387Y-6112D01*
X204377Y-6182D01*
X204388Y-6270D01*
X204388Y-6359D01*
X204406Y-6428D01*
X204414Y-6498D01*
X204446Y-6581D01*
X204468Y-6667D01*
X204523Y-6782D01*
X204528Y-6795D01*
X204531Y-6800D01*
X204537Y-6812D01*
X205991Y-9429D01*
X206056Y-9517D01*
X206113Y-9610D01*
X206149Y-9645D01*
X206179Y-9685D01*
X206264Y-9755D01*
X206342Y-9831D01*
X206386Y-9855D01*
X206425Y-9887D01*
X206443Y-9895D01*
X213660Y-22396D01*
X213661Y-22403D01*
X213666Y-22419D01*
X213668Y-22436D01*
X213719Y-22568D01*
X213767Y-22703D01*
X213776Y-22717D01*
X213782Y-22733D01*
X213865Y-22849D01*
X213944Y-22967D01*
X213956Y-22978D01*
X213966Y-22992D01*
X214075Y-23084D01*
X214181Y-23178D01*
X214196Y-23186D01*
X214209Y-23197D01*
X214337Y-23259D01*
X214464Y-23325D01*
X214480Y-23328D01*
X214495Y-23336D01*
X214635Y-23364D01*
X214773Y-23396D01*
X214790Y-23396D01*
X214807Y-23399D01*
X214949Y-23392D01*
X215091Y-23388D01*
X215108Y-23383D01*
X215125Y-23382D01*
X215261Y-23340D01*
X215397Y-23301D01*
X215418Y-23291D01*
X215428Y-23288D01*
X215444Y-23278D01*
X215541Y-23229D01*
X279151Y13936D01*
X279233Y13999D01*
X279319Y14054D01*
X279358Y14095D01*
X279404Y14130D01*
X279467Y14211D01*
X279537Y14285D01*
X279565Y14335D01*
X279600Y14380D01*
X279641Y14474D01*
X279691Y14564D01*
X279705Y14619D01*
X279728Y14671D01*
X279744Y14773D01*
X279770Y14872D01*
X279776Y14964D01*
X279779Y14985D01*
X279778Y14999D01*
X279780Y15032D01*
X279780Y159595D01*
X279767Y159696D01*
X279764Y159798D01*
X279748Y159853D01*
X279740Y159910D01*
X279703Y160005D01*
X279674Y160103D01*
X279645Y160152D01*
X279623Y160206D01*
X279564Y160289D01*
X279511Y160376D01*
X279470Y160417D01*
X279437Y160463D01*
X279358Y160528D01*
X279286Y160600D01*
X279208Y160653D01*
X279192Y160666D01*
X279179Y160672D01*
X279152Y160690D01*
X151104Y235645D01*
X151085Y235654D01*
X151030Y235685D01*
X149913Y236244D01*
X149854Y236265D01*
X149798Y236294D01*
X149704Y236317D01*
X149613Y236349D01*
X149550Y236355D01*
X149489Y236370D01*
X149392Y236369D01*
X149296Y236377D01*
X149234Y236367D01*
X149171Y236366D01*
X149078Y236341D01*
X148982Y236325D01*
X148925Y236299D01*
X148864Y236283D01*
X148719Y236213D01*
X53349Y182122D01*
X53260Y182056D01*
X53167Y181997D01*
X53133Y181961D01*
X53094Y181932D01*
X53025Y181846D01*
X52949Y181765D01*
X52925Y181722D01*
X52895Y181684D01*
X52849Y181584D01*
X52795Y181487D01*
X52783Y181439D01*
X52763Y181395D01*
X52744Y181286D01*
X52716Y181179D01*
X52711Y181103D01*
X52707Y181081D01*
X52709Y181064D01*
X52706Y181018D01*
X52706Y89661D01*
X-51118Y89661D01*
X-51118Y138113D01*
X-51133Y138231D01*
X-51141Y138349D01*
X-51153Y138388D01*
X-51158Y138428D01*
X-51202Y138539D01*
X-51239Y138652D01*
X-51260Y138686D01*
X-51275Y138724D01*
X-51345Y138820D01*
X-51409Y138921D01*
X-51438Y138948D01*
X-51462Y138981D01*
X-51554Y139057D01*
X-51640Y139139D01*
X-51676Y139158D01*
X-51707Y139184D01*
X-51815Y139235D01*
X-51919Y139292D01*
X-51958Y139302D01*
X-51995Y139319D01*
X-52111Y139342D01*
X-52227Y139372D01*
X-52287Y139375D01*
X-52307Y139379D01*
X-52327Y139378D01*
X-52388Y139382D01*
X-63500Y139382D01*
X-63618Y139367D01*
X-63737Y139359D01*
X-63775Y139347D01*
X-63816Y139342D01*
X-63926Y139298D01*
X-64039Y139261D01*
X-64074Y139240D01*
X-64111Y139225D01*
X-64207Y139155D01*
X-64308Y139091D01*
X-64336Y139062D01*
X-64369Y139038D01*
X-64445Y138946D01*
X-64526Y138860D01*
X-64546Y138824D01*
X-64571Y138793D01*
X-64622Y138685D01*
X-64680Y138581D01*
X-64690Y138542D01*
X-64707Y138505D01*
X-64729Y138389D01*
X-64759Y138273D01*
X-64763Y138213D01*
X-64767Y138193D01*
X-64765Y138173D01*
X-64769Y138113D01*
X-64769Y76726D01*
X-67779Y73716D01*
X-67839Y73638D01*
X-67907Y73566D01*
X-67936Y73513D01*
X-67973Y73465D01*
X-68013Y73374D01*
X-68061Y73288D01*
X-68076Y73229D01*
X-68100Y73173D01*
X-68115Y73075D01*
X-68140Y72980D01*
X-68146Y72880D01*
X-68150Y72859D01*
X-68148Y72847D01*
X-68150Y72819D01*
X-68150Y70568D01*
X-69043Y69675D01*
X-71294Y69675D01*
X-71392Y69663D01*
X-71491Y69660D01*
X-71549Y69643D01*
X-71610Y69635D01*
X-71702Y69599D01*
X-71797Y69571D01*
X-71849Y69541D01*
X-71905Y69518D01*
X-71985Y69460D01*
X-72071Y69410D01*
X-72146Y69344D01*
X-72163Y69332D01*
X-72170Y69322D01*
X-72191Y69304D01*
X-84663Y56832D01*
X-92075Y56832D01*
X-92193Y56817D01*
X-92312Y56809D01*
X-92350Y56797D01*
X-92391Y56792D01*
X-92501Y56748D01*
X-92614Y56711D01*
X-92649Y56690D01*
X-92686Y56675D01*
X-92782Y56605D01*
X-92883Y56541D01*
X-92911Y56512D01*
X-92944Y56488D01*
X-93020Y56396D01*
X-93101Y56310D01*
X-93121Y56274D01*
X-93146Y56243D01*
X-93197Y56135D01*
X-93255Y56031D01*
X-93265Y55992D01*
X-93282Y55955D01*
X-93304Y55839D01*
X-93334Y55723D01*
X-93338Y55663D01*
X-93342Y55643D01*
X-93340Y55623D01*
X-93344Y55563D01*
X-93344Y53712D01*
X-93329Y53594D01*
X-93322Y53475D01*
X-93309Y53437D01*
X-93304Y53396D01*
X-93260Y53285D01*
X-93224Y53173D01*
X-93202Y53138D01*
X-93187Y53101D01*
X-93118Y53005D01*
X-93054Y52904D01*
X-93024Y52876D01*
X-93001Y52843D01*
X-92909Y52767D01*
X-92822Y52686D01*
X-92787Y52666D01*
X-92756Y52641D01*
X-92648Y52590D01*
X-92544Y52532D01*
X-92509Y52523D01*
X-92499Y52518D01*
X-92493Y52517D01*
X-92468Y52505D01*
X-92351Y52483D01*
X-92236Y52453D01*
X-92197Y52451D01*
X-92188Y52448D01*
X-92174Y52449D01*
X-92156Y52445D01*
X-92135Y52447D01*
X-92075Y52443D01*
X-92068Y52443D01*
X-91969Y52455D01*
X-91870Y52458D01*
X-91849Y52464D01*
X-91838Y52465D01*
X-91804Y52476D01*
X-91752Y52483D01*
X-91660Y52519D01*
X-91565Y52547D01*
X-91538Y52562D01*
X-91536Y52563D01*
X-91519Y52574D01*
X-91513Y52577D01*
X-91456Y52600D01*
X-91376Y52658D01*
X-91310Y52697D01*
X-80972Y52697D01*
X-80873Y52709D01*
X-80774Y52712D01*
X-80716Y52729D01*
X-80656Y52737D01*
X-80564Y52773D01*
X-80469Y52801D01*
X-80417Y52831D01*
X-80360Y52854D01*
X-80280Y52912D01*
X-80195Y52962D01*
X-80119Y53028D01*
X-80103Y53040D01*
X-80095Y53050D01*
X-80074Y53068D01*
X-75571Y57571D01*
X-75511Y57649D01*
X-75443Y57721D01*
X-75414Y57774D01*
X-75377Y57822D01*
X-75337Y57913D01*
X-75289Y58000D01*
X-75274Y58059D01*
X-75250Y58114D01*
X-75235Y58212D01*
X-75210Y58308D01*
X-75204Y58408D01*
X-75200Y58428D01*
X-75201Y58441D01*
X-75200Y58469D01*
X-75200Y62257D01*
X-74307Y63150D01*
X-59043Y63150D01*
X-58496Y62603D01*
X-58418Y62542D01*
X-58346Y62474D01*
X-58293Y62445D01*
X-58245Y62408D01*
X-58154Y62368D01*
X-58067Y62320D01*
X-58009Y62305D01*
X-57953Y62281D01*
X-57855Y62266D01*
X-57759Y62241D01*
X-57659Y62235D01*
X-57639Y62231D01*
X-57627Y62233D01*
X-57599Y62231D01*
X-55118Y62231D01*
X-55000Y62246D01*
X-54881Y62253D01*
X-54843Y62266D01*
X-54802Y62271D01*
X-54692Y62314D01*
X-54579Y62351D01*
X-54544Y62373D01*
X-54507Y62388D01*
X-54411Y62458D01*
X-54310Y62521D01*
X-54282Y62551D01*
X-54249Y62574D01*
X-54173Y62666D01*
X-54092Y62753D01*
X-54072Y62788D01*
X-54047Y62819D01*
X-53996Y62927D01*
X-53938Y63031D01*
X-53928Y63071D01*
X-53911Y63107D01*
X-53889Y63224D01*
X-53859Y63339D01*
X-53855Y63400D01*
X-53851Y63420D01*
X-53853Y63440D01*
X-53849Y63500D01*
X-53849Y69525D01*
X-51684Y71690D01*
X-51623Y71768D01*
X-51555Y71840D01*
X-51526Y71893D01*
X-51489Y71941D01*
X-51450Y72032D01*
X-51402Y72119D01*
X-51387Y72178D01*
X-51363Y72233D01*
X-51347Y72331D01*
X-51322Y72427D01*
X-51316Y72527D01*
X-51313Y72547D01*
X-51314Y72560D01*
X-51312Y72588D01*
X-51312Y74074D01*
X-51215Y74309D01*
X-51212Y74318D01*
X-51208Y74326D01*
X-51170Y74472D01*
X-51131Y74616D01*
X-51131Y74625D01*
X-51128Y74634D01*
X-51118Y74795D01*
X-51118Y75498D01*
X-51075Y75521D01*
X-50991Y75557D01*
X-50959Y75583D01*
X-50939Y75594D01*
X-50916Y75617D01*
X-50860Y75662D01*
X-48222Y78300D01*
X-43853Y78300D01*
X-41215Y75662D01*
X-41141Y75609D01*
X-41071Y75549D01*
X-41041Y75537D01*
X-41015Y75518D01*
X-40928Y75491D01*
X-40843Y75457D01*
X-40802Y75453D01*
X-40780Y75446D01*
X-40748Y75447D01*
X-40676Y75439D01*
X52706Y75439D01*
X52706Y-26198D01*
X52719Y-26303D01*
X52723Y-26409D01*
X52739Y-26460D01*
X52746Y-26514D01*
X52784Y-26612D01*
X52815Y-26713D01*
X52843Y-26759D01*
X52863Y-26809D01*
X52925Y-26895D01*
X52979Y-26985D01*
X53018Y-27023D01*
X53049Y-27067D01*
X53131Y-27134D01*
X53206Y-27208D01*
X53278Y-27256D01*
X53294Y-27269D01*
X53308Y-27276D01*
X53340Y-27297D01*
X132630Y-73074D01*
X132745Y-73122D01*
X132858Y-73177D01*
X132891Y-73184D01*
X132923Y-73197D01*
X133047Y-73215D01*
X133169Y-73240D01*
X133204Y-73238D01*
X133238Y-73243D01*
X133362Y-73230D01*
G37*
G36*
X150791Y-86377D02*
X150791Y-86377D01*
X150868Y-86378D01*
X150892Y-86369D01*
X150913Y-86367D01*
X150952Y-86347D01*
X151024Y-86320D01*
X167524Y-76820D01*
X167546Y-76801D01*
X167572Y-76789D01*
X167606Y-76751D01*
X167609Y-76749D01*
X167612Y-76745D01*
X167620Y-76736D01*
X167673Y-76689D01*
X167686Y-76663D01*
X167705Y-76641D01*
X167728Y-76574D01*
X167759Y-76509D01*
X167761Y-76480D01*
X167770Y-76453D01*
X167765Y-76382D01*
X167768Y-76311D01*
X167758Y-76284D01*
X167756Y-76255D01*
X167714Y-76164D01*
X167699Y-76124D01*
X167692Y-76116D01*
X167686Y-76104D01*
X166542Y-74447D01*
X282982Y-7222D01*
X283824Y-9001D01*
X283841Y-9024D01*
X283851Y-9051D01*
X283900Y-9103D01*
X283943Y-9160D01*
X283968Y-9175D01*
X283987Y-9195D01*
X284053Y-9224D01*
X284115Y-9260D01*
X284143Y-9264D01*
X284169Y-9275D01*
X284241Y-9276D01*
X284312Y-9285D01*
X284339Y-9278D01*
X284368Y-9278D01*
X284463Y-9243D01*
X284503Y-9232D01*
X284512Y-9225D01*
X284524Y-9220D01*
X301024Y280D01*
X301083Y331D01*
X301145Y377D01*
X301156Y397D01*
X301173Y411D01*
X301207Y482D01*
X301247Y548D01*
X301251Y573D01*
X301259Y591D01*
X301261Y635D01*
X301274Y713D01*
X301274Y19713D01*
X301269Y19740D01*
X301271Y19769D01*
X301249Y19837D01*
X301235Y19907D01*
X301219Y19931D01*
X301210Y19958D01*
X301163Y20012D01*
X301122Y20071D01*
X301098Y20087D01*
X301080Y20108D01*
X301015Y20140D01*
X300955Y20178D01*
X300927Y20183D01*
X300901Y20196D01*
X300800Y20205D01*
X300758Y20211D01*
X300748Y20209D01*
X300735Y20210D01*
X298750Y20052D01*
X298750Y154573D01*
X300735Y154415D01*
X300764Y154418D01*
X300792Y154414D01*
X300861Y154430D01*
X300933Y154439D01*
X300957Y154453D01*
X300985Y154460D01*
X301043Y154502D01*
X301105Y154538D01*
X301122Y154561D01*
X301145Y154577D01*
X301182Y154639D01*
X301225Y154697D01*
X301232Y154724D01*
X301247Y154748D01*
X301263Y154849D01*
X301274Y154889D01*
X301272Y154900D01*
X301274Y154913D01*
X301274Y173913D01*
X301259Y173989D01*
X301250Y174066D01*
X301239Y174086D01*
X301235Y174107D01*
X301191Y174172D01*
X301152Y174239D01*
X301133Y174255D01*
X301122Y174271D01*
X301084Y174295D01*
X301024Y174345D01*
X284524Y183845D01*
X284497Y183854D01*
X284473Y183871D01*
X284403Y183885D01*
X284335Y183908D01*
X284307Y183906D01*
X284279Y183912D01*
X284209Y183898D01*
X284137Y183892D01*
X284112Y183879D01*
X284084Y183874D01*
X284024Y183834D01*
X283961Y183801D01*
X283943Y183778D01*
X283919Y183762D01*
X283861Y183680D01*
X283834Y183647D01*
X283831Y183637D01*
X283824Y183626D01*
X282982Y181847D01*
X166542Y249072D01*
X167686Y250729D01*
X167697Y250756D01*
X167716Y250778D01*
X167736Y250846D01*
X167764Y250912D01*
X167764Y250941D01*
X167772Y250968D01*
X167764Y251040D01*
X167765Y251111D01*
X167753Y251137D01*
X167750Y251166D01*
X167715Y251228D01*
X167687Y251294D01*
X167667Y251314D01*
X167652Y251339D01*
X167575Y251403D01*
X167545Y251433D01*
X167535Y251437D01*
X167524Y251445D01*
X151024Y260945D01*
X150951Y260969D01*
X150881Y261000D01*
X150857Y261001D01*
X150835Y261008D01*
X150759Y261002D01*
X150682Y261003D01*
X150658Y260994D01*
X150637Y260992D01*
X150598Y260972D01*
X150526Y260945D01*
X134026Y251445D01*
X134004Y251426D01*
X133978Y251414D01*
X133930Y251361D01*
X133877Y251314D01*
X133864Y251288D01*
X133845Y251266D01*
X133822Y251199D01*
X133791Y251134D01*
X133790Y251105D01*
X133780Y251078D01*
X133785Y251007D01*
X133782Y250936D01*
X133792Y250909D01*
X133794Y250880D01*
X133836Y250789D01*
X133851Y250749D01*
X133858Y250741D01*
X133864Y250729D01*
X135008Y249072D01*
X45997Y197683D01*
X18564Y181845D01*
X17727Y183625D01*
X17709Y183648D01*
X17699Y183676D01*
X17650Y183728D01*
X17608Y183785D01*
X17583Y183799D01*
X17563Y183820D01*
X17498Y183849D01*
X17436Y183885D01*
X17407Y183889D01*
X17381Y183900D01*
X17310Y183901D01*
X17239Y183910D01*
X17211Y183903D01*
X17182Y183903D01*
X17089Y183868D01*
X17048Y183857D01*
X17039Y183850D01*
X17026Y183845D01*
X775Y174489D01*
X-15476Y183845D01*
X-15504Y183854D01*
X-15528Y183871D01*
X-15597Y183886D01*
X-15665Y183908D01*
X-15694Y183906D01*
X-15722Y183912D01*
X-15792Y183898D01*
X-15863Y183892D01*
X-15889Y183879D01*
X-15917Y183873D01*
X-15976Y183833D01*
X-16039Y183801D01*
X-16058Y183778D01*
X-16082Y183762D01*
X-16139Y183680D01*
X-16166Y183647D01*
X-16169Y183636D01*
X-16177Y183625D01*
X-17014Y181845D01*
X-41679Y196085D01*
X-41748Y196115D01*
X-41813Y196154D01*
X-41908Y196184D01*
X-41999Y196223D01*
X-42073Y196237D01*
X-42145Y196260D01*
X-42244Y196268D01*
X-42342Y196285D01*
X-42417Y196282D01*
X-42493Y196288D01*
X-42591Y196273D01*
X-42690Y196268D01*
X-42763Y196247D01*
X-42837Y196236D01*
X-42929Y196200D01*
X-43025Y196172D01*
X-43091Y196135D01*
X-43161Y196107D01*
X-43242Y196051D01*
X-43329Y196003D01*
X-43385Y195952D01*
X-43447Y195908D01*
X-43514Y195835D01*
X-43587Y195768D01*
X-43630Y195706D01*
X-43681Y195650D01*
X-43729Y195563D01*
X-43785Y195481D01*
X-43813Y195411D01*
X-43849Y195345D01*
X-43876Y195249D01*
X-43913Y195157D01*
X-43924Y195082D01*
X-43944Y195009D01*
X-43956Y194859D01*
X-43963Y194812D01*
X-43962Y194794D01*
X-43964Y194765D01*
X-43964Y192765D01*
X-44767Y190827D01*
X-46251Y189343D01*
X-48189Y188540D01*
X-50288Y188540D01*
X-52227Y189343D01*
X-53710Y190827D01*
X-54565Y192890D01*
X-54579Y192929D01*
X-54595Y193003D01*
X-54637Y193092D01*
X-54671Y193185D01*
X-54712Y193249D01*
X-54744Y193318D01*
X-54806Y193395D01*
X-54860Y193478D01*
X-54914Y193531D01*
X-54962Y193590D01*
X-55039Y193652D01*
X-55110Y193720D01*
X-55175Y193759D01*
X-55235Y193806D01*
X-55325Y193849D01*
X-55409Y193899D01*
X-55482Y193922D01*
X-55551Y193955D01*
X-55647Y193975D01*
X-55741Y194005D01*
X-55817Y194011D01*
X-55891Y194027D01*
X-55990Y194025D01*
X-56089Y194033D01*
X-56164Y194022D01*
X-56240Y194021D01*
X-56336Y193996D01*
X-56433Y193982D01*
X-56504Y193954D01*
X-56578Y193935D01*
X-56714Y193870D01*
X-56757Y193853D01*
X-56773Y193842D01*
X-56799Y193830D01*
X-57757Y193276D01*
X-57779Y193260D01*
X-57945Y193148D01*
X-58446Y192748D01*
X-58596Y192710D01*
X-58753Y192673D01*
X-58765Y192667D01*
X-58777Y192664D01*
X-58998Y192559D01*
X-60472Y191708D01*
X-60482Y191700D01*
X-60494Y191695D01*
X-60622Y191597D01*
X-60752Y191500D01*
X-60760Y191490D01*
X-60770Y191482D01*
X-60872Y191358D01*
X-60896Y191330D01*
X-61508Y191089D01*
X-61533Y191076D01*
X-61713Y190990D01*
X-62268Y190670D01*
X-62423Y190654D01*
X-62583Y190641D01*
X-62595Y190637D01*
X-62608Y190636D01*
X-62842Y190565D01*
X-64427Y189943D01*
X-64438Y189937D01*
X-64450Y189933D01*
X-64592Y189855D01*
X-64735Y189779D01*
X-64744Y189771D01*
X-64755Y189764D01*
X-64875Y189656D01*
X-64902Y189632D01*
X-65543Y189486D01*
X-65570Y189476D01*
X-65761Y189419D01*
X-66358Y189184D01*
X-66513Y189192D01*
X-66674Y189203D01*
X-66686Y189201D01*
X-66699Y189201D01*
X-66941Y189166D01*
X-68601Y188787D01*
X-68613Y188783D01*
X-68625Y188781D01*
X-68777Y188725D01*
X-68929Y188671D01*
X-68940Y188664D01*
X-68952Y188660D01*
X-69086Y188571D01*
X-69117Y188551D01*
X-69773Y188502D01*
X-69801Y188496D01*
X-69998Y188467D01*
X-70623Y188325D01*
X-70774Y188355D01*
X-70933Y188390D01*
X-70945Y188390D01*
X-70958Y188393D01*
X-71202Y188394D01*
X-72900Y188266D01*
X-72913Y188264D01*
X-72925Y188264D01*
X-73083Y188231D01*
X-73242Y188200D01*
X-73254Y188195D01*
X-73266Y188193D01*
X-73413Y188125D01*
X-73446Y188110D01*
X-74102Y188159D01*
X-74130Y188157D01*
X-74330Y188159D01*
X-74969Y188110D01*
X-75115Y188164D01*
X-75265Y188221D01*
X-75278Y188223D01*
X-75290Y188228D01*
X-75531Y188265D01*
X-77229Y188392D01*
X-77242Y188391D01*
X-77254Y188394D01*
X-77415Y188384D01*
X-77577Y188378D01*
X-77590Y188375D01*
X-77602Y188374D01*
X-77758Y188328D01*
X-77792Y188319D01*
X-78434Y188465D01*
X-78461Y188468D01*
X-78659Y188499D01*
X-79298Y188546D01*
X-79434Y188621D01*
X-79574Y188700D01*
X-79587Y188704D01*
X-79598Y188710D01*
X-79831Y188783D01*
X-81491Y189162D01*
X-81504Y189163D01*
X-81516Y189167D01*
X-81677Y189182D01*
X-81838Y189200D01*
X-81850Y189198D01*
X-81863Y189199D01*
X-82022Y189177D01*
X-82059Y189173D01*
X-82671Y189413D01*
X-82698Y189420D01*
X-82889Y189480D01*
X-83514Y189623D01*
X-83637Y189716D01*
X-83764Y189816D01*
X-83776Y189821D01*
X-83786Y189829D01*
X-84006Y189936D01*
X-85591Y190558D01*
X-85603Y190561D01*
X-85614Y190567D01*
X-85772Y190606D01*
X-85928Y190647D01*
X-85940Y190648D01*
X-85952Y190651D01*
X-86115Y190653D01*
X-86150Y190654D01*
X-86720Y190982D01*
X-86746Y190993D01*
X-86925Y191081D01*
X-87522Y191315D01*
X-87629Y191425D01*
X-87741Y191544D01*
X-87751Y191551D01*
X-87760Y191560D01*
X-87962Y191699D01*
X-89436Y192550D01*
X-89448Y192555D01*
X-89458Y192562D01*
X-89608Y192624D01*
X-89756Y192688D01*
X-89769Y192690D01*
X-89780Y192695D01*
X-89940Y192721D01*
X-89976Y192728D01*
X-90490Y193138D01*
X-90514Y193152D01*
X-90678Y193266D01*
X-91233Y193586D01*
X-91323Y193712D01*
X-91416Y193845D01*
X-91425Y193853D01*
X-91432Y193864D01*
X-91611Y194031D01*
X-92942Y195092D01*
X-92953Y195099D01*
X-92962Y195108D01*
X-93101Y195191D01*
X-93238Y195277D01*
X-93250Y195281D01*
X-93261Y195287D01*
X-93415Y195337D01*
X-93449Y195349D01*
X-93896Y195831D01*
X-93917Y195849D01*
X-94063Y195986D01*
X-94565Y196385D01*
X-94635Y196523D01*
X-94706Y196668D01*
X-94714Y196678D01*
X-94720Y196689D01*
X-94872Y196881D01*
X-96030Y198129D01*
X-96040Y198137D01*
X-96047Y198147D01*
X-96172Y198250D01*
X-96295Y198356D01*
X-96306Y198361D01*
X-96316Y198369D01*
X-96461Y198441D01*
X-96493Y198458D01*
X-96863Y199001D01*
X-96882Y199023D01*
X-97005Y199179D01*
X-97442Y199649D01*
X-97491Y199795D01*
X-97540Y199950D01*
X-97546Y199961D01*
X-97550Y199973D01*
X-97671Y200185D01*
X-98631Y201592D01*
X-98639Y201602D01*
X-98645Y201613D01*
X-98753Y201733D01*
X-98859Y201856D01*
X-98869Y201863D01*
X-98878Y201872D01*
X-99010Y201965D01*
X-99039Y201986D01*
X-99325Y202579D01*
X-99339Y202602D01*
X-99439Y202776D01*
X-99800Y203305D01*
X-99827Y203458D01*
X-99852Y203618D01*
X-99857Y203630D01*
X-99859Y203642D01*
X-99947Y203870D01*
X-100686Y205404D01*
X-100693Y205415D01*
X-100698Y205427D01*
X-100786Y205561D01*
X-100873Y205699D01*
X-100882Y205708D01*
X-100889Y205718D01*
X-101005Y205829D01*
X-101031Y205855D01*
X-101225Y206483D01*
X-101237Y206509D01*
X-101309Y206695D01*
X-101587Y207273D01*
X-101591Y207426D01*
X-101592Y207589D01*
X-101595Y207602D01*
X-101595Y207614D01*
X-101648Y207853D01*
X-102151Y209480D01*
X-102156Y209491D01*
X-102158Y209504D01*
X-102226Y209651D01*
X-102291Y209799D01*
X-102299Y209809D01*
X-102304Y209820D01*
X-102403Y209948D01*
X-102425Y209977D01*
X-102523Y210627D01*
X-102530Y210654D01*
X-102574Y210849D01*
X-102763Y211462D01*
X-102743Y211616D01*
X-102721Y211775D01*
X-102722Y211788D01*
X-102720Y211801D01*
X-102737Y212045D01*
X-102991Y213728D01*
X-102995Y213740D01*
X-102995Y213753D01*
X-103040Y213908D01*
X-103083Y214065D01*
X-103089Y214076D01*
X-103092Y214088D01*
X-103171Y214230D01*
X-103188Y214261D01*
X-103188Y214918D01*
X-103192Y214946D01*
X-103206Y215145D01*
X-103301Y215779D01*
X-103259Y215928D01*
X-103213Y216083D01*
X-103212Y216096D01*
X-103208Y216108D01*
X-103189Y216352D01*
X-103189Y218055D01*
X-103191Y218067D01*
X-103190Y218080D01*
X-103211Y218239D01*
X-103229Y218401D01*
X-103234Y218413D01*
X-103235Y218425D01*
X-103292Y218576D01*
X-103305Y218611D01*
X-103207Y219261D01*
X-103206Y219289D01*
X-103190Y219488D01*
X-103190Y220129D01*
X-103127Y220269D01*
X-103057Y220416D01*
X-103055Y220429D01*
X-103049Y220440D01*
X-102994Y220678D01*
X-102740Y222362D01*
X-102740Y222375D01*
X-102737Y222387D01*
X-102734Y222549D01*
X-102728Y222710D01*
X-102731Y222723D01*
X-102731Y222735D01*
X-102764Y222893D01*
X-102771Y222929D01*
X-102578Y223558D01*
X-102573Y223585D01*
X-102527Y223780D01*
X-102432Y224413D01*
X-102347Y224544D01*
X-102258Y224678D01*
X-102253Y224689D01*
X-102246Y224700D01*
X-102156Y224927D01*
X-101654Y226555D01*
X-101652Y226567D01*
X-101647Y226579D01*
X-101620Y226738D01*
X-101591Y226897D01*
X-101591Y226910D01*
X-101589Y226922D01*
X-101599Y227083D01*
X-101601Y227120D01*
X-101316Y227712D01*
X-101306Y227739D01*
X-101232Y227924D01*
X-100925Y228922D01*
X-100919Y228952D01*
X-100909Y228979D01*
X-100888Y229123D01*
X-100861Y229265D01*
X-100862Y229295D01*
X-100858Y229324D01*
X-100870Y229468D01*
X-100877Y229613D01*
X-100885Y229642D01*
X-100887Y229671D01*
X-100932Y229809D01*
X-100971Y229949D01*
X-100986Y229975D01*
X-100995Y230003D01*
X-101070Y230127D01*
X-101139Y230254D01*
X-101159Y230276D01*
X-101175Y230301D01*
X-101276Y230405D01*
X-101373Y230513D01*
X-101397Y230530D01*
X-101418Y230551D01*
X-101619Y230690D01*
X-133458Y249072D01*
X-132314Y250729D01*
X-132303Y250756D01*
X-132284Y250778D01*
X-132264Y250846D01*
X-132236Y250912D01*
X-132236Y250941D01*
X-132228Y250968D01*
X-132236Y251040D01*
X-132236Y251111D01*
X-132247Y251137D01*
X-132250Y251166D01*
X-132285Y251228D01*
X-132313Y251294D01*
X-132333Y251314D01*
X-132348Y251339D01*
X-132425Y251403D01*
X-132455Y251433D01*
X-132465Y251437D01*
X-132476Y251445D01*
X-148976Y260945D01*
X-149049Y260969D01*
X-149119Y261000D01*
X-149143Y261001D01*
X-149165Y261008D01*
X-149241Y261002D01*
X-149318Y261003D01*
X-149342Y260994D01*
X-149363Y260992D01*
X-149402Y260972D01*
X-149474Y260945D01*
X-165974Y251445D01*
X-165996Y251426D01*
X-166022Y251414D01*
X-166070Y251361D01*
X-166123Y251314D01*
X-166136Y251288D01*
X-166155Y251266D01*
X-166178Y251199D01*
X-166209Y251134D01*
X-166211Y251105D01*
X-166220Y251078D01*
X-166215Y251007D01*
X-166218Y250936D01*
X-166208Y250909D01*
X-166206Y250880D01*
X-166164Y250789D01*
X-166149Y250749D01*
X-166142Y250741D01*
X-166136Y250729D01*
X-164992Y249072D01*
X-196831Y230690D01*
X-196855Y230672D01*
X-196882Y230659D01*
X-196994Y230569D01*
X-197111Y230482D01*
X-197130Y230460D01*
X-197153Y230441D01*
X-197242Y230327D01*
X-197336Y230217D01*
X-197350Y230190D01*
X-197368Y230167D01*
X-197429Y230036D01*
X-197495Y229906D01*
X-197503Y229878D01*
X-197515Y229851D01*
X-197545Y229709D01*
X-197580Y229568D01*
X-197580Y229539D01*
X-197586Y229510D01*
X-197583Y229365D01*
X-197585Y229220D01*
X-197579Y229191D01*
X-197578Y229161D01*
X-197525Y228922D01*
X-197218Y227924D01*
X-197206Y227899D01*
X-197134Y227712D01*
X-196857Y227135D01*
X-196853Y226980D01*
X-196852Y226818D01*
X-196849Y226806D01*
X-196849Y226793D01*
X-196796Y226555D01*
X-196294Y224927D01*
X-196289Y224916D01*
X-196287Y224903D01*
X-196219Y224756D01*
X-196154Y224608D01*
X-196147Y224598D01*
X-196141Y224587D01*
X-196042Y224459D01*
X-196021Y224430D01*
X-195923Y223780D01*
X-195916Y223753D01*
X-195872Y223558D01*
X-195683Y222945D01*
X-195703Y222791D01*
X-195726Y222631D01*
X-195725Y222619D01*
X-195726Y222606D01*
X-195710Y222362D01*
X-195456Y220678D01*
X-195453Y220666D01*
X-195452Y220653D01*
X-195408Y220498D01*
X-195365Y220342D01*
X-195359Y220331D01*
X-195356Y220319D01*
X-195277Y220177D01*
X-195260Y220146D01*
X-195260Y219488D01*
X-195257Y219460D01*
X-195243Y219261D01*
X-195148Y218627D01*
X-195190Y218478D01*
X-195237Y218323D01*
X-195237Y218310D01*
X-195241Y218298D01*
X-195261Y218055D01*
X-195261Y216352D01*
X-195260Y216339D01*
X-195261Y216327D01*
X-195240Y216166D01*
X-195221Y216006D01*
X-195217Y215994D01*
X-195215Y215981D01*
X-195158Y215830D01*
X-195146Y215796D01*
X-195244Y215146D01*
X-195245Y215118D01*
X-195262Y214918D01*
X-195262Y214278D01*
X-195326Y214137D01*
X-195395Y213990D01*
X-195397Y213978D01*
X-195403Y213966D01*
X-195459Y213728D01*
X-195713Y212045D01*
X-195713Y212032D01*
X-195716Y212020D01*
X-195719Y211858D01*
X-195725Y211696D01*
X-195723Y211684D01*
X-195723Y211671D01*
X-195689Y211513D01*
X-195682Y211478D01*
X-195876Y210849D01*
X-195881Y210822D01*
X-195927Y210627D01*
X-196023Y209994D01*
X-196107Y209864D01*
X-196197Y209729D01*
X-196202Y209717D01*
X-196208Y209707D01*
X-196299Y209480D01*
X-196802Y207853D01*
X-196804Y207840D01*
X-196809Y207829D01*
X-196836Y207670D01*
X-196866Y207510D01*
X-196865Y207498D01*
X-196867Y207485D01*
X-196857Y207324D01*
X-196856Y207288D01*
X-197141Y206695D01*
X-197150Y206669D01*
X-197225Y206483D01*
X-197414Y205871D01*
X-197516Y205755D01*
X-197625Y205636D01*
X-197632Y205625D01*
X-197640Y205615D01*
X-197764Y205404D01*
X-197865Y205194D01*
X-197871Y205176D01*
X-197881Y205160D01*
X-197928Y205012D01*
X-197979Y204865D01*
X-197981Y204846D01*
X-197987Y204828D01*
X-197999Y204673D01*
X-198016Y204519D01*
X-198013Y204500D01*
X-198015Y204481D01*
X-197992Y204327D01*
X-197973Y204173D01*
X-197966Y204155D01*
X-197963Y204136D01*
X-197906Y203992D01*
X-197852Y203846D01*
X-197841Y203830D01*
X-197834Y203812D01*
X-197746Y203685D01*
X-197660Y203555D01*
X-197646Y203542D01*
X-197635Y203526D01*
X-197521Y203422D01*
X-197407Y203315D01*
X-197391Y203305D01*
X-197377Y203293D01*
X-197241Y203217D01*
X-197107Y203139D01*
X-197088Y203133D01*
X-197072Y203124D01*
X-196922Y203082D01*
X-196774Y203036D01*
X-196755Y203034D01*
X-196736Y203029D01*
X-196492Y203010D01*
X-196024Y203010D01*
X-194085Y202207D01*
X-192601Y200723D01*
X-191798Y198784D01*
X-191798Y197403D01*
X-191784Y197277D01*
X-191777Y197151D01*
X-191764Y197104D01*
X-191758Y197056D01*
X-191716Y196938D01*
X-191681Y196816D01*
X-191657Y196774D01*
X-191641Y196728D01*
X-191572Y196622D01*
X-191510Y196512D01*
X-191471Y196466D01*
X-191452Y196436D01*
X-191417Y196402D01*
X-191352Y196326D01*
X-128278Y133252D01*
X-128278Y130848D01*
X-128275Y130822D01*
X-128277Y130796D01*
X-128255Y130649D01*
X-128238Y130502D01*
X-128230Y130477D01*
X-128226Y130451D01*
X-128171Y130313D01*
X-128121Y130174D01*
X-128107Y130152D01*
X-128097Y130127D01*
X-128012Y130006D01*
X-127932Y129881D01*
X-127913Y129863D01*
X-127898Y129841D01*
X-127788Y129742D01*
X-127681Y129639D01*
X-127659Y129625D01*
X-127639Y129608D01*
X-127509Y129536D01*
X-127382Y129460D01*
X-127357Y129452D01*
X-127334Y129439D01*
X-127191Y129399D01*
X-127050Y129354D01*
X-127024Y129352D01*
X-126999Y129344D01*
X-126755Y129325D01*
X-115335Y129325D01*
X-115309Y129328D01*
X-115283Y129326D01*
X-115137Y129348D01*
X-114989Y129365D01*
X-114965Y129373D01*
X-114939Y129377D01*
X-114801Y129432D01*
X-114661Y129482D01*
X-114639Y129496D01*
X-114615Y129506D01*
X-114493Y129591D01*
X-114368Y129671D01*
X-114350Y129690D01*
X-114329Y129705D01*
X-114230Y129815D01*
X-114126Y129922D01*
X-114113Y129944D01*
X-114095Y129964D01*
X-114023Y130094D01*
X-113947Y130221D01*
X-113946Y130224D01*
X-111308Y132862D01*
X-107767Y132862D01*
X-105263Y130358D01*
X-105263Y126817D01*
X-107767Y124313D01*
X-108870Y124313D01*
X-108995Y124298D01*
X-109121Y124292D01*
X-109168Y124278D01*
X-109216Y124273D01*
X-109335Y124230D01*
X-109456Y124195D01*
X-109498Y124172D01*
X-109544Y124155D01*
X-109650Y124087D01*
X-109761Y124025D01*
X-109807Y123986D01*
X-109837Y123966D01*
X-109870Y123932D01*
X-109947Y123867D01*
X-113179Y120634D01*
X-113258Y120535D01*
X-113342Y120441D01*
X-113366Y120399D01*
X-113396Y120361D01*
X-113450Y120247D01*
X-113511Y120136D01*
X-113524Y120090D01*
X-113545Y120046D01*
X-113571Y119923D01*
X-113606Y119801D01*
X-113611Y119740D01*
X-113618Y119706D01*
X-113617Y119658D01*
X-113625Y119557D01*
X-113625Y117168D01*
X-114518Y116275D01*
X-127009Y116275D01*
X-127035Y116272D01*
X-127061Y116274D01*
X-127208Y116252D01*
X-127355Y116235D01*
X-127380Y116227D01*
X-127406Y116223D01*
X-127544Y116168D01*
X-127683Y116118D01*
X-127705Y116104D01*
X-127730Y116094D01*
X-127851Y116009D01*
X-127976Y115929D01*
X-127994Y115910D01*
X-128016Y115895D01*
X-128115Y115785D01*
X-128218Y115678D01*
X-128232Y115656D01*
X-128249Y115636D01*
X-128321Y115506D01*
X-128397Y115379D01*
X-128405Y115354D01*
X-128418Y115331D01*
X-128458Y115188D01*
X-128503Y115047D01*
X-128505Y115021D01*
X-128513Y114996D01*
X-128532Y114752D01*
X-128532Y113848D01*
X-128529Y113822D01*
X-128531Y113796D01*
X-128509Y113649D01*
X-128492Y113502D01*
X-128484Y113477D01*
X-128480Y113451D01*
X-128425Y113313D01*
X-128375Y113174D01*
X-128361Y113152D01*
X-128351Y113127D01*
X-128266Y113006D01*
X-128186Y112881D01*
X-128167Y112863D01*
X-128152Y112841D01*
X-128042Y112742D01*
X-127935Y112639D01*
X-127913Y112625D01*
X-127893Y112608D01*
X-127763Y112536D01*
X-127636Y112460D01*
X-127611Y112452D01*
X-127588Y112439D01*
X-127445Y112399D01*
X-127304Y112354D01*
X-127278Y112352D01*
X-127253Y112344D01*
X-127009Y112325D01*
X-114518Y112325D01*
X-113625Y111432D01*
X-113625Y100168D01*
X-114518Y99275D01*
X-117006Y99275D01*
X-117032Y99272D01*
X-117058Y99274D01*
X-117205Y99252D01*
X-117352Y99235D01*
X-117377Y99227D01*
X-117403Y99223D01*
X-117541Y99168D01*
X-117680Y99118D01*
X-117702Y99104D01*
X-117727Y99094D01*
X-117848Y99009D01*
X-117973Y98929D01*
X-117991Y98910D01*
X-118013Y98895D01*
X-118112Y98785D01*
X-118215Y98678D01*
X-118229Y98656D01*
X-118246Y98636D01*
X-118318Y98506D01*
X-118394Y98379D01*
X-118402Y98354D01*
X-118415Y98331D01*
X-118455Y98188D01*
X-118500Y98047D01*
X-118502Y98021D01*
X-118510Y97996D01*
X-118529Y97752D01*
X-118529Y96748D01*
X-118526Y96722D01*
X-118528Y96696D01*
X-118506Y96549D01*
X-118489Y96402D01*
X-118481Y96377D01*
X-118477Y96351D01*
X-118422Y96213D01*
X-118372Y96074D01*
X-118358Y96052D01*
X-118348Y96027D01*
X-118263Y95906D01*
X-118183Y95781D01*
X-118164Y95763D01*
X-118149Y95741D01*
X-118039Y95642D01*
X-117932Y95539D01*
X-117910Y95525D01*
X-117890Y95508D01*
X-117760Y95436D01*
X-117633Y95360D01*
X-117608Y95352D01*
X-117585Y95339D01*
X-117442Y95299D01*
X-117301Y95254D01*
X-117275Y95252D01*
X-117250Y95244D01*
X-117006Y95225D01*
X-94416Y95225D01*
X-93523Y94332D01*
X-93523Y88975D01*
X-93520Y88949D01*
X-93522Y88923D01*
X-93500Y88776D01*
X-93483Y88629D01*
X-93475Y88604D01*
X-93471Y88578D01*
X-93416Y88440D01*
X-93366Y88301D01*
X-93352Y88279D01*
X-93342Y88254D01*
X-93257Y88133D01*
X-93177Y88008D01*
X-93158Y87990D01*
X-93143Y87968D01*
X-93033Y87869D01*
X-92926Y87766D01*
X-92904Y87752D01*
X-92884Y87735D01*
X-92754Y87663D01*
X-92627Y87587D01*
X-92602Y87579D01*
X-92579Y87566D01*
X-92436Y87526D01*
X-92295Y87481D01*
X-92269Y87479D01*
X-92244Y87471D01*
X-92000Y87452D01*
X-86643Y87452D01*
X-86358Y87166D01*
X-86279Y87104D01*
X-86207Y87034D01*
X-86143Y86995D01*
X-86085Y86949D01*
X-85994Y86906D01*
X-85908Y86855D01*
X-85837Y86832D01*
X-85770Y86800D01*
X-85671Y86779D01*
X-85576Y86749D01*
X-85501Y86743D01*
X-85429Y86727D01*
X-85328Y86729D01*
X-85228Y86721D01*
X-85155Y86732D01*
X-85080Y86733D01*
X-84983Y86757D01*
X-84884Y86772D01*
X-84814Y86800D01*
X-84742Y86818D01*
X-84653Y86864D01*
X-84560Y86901D01*
X-84499Y86943D01*
X-84433Y86978D01*
X-84356Y87043D01*
X-84274Y87100D01*
X-84224Y87155D01*
X-84167Y87203D01*
X-84107Y87284D01*
X-84040Y87359D01*
X-84004Y87424D01*
X-83960Y87484D01*
X-83920Y87576D01*
X-83872Y87664D01*
X-83851Y87735D01*
X-83822Y87804D01*
X-83804Y87902D01*
X-83777Y87999D01*
X-83769Y88099D01*
X-83760Y88147D01*
X-83762Y88182D01*
X-83757Y88243D01*
X-83757Y136095D01*
X-82120Y137732D01*
X-67818Y137732D01*
X-67792Y137735D01*
X-67766Y137733D01*
X-67619Y137755D01*
X-67472Y137772D01*
X-67447Y137781D01*
X-67421Y137785D01*
X-67283Y137840D01*
X-67144Y137890D01*
X-67122Y137904D01*
X-67097Y137914D01*
X-66976Y137998D01*
X-66851Y138079D01*
X-66833Y138098D01*
X-66811Y138112D01*
X-66712Y138222D01*
X-66609Y138329D01*
X-66595Y138352D01*
X-66578Y138371D01*
X-66506Y138501D01*
X-66430Y138628D01*
X-66422Y138653D01*
X-66409Y138676D01*
X-66369Y138819D01*
X-66324Y138960D01*
X-66322Y138986D01*
X-66314Y139012D01*
X-66295Y139255D01*
X-66295Y139270D01*
X-64658Y140907D01*
X-51230Y140907D01*
X-49593Y139270D01*
X-49593Y129610D01*
X-49590Y129584D01*
X-49592Y129558D01*
X-49570Y129412D01*
X-49553Y129264D01*
X-49544Y129240D01*
X-49540Y129214D01*
X-49485Y129076D01*
X-49435Y128936D01*
X-49421Y128914D01*
X-49411Y128890D01*
X-49327Y128768D01*
X-49246Y128643D01*
X-49227Y128625D01*
X-49213Y128604D01*
X-49103Y128505D01*
X-48996Y128401D01*
X-48973Y128388D01*
X-48954Y128370D01*
X-48824Y128298D01*
X-48697Y128222D01*
X-48672Y128214D01*
X-48649Y128202D01*
X-48539Y128171D01*
X-47563Y127194D01*
X-47563Y93313D01*
X-47578Y93266D01*
X-47610Y93199D01*
X-47631Y93101D01*
X-47661Y93005D01*
X-47667Y92931D01*
X-47683Y92858D01*
X-47681Y92758D01*
X-47689Y92658D01*
X-47678Y92584D01*
X-47677Y92510D01*
X-47653Y92413D01*
X-47638Y92313D01*
X-47610Y92244D01*
X-47592Y92172D01*
X-47546Y92083D01*
X-47509Y91989D01*
X-47467Y91928D01*
X-47433Y91862D01*
X-47367Y91786D01*
X-47310Y91703D01*
X-47255Y91653D01*
X-47207Y91597D01*
X-47126Y91537D01*
X-47051Y91470D01*
X-46986Y91434D01*
X-46926Y91390D01*
X-46834Y91350D01*
X-46746Y91301D01*
X-46675Y91281D01*
X-46606Y91251D01*
X-46508Y91234D01*
X-46411Y91206D01*
X-46311Y91198D01*
X-46263Y91190D01*
X-46228Y91192D01*
X-46167Y91187D01*
X48375Y91187D01*
X48407Y91190D01*
X48438Y91188D01*
X48580Y91210D01*
X48722Y91227D01*
X48751Y91237D01*
X48783Y91242D01*
X48915Y91296D01*
X49050Y91344D01*
X49076Y91361D01*
X49106Y91373D01*
X49222Y91455D01*
X49343Y91533D01*
X49365Y91556D01*
X49390Y91574D01*
X49485Y91681D01*
X49585Y91784D01*
X49601Y91811D01*
X49622Y91834D01*
X49690Y91960D01*
X49764Y92083D01*
X49773Y92113D01*
X49788Y92141D01*
X49826Y92279D01*
X49870Y92415D01*
X49872Y92446D01*
X49881Y92477D01*
X49899Y92721D01*
X49277Y181567D01*
X149263Y238275D01*
X151795Y237008D01*
X281306Y161197D01*
X281306Y13428D01*
X140647Y-68754D01*
X140567Y-68815D01*
X140482Y-68869D01*
X140442Y-68912D01*
X140395Y-68948D01*
X140333Y-69027D01*
X140264Y-69100D01*
X140235Y-69151D01*
X140199Y-69198D01*
X140158Y-69290D01*
X140109Y-69378D01*
X140094Y-69435D01*
X140071Y-69489D01*
X140054Y-69588D01*
X140054Y-69591D01*
X137841Y-71254D01*
X137818Y-71279D01*
X137781Y-71307D01*
X135657Y-73518D01*
X135639Y-73547D01*
X135606Y-73580D01*
X133864Y-76104D01*
X133853Y-76131D01*
X133834Y-76153D01*
X133814Y-76221D01*
X133786Y-76287D01*
X133786Y-76316D01*
X133778Y-76343D01*
X133786Y-76415D01*
X133786Y-76486D01*
X133797Y-76512D01*
X133800Y-76541D01*
X133835Y-76603D01*
X133863Y-76669D01*
X133883Y-76689D01*
X133898Y-76714D01*
X133961Y-76766D01*
X133965Y-76772D01*
X133974Y-76777D01*
X133975Y-76778D01*
X134005Y-76808D01*
X134015Y-76812D01*
X134026Y-76820D01*
X150526Y-86320D01*
X150599Y-86344D01*
X150669Y-86375D01*
X150693Y-86376D01*
X150715Y-86383D01*
X150791Y-86377D01*
G37*
G36*
X-198360Y-27676D02*
X-198360Y-27676D01*
X-198219Y-27675D01*
X-198187Y-27667D01*
X-198153Y-27665D01*
X-198018Y-27626D01*
X-197880Y-27593D01*
X-197851Y-27578D01*
X-197818Y-27569D01*
X-197695Y-27500D01*
X-197569Y-27436D01*
X-197543Y-27415D01*
X-197514Y-27399D01*
X-197328Y-27240D01*
X-149572Y20516D01*
X-149493Y20615D01*
X-149409Y20709D01*
X-149385Y20751D01*
X-149355Y20789D01*
X-149301Y20903D01*
X-149240Y21014D01*
X-149227Y21061D01*
X-149206Y21104D01*
X-149180Y21228D01*
X-149145Y21349D01*
X-149140Y21410D01*
X-149133Y21445D01*
X-149134Y21493D01*
X-149126Y21593D01*
X-149126Y26732D01*
X-148233Y27625D01*
X-95823Y27625D01*
X-95797Y27628D01*
X-95771Y27626D01*
X-95624Y27648D01*
X-95477Y27665D01*
X-95452Y27673D01*
X-95426Y27677D01*
X-95288Y27732D01*
X-95149Y27782D01*
X-95127Y27796D01*
X-95102Y27806D01*
X-94981Y27891D01*
X-94856Y27971D01*
X-94838Y27990D01*
X-94816Y28005D01*
X-94717Y28115D01*
X-94614Y28222D01*
X-94600Y28244D01*
X-94583Y28264D01*
X-94511Y28394D01*
X-94435Y28521D01*
X-94427Y28546D01*
X-94414Y28569D01*
X-94374Y28712D01*
X-94329Y28853D01*
X-94327Y28879D01*
X-94319Y28904D01*
X-94300Y29148D01*
X-94300Y50029D01*
X-94314Y50155D01*
X-94321Y50281D01*
X-94334Y50327D01*
X-94340Y50375D01*
X-94382Y50494D01*
X-94417Y50616D01*
X-94441Y50658D01*
X-94457Y50703D01*
X-94526Y50809D01*
X-94587Y50920D01*
X-94627Y50966D01*
X-94646Y50996D01*
X-94681Y51030D01*
X-94746Y51106D01*
X-94870Y51230D01*
X-94870Y72595D01*
X-94746Y72719D01*
X-94667Y72818D01*
X-94583Y72912D01*
X-94559Y72954D01*
X-94529Y72992D01*
X-94475Y73106D01*
X-94414Y73217D01*
X-94401Y73263D01*
X-94380Y73307D01*
X-94354Y73430D01*
X-94319Y73552D01*
X-94314Y73613D01*
X-94307Y73648D01*
X-94308Y73696D01*
X-94300Y73796D01*
X-94300Y85152D01*
X-94303Y85178D01*
X-94301Y85204D01*
X-94323Y85351D01*
X-94340Y85498D01*
X-94348Y85523D01*
X-94352Y85549D01*
X-94407Y85687D01*
X-94457Y85826D01*
X-94471Y85848D01*
X-94481Y85873D01*
X-94566Y85994D01*
X-94646Y86119D01*
X-94665Y86137D01*
X-94680Y86159D01*
X-94790Y86258D01*
X-94897Y86361D01*
X-94919Y86375D01*
X-94939Y86392D01*
X-95069Y86464D01*
X-95196Y86540D01*
X-95221Y86548D01*
X-95244Y86561D01*
X-95387Y86601D01*
X-95528Y86646D01*
X-95554Y86648D01*
X-95579Y86656D01*
X-95823Y86675D01*
X-151827Y86675D01*
X-151853Y86672D01*
X-151879Y86674D01*
X-152026Y86652D01*
X-152173Y86635D01*
X-152198Y86627D01*
X-152224Y86623D01*
X-152362Y86568D01*
X-152501Y86518D01*
X-152523Y86504D01*
X-152548Y86494D01*
X-152669Y86409D01*
X-152794Y86329D01*
X-152812Y86310D01*
X-152834Y86295D01*
X-152933Y86185D01*
X-153036Y86078D01*
X-153050Y86056D01*
X-153067Y86036D01*
X-153139Y85906D01*
X-153215Y85779D01*
X-153223Y85754D01*
X-153236Y85731D01*
X-153276Y85588D01*
X-153321Y85447D01*
X-153323Y85421D01*
X-153331Y85396D01*
X-153350Y85152D01*
X-153350Y57749D01*
X-154243Y56856D01*
X-168066Y56856D01*
X-168191Y56842D01*
X-168318Y56835D01*
X-168364Y56822D01*
X-168412Y56816D01*
X-168531Y56774D01*
X-168652Y56739D01*
X-168695Y56715D01*
X-168740Y56699D01*
X-168846Y56630D01*
X-168896Y56602D01*
X-171476Y56602D01*
X-173053Y58179D01*
X-173152Y58258D01*
X-173246Y58342D01*
X-173288Y58366D01*
X-173326Y58396D01*
X-173440Y58450D01*
X-173551Y58511D01*
X-173598Y58524D01*
X-173641Y58545D01*
X-173765Y58571D01*
X-173887Y58606D01*
X-173947Y58611D01*
X-173982Y58618D01*
X-174030Y58617D01*
X-174130Y58625D01*
X-197044Y58625D01*
X-197937Y59518D01*
X-197937Y61062D01*
X-197940Y61088D01*
X-197938Y61114D01*
X-197960Y61261D01*
X-197977Y61408D01*
X-197986Y61433D01*
X-197990Y61459D01*
X-198045Y61597D01*
X-198095Y61736D01*
X-198109Y61758D01*
X-198119Y61783D01*
X-198203Y61904D01*
X-198284Y62029D01*
X-198303Y62047D01*
X-198317Y62069D01*
X-198427Y62168D01*
X-198534Y62271D01*
X-198557Y62285D01*
X-198576Y62302D01*
X-198706Y62374D01*
X-198833Y62450D01*
X-198858Y62458D01*
X-198881Y62471D01*
X-199024Y62511D01*
X-199165Y62556D01*
X-199191Y62558D01*
X-199217Y62566D01*
X-199460Y62585D01*
X-201065Y62585D01*
X-201191Y62571D01*
X-201317Y62564D01*
X-201363Y62551D01*
X-201411Y62545D01*
X-201530Y62503D01*
X-201652Y62468D01*
X-201694Y62444D01*
X-201739Y62428D01*
X-201846Y62359D01*
X-201956Y62298D01*
X-202002Y62258D01*
X-202032Y62239D01*
X-202066Y62204D01*
X-202142Y62139D01*
X-203243Y61038D01*
X-205520Y61038D01*
X-205646Y61023D01*
X-205772Y61017D01*
X-205819Y61003D01*
X-205867Y60998D01*
X-205986Y60955D01*
X-206107Y60920D01*
X-206149Y60897D01*
X-206195Y60880D01*
X-206301Y60812D01*
X-206411Y60750D01*
X-206458Y60711D01*
X-206488Y60691D01*
X-206521Y60657D01*
X-206597Y60592D01*
X-207004Y60185D01*
X-207083Y60086D01*
X-207167Y59992D01*
X-207191Y59950D01*
X-207221Y59912D01*
X-207275Y59798D01*
X-207336Y59687D01*
X-207349Y59641D01*
X-207370Y59597D01*
X-207396Y59474D01*
X-207431Y59352D01*
X-207433Y59316D01*
X-208253Y57337D01*
X-209737Y55853D01*
X-211676Y55050D01*
X-213774Y55050D01*
X-215713Y55853D01*
X-217197Y57337D01*
X-218000Y59276D01*
X-218000Y61374D01*
X-217197Y63313D01*
X-215713Y64797D01*
X-213774Y65600D01*
X-213717Y65600D01*
X-213592Y65614D01*
X-213465Y65621D01*
X-213419Y65634D01*
X-213371Y65640D01*
X-213252Y65682D01*
X-213130Y65717D01*
X-213088Y65741D01*
X-213043Y65757D01*
X-212937Y65826D01*
X-212826Y65887D01*
X-212780Y65927D01*
X-212750Y65946D01*
X-212716Y65981D01*
X-212640Y66046D01*
X-210911Y67775D01*
X-210832Y67874D01*
X-210748Y67968D01*
X-210724Y68010D01*
X-210694Y68048D01*
X-210640Y68162D01*
X-210579Y68273D01*
X-210566Y68319D01*
X-210545Y68363D01*
X-210534Y68414D01*
X-210514Y68450D01*
X-210501Y68497D01*
X-210480Y68540D01*
X-210454Y68664D01*
X-210419Y68786D01*
X-210414Y68846D01*
X-210407Y68881D01*
X-210408Y68929D01*
X-210400Y69030D01*
X-210400Y71280D01*
X-210383Y71315D01*
X-210332Y71401D01*
X-210309Y71472D01*
X-210277Y71539D01*
X-210256Y71637D01*
X-210226Y71733D01*
X-210220Y71807D01*
X-210204Y71880D01*
X-210206Y71980D01*
X-210198Y72080D01*
X-210209Y72154D01*
X-210210Y72228D01*
X-210234Y72325D01*
X-210249Y72425D01*
X-210277Y72494D01*
X-210295Y72566D01*
X-210341Y72655D01*
X-210378Y72749D01*
X-210421Y72810D01*
X-210455Y72876D01*
X-210520Y72952D01*
X-210577Y73035D01*
X-210632Y73085D01*
X-210680Y73141D01*
X-210761Y73201D01*
X-210836Y73268D01*
X-210901Y73304D01*
X-210961Y73348D01*
X-211053Y73388D01*
X-211141Y73437D01*
X-211212Y73457D01*
X-211281Y73486D01*
X-211379Y73504D01*
X-211476Y73532D01*
X-211576Y73540D01*
X-211624Y73548D01*
X-211659Y73546D01*
X-211720Y73551D01*
X-232650Y73551D01*
X-242916Y83818D01*
X-243015Y83896D01*
X-243109Y83981D01*
X-243151Y84004D01*
X-243189Y84034D01*
X-243303Y84088D01*
X-243414Y84149D01*
X-243461Y84163D01*
X-243504Y84183D01*
X-243628Y84210D01*
X-243749Y84244D01*
X-243810Y84249D01*
X-243845Y84257D01*
X-243893Y84256D01*
X-243993Y84264D01*
X-254863Y84264D01*
X-254963Y84252D01*
X-255063Y84251D01*
X-255135Y84232D01*
X-255209Y84224D01*
X-255304Y84190D01*
X-255401Y84166D01*
X-255467Y84131D01*
X-255537Y84106D01*
X-255622Y84052D01*
X-255711Y84006D01*
X-255768Y83958D01*
X-255830Y83917D01*
X-255900Y83845D01*
X-255976Y83780D01*
X-256020Y83720D01*
X-256072Y83667D01*
X-256124Y83581D01*
X-256183Y83500D01*
X-256213Y83431D01*
X-256251Y83368D01*
X-256282Y83272D01*
X-256321Y83180D01*
X-256335Y83107D01*
X-256357Y83036D01*
X-256365Y82936D01*
X-256383Y82837D01*
X-256379Y82762D01*
X-256385Y82688D01*
X-256370Y82589D01*
X-256365Y82489D01*
X-256345Y82417D01*
X-256334Y82344D01*
X-256296Y82250D01*
X-256269Y82154D01*
X-256232Y82089D01*
X-256205Y82020D01*
X-256148Y81937D01*
X-256098Y81850D01*
X-256033Y81773D01*
X-256006Y81734D01*
X-255989Y81719D01*
X-255986Y81713D01*
X-255972Y81701D01*
X-255940Y81663D01*
X-214286Y40009D01*
X-214187Y39931D01*
X-214093Y39846D01*
X-214051Y39823D01*
X-214013Y39793D01*
X-213899Y39739D01*
X-213788Y39678D01*
X-213741Y39664D01*
X-213698Y39644D01*
X-213574Y39617D01*
X-213453Y39583D01*
X-213392Y39578D01*
X-213357Y39570D01*
X-213309Y39571D01*
X-213209Y39563D01*
X-175431Y39563D01*
X-175306Y39578D01*
X-175179Y39584D01*
X-175133Y39598D01*
X-175085Y39603D01*
X-174966Y39646D01*
X-174845Y39681D01*
X-174802Y39704D01*
X-174757Y39721D01*
X-174651Y39789D01*
X-174540Y39851D01*
X-174494Y39890D01*
X-174464Y39910D01*
X-174431Y39944D01*
X-174354Y40009D01*
X-171659Y42704D01*
X-171581Y42803D01*
X-171496Y42897D01*
X-171473Y42939D01*
X-171443Y42977D01*
X-171389Y43091D01*
X-171328Y43202D01*
X-171314Y43249D01*
X-171294Y43292D01*
X-171267Y43416D01*
X-171233Y43538D01*
X-171228Y43598D01*
X-171220Y43633D01*
X-171221Y43681D01*
X-171213Y43781D01*
X-171213Y43917D01*
X-169392Y45738D01*
X-169353Y45742D01*
X-169234Y45785D01*
X-169112Y45820D01*
X-169070Y45844D01*
X-169025Y45860D01*
X-168919Y45929D01*
X-168808Y45990D01*
X-168762Y46030D01*
X-168732Y46049D01*
X-168698Y46084D01*
X-168622Y46149D01*
X-162328Y52443D01*
X-154243Y52443D01*
X-153350Y51550D01*
X-153350Y32742D01*
X-154243Y31849D01*
X-161007Y31849D01*
X-161933Y32776D01*
X-161954Y32792D01*
X-161971Y32812D01*
X-162090Y32900D01*
X-162206Y32992D01*
X-162230Y33004D01*
X-162251Y33019D01*
X-162387Y33078D01*
X-162521Y33141D01*
X-162547Y33147D01*
X-162571Y33157D01*
X-162717Y33183D01*
X-162862Y33215D01*
X-162888Y33214D01*
X-162914Y33219D01*
X-163062Y33211D01*
X-163210Y33209D01*
X-163236Y33202D01*
X-163262Y33201D01*
X-163404Y33160D01*
X-163548Y33124D01*
X-163572Y33112D01*
X-163597Y33104D01*
X-163726Y33032D01*
X-163858Y32964D01*
X-163878Y32947D01*
X-163901Y32934D01*
X-164087Y32776D01*
X-167393Y29470D01*
X-167471Y29371D01*
X-167556Y29278D01*
X-167579Y29235D01*
X-167609Y29197D01*
X-167663Y29083D01*
X-167724Y28972D01*
X-167738Y28926D01*
X-167758Y28882D01*
X-167785Y28759D01*
X-167819Y28637D01*
X-167824Y28576D01*
X-167832Y28542D01*
X-167831Y28494D01*
X-167839Y28393D01*
X-167839Y26010D01*
X-167836Y25984D01*
X-167838Y25958D01*
X-167816Y25812D01*
X-167799Y25664D01*
X-167790Y25640D01*
X-167786Y25614D01*
X-167731Y25476D01*
X-167681Y25336D01*
X-167667Y25314D01*
X-167657Y25290D01*
X-167573Y25168D01*
X-167492Y25043D01*
X-167473Y25025D01*
X-167459Y25004D01*
X-167349Y24905D01*
X-167242Y24801D01*
X-167219Y24788D01*
X-167200Y24770D01*
X-167070Y24698D01*
X-166943Y24622D01*
X-166918Y24614D01*
X-166895Y24602D01*
X-166752Y24561D01*
X-166611Y24516D01*
X-166585Y24514D01*
X-166559Y24507D01*
X-166316Y24487D01*
X-165256Y24487D01*
X-164363Y23594D01*
X-164363Y11331D01*
X-165256Y10438D01*
X-176519Y10438D01*
X-177412Y11331D01*
X-177412Y23594D01*
X-176519Y24487D01*
X-175459Y24487D01*
X-175433Y24490D01*
X-175407Y24488D01*
X-175261Y24510D01*
X-175113Y24527D01*
X-175089Y24536D01*
X-175063Y24540D01*
X-174925Y24595D01*
X-174785Y24645D01*
X-174763Y24659D01*
X-174739Y24669D01*
X-174617Y24753D01*
X-174492Y24834D01*
X-174474Y24853D01*
X-174453Y24867D01*
X-174354Y24977D01*
X-174250Y25084D01*
X-174237Y25107D01*
X-174219Y25126D01*
X-174147Y25256D01*
X-174071Y25383D01*
X-174063Y25408D01*
X-174051Y25431D01*
X-174010Y25574D01*
X-173965Y25715D01*
X-173963Y25741D01*
X-173956Y25767D01*
X-173936Y26010D01*
X-173936Y31360D01*
X-173928Y31386D01*
X-173896Y31453D01*
X-173875Y31552D01*
X-173844Y31647D01*
X-173838Y31721D01*
X-173823Y31794D01*
X-173824Y31895D01*
X-173816Y31995D01*
X-173827Y32068D01*
X-173829Y32142D01*
X-173853Y32240D01*
X-173868Y32339D01*
X-173895Y32408D01*
X-173914Y32480D01*
X-173960Y32570D01*
X-173997Y32663D01*
X-174039Y32724D01*
X-174073Y32790D01*
X-174138Y32867D01*
X-174196Y32949D01*
X-174251Y32999D01*
X-174299Y33056D01*
X-174380Y33116D01*
X-174454Y33183D01*
X-174519Y33219D01*
X-174579Y33263D01*
X-174671Y33303D01*
X-174759Y33351D01*
X-174831Y33372D01*
X-174899Y33401D01*
X-174998Y33419D01*
X-175095Y33446D01*
X-175195Y33454D01*
X-175242Y33463D01*
X-175278Y33461D01*
X-175339Y33466D01*
X-216365Y33466D01*
X-259710Y76811D01*
X-259731Y76827D01*
X-259748Y76847D01*
X-259867Y76935D01*
X-259983Y77027D01*
X-260007Y77038D01*
X-260028Y77054D01*
X-260164Y77113D01*
X-260298Y77176D01*
X-260324Y77182D01*
X-260348Y77192D01*
X-260494Y77218D01*
X-260639Y77249D01*
X-260665Y77249D01*
X-260691Y77254D01*
X-260840Y77246D01*
X-260987Y77243D01*
X-261013Y77237D01*
X-261039Y77236D01*
X-261182Y77195D01*
X-261325Y77158D01*
X-261349Y77146D01*
X-261374Y77139D01*
X-261503Y77067D01*
X-261635Y76999D01*
X-261655Y76982D01*
X-261678Y76969D01*
X-261864Y76811D01*
X-263032Y75643D01*
X-264971Y74840D01*
X-267069Y74840D01*
X-269008Y75643D01*
X-269912Y76547D01*
X-269949Y76576D01*
X-269980Y76611D01*
X-270085Y76684D01*
X-270185Y76763D01*
X-270228Y76784D01*
X-270266Y76811D01*
X-270384Y76858D01*
X-270500Y76912D01*
X-270546Y76922D01*
X-270590Y76940D01*
X-270716Y76959D01*
X-270841Y76986D01*
X-270888Y76985D01*
X-270935Y76992D01*
X-271062Y76982D01*
X-271189Y76980D01*
X-271235Y76968D01*
X-271282Y76964D01*
X-271404Y76926D01*
X-271527Y76895D01*
X-271569Y76873D01*
X-271614Y76859D01*
X-271724Y76793D01*
X-271837Y76735D01*
X-271873Y76704D01*
X-271913Y76680D01*
X-272005Y76592D01*
X-272102Y76509D01*
X-272130Y76471D01*
X-272164Y76438D01*
X-272234Y76331D01*
X-272309Y76229D01*
X-272328Y76185D01*
X-272354Y76146D01*
X-272414Y75994D01*
X-272419Y75990D01*
X-272527Y75869D01*
X-272636Y75750D01*
X-272642Y75739D01*
X-272650Y75729D01*
X-272774Y75518D01*
X-273512Y73986D01*
X-273516Y73974D01*
X-273522Y73963D01*
X-273573Y73809D01*
X-273626Y73657D01*
X-273627Y73644D01*
X-273631Y73632D01*
X-273645Y73470D01*
X-273649Y73435D01*
X-274020Y72892D01*
X-274033Y72867D01*
X-274133Y72694D01*
X-274412Y72117D01*
X-274531Y72017D01*
X-274656Y71916D01*
X-274664Y71906D01*
X-274674Y71898D01*
X-274827Y71707D01*
X-275785Y70302D01*
X-275791Y70291D01*
X-275799Y70281D01*
X-275872Y70137D01*
X-275947Y69994D01*
X-275950Y69982D01*
X-275956Y69970D01*
X-275994Y69812D01*
X-276003Y69778D01*
X-276450Y69296D01*
X-276467Y69274D01*
X-276592Y69118D01*
X-276953Y68588D01*
X-277086Y68508D01*
X-277225Y68426D01*
X-277234Y68417D01*
X-277245Y68411D01*
X-277425Y68245D01*
X-278582Y66999D01*
X-278590Y66989D01*
X-278599Y66980D01*
X-278633Y66932D01*
X-278673Y66891D01*
X-278724Y66805D01*
X-278788Y66718D01*
X-278793Y66706D01*
X-278801Y66696D01*
X-278824Y66638D01*
X-278852Y66592D01*
X-278877Y66512D01*
X-279390Y66103D01*
X-279410Y66083D01*
X-279557Y65948D01*
X-279993Y65478D01*
X-280137Y65418D01*
X-280286Y65358D01*
X-280296Y65351D01*
X-280308Y65346D01*
X-280511Y65209D01*
X-281840Y64149D01*
X-281849Y64140D01*
X-281860Y64133D01*
X-281972Y64017D01*
X-282086Y63902D01*
X-282093Y63891D01*
X-282101Y63882D01*
X-282184Y63744D01*
X-282203Y63712D01*
X-282773Y63384D01*
X-282795Y63367D01*
X-282961Y63255D01*
X-283462Y62856D01*
X-283612Y62818D01*
X-283770Y62780D01*
X-283781Y62775D01*
X-283793Y62772D01*
X-284014Y62667D01*
X-285487Y61817D01*
X-285497Y61809D01*
X-285508Y61804D01*
X-285636Y61706D01*
X-285767Y61609D01*
X-285775Y61599D01*
X-285785Y61592D01*
X-285888Y61466D01*
X-285911Y61439D01*
X-286523Y61199D01*
X-286548Y61185D01*
X-286728Y61100D01*
X-287283Y60779D01*
X-287438Y60764D01*
X-287599Y60751D01*
X-287610Y60747D01*
X-287623Y60746D01*
X-287857Y60675D01*
X-289440Y60054D01*
X-289451Y60048D01*
X-289464Y60044D01*
X-289605Y59966D01*
X-289748Y59890D01*
X-289757Y59882D01*
X-289769Y59876D01*
X-289888Y59768D01*
X-289916Y59744D01*
X-290557Y59597D01*
X-290583Y59588D01*
X-290774Y59530D01*
X-291371Y59296D01*
X-291525Y59304D01*
X-291687Y59315D01*
X-291700Y59313D01*
X-291712Y59313D01*
X-291954Y59278D01*
X-293612Y58900D01*
X-293624Y58896D01*
X-293637Y58894D01*
X-293789Y58838D01*
X-293941Y58784D01*
X-293951Y58777D01*
X-293963Y58773D01*
X-294098Y58683D01*
X-294129Y58664D01*
X-294784Y58615D01*
X-294812Y58610D01*
X-295009Y58581D01*
X-296016Y58351D01*
X-296044Y58341D01*
X-296074Y58337D01*
X-296208Y58283D01*
X-296345Y58235D01*
X-296370Y58219D01*
X-296398Y58208D01*
X-296516Y58126D01*
X-296638Y58048D01*
X-296659Y58026D01*
X-296684Y58009D01*
X-296780Y57902D01*
X-296882Y57798D01*
X-296897Y57773D01*
X-296917Y57750D01*
X-296987Y57624D01*
X-297062Y57500D01*
X-297071Y57472D01*
X-297086Y57445D01*
X-297125Y57306D01*
X-297170Y57169D01*
X-297172Y57139D01*
X-297181Y57110D01*
X-297200Y56866D01*
X-297200Y20088D01*
X-299203Y20250D01*
X-299232Y20246D01*
X-299260Y20251D01*
X-299330Y20234D01*
X-299401Y20226D01*
X-299426Y20211D01*
X-299454Y20205D01*
X-299511Y20162D01*
X-299573Y20127D01*
X-299591Y20104D01*
X-299614Y20087D01*
X-299650Y20025D01*
X-299693Y19968D01*
X-299700Y19940D01*
X-299715Y19915D01*
X-299732Y19817D01*
X-299742Y19776D01*
X-299740Y19765D01*
X-299743Y19751D01*
X-299720Y712D01*
X-299704Y637D01*
X-299696Y560D01*
X-299685Y540D01*
X-299680Y517D01*
X-299636Y454D01*
X-299599Y387D01*
X-299579Y370D01*
X-299567Y353D01*
X-299530Y329D01*
X-299471Y280D01*
X-282994Y-9259D01*
X-282966Y-9268D01*
X-282942Y-9285D01*
X-282873Y-9300D01*
X-282805Y-9322D01*
X-282776Y-9320D01*
X-282748Y-9326D01*
X-282678Y-9313D01*
X-282607Y-9307D01*
X-282581Y-9294D01*
X-282553Y-9288D01*
X-282493Y-9248D01*
X-282430Y-9216D01*
X-282412Y-9193D01*
X-282388Y-9177D01*
X-282330Y-9095D01*
X-282303Y-9063D01*
X-282300Y-9052D01*
X-282292Y-9041D01*
X-281430Y-7223D01*
X-249593Y-25604D01*
X-249565Y-25616D01*
X-249540Y-25633D01*
X-249405Y-25685D01*
X-249273Y-25743D01*
X-249243Y-25748D01*
X-249215Y-25759D01*
X-249072Y-25779D01*
X-248930Y-25805D01*
X-248900Y-25803D01*
X-248870Y-25808D01*
X-248726Y-25795D01*
X-248582Y-25788D01*
X-248553Y-25779D01*
X-248523Y-25777D01*
X-248386Y-25731D01*
X-248247Y-25692D01*
X-248220Y-25677D01*
X-248192Y-25667D01*
X-248068Y-25592D01*
X-247942Y-25522D01*
X-247920Y-25502D01*
X-247894Y-25486D01*
X-247714Y-25321D01*
X-247017Y-24569D01*
X-247000Y-24546D01*
X-246875Y-24391D01*
X-246514Y-23861D01*
X-246381Y-23780D01*
X-246243Y-23699D01*
X-246233Y-23690D01*
X-246223Y-23683D01*
X-246042Y-23518D01*
X-244885Y-22269D01*
X-244877Y-22259D01*
X-244868Y-22251D01*
X-244774Y-22119D01*
X-244679Y-21988D01*
X-244674Y-21977D01*
X-244666Y-21966D01*
X-244605Y-21816D01*
X-244591Y-21783D01*
X-244077Y-21373D01*
X-244058Y-21354D01*
X-243910Y-21218D01*
X-243474Y-20748D01*
X-243332Y-20688D01*
X-243181Y-20628D01*
X-243171Y-20621D01*
X-243159Y-20616D01*
X-242957Y-20479D01*
X-241626Y-19417D01*
X-241617Y-19408D01*
X-241606Y-19401D01*
X-241494Y-19285D01*
X-241380Y-19170D01*
X-241373Y-19159D01*
X-241365Y-19150D01*
X-241282Y-19011D01*
X-241263Y-18980D01*
X-240693Y-18651D01*
X-240671Y-18635D01*
X-240505Y-18523D01*
X-240004Y-18123D01*
X-239854Y-18085D01*
X-239697Y-18048D01*
X-239685Y-18042D01*
X-239673Y-18039D01*
X-239452Y-17934D01*
X-237978Y-17083D01*
X-237968Y-17075D01*
X-237956Y-17070D01*
X-237828Y-16971D01*
X-237698Y-16875D01*
X-237690Y-16865D01*
X-237680Y-16857D01*
X-237577Y-16732D01*
X-237554Y-16705D01*
X-236942Y-16464D01*
X-236917Y-16451D01*
X-236737Y-16365D01*
X-236182Y-16045D01*
X-236028Y-16030D01*
X-235866Y-16016D01*
X-235854Y-16012D01*
X-235842Y-16011D01*
X-235608Y-15940D01*
X-234023Y-15318D01*
X-234012Y-15312D01*
X-234000Y-15308D01*
X-233858Y-15230D01*
X-233715Y-15154D01*
X-233706Y-15146D01*
X-233695Y-15139D01*
X-233574Y-15031D01*
X-233548Y-15007D01*
X-232907Y-14861D01*
X-232880Y-14851D01*
X-232689Y-14794D01*
X-232092Y-14559D01*
X-231937Y-14567D01*
X-231776Y-14578D01*
X-231764Y-14576D01*
X-231751Y-14576D01*
X-231509Y-14541D01*
X-229849Y-14162D01*
X-229837Y-14158D01*
X-229825Y-14156D01*
X-229673Y-14100D01*
X-229521Y-14046D01*
X-229510Y-14039D01*
X-229498Y-14035D01*
X-229364Y-13946D01*
X-229333Y-13926D01*
X-228677Y-13876D01*
X-228650Y-13871D01*
X-228452Y-13842D01*
X-227827Y-13700D01*
X-227676Y-13730D01*
X-227517Y-13765D01*
X-227505Y-13765D01*
X-227492Y-13768D01*
X-227248Y-13769D01*
X-225550Y-13641D01*
X-225537Y-13639D01*
X-225525Y-13639D01*
X-225367Y-13606D01*
X-225208Y-13575D01*
X-225196Y-13570D01*
X-225184Y-13568D01*
X-225037Y-13500D01*
X-225004Y-13485D01*
X-224348Y-13534D01*
X-224320Y-13532D01*
X-224120Y-13534D01*
X-223481Y-13485D01*
X-223336Y-13539D01*
X-223185Y-13596D01*
X-223172Y-13598D01*
X-223160Y-13603D01*
X-222919Y-13640D01*
X-221221Y-13767D01*
X-221208Y-13766D01*
X-221196Y-13769D01*
X-221035Y-13759D01*
X-220873Y-13753D01*
X-220860Y-13750D01*
X-220848Y-13749D01*
X-220693Y-13703D01*
X-220658Y-13694D01*
X-220016Y-13840D01*
X-219989Y-13843D01*
X-219791Y-13874D01*
X-219152Y-13921D01*
X-219016Y-13996D01*
X-218876Y-14075D01*
X-218863Y-14079D01*
X-218852Y-14085D01*
X-218619Y-14158D01*
X-216959Y-14537D01*
X-216946Y-14538D01*
X-216934Y-14542D01*
X-216773Y-14557D01*
X-216612Y-14575D01*
X-216600Y-14573D01*
X-216587Y-14574D01*
X-216428Y-14552D01*
X-216391Y-14548D01*
X-215779Y-14788D01*
X-215752Y-14795D01*
X-215561Y-14855D01*
X-214936Y-14998D01*
X-214813Y-15091D01*
X-214686Y-15191D01*
X-214674Y-15196D01*
X-214664Y-15204D01*
X-214444Y-15311D01*
X-212859Y-15933D01*
X-212847Y-15936D01*
X-212836Y-15942D01*
X-212679Y-15981D01*
X-212522Y-16022D01*
X-212510Y-16023D01*
X-212497Y-16026D01*
X-212335Y-16028D01*
X-212300Y-16029D01*
X-211730Y-16357D01*
X-211704Y-16368D01*
X-211525Y-16456D01*
X-210928Y-16690D01*
X-210820Y-16802D01*
X-210709Y-16919D01*
X-210699Y-16926D01*
X-210690Y-16935D01*
X-210488Y-17074D01*
X-209013Y-17925D01*
X-209002Y-17930D01*
X-208992Y-17937D01*
X-208841Y-17999D01*
X-208694Y-18063D01*
X-208681Y-18065D01*
X-208670Y-18070D01*
X-208510Y-18096D01*
X-208474Y-18103D01*
X-207960Y-18513D01*
X-207936Y-18527D01*
X-207772Y-18641D01*
X-207217Y-18961D01*
X-207127Y-19087D01*
X-207034Y-19220D01*
X-207025Y-19228D01*
X-207018Y-19239D01*
X-206839Y-19406D01*
X-205508Y-20467D01*
X-205497Y-20474D01*
X-205488Y-20483D01*
X-205349Y-20566D01*
X-205212Y-20652D01*
X-205200Y-20656D01*
X-205189Y-20662D01*
X-205035Y-20712D01*
X-205001Y-20724D01*
X-204554Y-21206D01*
X-204533Y-21224D01*
X-204387Y-21361D01*
X-203885Y-21760D01*
X-203815Y-21898D01*
X-203744Y-22043D01*
X-203736Y-22053D01*
X-203730Y-22064D01*
X-203578Y-22256D01*
X-202420Y-23504D01*
X-202410Y-23512D01*
X-202403Y-23522D01*
X-202278Y-23625D01*
X-202155Y-23731D01*
X-202144Y-23736D01*
X-202134Y-23744D01*
X-201989Y-23816D01*
X-201957Y-23833D01*
X-201587Y-24376D01*
X-201568Y-24398D01*
X-201445Y-24554D01*
X-201008Y-25024D01*
X-200960Y-25170D01*
X-200910Y-25325D01*
X-200904Y-25336D01*
X-200900Y-25348D01*
X-200779Y-25560D01*
X-199819Y-26967D01*
X-199811Y-26976D01*
X-199805Y-26988D01*
X-199696Y-27109D01*
X-199591Y-27230D01*
X-199581Y-27238D01*
X-199572Y-27247D01*
X-199440Y-27340D01*
X-199309Y-27435D01*
X-199297Y-27440D01*
X-199287Y-27447D01*
X-199063Y-27546D01*
X-198908Y-27601D01*
X-198875Y-27608D01*
X-198844Y-27621D01*
X-198705Y-27646D01*
X-198568Y-27677D01*
X-198534Y-27677D01*
X-198501Y-27683D01*
X-198360Y-27676D01*
G37*
G36*
X-169992Y77258D02*
X-169992Y77258D01*
X-169891Y77260D01*
X-169819Y77278D01*
X-169745Y77287D01*
X-169651Y77320D01*
X-169553Y77345D01*
X-169487Y77379D01*
X-169417Y77404D01*
X-169333Y77459D01*
X-169244Y77505D01*
X-169187Y77553D01*
X-169125Y77593D01*
X-169055Y77665D01*
X-168978Y77730D01*
X-168934Y77790D01*
X-168882Y77844D01*
X-168831Y77930D01*
X-168771Y78011D01*
X-168742Y78079D01*
X-168703Y78143D01*
X-168673Y78239D01*
X-168633Y78331D01*
X-168620Y78404D01*
X-168597Y78475D01*
X-168589Y78575D01*
X-168571Y78674D01*
X-168575Y78748D01*
X-168569Y78822D01*
X-168584Y78922D01*
X-168589Y79022D01*
X-168610Y79093D01*
X-168621Y79167D01*
X-168658Y79260D01*
X-168686Y79357D01*
X-168722Y79422D01*
X-168750Y79491D01*
X-168807Y79573D01*
X-168856Y79661D01*
X-168921Y79737D01*
X-168949Y79777D01*
X-168975Y79801D01*
X-169015Y79847D01*
X-170244Y81077D01*
X-170244Y86796D01*
X-170259Y86921D01*
X-170265Y87048D01*
X-170279Y87094D01*
X-170284Y87142D01*
X-170327Y87261D01*
X-170362Y87382D01*
X-170385Y87425D01*
X-170402Y87470D01*
X-170470Y87576D01*
X-170532Y87687D01*
X-170571Y87733D01*
X-170591Y87763D01*
X-170625Y87797D01*
X-170690Y87873D01*
X-189513Y106695D01*
X-189573Y106743D01*
X-189626Y106798D01*
X-189709Y106851D01*
X-189786Y106912D01*
X-189855Y106945D01*
X-189919Y106986D01*
X-190012Y107019D01*
X-190101Y107061D01*
X-190176Y107077D01*
X-190248Y107103D01*
X-190346Y107114D01*
X-190442Y107134D01*
X-190518Y107133D01*
X-190594Y107142D01*
X-190692Y107130D01*
X-190790Y107128D01*
X-190864Y107110D01*
X-190940Y107101D01*
X-191082Y107055D01*
X-191128Y107043D01*
X-191145Y107035D01*
X-191173Y107026D01*
X-191856Y106743D01*
X-195494Y106743D01*
X-198855Y108135D01*
X-201427Y110707D01*
X-202820Y114069D01*
X-202820Y117706D01*
X-201427Y121068D01*
X-198855Y123640D01*
X-195494Y125032D01*
X-191856Y125032D01*
X-188412Y123606D01*
X-188364Y123592D01*
X-188319Y123571D01*
X-188197Y123544D01*
X-188077Y123510D01*
X-188027Y123508D01*
X-187978Y123497D01*
X-187854Y123499D01*
X-187729Y123493D01*
X-187680Y123502D01*
X-187629Y123503D01*
X-187509Y123533D01*
X-187386Y123556D01*
X-187340Y123576D01*
X-187291Y123588D01*
X-187181Y123645D01*
X-187067Y123695D01*
X-187026Y123725D01*
X-186982Y123748D01*
X-186887Y123828D01*
X-186787Y123903D01*
X-186754Y123941D01*
X-186716Y123974D01*
X-186642Y124074D01*
X-186562Y124169D01*
X-186539Y124213D01*
X-186509Y124254D01*
X-186460Y124368D01*
X-186403Y124479D01*
X-186391Y124528D01*
X-186371Y124574D01*
X-186349Y124696D01*
X-186319Y124817D01*
X-186318Y124867D01*
X-186309Y124917D01*
X-186316Y125041D01*
X-186314Y125165D01*
X-186325Y125215D01*
X-186327Y125265D01*
X-186362Y125384D01*
X-186388Y125506D01*
X-186410Y125551D01*
X-186424Y125600D01*
X-186484Y125708D01*
X-186538Y125821D01*
X-186569Y125860D01*
X-186594Y125904D01*
X-186752Y126090D01*
X-186755Y126093D01*
X-192359Y131697D01*
X-192458Y131775D01*
X-192552Y131860D01*
X-192594Y131883D01*
X-192632Y131913D01*
X-192746Y131967D01*
X-192857Y132028D01*
X-192903Y132042D01*
X-192947Y132062D01*
X-193070Y132089D01*
X-193192Y132123D01*
X-193253Y132128D01*
X-193288Y132136D01*
X-193336Y132135D01*
X-193436Y132143D01*
X-195494Y132143D01*
X-198855Y133535D01*
X-201427Y136107D01*
X-202820Y139469D01*
X-202820Y143106D01*
X-201427Y146468D01*
X-198855Y149040D01*
X-198172Y149323D01*
X-198105Y149360D01*
X-198034Y149388D01*
X-197954Y149444D01*
X-197867Y149492D01*
X-197811Y149544D01*
X-197748Y149587D01*
X-197682Y149660D01*
X-197609Y149726D01*
X-197566Y149789D01*
X-197515Y149846D01*
X-197467Y149932D01*
X-197411Y150013D01*
X-197383Y150084D01*
X-197346Y150151D01*
X-197319Y150246D01*
X-197283Y150337D01*
X-197272Y150413D01*
X-197251Y150486D01*
X-197239Y150635D01*
X-197232Y150682D01*
X-197234Y150701D01*
X-197232Y150730D01*
X-197232Y157245D01*
X-197240Y157321D01*
X-197239Y157397D01*
X-197260Y157493D01*
X-197272Y157591D01*
X-197297Y157663D01*
X-197314Y157738D01*
X-197356Y157826D01*
X-197389Y157919D01*
X-197431Y157983D01*
X-197463Y158052D01*
X-197525Y158129D01*
X-197578Y158212D01*
X-197633Y158265D01*
X-197681Y158325D01*
X-197758Y158386D01*
X-197829Y158454D01*
X-197894Y158493D01*
X-197954Y158541D01*
X-198087Y158609D01*
X-198128Y158633D01*
X-198146Y158639D01*
X-198172Y158652D01*
X-198855Y158935D01*
X-201427Y161507D01*
X-202820Y164869D01*
X-202820Y168506D01*
X-201427Y171868D01*
X-198855Y174440D01*
X-195494Y175832D01*
X-193334Y175832D01*
X-193234Y175844D01*
X-193134Y175845D01*
X-193061Y175864D01*
X-192988Y175872D01*
X-192893Y175906D01*
X-192796Y175930D01*
X-192729Y175965D01*
X-192659Y175990D01*
X-192575Y176044D01*
X-192486Y176090D01*
X-192429Y176138D01*
X-192367Y176179D01*
X-192297Y176251D01*
X-192220Y176316D01*
X-192176Y176376D01*
X-192124Y176429D01*
X-192073Y176515D01*
X-192013Y176596D01*
X-191984Y176665D01*
X-191946Y176728D01*
X-191915Y176824D01*
X-191875Y176916D01*
X-191862Y176989D01*
X-191839Y177060D01*
X-191831Y177160D01*
X-191814Y177259D01*
X-191817Y177334D01*
X-191811Y177408D01*
X-191826Y177507D01*
X-191831Y177607D01*
X-191852Y177679D01*
X-191863Y177752D01*
X-191900Y177846D01*
X-191928Y177942D01*
X-191964Y178007D01*
X-191992Y178076D01*
X-192049Y178159D01*
X-192098Y178246D01*
X-192163Y178323D01*
X-192191Y178362D01*
X-192217Y178386D01*
X-192257Y178433D01*
X-206442Y192618D01*
X-206532Y192690D01*
X-206617Y192768D01*
X-206669Y192798D01*
X-206715Y192835D01*
X-206819Y192884D01*
X-206919Y192941D01*
X-206976Y192958D01*
X-207030Y192984D01*
X-207143Y193008D01*
X-207253Y193041D01*
X-207313Y193045D01*
X-207371Y193057D01*
X-207486Y193055D01*
X-207601Y193062D01*
X-207660Y193052D01*
X-207720Y193051D01*
X-207831Y193023D01*
X-207945Y193004D01*
X-208000Y192981D01*
X-208058Y192966D01*
X-208160Y192913D01*
X-208266Y192869D01*
X-208330Y192826D01*
X-208367Y192807D01*
X-208401Y192778D01*
X-208459Y192739D01*
X-208611Y192700D01*
X-208769Y192663D01*
X-208780Y192657D01*
X-208793Y192654D01*
X-209014Y192550D01*
X-210488Y191699D01*
X-210498Y191691D01*
X-210510Y191686D01*
X-210639Y191587D01*
X-210768Y191491D01*
X-210777Y191482D01*
X-210787Y191474D01*
X-210889Y191348D01*
X-210913Y191321D01*
X-211525Y191081D01*
X-211549Y191068D01*
X-211730Y190982D01*
X-212285Y190662D01*
X-212438Y190647D01*
X-212600Y190634D01*
X-212613Y190630D01*
X-212625Y190629D01*
X-212859Y190558D01*
X-214444Y189936D01*
X-214456Y189930D01*
X-214468Y189927D01*
X-214610Y189848D01*
X-214752Y189773D01*
X-214762Y189765D01*
X-214773Y189758D01*
X-214893Y189650D01*
X-214920Y189626D01*
X-215561Y189480D01*
X-215588Y189471D01*
X-215779Y189413D01*
X-216376Y189179D01*
X-216529Y189187D01*
X-216692Y189198D01*
X-216704Y189196D01*
X-216717Y189197D01*
X-216959Y189162D01*
X-218619Y188783D01*
X-218631Y188779D01*
X-218643Y188777D01*
X-218796Y188721D01*
X-218948Y188667D01*
X-218958Y188661D01*
X-218970Y188656D01*
X-219105Y188567D01*
X-219136Y188548D01*
X-219791Y188499D01*
X-219819Y188493D01*
X-220016Y188465D01*
X-220641Y188322D01*
X-220794Y188353D01*
X-220951Y188388D01*
X-220964Y188388D01*
X-220976Y188391D01*
X-221221Y188392D01*
X-222919Y188265D01*
X-222931Y188263D01*
X-222944Y188263D01*
X-223103Y188230D01*
X-223261Y188200D01*
X-223273Y188195D01*
X-223285Y188192D01*
X-223432Y188124D01*
X-223465Y188109D01*
X-224120Y188159D01*
X-224148Y188157D01*
X-224348Y188159D01*
X-224987Y188111D01*
X-225132Y188164D01*
X-225284Y188222D01*
X-225296Y188224D01*
X-225308Y188228D01*
X-225550Y188266D01*
X-227248Y188394D01*
X-227260Y188393D01*
X-227273Y188396D01*
X-227433Y188387D01*
X-227596Y188380D01*
X-227608Y188377D01*
X-227621Y188376D01*
X-227775Y188331D01*
X-227811Y188321D01*
X-228452Y188467D01*
X-228479Y188470D01*
X-228677Y188502D01*
X-229316Y188550D01*
X-229453Y188624D01*
X-229593Y188704D01*
X-229605Y188707D01*
X-229616Y188713D01*
X-229849Y188787D01*
X-231509Y189166D01*
X-231522Y189168D01*
X-231534Y189172D01*
X-231695Y189187D01*
X-231856Y189205D01*
X-231868Y189203D01*
X-231881Y189204D01*
X-232041Y189182D01*
X-232077Y189178D01*
X-232689Y189419D01*
X-232716Y189426D01*
X-232907Y189486D01*
X-233531Y189629D01*
X-233654Y189722D01*
X-233782Y189822D01*
X-233793Y189828D01*
X-233803Y189835D01*
X-234023Y189943D01*
X-235608Y190565D01*
X-235620Y190568D01*
X-235631Y190574D01*
X-235789Y190613D01*
X-235945Y190655D01*
X-235957Y190655D01*
X-235969Y190658D01*
X-236132Y190660D01*
X-236167Y190661D01*
X-236737Y190990D01*
X-236763Y191002D01*
X-236942Y191089D01*
X-237539Y191324D01*
X-237647Y191435D01*
X-237757Y191553D01*
X-237768Y191560D01*
X-237777Y191569D01*
X-237978Y191707D01*
X-239452Y192559D01*
X-239464Y192564D01*
X-239474Y192572D01*
X-239624Y192634D01*
X-239772Y192698D01*
X-239784Y192700D01*
X-239796Y192705D01*
X-239955Y192731D01*
X-239991Y192738D01*
X-240505Y193148D01*
X-240529Y193163D01*
X-240693Y193276D01*
X-241248Y193597D01*
X-241339Y193723D01*
X-241431Y193856D01*
X-241440Y193864D01*
X-241447Y193875D01*
X-241626Y194042D01*
X-242957Y195104D01*
X-242967Y195111D01*
X-242976Y195120D01*
X-243115Y195203D01*
X-243252Y195289D01*
X-243264Y195293D01*
X-243275Y195300D01*
X-243429Y195349D01*
X-243463Y195361D01*
X-243910Y195843D01*
X-243932Y195862D01*
X-244077Y195998D01*
X-244578Y196398D01*
X-244648Y196536D01*
X-244720Y196681D01*
X-244728Y196691D01*
X-244733Y196702D01*
X-244885Y196894D01*
X-246042Y198143D01*
X-246052Y198151D01*
X-246060Y198161D01*
X-246184Y198265D01*
X-246307Y198370D01*
X-246318Y198375D01*
X-246328Y198384D01*
X-246474Y198456D01*
X-246505Y198472D01*
X-246875Y199016D01*
X-246893Y199037D01*
X-247017Y199194D01*
X-247714Y199946D01*
X-247737Y199965D01*
X-247756Y199989D01*
X-247869Y200078D01*
X-247979Y200172D01*
X-248005Y200186D01*
X-248029Y200205D01*
X-248160Y200267D01*
X-248288Y200333D01*
X-248317Y200340D01*
X-248344Y200353D01*
X-248486Y200384D01*
X-248626Y200419D01*
X-248656Y200420D01*
X-248685Y200426D01*
X-248830Y200423D01*
X-248974Y200426D01*
X-249004Y200420D01*
X-249034Y200420D01*
X-249173Y200384D01*
X-249315Y200354D01*
X-249342Y200341D01*
X-249372Y200334D01*
X-249593Y200229D01*
X-281430Y181848D01*
X-282292Y183666D01*
X-282310Y183689D01*
X-282320Y183716D01*
X-282369Y183768D01*
X-282412Y183825D01*
X-282437Y183840D01*
X-282457Y183861D01*
X-282522Y183889D01*
X-282584Y183925D01*
X-282612Y183929D01*
X-282639Y183940D01*
X-282710Y183941D01*
X-282781Y183950D01*
X-282809Y183942D01*
X-282838Y183942D01*
X-282931Y183907D01*
X-282972Y183896D01*
X-282981Y183889D01*
X-282994Y183884D01*
X-299471Y174345D01*
X-299528Y174293D01*
X-299590Y174248D01*
X-299602Y174228D01*
X-299620Y174213D01*
X-299653Y174143D01*
X-299692Y174077D01*
X-299696Y174052D01*
X-299705Y174033D01*
X-299707Y173989D01*
X-299720Y173913D01*
X-299743Y154874D01*
X-299737Y154845D01*
X-299739Y154816D01*
X-299717Y154749D01*
X-299703Y154679D01*
X-299687Y154655D01*
X-299678Y154627D01*
X-299631Y154573D01*
X-299591Y154515D01*
X-299567Y154499D01*
X-299548Y154477D01*
X-299483Y154446D01*
X-299423Y154407D01*
X-299395Y154403D01*
X-299369Y154390D01*
X-299269Y154381D01*
X-299227Y154374D01*
X-299217Y154377D01*
X-299203Y154375D01*
X-297200Y154537D01*
X-297200Y117759D01*
X-297197Y117729D01*
X-297199Y117699D01*
X-297177Y117556D01*
X-297160Y117413D01*
X-297150Y117384D01*
X-297146Y117355D01*
X-297092Y117221D01*
X-297043Y117085D01*
X-297027Y117059D01*
X-297015Y117032D01*
X-296932Y116913D01*
X-296854Y116792D01*
X-296832Y116771D01*
X-296815Y116746D01*
X-296707Y116650D01*
X-296603Y116550D01*
X-296577Y116534D01*
X-296555Y116514D01*
X-296428Y116445D01*
X-296304Y116371D01*
X-296276Y116362D01*
X-296249Y116347D01*
X-296016Y116274D01*
X-295009Y116044D01*
X-294982Y116041D01*
X-294784Y116010D01*
X-294145Y115962D01*
X-294010Y115888D01*
X-293869Y115808D01*
X-293856Y115805D01*
X-293845Y115799D01*
X-293612Y115725D01*
X-291954Y115347D01*
X-291942Y115345D01*
X-291930Y115341D01*
X-291769Y115326D01*
X-291608Y115309D01*
X-291595Y115310D01*
X-291583Y115309D01*
X-291422Y115331D01*
X-291387Y115335D01*
X-290774Y115095D01*
X-290747Y115088D01*
X-290557Y115028D01*
X-289932Y114885D01*
X-289808Y114791D01*
X-289681Y114692D01*
X-289670Y114686D01*
X-289660Y114679D01*
X-289440Y114571D01*
X-287857Y113950D01*
X-287845Y113947D01*
X-287834Y113941D01*
X-287678Y113902D01*
X-287520Y113861D01*
X-287508Y113860D01*
X-287495Y113857D01*
X-287334Y113855D01*
X-287298Y113854D01*
X-286728Y113525D01*
X-286703Y113514D01*
X-286523Y113426D01*
X-285926Y113192D01*
X-285818Y113081D01*
X-285707Y112963D01*
X-285697Y112956D01*
X-285688Y112947D01*
X-285487Y112808D01*
X-284014Y111958D01*
X-284002Y111953D01*
X-283992Y111946D01*
X-283843Y111884D01*
X-283694Y111820D01*
X-283682Y111817D01*
X-283670Y111812D01*
X-283510Y111786D01*
X-283475Y111780D01*
X-282961Y111370D01*
X-282937Y111355D01*
X-282773Y111241D01*
X-282218Y110921D01*
X-282128Y110796D01*
X-282035Y110662D01*
X-282026Y110654D01*
X-282019Y110643D01*
X-281840Y110476D01*
X-280511Y109416D01*
X-280500Y109409D01*
X-280491Y109400D01*
X-280352Y109317D01*
X-280215Y109231D01*
X-280203Y109227D01*
X-280192Y109220D01*
X-280038Y109171D01*
X-280004Y109159D01*
X-279557Y108677D01*
X-279536Y108659D01*
X-279390Y108522D01*
X-278889Y108123D01*
X-278819Y107985D01*
X-278747Y107839D01*
X-278739Y107829D01*
X-278733Y107818D01*
X-278582Y107626D01*
X-277425Y106380D01*
X-277416Y106371D01*
X-277408Y106361D01*
X-277283Y106258D01*
X-277161Y106153D01*
X-277150Y106147D01*
X-277140Y106139D01*
X-276995Y106067D01*
X-276963Y106050D01*
X-276592Y105507D01*
X-276574Y105486D01*
X-276450Y105329D01*
X-276015Y104859D01*
X-275965Y104712D01*
X-275917Y104558D01*
X-275910Y104547D01*
X-275906Y104535D01*
X-275785Y104323D01*
X-274827Y102918D01*
X-274819Y102908D01*
X-274813Y102897D01*
X-274705Y102777D01*
X-274599Y102654D01*
X-274589Y102647D01*
X-274580Y102637D01*
X-274448Y102544D01*
X-274419Y102523D01*
X-274133Y101931D01*
X-274119Y101907D01*
X-274020Y101733D01*
X-273659Y101204D01*
X-273632Y101051D01*
X-273607Y100891D01*
X-273602Y100880D01*
X-273600Y100867D01*
X-273512Y100639D01*
X-272774Y99107D01*
X-272767Y99096D01*
X-272763Y99085D01*
X-272674Y98949D01*
X-272588Y98812D01*
X-272579Y98804D01*
X-272572Y98793D01*
X-272454Y98681D01*
X-272429Y98656D01*
X-272235Y98028D01*
X-272224Y98002D01*
X-272152Y97816D01*
X-271874Y97238D01*
X-271870Y97084D01*
X-271869Y96921D01*
X-271866Y96909D01*
X-271866Y96897D01*
X-271812Y96658D01*
X-271311Y95033D01*
X-271306Y95021D01*
X-271304Y95009D01*
X-271236Y94862D01*
X-271171Y94714D01*
X-271164Y94704D01*
X-271158Y94692D01*
X-271059Y94564D01*
X-271037Y94536D01*
X-270939Y93885D01*
X-270932Y93858D01*
X-270889Y93663D01*
X-270700Y93051D01*
X-270719Y92897D01*
X-270742Y92737D01*
X-270741Y92724D01*
X-270743Y92712D01*
X-270726Y92468D01*
X-270604Y91657D01*
X-270581Y91573D01*
X-270568Y91488D01*
X-270536Y91406D01*
X-270513Y91321D01*
X-270471Y91244D01*
X-270439Y91164D01*
X-270389Y91092D01*
X-270348Y91014D01*
X-270290Y90949D01*
X-270240Y90878D01*
X-270175Y90819D01*
X-270117Y90753D01*
X-270046Y90702D01*
X-269982Y90644D01*
X-269905Y90602D01*
X-269833Y90551D01*
X-269753Y90518D01*
X-269677Y90476D01*
X-269592Y90452D01*
X-269511Y90418D01*
X-269425Y90405D01*
X-269341Y90381D01*
X-269216Y90371D01*
X-269167Y90363D01*
X-269140Y90365D01*
X-269097Y90361D01*
X-240837Y90361D01*
X-230570Y80095D01*
X-230471Y80016D01*
X-230377Y79932D01*
X-230335Y79908D01*
X-230297Y79878D01*
X-230183Y79824D01*
X-230072Y79763D01*
X-230026Y79750D01*
X-229982Y79729D01*
X-229859Y79703D01*
X-229737Y79668D01*
X-229676Y79663D01*
X-229641Y79656D01*
X-229593Y79657D01*
X-229493Y79649D01*
X-199446Y79649D01*
X-199346Y79660D01*
X-199246Y79662D01*
X-199174Y79680D01*
X-199100Y79689D01*
X-199005Y79722D01*
X-198908Y79747D01*
X-198842Y79781D01*
X-198772Y79806D01*
X-198687Y79860D01*
X-198598Y79906D01*
X-198542Y79955D01*
X-198479Y79995D01*
X-198409Y80067D01*
X-198333Y80132D01*
X-198289Y80192D01*
X-198237Y80246D01*
X-198185Y80332D01*
X-198126Y80413D01*
X-198096Y80481D01*
X-198058Y80545D01*
X-198027Y80640D01*
X-197988Y80733D01*
X-197974Y80806D01*
X-197952Y80877D01*
X-197944Y80977D01*
X-197926Y81076D01*
X-197930Y81150D01*
X-197924Y81224D01*
X-197939Y81323D01*
X-197944Y81424D01*
X-197964Y81495D01*
X-197976Y81569D01*
X-198013Y81662D01*
X-198040Y81759D01*
X-198077Y81824D01*
X-198104Y81893D01*
X-198161Y81975D01*
X-198211Y82063D01*
X-198276Y82139D01*
X-198303Y82179D01*
X-198324Y82197D01*
X-198328Y82204D01*
X-198339Y82213D01*
X-198369Y82249D01*
X-202820Y86700D01*
X-202820Y94275D01*
X-197463Y99632D01*
X-189887Y99632D01*
X-184530Y94275D01*
X-184530Y86700D01*
X-188981Y82249D01*
X-189043Y82170D01*
X-189113Y82098D01*
X-189151Y82034D01*
X-189198Y81976D01*
X-189240Y81885D01*
X-189292Y81799D01*
X-189315Y81728D01*
X-189346Y81661D01*
X-189368Y81563D01*
X-189398Y81467D01*
X-189404Y81393D01*
X-189420Y81320D01*
X-189418Y81220D01*
X-189426Y81120D01*
X-189415Y81046D01*
X-189414Y80972D01*
X-189389Y80874D01*
X-189374Y80775D01*
X-189347Y80706D01*
X-189329Y80634D01*
X-189283Y80544D01*
X-189246Y80451D01*
X-189203Y80390D01*
X-189169Y80324D01*
X-189104Y80247D01*
X-189047Y80165D01*
X-188992Y80115D01*
X-188943Y80059D01*
X-188863Y79999D01*
X-188788Y79932D01*
X-188723Y79896D01*
X-188663Y79851D01*
X-188571Y79812D01*
X-188483Y79763D01*
X-188411Y79743D01*
X-188343Y79713D01*
X-188244Y79696D01*
X-188148Y79668D01*
X-188048Y79660D01*
X-188000Y79652D01*
X-187964Y79654D01*
X-187904Y79649D01*
X-179289Y79649D01*
X-177333Y77693D01*
X-177234Y77614D01*
X-177140Y77530D01*
X-177098Y77506D01*
X-177060Y77476D01*
X-176946Y77422D01*
X-176835Y77361D01*
X-176789Y77348D01*
X-176745Y77327D01*
X-176622Y77301D01*
X-176500Y77266D01*
X-176439Y77261D01*
X-176404Y77254D01*
X-176356Y77255D01*
X-176256Y77247D01*
X-170092Y77247D01*
X-169992Y77258D01*
G37*
G36*
X-49446Y-25795D02*
X-49446Y-25795D01*
X-49416Y-25795D01*
X-49277Y-25759D01*
X-49135Y-25729D01*
X-49108Y-25716D01*
X-49078Y-25709D01*
X-48857Y-25604D01*
X-17014Y-7220D01*
X-16177Y-9000D01*
X-16159Y-9023D01*
X-16149Y-9051D01*
X-16100Y-9103D01*
X-16058Y-9160D01*
X-16033Y-9174D01*
X-16013Y-9195D01*
X-15948Y-9224D01*
X-15886Y-9260D01*
X-15857Y-9264D01*
X-15831Y-9275D01*
X-15760Y-9276D01*
X-15689Y-9285D01*
X-15661Y-9278D01*
X-15632Y-9278D01*
X-15539Y-9243D01*
X-15498Y-9232D01*
X-15489Y-9225D01*
X-15476Y-9220D01*
X775Y136D01*
X17026Y-9220D01*
X17054Y-9229D01*
X17078Y-9246D01*
X17147Y-9261D01*
X17215Y-9283D01*
X17244Y-9281D01*
X17272Y-9287D01*
X17342Y-9273D01*
X17413Y-9267D01*
X17439Y-9254D01*
X17467Y-9248D01*
X17526Y-9208D01*
X17589Y-9176D01*
X17608Y-9153D01*
X17632Y-9137D01*
X17689Y-9055D01*
X17716Y-9022D01*
X17719Y-9011D01*
X17727Y-9000D01*
X18564Y-7220D01*
X48424Y-24459D01*
X48498Y-24491D01*
X48568Y-24532D01*
X48658Y-24560D01*
X48744Y-24597D01*
X48823Y-24612D01*
X48901Y-24636D01*
X48994Y-24643D01*
X49087Y-24660D01*
X49168Y-24656D01*
X49248Y-24662D01*
X49341Y-24647D01*
X49435Y-24642D01*
X49513Y-24620D01*
X49593Y-24608D01*
X49680Y-24572D01*
X49770Y-24547D01*
X49841Y-24507D01*
X49916Y-24477D01*
X49992Y-24423D01*
X50074Y-24377D01*
X50134Y-24322D01*
X50200Y-24276D01*
X50263Y-24206D01*
X50332Y-24143D01*
X50378Y-24076D01*
X50432Y-24015D01*
X50477Y-23933D01*
X50530Y-23856D01*
X50560Y-23780D01*
X50598Y-23709D01*
X50623Y-23619D01*
X50658Y-23531D01*
X50669Y-23451D01*
X50691Y-23373D01*
X50701Y-23235D01*
X50708Y-23187D01*
X50706Y-23164D01*
X50709Y-23129D01*
X50041Y72401D01*
X50038Y72421D01*
X50040Y72442D01*
X50017Y72594D01*
X49998Y72747D01*
X49991Y72766D01*
X49988Y72787D01*
X49932Y72929D01*
X49879Y73074D01*
X49867Y73091D01*
X49859Y73111D01*
X49772Y73236D01*
X49688Y73365D01*
X49672Y73380D01*
X49661Y73397D01*
X49547Y73499D01*
X49435Y73606D01*
X49417Y73616D01*
X49402Y73630D01*
X49268Y73704D01*
X49135Y73783D01*
X49115Y73789D01*
X49097Y73799D01*
X48949Y73841D01*
X48802Y73886D01*
X48781Y73888D01*
X48761Y73894D01*
X48518Y73913D01*
X-39240Y73913D01*
X-39266Y73910D01*
X-39292Y73912D01*
X-39438Y73890D01*
X-39586Y73873D01*
X-39610Y73865D01*
X-39636Y73861D01*
X-39774Y73806D01*
X-39914Y73756D01*
X-39936Y73742D01*
X-39960Y73732D01*
X-40082Y73647D01*
X-40207Y73567D01*
X-40225Y73548D01*
X-40246Y73533D01*
X-40345Y73423D01*
X-40449Y73316D01*
X-40462Y73294D01*
X-40480Y73274D01*
X-40552Y73144D01*
X-40628Y73017D01*
X-40636Y72992D01*
X-40648Y72969D01*
X-40689Y72826D01*
X-40734Y72685D01*
X-40736Y72659D01*
X-40743Y72634D01*
X-40763Y72390D01*
X-40763Y71976D01*
X-41465Y70279D01*
X-41473Y70254D01*
X-41485Y70231D01*
X-41520Y70088D01*
X-41561Y69944D01*
X-41562Y69918D01*
X-41569Y69893D01*
X-41571Y69744D01*
X-41578Y69596D01*
X-41573Y69570D01*
X-41574Y69544D01*
X-41542Y69399D01*
X-41516Y69253D01*
X-41505Y69229D01*
X-41499Y69204D01*
X-41436Y69070D01*
X-41377Y68934D01*
X-41361Y68913D01*
X-41350Y68889D01*
X-41257Y68773D01*
X-41169Y68654D01*
X-41149Y68637D01*
X-41132Y68617D01*
X-41016Y68525D01*
X-40903Y68429D01*
X-40879Y68417D01*
X-40859Y68401D01*
X-40641Y68289D01*
X-39875Y67972D01*
X-38391Y66488D01*
X-37588Y64549D01*
X-37588Y62451D01*
X-38391Y60512D01*
X-39875Y59028D01*
X-40651Y58707D01*
X-40718Y58669D01*
X-40789Y58641D01*
X-40870Y58585D01*
X-40956Y58537D01*
X-41013Y58486D01*
X-41075Y58442D01*
X-41141Y58369D01*
X-41214Y58303D01*
X-41258Y58240D01*
X-41309Y58183D01*
X-41356Y58097D01*
X-41412Y58016D01*
X-41440Y57945D01*
X-41477Y57878D01*
X-41504Y57784D01*
X-41540Y57692D01*
X-41551Y57617D01*
X-41572Y57543D01*
X-41584Y57394D01*
X-41591Y57347D01*
X-41589Y57328D01*
X-41592Y57299D01*
X-41592Y33356D01*
X-62121Y12826D01*
X-99688Y12826D01*
X-100926Y14064D01*
X-101005Y14127D01*
X-101077Y14197D01*
X-101141Y14235D01*
X-101199Y14281D01*
X-101290Y14324D01*
X-101376Y14375D01*
X-101447Y14398D01*
X-101514Y14430D01*
X-101612Y14451D01*
X-101708Y14482D01*
X-101782Y14488D01*
X-101855Y14503D01*
X-101955Y14502D01*
X-102055Y14510D01*
X-102129Y14499D01*
X-102203Y14497D01*
X-102300Y14473D01*
X-102400Y14458D01*
X-102469Y14430D01*
X-102541Y14412D01*
X-102630Y14366D01*
X-102724Y14329D01*
X-102785Y14287D01*
X-102851Y14253D01*
X-102927Y14188D01*
X-103010Y14130D01*
X-103060Y14075D01*
X-103116Y14027D01*
X-103176Y13946D01*
X-103243Y13871D01*
X-103279Y13806D01*
X-103324Y13747D01*
X-103363Y13654D01*
X-103412Y13566D01*
X-103432Y13495D01*
X-103462Y13427D01*
X-103479Y13328D01*
X-103507Y13231D01*
X-103515Y13131D01*
X-103523Y13084D01*
X-103521Y13048D01*
X-103526Y12987D01*
X-103526Y-4391D01*
X-103512Y-4517D01*
X-103505Y-4643D01*
X-103492Y-4689D01*
X-103486Y-4737D01*
X-103444Y-4856D01*
X-103409Y-4978D01*
X-103385Y-5020D01*
X-103369Y-5065D01*
X-103300Y-5172D01*
X-103239Y-5282D01*
X-103199Y-5328D01*
X-103180Y-5358D01*
X-103145Y-5392D01*
X-103080Y-5468D01*
X-97130Y-11418D01*
X-97031Y-11497D01*
X-96937Y-11582D01*
X-96894Y-11605D01*
X-96857Y-11635D01*
X-96742Y-11689D01*
X-96632Y-11750D01*
X-96585Y-11763D01*
X-96542Y-11784D01*
X-96418Y-11811D01*
X-96296Y-11845D01*
X-96236Y-11850D01*
X-96201Y-11857D01*
X-96153Y-11857D01*
X-96053Y-11865D01*
X-94671Y-11865D01*
X-92732Y-12668D01*
X-91249Y-14151D01*
X-90410Y-16175D01*
X-90406Y-16216D01*
X-90380Y-16287D01*
X-90364Y-16361D01*
X-90322Y-16450D01*
X-90288Y-16544D01*
X-90247Y-16607D01*
X-90215Y-16676D01*
X-90153Y-16753D01*
X-90099Y-16837D01*
X-90045Y-16889D01*
X-89998Y-16948D01*
X-89920Y-17010D01*
X-89849Y-17079D01*
X-89784Y-17118D01*
X-89724Y-17164D01*
X-89635Y-17207D01*
X-89550Y-17258D01*
X-89478Y-17281D01*
X-89409Y-17313D01*
X-89312Y-17334D01*
X-89218Y-17364D01*
X-89142Y-17370D01*
X-89068Y-17386D01*
X-88969Y-17384D01*
X-88870Y-17392D01*
X-88795Y-17381D01*
X-88720Y-17379D01*
X-88624Y-17355D01*
X-88526Y-17340D01*
X-88455Y-17312D01*
X-88382Y-17294D01*
X-88245Y-17229D01*
X-88202Y-17211D01*
X-88186Y-17201D01*
X-88161Y-17189D01*
X-87962Y-17074D01*
X-87951Y-17066D01*
X-87940Y-17061D01*
X-87812Y-16963D01*
X-87682Y-16866D01*
X-87673Y-16856D01*
X-87663Y-16849D01*
X-87561Y-16724D01*
X-87537Y-16696D01*
X-86925Y-16456D01*
X-86901Y-16443D01*
X-86720Y-16357D01*
X-86165Y-16037D01*
X-86012Y-16022D01*
X-85849Y-16009D01*
X-85837Y-16005D01*
X-85825Y-16004D01*
X-85591Y-15933D01*
X-84006Y-15311D01*
X-83994Y-15305D01*
X-83982Y-15302D01*
X-83841Y-15224D01*
X-83698Y-15148D01*
X-83688Y-15140D01*
X-83677Y-15133D01*
X-83557Y-15025D01*
X-83530Y-15001D01*
X-82889Y-14855D01*
X-82862Y-14846D01*
X-82671Y-14788D01*
X-82074Y-14554D01*
X-81921Y-14562D01*
X-81758Y-14573D01*
X-81746Y-14571D01*
X-81733Y-14572D01*
X-81491Y-14537D01*
X-79831Y-14158D01*
X-79819Y-14154D01*
X-79807Y-14152D01*
X-79654Y-14096D01*
X-79502Y-14042D01*
X-79492Y-14036D01*
X-79480Y-14031D01*
X-79345Y-13942D01*
X-79314Y-13923D01*
X-78659Y-13874D01*
X-78631Y-13868D01*
X-78434Y-13840D01*
X-77809Y-13697D01*
X-77656Y-13728D01*
X-77499Y-13763D01*
X-77486Y-13763D01*
X-77474Y-13766D01*
X-77229Y-13767D01*
X-75531Y-13640D01*
X-75519Y-13638D01*
X-75506Y-13638D01*
X-75347Y-13605D01*
X-75189Y-13575D01*
X-75177Y-13570D01*
X-75165Y-13567D01*
X-75018Y-13499D01*
X-74985Y-13484D01*
X-74330Y-13534D01*
X-74302Y-13532D01*
X-74102Y-13534D01*
X-73463Y-13486D01*
X-73318Y-13539D01*
X-73166Y-13597D01*
X-73154Y-13599D01*
X-73142Y-13603D01*
X-72900Y-13641D01*
X-71202Y-13769D01*
X-71190Y-13768D01*
X-71177Y-13771D01*
X-71017Y-13762D01*
X-70854Y-13755D01*
X-70842Y-13752D01*
X-70829Y-13751D01*
X-70675Y-13706D01*
X-70639Y-13696D01*
X-69998Y-13842D01*
X-69971Y-13846D01*
X-69773Y-13877D01*
X-69134Y-13925D01*
X-68997Y-13999D01*
X-68857Y-14079D01*
X-68845Y-14082D01*
X-68834Y-14088D01*
X-68601Y-14162D01*
X-66941Y-14541D01*
X-66928Y-14543D01*
X-66916Y-14547D01*
X-66755Y-14562D01*
X-66594Y-14580D01*
X-66582Y-14578D01*
X-66569Y-14579D01*
X-66409Y-14557D01*
X-66373Y-14553D01*
X-65761Y-14794D01*
X-65734Y-14801D01*
X-65543Y-14861D01*
X-64919Y-15004D01*
X-64796Y-15097D01*
X-64668Y-15197D01*
X-64657Y-15203D01*
X-64647Y-15210D01*
X-64427Y-15318D01*
X-62842Y-15940D01*
X-62830Y-15943D01*
X-62819Y-15949D01*
X-62661Y-15988D01*
X-62505Y-16030D01*
X-62493Y-16030D01*
X-62481Y-16033D01*
X-62318Y-16035D01*
X-62283Y-16036D01*
X-61713Y-16365D01*
X-61687Y-16377D01*
X-61508Y-16464D01*
X-60911Y-16699D01*
X-60804Y-16810D01*
X-60693Y-16928D01*
X-60682Y-16935D01*
X-60673Y-16944D01*
X-60472Y-17083D01*
X-58998Y-17934D01*
X-58986Y-17939D01*
X-58976Y-17947D01*
X-58826Y-18009D01*
X-58678Y-18073D01*
X-58666Y-18075D01*
X-58654Y-18080D01*
X-58495Y-18106D01*
X-58459Y-18113D01*
X-57945Y-18523D01*
X-57921Y-18538D01*
X-57757Y-18651D01*
X-57202Y-18972D01*
X-57111Y-19098D01*
X-57019Y-19231D01*
X-57010Y-19239D01*
X-57003Y-19250D01*
X-56824Y-19417D01*
X-55493Y-20479D01*
X-55483Y-20486D01*
X-55474Y-20495D01*
X-55335Y-20578D01*
X-55198Y-20664D01*
X-55186Y-20668D01*
X-55175Y-20675D01*
X-55021Y-20724D01*
X-54987Y-20736D01*
X-54540Y-21218D01*
X-54518Y-21237D01*
X-54373Y-21373D01*
X-53872Y-21773D01*
X-53802Y-21911D01*
X-53730Y-22056D01*
X-53722Y-22066D01*
X-53717Y-22077D01*
X-53565Y-22269D01*
X-52408Y-23518D01*
X-52398Y-23526D01*
X-52390Y-23536D01*
X-52266Y-23640D01*
X-52143Y-23745D01*
X-52132Y-23750D01*
X-52122Y-23759D01*
X-51976Y-23831D01*
X-51945Y-23847D01*
X-51575Y-24391D01*
X-51557Y-24412D01*
X-51433Y-24569D01*
X-50736Y-25321D01*
X-50713Y-25340D01*
X-50694Y-25364D01*
X-50581Y-25453D01*
X-50471Y-25547D01*
X-50445Y-25561D01*
X-50421Y-25580D01*
X-50290Y-25642D01*
X-50162Y-25708D01*
X-50133Y-25715D01*
X-50106Y-25728D01*
X-49964Y-25759D01*
X-49824Y-25794D01*
X-49794Y-25795D01*
X-49765Y-25801D01*
X-49620Y-25798D01*
X-49476Y-25801D01*
X-49446Y-25795D01*
G37*
G36*
X-149209Y-86377D02*
X-149209Y-86377D01*
X-149132Y-86378D01*
X-149108Y-86369D01*
X-149087Y-86367D01*
X-149048Y-86347D01*
X-148976Y-86320D01*
X-132476Y-76820D01*
X-132454Y-76801D01*
X-132428Y-76789D01*
X-132394Y-76751D01*
X-132391Y-76749D01*
X-132388Y-76745D01*
X-132380Y-76736D01*
X-132327Y-76689D01*
X-132314Y-76663D01*
X-132295Y-76641D01*
X-132272Y-76574D01*
X-132241Y-76509D01*
X-132240Y-76480D01*
X-132230Y-76453D01*
X-132235Y-76382D01*
X-132232Y-76311D01*
X-132242Y-76284D01*
X-132244Y-76255D01*
X-132286Y-76164D01*
X-132301Y-76124D01*
X-132308Y-76116D01*
X-132314Y-76104D01*
X-133458Y-74447D01*
X-101619Y-56065D01*
X-101595Y-56047D01*
X-101568Y-56034D01*
X-101455Y-55944D01*
X-101339Y-55857D01*
X-101320Y-55835D01*
X-101297Y-55816D01*
X-101207Y-55702D01*
X-101114Y-55592D01*
X-101100Y-55565D01*
X-101082Y-55542D01*
X-101021Y-55410D01*
X-100955Y-55281D01*
X-100947Y-55253D01*
X-100935Y-55226D01*
X-100905Y-55084D01*
X-100870Y-54943D01*
X-100870Y-54914D01*
X-100864Y-54885D01*
X-100867Y-54740D01*
X-100865Y-54595D01*
X-100871Y-54566D01*
X-100872Y-54536D01*
X-100925Y-54297D01*
X-101232Y-53299D01*
X-101244Y-53274D01*
X-101316Y-53087D01*
X-101593Y-52510D01*
X-101597Y-52355D01*
X-101598Y-52193D01*
X-101601Y-52181D01*
X-101601Y-52168D01*
X-101654Y-51930D01*
X-102156Y-50302D01*
X-102161Y-50291D01*
X-102163Y-50278D01*
X-102231Y-50131D01*
X-102296Y-49983D01*
X-102303Y-49973D01*
X-102309Y-49962D01*
X-102408Y-49834D01*
X-102429Y-49805D01*
X-102527Y-49155D01*
X-102534Y-49128D01*
X-102578Y-48933D01*
X-102767Y-48320D01*
X-102747Y-48166D01*
X-102724Y-48006D01*
X-102725Y-47994D01*
X-102724Y-47981D01*
X-102740Y-47737D01*
X-102994Y-46053D01*
X-102997Y-46041D01*
X-102998Y-46028D01*
X-103042Y-45873D01*
X-103085Y-45717D01*
X-103091Y-45706D01*
X-103094Y-45694D01*
X-103173Y-45552D01*
X-103190Y-45521D01*
X-103190Y-44863D01*
X-103193Y-44835D01*
X-103207Y-44636D01*
X-103302Y-44002D01*
X-103260Y-43853D01*
X-103213Y-43698D01*
X-103213Y-43685D01*
X-103209Y-43673D01*
X-103189Y-43430D01*
X-103189Y-41727D01*
X-103190Y-41714D01*
X-103189Y-41702D01*
X-103210Y-41541D01*
X-103229Y-41381D01*
X-103233Y-41369D01*
X-103235Y-41356D01*
X-103292Y-41205D01*
X-103304Y-41171D01*
X-103206Y-40520D01*
X-103205Y-40493D01*
X-103188Y-40293D01*
X-103188Y-39653D01*
X-103125Y-39512D01*
X-103055Y-39365D01*
X-103053Y-39353D01*
X-103047Y-39341D01*
X-102991Y-39103D01*
X-102737Y-37420D01*
X-102737Y-37407D01*
X-102734Y-37395D01*
X-102731Y-37233D01*
X-102725Y-37071D01*
X-102727Y-37059D01*
X-102727Y-37046D01*
X-102761Y-36888D01*
X-102768Y-36853D01*
X-102574Y-36224D01*
X-102569Y-36197D01*
X-102523Y-36002D01*
X-102427Y-35369D01*
X-102343Y-35239D01*
X-102253Y-35104D01*
X-102248Y-35092D01*
X-102242Y-35082D01*
X-102151Y-34855D01*
X-101648Y-33228D01*
X-101646Y-33215D01*
X-101641Y-33204D01*
X-101614Y-33045D01*
X-101584Y-32885D01*
X-101585Y-32873D01*
X-101583Y-32860D01*
X-101593Y-32700D01*
X-101594Y-32663D01*
X-101309Y-32070D01*
X-101300Y-32044D01*
X-101225Y-31858D01*
X-101036Y-31246D01*
X-100934Y-31130D01*
X-100825Y-31011D01*
X-100818Y-31000D01*
X-100810Y-30990D01*
X-100686Y-30779D01*
X-99947Y-29245D01*
X-99943Y-29233D01*
X-99936Y-29222D01*
X-99886Y-29068D01*
X-99833Y-28916D01*
X-99831Y-28903D01*
X-99827Y-28891D01*
X-99813Y-28730D01*
X-99796Y-28569D01*
X-99798Y-28557D01*
X-99797Y-28544D01*
X-99809Y-28431D01*
X-99801Y-28404D01*
X-99800Y-28345D01*
X-99789Y-28287D01*
X-99795Y-28171D01*
X-99792Y-28055D01*
X-99804Y-27997D01*
X-99807Y-27939D01*
X-99839Y-27827D01*
X-99863Y-27714D01*
X-99888Y-27661D01*
X-99904Y-27604D01*
X-99961Y-27502D01*
X-100009Y-27398D01*
X-100045Y-27351D01*
X-100074Y-27300D01*
X-100209Y-27141D01*
X-100223Y-27123D01*
X-100227Y-27119D01*
X-100233Y-27113D01*
X-101730Y-25616D01*
X-101731Y-25615D01*
X-114086Y-13260D01*
X-114099Y-13223D01*
X-114168Y-13117D01*
X-114229Y-13007D01*
X-114269Y-12961D01*
X-114288Y-12931D01*
X-114323Y-12897D01*
X-114371Y-12841D01*
X-114371Y-10262D01*
X-114346Y-10231D01*
X-114292Y-10117D01*
X-114231Y-10006D01*
X-114218Y-9960D01*
X-114197Y-9916D01*
X-114171Y-9793D01*
X-114136Y-9671D01*
X-114131Y-9610D01*
X-114124Y-9575D01*
X-114125Y-9527D01*
X-114117Y-9427D01*
X-114117Y1719D01*
X-114128Y1819D01*
X-114130Y1919D01*
X-114148Y1992D01*
X-114157Y2065D01*
X-114190Y2160D01*
X-114215Y2257D01*
X-114249Y2324D01*
X-114274Y2394D01*
X-114329Y2478D01*
X-114375Y2567D01*
X-114423Y2624D01*
X-114463Y2686D01*
X-114535Y2756D01*
X-114600Y2833D01*
X-114660Y2877D01*
X-114714Y2929D01*
X-114800Y2980D01*
X-114881Y3040D01*
X-114949Y3069D01*
X-115013Y3107D01*
X-115109Y3138D01*
X-115201Y3178D01*
X-115274Y3191D01*
X-115345Y3214D01*
X-115445Y3222D01*
X-115544Y3239D01*
X-115618Y3236D01*
X-115692Y3242D01*
X-115792Y3227D01*
X-115892Y3222D01*
X-115963Y3201D01*
X-116037Y3190D01*
X-116130Y3153D01*
X-116227Y3125D01*
X-116292Y3089D01*
X-116361Y3061D01*
X-116443Y3004D01*
X-116531Y2955D01*
X-116607Y2890D01*
X-116647Y2862D01*
X-116671Y2836D01*
X-116717Y2796D01*
X-125737Y-6224D01*
X-136072Y-6224D01*
X-136198Y-6238D01*
X-136324Y-6245D01*
X-136371Y-6258D01*
X-136419Y-6264D01*
X-136538Y-6306D01*
X-136659Y-6341D01*
X-136701Y-6365D01*
X-136747Y-6381D01*
X-136853Y-6450D01*
X-136963Y-6511D01*
X-137010Y-6551D01*
X-137040Y-6570D01*
X-137073Y-6605D01*
X-137149Y-6670D01*
X-137929Y-7450D01*
X-141471Y-7450D01*
X-143975Y-4946D01*
X-143975Y-1404D01*
X-142854Y-283D01*
X-142837Y-263D01*
X-142817Y-246D01*
X-142729Y-127D01*
X-142637Y-10D01*
X-142626Y13D01*
X-142610Y34D01*
X-142552Y170D01*
X-142488Y305D01*
X-142483Y330D01*
X-142472Y354D01*
X-142446Y501D01*
X-142415Y645D01*
X-142415Y672D01*
X-142411Y697D01*
X-142418Y846D01*
X-142421Y994D01*
X-142427Y1019D01*
X-142429Y1046D01*
X-142470Y1188D01*
X-142506Y1332D01*
X-142518Y1355D01*
X-142525Y1380D01*
X-142597Y1510D01*
X-142665Y1642D01*
X-142682Y1662D01*
X-142695Y1685D01*
X-142854Y1871D01*
X-143975Y2992D01*
X-143975Y6533D01*
X-141471Y9037D01*
X-137823Y9037D01*
X-137723Y9049D01*
X-137622Y9050D01*
X-137550Y9069D01*
X-137476Y9077D01*
X-137382Y9111D01*
X-137284Y9135D01*
X-137218Y9170D01*
X-137148Y9195D01*
X-137064Y9249D01*
X-136975Y9295D01*
X-136918Y9343D01*
X-136855Y9384D01*
X-136786Y9456D01*
X-136709Y9521D01*
X-136665Y9581D01*
X-136613Y9634D01*
X-136562Y9720D01*
X-136502Y9801D01*
X-136473Y9870D01*
X-136434Y9933D01*
X-136404Y10029D01*
X-136364Y10121D01*
X-136351Y10194D01*
X-136328Y10265D01*
X-136320Y10365D01*
X-136302Y10464D01*
X-136306Y10539D01*
X-136300Y10613D01*
X-136315Y10712D01*
X-136320Y10812D01*
X-136341Y10884D01*
X-136352Y10957D01*
X-136389Y11051D01*
X-136417Y11147D01*
X-136453Y11212D01*
X-136481Y11281D01*
X-136538Y11364D01*
X-136587Y11451D01*
X-136652Y11528D01*
X-136680Y11567D01*
X-136706Y11591D01*
X-136745Y11638D01*
X-137625Y12517D01*
X-137625Y14415D01*
X-137636Y14515D01*
X-137638Y14615D01*
X-137656Y14688D01*
X-137665Y14762D01*
X-137698Y14856D01*
X-137723Y14953D01*
X-137757Y15020D01*
X-137782Y15090D01*
X-137837Y15174D01*
X-137883Y15263D01*
X-137931Y15320D01*
X-137971Y15382D01*
X-138043Y15452D01*
X-138108Y15529D01*
X-138168Y15573D01*
X-138222Y15625D01*
X-138308Y15676D01*
X-138389Y15736D01*
X-138457Y15765D01*
X-138521Y15803D01*
X-138617Y15834D01*
X-138709Y15874D01*
X-138782Y15887D01*
X-138853Y15910D01*
X-138953Y15918D01*
X-139052Y15936D01*
X-139126Y15932D01*
X-139200Y15938D01*
X-139300Y15923D01*
X-139400Y15918D01*
X-139471Y15897D01*
X-139545Y15886D01*
X-139638Y15849D01*
X-139735Y15821D01*
X-139800Y15785D01*
X-139869Y15757D01*
X-139951Y15700D01*
X-140039Y15651D01*
X-140115Y15586D01*
X-140155Y15558D01*
X-140179Y15532D01*
X-140225Y15492D01*
X-186558Y-30841D01*
X-186574Y-30861D01*
X-186594Y-30878D01*
X-186683Y-30998D01*
X-186775Y-31114D01*
X-186786Y-31137D01*
X-186802Y-31158D01*
X-186860Y-31295D01*
X-186924Y-31429D01*
X-186929Y-31454D01*
X-186940Y-31479D01*
X-186966Y-31625D01*
X-186997Y-31769D01*
X-186997Y-31796D01*
X-187001Y-31822D01*
X-186994Y-31970D01*
X-186991Y-32118D01*
X-186985Y-32143D01*
X-186983Y-32170D01*
X-186942Y-32312D01*
X-186906Y-32456D01*
X-186894Y-32479D01*
X-186887Y-32504D01*
X-186814Y-32634D01*
X-186746Y-32766D01*
X-186729Y-32786D01*
X-186717Y-32809D01*
X-186558Y-32995D01*
X-186221Y-33332D01*
X-185418Y-35270D01*
X-185418Y-37369D01*
X-186221Y-39307D01*
X-187705Y-40791D01*
X-189644Y-41594D01*
X-191742Y-41594D01*
X-193155Y-41009D01*
X-193300Y-40968D01*
X-193443Y-40922D01*
X-193467Y-40920D01*
X-193490Y-40913D01*
X-193640Y-40906D01*
X-193790Y-40894D01*
X-193814Y-40898D01*
X-193838Y-40897D01*
X-193986Y-40924D01*
X-194135Y-40946D01*
X-194157Y-40955D01*
X-194181Y-40959D01*
X-194319Y-41019D01*
X-194459Y-41075D01*
X-194479Y-41088D01*
X-194500Y-41098D01*
X-194621Y-41188D01*
X-194745Y-41274D01*
X-194761Y-41292D01*
X-194780Y-41306D01*
X-194878Y-41421D01*
X-194978Y-41533D01*
X-194990Y-41554D01*
X-195005Y-41572D01*
X-195074Y-41706D01*
X-195147Y-41838D01*
X-195153Y-41861D01*
X-195164Y-41882D01*
X-195201Y-42029D01*
X-195241Y-42173D01*
X-195244Y-42202D01*
X-195248Y-42220D01*
X-195249Y-42267D01*
X-195261Y-42417D01*
X-195261Y-43430D01*
X-195259Y-43442D01*
X-195260Y-43455D01*
X-195239Y-43615D01*
X-195221Y-43776D01*
X-195216Y-43788D01*
X-195215Y-43800D01*
X-195157Y-43952D01*
X-195145Y-43985D01*
X-195243Y-44636D01*
X-195244Y-44664D01*
X-195260Y-44863D01*
X-195260Y-45504D01*
X-195323Y-45644D01*
X-195393Y-45791D01*
X-195395Y-45804D01*
X-195401Y-45815D01*
X-195456Y-46053D01*
X-195710Y-47737D01*
X-195710Y-47750D01*
X-195713Y-47762D01*
X-195716Y-47924D01*
X-195722Y-48085D01*
X-195719Y-48098D01*
X-195719Y-48110D01*
X-195686Y-48268D01*
X-195679Y-48304D01*
X-195872Y-48933D01*
X-195877Y-48960D01*
X-195923Y-49155D01*
X-196018Y-49788D01*
X-196103Y-49919D01*
X-196192Y-50053D01*
X-196197Y-50064D01*
X-196204Y-50075D01*
X-196294Y-50302D01*
X-196796Y-51930D01*
X-196798Y-51942D01*
X-196803Y-51954D01*
X-196830Y-52113D01*
X-196859Y-52272D01*
X-196859Y-52285D01*
X-196861Y-52297D01*
X-196851Y-52459D01*
X-196849Y-52495D01*
X-197134Y-53087D01*
X-197144Y-53114D01*
X-197218Y-53299D01*
X-197525Y-54297D01*
X-197531Y-54327D01*
X-197541Y-54354D01*
X-197562Y-54498D01*
X-197589Y-54640D01*
X-197588Y-54670D01*
X-197592Y-54699D01*
X-197580Y-54843D01*
X-197573Y-54988D01*
X-197565Y-55017D01*
X-197563Y-55046D01*
X-197518Y-55184D01*
X-197479Y-55324D01*
X-197464Y-55350D01*
X-197455Y-55378D01*
X-197380Y-55502D01*
X-197311Y-55629D01*
X-197291Y-55651D01*
X-197275Y-55676D01*
X-197174Y-55780D01*
X-197077Y-55888D01*
X-197053Y-55905D01*
X-197032Y-55926D01*
X-196831Y-56065D01*
X-164992Y-74447D01*
X-166136Y-76104D01*
X-166147Y-76131D01*
X-166166Y-76153D01*
X-166186Y-76221D01*
X-166214Y-76287D01*
X-166214Y-76316D01*
X-166222Y-76343D01*
X-166214Y-76415D01*
X-166215Y-76486D01*
X-166203Y-76512D01*
X-166200Y-76541D01*
X-166165Y-76603D01*
X-166137Y-76669D01*
X-166117Y-76689D01*
X-166102Y-76714D01*
X-166039Y-76766D01*
X-166035Y-76772D01*
X-166026Y-76777D01*
X-166025Y-76778D01*
X-165995Y-76808D01*
X-165985Y-76812D01*
X-165974Y-76820D01*
X-149474Y-86320D01*
X-149401Y-86344D01*
X-149331Y-86375D01*
X-149307Y-86376D01*
X-149285Y-86383D01*
X-149209Y-86377D01*
G37*
G36*
X189851Y37731D02*
X189851Y37731D01*
X189902Y37733D01*
X189934Y37751D01*
X189970Y37759D01*
X190010Y37792D01*
X190054Y37816D01*
X190076Y37846D01*
X190104Y37869D01*
X190125Y37916D01*
X190154Y37958D01*
X190162Y38000D01*
X190175Y38028D01*
X190174Y38058D01*
X190182Y38100D01*
X190182Y80164D01*
X191298Y81281D01*
X216689Y81281D01*
X217806Y80164D01*
X217806Y70828D01*
X217806Y70827D01*
X217806Y70825D01*
X217826Y70741D01*
X217845Y70659D01*
X217846Y70658D01*
X217846Y70657D01*
X217901Y70592D01*
X217955Y70526D01*
X217957Y70525D01*
X217958Y70524D01*
X218088Y70460D01*
X241681Y64169D01*
X245794Y60056D01*
X245858Y60016D01*
X245920Y59972D01*
X245932Y59970D01*
X245941Y59965D01*
X245978Y59961D01*
X246063Y59945D01*
X265113Y59945D01*
X265162Y59956D01*
X265213Y59958D01*
X265245Y59976D01*
X265281Y59984D01*
X265321Y60017D01*
X265365Y60041D01*
X265387Y60071D01*
X265415Y60094D01*
X265436Y60141D01*
X265465Y60183D01*
X265473Y60225D01*
X265486Y60253D01*
X265485Y60283D01*
X265493Y60325D01*
X265493Y79375D01*
X265481Y79425D01*
X265479Y79476D01*
X265462Y79508D01*
X265453Y79544D01*
X265421Y79583D01*
X265396Y79628D01*
X265366Y79649D01*
X265343Y79677D01*
X265296Y79698D01*
X265255Y79728D01*
X265213Y79736D01*
X265185Y79748D01*
X265154Y79747D01*
X265113Y79755D01*
X250983Y79755D01*
X243256Y87482D01*
X241529Y109926D01*
X241505Y110004D01*
X241482Y110084D01*
X241479Y110087D01*
X241477Y110091D01*
X241420Y110151D01*
X241364Y110211D01*
X241360Y110213D01*
X241357Y110216D01*
X241279Y110244D01*
X241203Y110274D01*
X241198Y110273D01*
X241194Y110275D01*
X241168Y110272D01*
X241058Y110266D01*
X195216Y98805D01*
X170135Y98805D01*
X170085Y98794D01*
X170034Y98792D01*
X170002Y98774D01*
X169966Y98766D01*
X169927Y98733D01*
X169882Y98709D01*
X169861Y98679D01*
X169833Y98656D01*
X169812Y98609D01*
X169782Y98567D01*
X169774Y98525D01*
X169762Y98497D01*
X169763Y98467D01*
X169755Y98425D01*
X169755Y58137D01*
X169766Y58087D01*
X169768Y58036D01*
X169786Y58004D01*
X169794Y57968D01*
X169827Y57929D01*
X169851Y57884D01*
X169881Y57863D01*
X169904Y57835D01*
X169951Y57814D01*
X169993Y57784D01*
X170034Y57776D01*
X170062Y57764D01*
X170093Y57765D01*
X170135Y57757D01*
X174759Y57757D01*
X174766Y57752D01*
X174778Y57750D01*
X174786Y57745D01*
X174823Y57741D01*
X174908Y57725D01*
X176877Y57725D01*
X177770Y56832D01*
X177770Y51568D01*
X176877Y50675D01*
X174908Y50675D01*
X174834Y50658D01*
X174759Y50645D01*
X174757Y50643D01*
X170135Y50643D01*
X170085Y50632D01*
X170034Y50630D01*
X170002Y50612D01*
X169966Y50604D01*
X169927Y50571D01*
X169882Y50547D01*
X169861Y50517D01*
X169833Y50494D01*
X169812Y50447D01*
X169782Y50405D01*
X169774Y50363D01*
X169762Y50335D01*
X169763Y50305D01*
X169755Y50263D01*
X169755Y45137D01*
X169766Y45087D01*
X169768Y45036D01*
X169786Y45004D01*
X169794Y44968D01*
X169827Y44929D01*
X169851Y44884D01*
X169881Y44863D01*
X169904Y44835D01*
X169951Y44814D01*
X169993Y44784D01*
X170034Y44776D01*
X170062Y44764D01*
X170093Y44765D01*
X170135Y44757D01*
X174759Y44757D01*
X174766Y44752D01*
X174778Y44750D01*
X174786Y44745D01*
X174823Y44741D01*
X174908Y44725D01*
X176877Y44725D01*
X177770Y43832D01*
X177770Y39755D01*
X177778Y39718D01*
X177777Y39680D01*
X177798Y39635D01*
X177809Y39586D01*
X177833Y39557D01*
X177849Y39522D01*
X177895Y39482D01*
X177919Y39452D01*
X177938Y39444D01*
X177958Y39427D01*
X180783Y37772D01*
X180810Y37764D01*
X180833Y37747D01*
X180912Y37732D01*
X180948Y37721D01*
X180960Y37723D01*
X180975Y37720D01*
X189802Y37720D01*
X189851Y37731D01*
G37*
%LPC*%
G36*
X-13647Y135826D02*
X-13647Y135826D01*
X-43364Y165542D01*
X-43463Y165621D01*
X-43556Y165705D01*
X-43599Y165729D01*
X-43637Y165759D01*
X-43751Y165813D01*
X-43861Y165874D01*
X-43908Y165887D01*
X-43952Y165908D01*
X-44075Y165934D01*
X-44197Y165969D01*
X-44258Y165974D01*
X-44292Y165981D01*
X-44340Y165980D01*
X-44441Y165988D01*
X-96197Y165988D01*
X-97537Y167328D01*
X-97537Y183510D01*
X-96197Y184849D01*
X-38740Y184849D01*
X-7436Y153545D01*
X-7337Y153467D01*
X-7244Y153382D01*
X-7201Y153359D01*
X-7163Y153329D01*
X-7049Y153275D01*
X-6939Y153214D01*
X-6892Y153200D01*
X-6848Y153180D01*
X-6725Y153153D01*
X-6603Y153119D01*
X-6542Y153114D01*
X-6508Y153106D01*
X-6460Y153107D01*
X-6359Y153099D01*
X10472Y153099D01*
X11812Y151760D01*
X11812Y137165D01*
X10472Y135826D01*
X-13647Y135826D01*
G37*
%LPD*%
G36*
X9545Y137354D02*
X9545Y137354D01*
X9564Y137352D01*
X9666Y137374D01*
X9768Y137391D01*
X9785Y137400D01*
X9805Y137405D01*
X9894Y137458D01*
X9985Y137506D01*
X9999Y137521D01*
X10016Y137531D01*
X10083Y137609D01*
X10155Y137684D01*
X10163Y137702D01*
X10176Y137718D01*
X10215Y137814D01*
X10258Y137908D01*
X10260Y137927D01*
X10268Y137946D01*
X10286Y138113D01*
X10286Y150813D01*
X10283Y150832D01*
X10285Y150852D01*
X10263Y150953D01*
X10247Y151055D01*
X10237Y151073D01*
X10233Y151092D01*
X10180Y151181D01*
X10131Y151273D01*
X10117Y151286D01*
X10107Y151303D01*
X10028Y151371D01*
X9953Y151442D01*
X9935Y151450D01*
X9920Y151463D01*
X9824Y151502D01*
X9730Y151546D01*
X9710Y151548D01*
X9692Y151555D01*
X9525Y151574D01*
X-7622Y151574D01*
X-39149Y183101D01*
X-39223Y183154D01*
X-39293Y183213D01*
X-39323Y183226D01*
X-39349Y183244D01*
X-39436Y183271D01*
X-39521Y183305D01*
X-39562Y183310D01*
X-39584Y183317D01*
X-39616Y183316D01*
X-39688Y183324D01*
X-95250Y183324D01*
X-95270Y183321D01*
X-95289Y183323D01*
X-95391Y183301D01*
X-95493Y183284D01*
X-95510Y183275D01*
X-95530Y183270D01*
X-95619Y183217D01*
X-95710Y183169D01*
X-95724Y183155D01*
X-95741Y183144D01*
X-95808Y183066D01*
X-95880Y182991D01*
X-95888Y182973D01*
X-95901Y182957D01*
X-95940Y182861D01*
X-95983Y182768D01*
X-95985Y182748D01*
X-95993Y182729D01*
X-96011Y182563D01*
X-96011Y168275D01*
X-96008Y168255D01*
X-96010Y168236D01*
X-95988Y168134D01*
X-95972Y168032D01*
X-95962Y168015D01*
X-95958Y167995D01*
X-95905Y167906D01*
X-95856Y167815D01*
X-95842Y167801D01*
X-95832Y167784D01*
X-95753Y167717D01*
X-95678Y167646D01*
X-95660Y167637D01*
X-95645Y167624D01*
X-95549Y167585D01*
X-95455Y167542D01*
X-95435Y167540D01*
X-95417Y167532D01*
X-95250Y167514D01*
X-43178Y167514D01*
X-13238Y137574D01*
X-13164Y137521D01*
X-13095Y137462D01*
X-13065Y137450D01*
X-13039Y137431D01*
X-12952Y137404D01*
X-12867Y137370D01*
X-12826Y137365D01*
X-12803Y137358D01*
X-12771Y137359D01*
X-12700Y137351D01*
X9525Y137351D01*
X9545Y137354D01*
G37*
G36*
X-140620Y95228D02*
X-140620Y95228D01*
X-140594Y95226D01*
X-140447Y95248D01*
X-140300Y95265D01*
X-140275Y95273D01*
X-140249Y95277D01*
X-140111Y95332D01*
X-139972Y95382D01*
X-139950Y95396D01*
X-139925Y95406D01*
X-139804Y95491D01*
X-139679Y95571D01*
X-139661Y95590D01*
X-139639Y95605D01*
X-139540Y95715D01*
X-139437Y95822D01*
X-139423Y95844D01*
X-139406Y95864D01*
X-139334Y95994D01*
X-139258Y96121D01*
X-139250Y96146D01*
X-139237Y96169D01*
X-139197Y96312D01*
X-139152Y96453D01*
X-139150Y96479D01*
X-139142Y96504D01*
X-139123Y96748D01*
X-139123Y124668D01*
X-139137Y124793D01*
X-139144Y124920D01*
X-139157Y124966D01*
X-139163Y125014D01*
X-139205Y125133D01*
X-139240Y125254D01*
X-139264Y125296D01*
X-139280Y125342D01*
X-139349Y125448D01*
X-139410Y125559D01*
X-139450Y125605D01*
X-139469Y125635D01*
X-139504Y125668D01*
X-139569Y125745D01*
X-181930Y168106D01*
X-182008Y168168D01*
X-182081Y168238D01*
X-182145Y168276D01*
X-182203Y168322D01*
X-182294Y168365D01*
X-182380Y168417D01*
X-182451Y168440D01*
X-182518Y168471D01*
X-182616Y168493D01*
X-182712Y168523D01*
X-182786Y168529D01*
X-182859Y168545D01*
X-182959Y168543D01*
X-183059Y168551D01*
X-183133Y168540D01*
X-183207Y168539D01*
X-183304Y168514D01*
X-183404Y168499D01*
X-183473Y168472D01*
X-183545Y168454D01*
X-183635Y168408D01*
X-183728Y168371D01*
X-183789Y168328D01*
X-183855Y168294D01*
X-183932Y168229D01*
X-184014Y168172D01*
X-184064Y168117D01*
X-184120Y168068D01*
X-184180Y167988D01*
X-184247Y167913D01*
X-184283Y167848D01*
X-184328Y167788D01*
X-184367Y167696D01*
X-184416Y167608D01*
X-184436Y167536D01*
X-184466Y167468D01*
X-184483Y167369D01*
X-184511Y167273D01*
X-184519Y167172D01*
X-184527Y167125D01*
X-184525Y167089D01*
X-184530Y167029D01*
X-184530Y164869D01*
X-185923Y161507D01*
X-188495Y158935D01*
X-189178Y158652D01*
X-189245Y158615D01*
X-189316Y158587D01*
X-189396Y158531D01*
X-189483Y158483D01*
X-189539Y158431D01*
X-189602Y158388D01*
X-189668Y158315D01*
X-189741Y158249D01*
X-189784Y158186D01*
X-189835Y158129D01*
X-189883Y158043D01*
X-189939Y157962D01*
X-189967Y157891D01*
X-190004Y157824D01*
X-190031Y157729D01*
X-190067Y157638D01*
X-190078Y157562D01*
X-190099Y157489D01*
X-190111Y157340D01*
X-190118Y157293D01*
X-190116Y157274D01*
X-190118Y157245D01*
X-190118Y150730D01*
X-190110Y150654D01*
X-190111Y150578D01*
X-190090Y150482D01*
X-190078Y150384D01*
X-190053Y150312D01*
X-190036Y150237D01*
X-189994Y150149D01*
X-189961Y150056D01*
X-189919Y149992D01*
X-189887Y149923D01*
X-189825Y149846D01*
X-189772Y149763D01*
X-189717Y149710D01*
X-189669Y149650D01*
X-189592Y149589D01*
X-189521Y149521D01*
X-189456Y149482D01*
X-189396Y149434D01*
X-189263Y149366D01*
X-189222Y149342D01*
X-189204Y149336D01*
X-189178Y149323D01*
X-188495Y149040D01*
X-185923Y146468D01*
X-184530Y143106D01*
X-184530Y139469D01*
X-185764Y136491D01*
X-185785Y136417D01*
X-185815Y136347D01*
X-185832Y136251D01*
X-185859Y136156D01*
X-185863Y136080D01*
X-185876Y136004D01*
X-185871Y135906D01*
X-185876Y135808D01*
X-185862Y135733D01*
X-185859Y135656D01*
X-185831Y135562D01*
X-185814Y135465D01*
X-185783Y135395D01*
X-185762Y135322D01*
X-185714Y135236D01*
X-185675Y135145D01*
X-185629Y135084D01*
X-185592Y135017D01*
X-185495Y134904D01*
X-185467Y134866D01*
X-185452Y134853D01*
X-185433Y134831D01*
X-162025Y111423D01*
X-161947Y111361D01*
X-161874Y111291D01*
X-161810Y111252D01*
X-161752Y111206D01*
X-161661Y111163D01*
X-161575Y111112D01*
X-161504Y111089D01*
X-161437Y111057D01*
X-161339Y111036D01*
X-161243Y111006D01*
X-161169Y111000D01*
X-161096Y110984D01*
X-160996Y110986D01*
X-160896Y110978D01*
X-160822Y110989D01*
X-160748Y110990D01*
X-160651Y111014D01*
X-160551Y111029D01*
X-160482Y111057D01*
X-160410Y111075D01*
X-160320Y111121D01*
X-160227Y111158D01*
X-160166Y111200D01*
X-160100Y111235D01*
X-160023Y111300D01*
X-159941Y111357D01*
X-159891Y111412D01*
X-159835Y111460D01*
X-159775Y111541D01*
X-159708Y111616D01*
X-159672Y111681D01*
X-159627Y111741D01*
X-159588Y111833D01*
X-159539Y111921D01*
X-159519Y111992D01*
X-159489Y112061D01*
X-159472Y112159D01*
X-159444Y112256D01*
X-159436Y112356D01*
X-159428Y112404D01*
X-159430Y112439D01*
X-159425Y112500D01*
X-159425Y114607D01*
X-158532Y115500D01*
X-146268Y115500D01*
X-145375Y114607D01*
X-145375Y103343D01*
X-146268Y102450D01*
X-152545Y102450D01*
X-152571Y102447D01*
X-152597Y102449D01*
X-152744Y102427D01*
X-152891Y102410D01*
X-152916Y102402D01*
X-152942Y102398D01*
X-153080Y102343D01*
X-153219Y102293D01*
X-153241Y102279D01*
X-153266Y102269D01*
X-153387Y102184D01*
X-153512Y102104D01*
X-153530Y102085D01*
X-153552Y102070D01*
X-153651Y101960D01*
X-153754Y101853D01*
X-153768Y101831D01*
X-153785Y101811D01*
X-153857Y101681D01*
X-153933Y101554D01*
X-153941Y101529D01*
X-153954Y101506D01*
X-153994Y101363D01*
X-154039Y101222D01*
X-154041Y101196D01*
X-154049Y101171D01*
X-154068Y100927D01*
X-154068Y100520D01*
X-154384Y100204D01*
X-154463Y100105D01*
X-154547Y100011D01*
X-154571Y99969D01*
X-154601Y99931D01*
X-154655Y99817D01*
X-154716Y99706D01*
X-154729Y99659D01*
X-154750Y99616D01*
X-154776Y99492D01*
X-154811Y99370D01*
X-154816Y99310D01*
X-154823Y99275D01*
X-154822Y99227D01*
X-154830Y99127D01*
X-154830Y96748D01*
X-154827Y96722D01*
X-154829Y96696D01*
X-154807Y96549D01*
X-154790Y96402D01*
X-154782Y96377D01*
X-154778Y96351D01*
X-154723Y96213D01*
X-154673Y96074D01*
X-154659Y96052D01*
X-154649Y96027D01*
X-154564Y95906D01*
X-154484Y95781D01*
X-154465Y95763D01*
X-154450Y95741D01*
X-154340Y95642D01*
X-154233Y95539D01*
X-154211Y95525D01*
X-154191Y95508D01*
X-154061Y95436D01*
X-153934Y95360D01*
X-153909Y95352D01*
X-153886Y95339D01*
X-153743Y95299D01*
X-153602Y95254D01*
X-153576Y95252D01*
X-153551Y95244D01*
X-153307Y95225D01*
X-140646Y95225D01*
X-140620Y95228D01*
G37*
G36*
X206449Y20275D02*
X206449Y20275D01*
X206524Y20288D01*
X206534Y20294D01*
X206544Y20297D01*
X206573Y20321D01*
X206644Y20369D01*
X208266Y21990D01*
X208293Y22034D01*
X208327Y22071D01*
X208338Y22106D01*
X208357Y22138D01*
X208362Y22188D01*
X208376Y22237D01*
X208370Y22274D01*
X208374Y22310D01*
X208355Y22358D01*
X208347Y22408D01*
X208323Y22443D01*
X208312Y22472D01*
X208289Y22493D01*
X208266Y22528D01*
X208192Y22601D01*
X208128Y22642D01*
X208066Y22685D01*
X208054Y22687D01*
X208045Y22693D01*
X208008Y22696D01*
X207923Y22713D01*
X204604Y22713D01*
X202100Y25217D01*
X202100Y28758D01*
X204604Y31262D01*
X206540Y31262D01*
X206614Y31280D01*
X206689Y31293D01*
X206699Y31299D01*
X206709Y31302D01*
X206737Y31325D01*
X206775Y31351D01*
X207489Y31351D01*
X207538Y31363D01*
X207589Y31365D01*
X207622Y31382D01*
X207657Y31391D01*
X207697Y31423D01*
X207741Y31447D01*
X207763Y31477D01*
X207791Y31501D01*
X207812Y31547D01*
X207841Y31589D01*
X207849Y31631D01*
X207862Y31659D01*
X207861Y31690D01*
X207869Y31731D01*
X207869Y34188D01*
X208762Y35081D01*
X217488Y35081D01*
X217537Y35093D01*
X217588Y35095D01*
X217620Y35112D01*
X217656Y35121D01*
X217696Y35153D01*
X217740Y35177D01*
X217762Y35207D01*
X217790Y35231D01*
X217811Y35277D01*
X217840Y35319D01*
X217848Y35361D01*
X217861Y35389D01*
X217861Y35394D01*
X217861Y35395D01*
X217860Y35420D01*
X217868Y35461D01*
X217868Y50800D01*
X217863Y50821D01*
X217865Y50850D01*
X217810Y51261D01*
X217797Y51296D01*
X217785Y51356D01*
X217626Y51739D01*
X217604Y51770D01*
X217577Y51825D01*
X217324Y52154D01*
X217295Y52178D01*
X217254Y52224D01*
X216925Y52477D01*
X216891Y52492D01*
X216839Y52526D01*
X216456Y52685D01*
X216419Y52691D01*
X216361Y52710D01*
X216280Y52721D01*
X216280Y79375D01*
X216269Y79425D01*
X216267Y79476D01*
X216249Y79508D01*
X216241Y79544D01*
X216208Y79583D01*
X216184Y79628D01*
X216154Y79649D01*
X216131Y79677D01*
X216084Y79698D01*
X216042Y79728D01*
X216000Y79736D01*
X215972Y79748D01*
X215942Y79747D01*
X215900Y79755D01*
X192088Y79755D01*
X192038Y79744D01*
X191987Y79742D01*
X191955Y79724D01*
X191919Y79716D01*
X191879Y79683D01*
X191835Y79659D01*
X191814Y79629D01*
X191785Y79606D01*
X191764Y79559D01*
X191735Y79517D01*
X191727Y79475D01*
X191714Y79447D01*
X191715Y79417D01*
X191707Y79375D01*
X191707Y20638D01*
X191719Y20588D01*
X191721Y20537D01*
X191738Y20505D01*
X191747Y20469D01*
X191779Y20429D01*
X191804Y20385D01*
X191834Y20364D01*
X191857Y20335D01*
X191904Y20314D01*
X191945Y20285D01*
X191987Y20277D01*
X192015Y20264D01*
X192046Y20265D01*
X192088Y20257D01*
X206375Y20257D01*
X206449Y20275D01*
G37*
G36*
X-97559Y-56578D02*
X-97559Y-56578D01*
X-97531Y-56578D01*
X-97433Y-56541D01*
X-97394Y-56530D01*
X-97386Y-56524D01*
X-97376Y-56520D01*
X-50576Y-29520D01*
X-50555Y-29502D01*
X-50530Y-29491D01*
X-50481Y-29437D01*
X-50427Y-29388D01*
X-50415Y-29364D01*
X-50396Y-29344D01*
X-50372Y-29275D01*
X-50341Y-29209D01*
X-50340Y-29182D01*
X-50330Y-29156D01*
X-50335Y-29083D01*
X-50332Y-29010D01*
X-50341Y-28985D01*
X-50343Y-28958D01*
X-50387Y-28862D01*
X-50401Y-28824D01*
X-50408Y-28817D01*
X-50412Y-28806D01*
X-52686Y-25470D01*
X-52709Y-25447D01*
X-52732Y-25411D01*
X-55478Y-22451D01*
X-55504Y-22432D01*
X-55532Y-22400D01*
X-58688Y-19881D01*
X-58717Y-19867D01*
X-58750Y-19839D01*
X-62246Y-17819D01*
X-62276Y-17809D01*
X-62313Y-17787D01*
X-66071Y-16311D01*
X-66103Y-16305D01*
X-66143Y-16289D01*
X-70079Y-15389D01*
X-70111Y-15388D01*
X-70153Y-15378D01*
X-74179Y-15075D01*
X-74210Y-15079D01*
X-74254Y-15075D01*
X-78280Y-15375D01*
X-78311Y-15384D01*
X-78354Y-15386D01*
X-82290Y-16283D01*
X-82319Y-16297D01*
X-82362Y-16305D01*
X-86121Y-17779D01*
X-86148Y-17797D01*
X-86188Y-17812D01*
X-89685Y-19829D01*
X-89709Y-19850D01*
X-89747Y-19871D01*
X-92905Y-22388D01*
X-92925Y-22412D01*
X-92959Y-22439D01*
X-95707Y-25397D01*
X-95723Y-25425D01*
X-95753Y-25456D01*
X-98029Y-28791D01*
X-98041Y-28820D01*
X-98066Y-28856D01*
X-99819Y-32493D01*
X-99827Y-32524D01*
X-99846Y-32562D01*
X-101038Y-36420D01*
X-101041Y-36452D01*
X-101054Y-36493D01*
X-101657Y-40485D01*
X-101656Y-40517D01*
X-101663Y-40560D01*
X-101664Y-44598D01*
X-101661Y-44612D01*
X-101663Y-44621D01*
X-101658Y-44641D01*
X-101659Y-44672D01*
X-101058Y-48665D01*
X-101047Y-48695D01*
X-101042Y-48737D01*
X-99853Y-52596D01*
X-99838Y-52624D01*
X-99826Y-52666D01*
X-98075Y-56304D01*
X-98058Y-56326D01*
X-98049Y-56351D01*
X-97999Y-56404D01*
X-97955Y-56462D01*
X-97931Y-56476D01*
X-97912Y-56496D01*
X-97846Y-56525D01*
X-97782Y-56561D01*
X-97755Y-56565D01*
X-97730Y-56576D01*
X-97657Y-56576D01*
X-97585Y-56585D01*
X-97559Y-56578D01*
G37*
G36*
X-74222Y189704D02*
X-74222Y189704D01*
X-74179Y189700D01*
X-70153Y190003D01*
X-70122Y190011D01*
X-70079Y190014D01*
X-66143Y190914D01*
X-66114Y190927D01*
X-66071Y190936D01*
X-62313Y192412D01*
X-62286Y192429D01*
X-62246Y192444D01*
X-58750Y194464D01*
X-58726Y194485D01*
X-58688Y194506D01*
X-55532Y197025D01*
X-55512Y197049D01*
X-55478Y197076D01*
X-52732Y200036D01*
X-52716Y200064D01*
X-52686Y200095D01*
X-50412Y203431D01*
X-50402Y203457D01*
X-50385Y203477D01*
X-50364Y203547D01*
X-50335Y203615D01*
X-50336Y203642D01*
X-50328Y203668D01*
X-50336Y203741D01*
X-50336Y203814D01*
X-50347Y203839D01*
X-50350Y203866D01*
X-50386Y203929D01*
X-50414Y203996D01*
X-50434Y204015D01*
X-50447Y204039D01*
X-50528Y204106D01*
X-50558Y204134D01*
X-50567Y204138D01*
X-50576Y204145D01*
X-97376Y231145D01*
X-97401Y231154D01*
X-97424Y231169D01*
X-97495Y231185D01*
X-97564Y231208D01*
X-97591Y231206D01*
X-97618Y231212D01*
X-97689Y231198D01*
X-97762Y231193D01*
X-97787Y231180D01*
X-97813Y231175D01*
X-97874Y231134D01*
X-97939Y231101D01*
X-97956Y231080D01*
X-97979Y231065D01*
X-98040Y230979D01*
X-98065Y230948D01*
X-98068Y230938D01*
X-98075Y230929D01*
X-99826Y227291D01*
X-99833Y227260D01*
X-99853Y227221D01*
X-101042Y223362D01*
X-101045Y223331D01*
X-101058Y223290D01*
X-101659Y219297D01*
X-101657Y219265D01*
X-101664Y219223D01*
X-101663Y215185D01*
X-101657Y215155D01*
X-101659Y215143D01*
X-101657Y215135D01*
X-101657Y215110D01*
X-101054Y211118D01*
X-101043Y211088D01*
X-101038Y211045D01*
X-99846Y207187D01*
X-99831Y207159D01*
X-99819Y207118D01*
X-98066Y203481D01*
X-98047Y203455D01*
X-98029Y203416D01*
X-95753Y200081D01*
X-95730Y200059D01*
X-95707Y200022D01*
X-92959Y197064D01*
X-92934Y197045D01*
X-92905Y197013D01*
X-89747Y194496D01*
X-89719Y194482D01*
X-89685Y194454D01*
X-86188Y192437D01*
X-86158Y192427D01*
X-86121Y192404D01*
X-82362Y190930D01*
X-82330Y190925D01*
X-82290Y190908D01*
X-78354Y190011D01*
X-78322Y190010D01*
X-78280Y190000D01*
X-74254Y189700D01*
X-74222Y189704D01*
G37*
G36*
X-200761Y-56573D02*
X-200761Y-56573D01*
X-200688Y-56568D01*
X-200663Y-56555D01*
X-200637Y-56550D01*
X-200576Y-56509D01*
X-200511Y-56476D01*
X-200494Y-56455D01*
X-200471Y-56440D01*
X-200410Y-56354D01*
X-200385Y-56323D01*
X-200382Y-56313D01*
X-200375Y-56304D01*
X-198624Y-52666D01*
X-198617Y-52635D01*
X-198597Y-52596D01*
X-197408Y-48737D01*
X-197405Y-48706D01*
X-197392Y-48665D01*
X-196791Y-44672D01*
X-196793Y-44640D01*
X-196786Y-44598D01*
X-196787Y-40560D01*
X-196793Y-40529D01*
X-196793Y-40485D01*
X-197396Y-36493D01*
X-197407Y-36463D01*
X-197412Y-36420D01*
X-198604Y-32562D01*
X-198619Y-32534D01*
X-198631Y-32493D01*
X-200384Y-28856D01*
X-200403Y-28830D01*
X-200421Y-28791D01*
X-202697Y-25456D01*
X-202720Y-25434D01*
X-202743Y-25397D01*
X-205491Y-22439D01*
X-205516Y-22420D01*
X-205545Y-22388D01*
X-208703Y-19871D01*
X-208731Y-19857D01*
X-208765Y-19829D01*
X-212262Y-17812D01*
X-212292Y-17802D01*
X-212329Y-17779D01*
X-216088Y-16305D01*
X-216120Y-16300D01*
X-216160Y-16283D01*
X-220096Y-15386D01*
X-220128Y-15385D01*
X-220170Y-15375D01*
X-224197Y-15075D01*
X-224228Y-15079D01*
X-224271Y-15075D01*
X-228297Y-15378D01*
X-228328Y-15386D01*
X-228371Y-15389D01*
X-232307Y-16289D01*
X-232336Y-16302D01*
X-232379Y-16311D01*
X-236137Y-17787D01*
X-236164Y-17804D01*
X-236204Y-17819D01*
X-239700Y-19839D01*
X-239724Y-19860D01*
X-239762Y-19881D01*
X-242918Y-22400D01*
X-242938Y-22424D01*
X-242972Y-22451D01*
X-245718Y-25411D01*
X-245734Y-25439D01*
X-245764Y-25470D01*
X-248038Y-28806D01*
X-248048Y-28832D01*
X-248065Y-28852D01*
X-248086Y-28922D01*
X-248115Y-28990D01*
X-248115Y-29017D01*
X-248122Y-29043D01*
X-248114Y-29116D01*
X-248114Y-29189D01*
X-248103Y-29214D01*
X-248100Y-29241D01*
X-248064Y-29304D01*
X-248036Y-29371D01*
X-248016Y-29390D01*
X-248003Y-29414D01*
X-247922Y-29481D01*
X-247892Y-29509D01*
X-247883Y-29513D01*
X-247875Y-29520D01*
X-201075Y-56520D01*
X-201049Y-56529D01*
X-201026Y-56544D01*
X-200955Y-56560D01*
X-200886Y-56583D01*
X-200859Y-56581D01*
X-200832Y-56587D01*
X-200761Y-56573D01*
G37*
G36*
X-220170Y190000D02*
X-220170Y190000D01*
X-220139Y190009D01*
X-220096Y190011D01*
X-216160Y190908D01*
X-216131Y190922D01*
X-216088Y190930D01*
X-212329Y192404D01*
X-212302Y192422D01*
X-212262Y192437D01*
X-208765Y194454D01*
X-208741Y194475D01*
X-208703Y194496D01*
X-205545Y197013D01*
X-205525Y197037D01*
X-205491Y197064D01*
X-202743Y200022D01*
X-202727Y200050D01*
X-202697Y200081D01*
X-200421Y203416D01*
X-200409Y203445D01*
X-200384Y203481D01*
X-198631Y207118D01*
X-198623Y207149D01*
X-198604Y207187D01*
X-197412Y211045D01*
X-197409Y211077D01*
X-197396Y211118D01*
X-196793Y215110D01*
X-196794Y215142D01*
X-196787Y215185D01*
X-196786Y219223D01*
X-196792Y219254D01*
X-196791Y219297D01*
X-197392Y223290D01*
X-197403Y223320D01*
X-197408Y223362D01*
X-198597Y227221D01*
X-198612Y227249D01*
X-198624Y227291D01*
X-200375Y230929D01*
X-200392Y230951D01*
X-200401Y230976D01*
X-200451Y231029D01*
X-200495Y231087D01*
X-200519Y231101D01*
X-200538Y231121D01*
X-200604Y231150D01*
X-200668Y231186D01*
X-200695Y231190D01*
X-200720Y231201D01*
X-200793Y231201D01*
X-200865Y231210D01*
X-200891Y231203D01*
X-200919Y231203D01*
X-201017Y231166D01*
X-201056Y231155D01*
X-201064Y231149D01*
X-201075Y231145D01*
X-247875Y204145D01*
X-247895Y204127D01*
X-247920Y204116D01*
X-247969Y204062D01*
X-248024Y204013D01*
X-248035Y203989D01*
X-248054Y203969D01*
X-248078Y203900D01*
X-248109Y203834D01*
X-248111Y203807D01*
X-248120Y203781D01*
X-248115Y203708D01*
X-248118Y203635D01*
X-248109Y203610D01*
X-248107Y203583D01*
X-248063Y203487D01*
X-248049Y203449D01*
X-248042Y203442D01*
X-248038Y203431D01*
X-245764Y200095D01*
X-245741Y200072D01*
X-245718Y200036D01*
X-242972Y197076D01*
X-242946Y197057D01*
X-242918Y197025D01*
X-239762Y194506D01*
X-239733Y194492D01*
X-239700Y194464D01*
X-236204Y192444D01*
X-236174Y192434D01*
X-236137Y192412D01*
X-232379Y190936D01*
X-232347Y190930D01*
X-232307Y190914D01*
X-228371Y190014D01*
X-228339Y190013D01*
X-228297Y190003D01*
X-224271Y189700D01*
X-224240Y189704D01*
X-224197Y189700D01*
X-220170Y190000D01*
G37*
G36*
X-299199Y59816D02*
X-299199Y59816D01*
X-299188Y59815D01*
X-295164Y60116D01*
X-295133Y60125D01*
X-295090Y60127D01*
X-291156Y61025D01*
X-291127Y61038D01*
X-291084Y61047D01*
X-287328Y62522D01*
X-287301Y62539D01*
X-287261Y62554D01*
X-283766Y64572D01*
X-283742Y64593D01*
X-283704Y64614D01*
X-280549Y67130D01*
X-280529Y67154D01*
X-280494Y67181D01*
X-277750Y70139D01*
X-277733Y70166D01*
X-277703Y70197D01*
X-275430Y73531D01*
X-275417Y73561D01*
X-275393Y73596D01*
X-273642Y77232D01*
X-273634Y77263D01*
X-273614Y77301D01*
X-272425Y81157D01*
X-272422Y81189D01*
X-272408Y81230D01*
X-271807Y85220D01*
X-271808Y85252D01*
X-271801Y85295D01*
X-271801Y89330D01*
X-271808Y89361D01*
X-271807Y89405D01*
X-272408Y93395D01*
X-272419Y93425D01*
X-272425Y93468D01*
X-273614Y97324D01*
X-273630Y97352D01*
X-273642Y97393D01*
X-275393Y101029D01*
X-275412Y101055D01*
X-275430Y101094D01*
X-277703Y104428D01*
X-277726Y104450D01*
X-277750Y104486D01*
X-280494Y107444D01*
X-280520Y107463D01*
X-280549Y107495D01*
X-283704Y110011D01*
X-283732Y110026D01*
X-283766Y110053D01*
X-287261Y112071D01*
X-287291Y112081D01*
X-287328Y112103D01*
X-291084Y113578D01*
X-291116Y113583D01*
X-291156Y113600D01*
X-295090Y114498D01*
X-295122Y114498D01*
X-295164Y114509D01*
X-299188Y114810D01*
X-299215Y114807D01*
X-299242Y114811D01*
X-299312Y114795D01*
X-299385Y114785D01*
X-299409Y114772D01*
X-299435Y114765D01*
X-299494Y114722D01*
X-299557Y114685D01*
X-299573Y114664D01*
X-299595Y114648D01*
X-299632Y114585D01*
X-299676Y114526D01*
X-299683Y114500D01*
X-299697Y114477D01*
X-299714Y114373D01*
X-299724Y114333D01*
X-299722Y114324D01*
X-299724Y114313D01*
X-299724Y60313D01*
X-299719Y60286D01*
X-299721Y60259D01*
X-299699Y60189D01*
X-299685Y60118D01*
X-299669Y60095D01*
X-299661Y60069D01*
X-299613Y60014D01*
X-299572Y59954D01*
X-299549Y59939D01*
X-299531Y59918D01*
X-299466Y59886D01*
X-299405Y59847D01*
X-299378Y59842D01*
X-299353Y59830D01*
X-299249Y59820D01*
X-299208Y59814D01*
X-299199Y59816D01*
G37*
G36*
X-85723Y58370D02*
X-85723Y58370D01*
X-85624Y58373D01*
X-85565Y58389D01*
X-85505Y58397D01*
X-85413Y58434D01*
X-85318Y58461D01*
X-85266Y58492D01*
X-85210Y58514D01*
X-85130Y58572D01*
X-85044Y58623D01*
X-84969Y58689D01*
X-84952Y58701D01*
X-84945Y58710D01*
X-84923Y58729D01*
X-67365Y76287D01*
X-67304Y76366D01*
X-67236Y76438D01*
X-67207Y76491D01*
X-67170Y76539D01*
X-67131Y76630D01*
X-67083Y76716D01*
X-67068Y76775D01*
X-67044Y76830D01*
X-67028Y76928D01*
X-67003Y77024D01*
X-66997Y77124D01*
X-66994Y77145D01*
X-66995Y77157D01*
X-66993Y77185D01*
X-66993Y134938D01*
X-67008Y135056D01*
X-67016Y135174D01*
X-67028Y135213D01*
X-67033Y135253D01*
X-67077Y135364D01*
X-67114Y135477D01*
X-67135Y135511D01*
X-67150Y135549D01*
X-67220Y135645D01*
X-67284Y135746D01*
X-67313Y135773D01*
X-67337Y135806D01*
X-67429Y135882D01*
X-67515Y135964D01*
X-67551Y135983D01*
X-67582Y136009D01*
X-67690Y136060D01*
X-67794Y136117D01*
X-67833Y136127D01*
X-67870Y136144D01*
X-67986Y136167D01*
X-68102Y136197D01*
X-68162Y136200D01*
X-68182Y136204D01*
X-68202Y136203D01*
X-68263Y136207D01*
X-80963Y136207D01*
X-81081Y136192D01*
X-81199Y136184D01*
X-81238Y136172D01*
X-81278Y136167D01*
X-81389Y136123D01*
X-81502Y136086D01*
X-81536Y136065D01*
X-81574Y136050D01*
X-81670Y135980D01*
X-81771Y135916D01*
X-81798Y135887D01*
X-81831Y135863D01*
X-81907Y135771D01*
X-81989Y135685D01*
X-82008Y135649D01*
X-82034Y135618D01*
X-82085Y135510D01*
X-82142Y135406D01*
X-82152Y135367D01*
X-82169Y135330D01*
X-82192Y135214D01*
X-82222Y135098D01*
X-82225Y135038D01*
X-82229Y135018D01*
X-82228Y134998D01*
X-82232Y134938D01*
X-82232Y76726D01*
X-85379Y73579D01*
X-85439Y73501D01*
X-85507Y73429D01*
X-85536Y73376D01*
X-85573Y73328D01*
X-85613Y73237D01*
X-85661Y73150D01*
X-85676Y73092D01*
X-85700Y73036D01*
X-85715Y72938D01*
X-85740Y72842D01*
X-85745Y72757D01*
X-86643Y71859D01*
X-92075Y71859D01*
X-92193Y71844D01*
X-92312Y71837D01*
X-92350Y71824D01*
X-92391Y71819D01*
X-92501Y71776D01*
X-92614Y71739D01*
X-92649Y71717D01*
X-92686Y71702D01*
X-92782Y71633D01*
X-92883Y71569D01*
X-92911Y71539D01*
X-92944Y71516D01*
X-93020Y71424D01*
X-93101Y71337D01*
X-93121Y71302D01*
X-93146Y71271D01*
X-93197Y71163D01*
X-93255Y71059D01*
X-93265Y71019D01*
X-93282Y70983D01*
X-93304Y70866D01*
X-93334Y70751D01*
X-93338Y70691D01*
X-93342Y70671D01*
X-93340Y70650D01*
X-93344Y70590D01*
X-93344Y59626D01*
X-93329Y59508D01*
X-93322Y59390D01*
X-93309Y59351D01*
X-93304Y59311D01*
X-93261Y59200D01*
X-93224Y59087D01*
X-93202Y59053D01*
X-93187Y59015D01*
X-93118Y58919D01*
X-93054Y58818D01*
X-93024Y58791D01*
X-93001Y58758D01*
X-92909Y58682D01*
X-92822Y58600D01*
X-92787Y58581D01*
X-92756Y58555D01*
X-92648Y58504D01*
X-92544Y58447D01*
X-92504Y58437D01*
X-92468Y58420D01*
X-92351Y58397D01*
X-92236Y58367D01*
X-92176Y58364D01*
X-92156Y58360D01*
X-92135Y58361D01*
X-92075Y58357D01*
X-85821Y58357D01*
X-85723Y58370D01*
G37*
%LPC*%
G36*
X157701Y96325D02*
X157701Y96325D01*
X155762Y97128D01*
X154278Y98612D01*
X153756Y99872D01*
X153744Y99893D01*
X153738Y99914D01*
X153735Y99917D01*
X153733Y99926D01*
X153663Y100036D01*
X153599Y100148D01*
X153578Y100170D01*
X153562Y100195D01*
X153468Y100284D01*
X153378Y100377D01*
X153352Y100392D01*
X153331Y100413D01*
X153217Y100475D01*
X153106Y100543D01*
X153078Y100552D01*
X153052Y100566D01*
X152927Y100599D01*
X152802Y100637D01*
X152773Y100638D01*
X152744Y100646D01*
X152584Y100656D01*
X151169Y100656D01*
X151051Y100641D01*
X150932Y100633D01*
X150894Y100621D01*
X150853Y100616D01*
X150743Y100572D01*
X150630Y100535D01*
X150595Y100514D01*
X150558Y100499D01*
X150462Y100429D01*
X150361Y100365D01*
X150333Y100336D01*
X150300Y100312D01*
X150224Y100220D01*
X150143Y100134D01*
X150123Y100098D01*
X150098Y100067D01*
X150047Y99959D01*
X149989Y99855D01*
X149979Y99816D01*
X149962Y99779D01*
X149940Y99663D01*
X149910Y99547D01*
X149906Y99487D01*
X149902Y99467D01*
X149903Y99458D01*
X149902Y99455D01*
X149903Y99441D01*
X149900Y99387D01*
X149900Y98581D01*
X149007Y97688D01*
X136743Y97688D01*
X135850Y98581D01*
X135850Y109844D01*
X136743Y110737D01*
X149007Y110737D01*
X149559Y110185D01*
X149668Y110100D01*
X149775Y110011D01*
X149794Y110003D01*
X149810Y109990D01*
X149938Y109935D01*
X150063Y109876D01*
X150083Y109872D01*
X150102Y109864D01*
X150240Y109842D01*
X150376Y109816D01*
X150396Y109817D01*
X150416Y109814D01*
X150555Y109827D01*
X150693Y109836D01*
X150712Y109842D01*
X150732Y109844D01*
X150864Y109891D01*
X150995Y109934D01*
X151013Y109945D01*
X151032Y109952D01*
X151147Y110030D01*
X151264Y110104D01*
X151278Y110119D01*
X151295Y110130D01*
X151387Y110234D01*
X151482Y110336D01*
X151492Y110353D01*
X151505Y110369D01*
X151568Y110492D01*
X151636Y110614D01*
X151641Y110634D01*
X151650Y110652D01*
X151680Y110787D01*
X151715Y110922D01*
X151717Y110950D01*
X151720Y110962D01*
X151719Y110983D01*
X151725Y111083D01*
X151725Y114342D01*
X151708Y114480D01*
X151695Y114619D01*
X151688Y114638D01*
X151685Y114658D01*
X151634Y114787D01*
X151587Y114918D01*
X151576Y114935D01*
X151568Y114953D01*
X151487Y115066D01*
X151409Y115181D01*
X151393Y115194D01*
X151382Y115211D01*
X151274Y115300D01*
X151170Y115391D01*
X151152Y115401D01*
X151137Y115414D01*
X151011Y115473D01*
X150887Y115536D01*
X150867Y115541D01*
X150849Y115549D01*
X150712Y115575D01*
X150577Y115606D01*
X150556Y115605D01*
X150537Y115609D01*
X150398Y115600D01*
X150259Y115596D01*
X150239Y115590D01*
X150219Y115589D01*
X150087Y115546D01*
X149953Y115508D01*
X149936Y115497D01*
X149917Y115491D01*
X149799Y115417D01*
X149679Y115346D01*
X149658Y115328D01*
X149648Y115321D01*
X149634Y115306D01*
X149559Y115240D01*
X149007Y114688D01*
X136743Y114688D01*
X135850Y115581D01*
X135850Y120061D01*
X135838Y120159D01*
X135835Y120258D01*
X135818Y120317D01*
X135810Y120377D01*
X135774Y120469D01*
X135746Y120564D01*
X135716Y120616D01*
X135693Y120672D01*
X135635Y120752D01*
X135585Y120838D01*
X135519Y120913D01*
X135507Y120930D01*
X135497Y120937D01*
X135479Y120959D01*
X134330Y122107D01*
X134329Y122123D01*
X134313Y122181D01*
X134305Y122241D01*
X134269Y122333D01*
X134241Y122428D01*
X134210Y122481D01*
X134188Y122537D01*
X134130Y122617D01*
X134080Y122702D01*
X134013Y122778D01*
X134001Y122794D01*
X133992Y122802D01*
X133973Y122823D01*
X131703Y125094D01*
X131624Y125154D01*
X131552Y125222D01*
X131499Y125251D01*
X131451Y125289D01*
X131360Y125328D01*
X131274Y125376D01*
X131215Y125391D01*
X131160Y125415D01*
X131062Y125430D01*
X130987Y125450D01*
X129186Y127251D01*
X129186Y133003D01*
X129173Y133101D01*
X129170Y133200D01*
X129154Y133258D01*
X129146Y133318D01*
X129110Y133410D01*
X129082Y133505D01*
X129051Y133558D01*
X129029Y133614D01*
X128971Y133694D01*
X128920Y133779D01*
X128854Y133854D01*
X128842Y133871D01*
X128833Y133879D01*
X128814Y133900D01*
X127960Y134754D01*
X127960Y138296D01*
X130464Y140800D01*
X134005Y140800D01*
X136509Y138296D01*
X136509Y136054D01*
X136524Y135936D01*
X136532Y135818D01*
X136544Y135779D01*
X136549Y135739D01*
X136593Y135628D01*
X136630Y135515D01*
X136651Y135481D01*
X136666Y135443D01*
X136736Y135347D01*
X136800Y135246D01*
X136829Y135219D01*
X136853Y135186D01*
X136945Y135110D01*
X137031Y135028D01*
X137067Y135009D01*
X137098Y134983D01*
X137206Y134932D01*
X137310Y134875D01*
X137349Y134865D01*
X137386Y134848D01*
X137502Y134825D01*
X137618Y134795D01*
X137678Y134792D01*
X137698Y134788D01*
X137718Y134789D01*
X137778Y134785D01*
X139883Y134785D01*
X140737Y133931D01*
X140816Y133870D01*
X140888Y133802D01*
X140941Y133773D01*
X140989Y133736D01*
X141080Y133697D01*
X141166Y133649D01*
X141225Y133634D01*
X141281Y133610D01*
X141378Y133594D01*
X141474Y133569D01*
X141574Y133563D01*
X141595Y133560D01*
X141607Y133561D01*
X141635Y133559D01*
X151565Y133559D01*
X151663Y133572D01*
X151762Y133575D01*
X151820Y133591D01*
X151880Y133599D01*
X151972Y133636D01*
X152067Y133663D01*
X152120Y133694D01*
X152176Y133716D01*
X152256Y133774D01*
X152341Y133825D01*
X152417Y133891D01*
X152433Y133903D01*
X152441Y133912D01*
X152462Y133931D01*
X152618Y134087D01*
X164882Y134087D01*
X165775Y133194D01*
X165775Y121931D01*
X164882Y121038D01*
X152618Y121038D01*
X152066Y121590D01*
X151957Y121675D01*
X151850Y121764D01*
X151831Y121772D01*
X151815Y121785D01*
X151687Y121840D01*
X151562Y121899D01*
X151542Y121903D01*
X151523Y121911D01*
X151385Y121933D01*
X151249Y121959D01*
X151229Y121958D01*
X151209Y121961D01*
X151070Y121948D01*
X150932Y121939D01*
X150913Y121933D01*
X150893Y121931D01*
X150761Y121884D01*
X150630Y121841D01*
X150612Y121830D01*
X150593Y121823D01*
X150478Y121745D01*
X150361Y121671D01*
X150347Y121656D01*
X150330Y121645D01*
X150238Y121541D01*
X150143Y121439D01*
X150133Y121422D01*
X150120Y121406D01*
X150057Y121283D01*
X149989Y121161D01*
X149984Y121141D01*
X149975Y121123D01*
X149945Y120987D01*
X149910Y120853D01*
X149908Y120825D01*
X149905Y120813D01*
X149906Y120792D01*
X149900Y120692D01*
X149900Y117433D01*
X149917Y117295D01*
X149930Y117156D01*
X149937Y117137D01*
X149940Y117117D01*
X149991Y116988D01*
X150038Y116857D01*
X150049Y116840D01*
X150057Y116822D01*
X150138Y116709D01*
X150216Y116594D01*
X150232Y116581D01*
X150243Y116564D01*
X150351Y116475D01*
X150455Y116384D01*
X150473Y116374D01*
X150488Y116361D01*
X150614Y116302D01*
X150738Y116239D01*
X150758Y116234D01*
X150776Y116226D01*
X150913Y116200D01*
X151048Y116169D01*
X151069Y116170D01*
X151088Y116166D01*
X151227Y116175D01*
X151366Y116179D01*
X151386Y116185D01*
X151406Y116186D01*
X151538Y116229D01*
X151672Y116267D01*
X151689Y116278D01*
X151708Y116284D01*
X151826Y116358D01*
X151946Y116429D01*
X151967Y116447D01*
X151977Y116454D01*
X151991Y116469D01*
X152066Y116535D01*
X152618Y117087D01*
X164882Y117087D01*
X165775Y116194D01*
X165775Y104931D01*
X164764Y103921D01*
X164755Y103917D01*
X164720Y103896D01*
X164683Y103881D01*
X164587Y103811D01*
X164486Y103747D01*
X164458Y103718D01*
X164425Y103694D01*
X164349Y103602D01*
X164268Y103516D01*
X164248Y103480D01*
X164223Y103449D01*
X164172Y103341D01*
X164114Y103237D01*
X164104Y103198D01*
X164087Y103161D01*
X164065Y103045D01*
X164035Y102929D01*
X164031Y102869D01*
X164027Y102849D01*
X164029Y102829D01*
X164025Y102769D01*
X164025Y100551D01*
X163222Y98612D01*
X161738Y97128D01*
X159799Y96325D01*
X157701Y96325D01*
G37*
%LPD*%
%LPC*%
G36*
X84676Y104263D02*
X84676Y104263D01*
X82737Y105066D01*
X81253Y106550D01*
X80450Y108488D01*
X80450Y110587D01*
X81253Y112525D01*
X82737Y114009D01*
X84676Y114812D01*
X84726Y114812D01*
X84824Y114825D01*
X84923Y114828D01*
X84981Y114844D01*
X85041Y114852D01*
X85133Y114889D01*
X85228Y114916D01*
X85280Y114947D01*
X85337Y114969D01*
X85417Y115027D01*
X85502Y115078D01*
X85578Y115144D01*
X85594Y115156D01*
X85602Y115165D01*
X85623Y115184D01*
X90814Y120374D01*
X90874Y120453D01*
X90942Y120525D01*
X90971Y120578D01*
X91008Y120626D01*
X91048Y120717D01*
X91096Y120803D01*
X91111Y120862D01*
X91135Y120918D01*
X91150Y121016D01*
X91175Y121111D01*
X91181Y121211D01*
X91185Y121232D01*
X91183Y121244D01*
X91185Y121272D01*
X91185Y132728D01*
X91173Y132826D01*
X91170Y132925D01*
X91153Y132984D01*
X91145Y133044D01*
X91109Y133136D01*
X91081Y133231D01*
X91051Y133283D01*
X91028Y133339D01*
X90970Y133419D01*
X90920Y133505D01*
X90854Y133580D01*
X90842Y133597D01*
X90832Y133604D01*
X90814Y133626D01*
X88454Y135986D01*
X88375Y136046D01*
X88303Y136114D01*
X88250Y136143D01*
X88202Y136180D01*
X88111Y136220D01*
X88025Y136268D01*
X87966Y136283D01*
X87910Y136307D01*
X87812Y136322D01*
X87717Y136347D01*
X87617Y136353D01*
X87596Y136357D01*
X87584Y136355D01*
X87556Y136357D01*
X80121Y136357D01*
X80022Y136345D01*
X79923Y136342D01*
X79865Y136325D01*
X79805Y136317D01*
X79713Y136281D01*
X79618Y136253D01*
X79566Y136223D01*
X79509Y136200D01*
X79429Y136142D01*
X79344Y136092D01*
X79269Y136026D01*
X79252Y136014D01*
X79244Y136004D01*
X79223Y135985D01*
X79188Y135950D01*
X77249Y135147D01*
X75151Y135147D01*
X73212Y135950D01*
X71728Y137434D01*
X70925Y139373D01*
X70925Y141471D01*
X71728Y143410D01*
X73212Y144894D01*
X75151Y145697D01*
X77249Y145697D01*
X79188Y144894D01*
X79223Y144859D01*
X79301Y144798D01*
X79373Y144730D01*
X79427Y144701D01*
X79474Y144664D01*
X79565Y144624D01*
X79652Y144576D01*
X79711Y144561D01*
X79766Y144537D01*
X79864Y144522D01*
X79960Y144497D01*
X80060Y144491D01*
X80080Y144487D01*
X80092Y144489D01*
X80121Y144487D01*
X91449Y144487D01*
X99315Y136621D01*
X99315Y117379D01*
X91371Y109436D01*
X91311Y109357D01*
X91243Y109285D01*
X91214Y109232D01*
X91177Y109184D01*
X91137Y109093D01*
X91089Y109007D01*
X91074Y108948D01*
X91050Y108892D01*
X91035Y108794D01*
X91010Y108699D01*
X91004Y108599D01*
X91000Y108578D01*
X91002Y108566D01*
X91000Y108538D01*
X91000Y108488D01*
X90197Y106550D01*
X88713Y105066D01*
X86774Y104263D01*
X84676Y104263D01*
G37*
%LPD*%
G36*
X200345Y-30379D02*
X200345Y-30379D01*
X200477Y-30379D01*
X200504Y-30372D01*
X200531Y-30371D01*
X200657Y-30332D01*
X200785Y-30299D01*
X200820Y-30282D01*
X200835Y-30277D01*
X200854Y-30266D01*
X200930Y-30230D01*
X211185Y-24533D01*
X211281Y-24462D01*
X211381Y-24398D01*
X211409Y-24369D01*
X211441Y-24345D01*
X211517Y-24252D01*
X211598Y-24165D01*
X211617Y-24130D01*
X211643Y-24099D01*
X211693Y-23991D01*
X211750Y-23886D01*
X211760Y-23847D01*
X211777Y-23810D01*
X211799Y-23693D01*
X211828Y-23578D01*
X211828Y-23537D01*
X211835Y-23498D01*
X211828Y-23379D01*
X211827Y-23260D01*
X211817Y-23221D01*
X211814Y-23180D01*
X211777Y-23068D01*
X211747Y-22952D01*
X211721Y-22898D01*
X211715Y-22878D01*
X211704Y-22861D01*
X211678Y-22807D01*
X196961Y3683D01*
X196871Y3806D01*
X196784Y3929D01*
X196778Y3934D01*
X196773Y3940D01*
X196656Y4036D01*
X196540Y4133D01*
X196533Y4137D01*
X196527Y4142D01*
X196390Y4206D01*
X196253Y4271D01*
X196246Y4273D01*
X196239Y4276D01*
X196089Y4304D01*
X195941Y4333D01*
X195934Y4333D01*
X195926Y4334D01*
X195776Y4324D01*
X195624Y4316D01*
X195616Y4313D01*
X195609Y4313D01*
X195466Y4266D01*
X195321Y4220D01*
X195312Y4215D01*
X195307Y4213D01*
X195297Y4207D01*
X195179Y4143D01*
X185728Y-1764D01*
X185671Y-1810D01*
X185608Y-1849D01*
X185548Y-1910D01*
X185481Y-1965D01*
X185438Y-2024D01*
X185386Y-2077D01*
X185344Y-2152D01*
X185293Y-2221D01*
X185265Y-2289D01*
X185228Y-2353D01*
X185206Y-2436D01*
X185174Y-2515D01*
X185164Y-2589D01*
X185144Y-2660D01*
X185143Y-2745D01*
X185131Y-2831D01*
X185140Y-2904D01*
X185139Y-2978D01*
X185159Y-3061D01*
X185169Y-3146D01*
X185196Y-3215D01*
X185213Y-3287D01*
X185279Y-3434D01*
X199192Y-29714D01*
X199268Y-29822D01*
X199339Y-29933D01*
X199359Y-29952D01*
X199375Y-29974D01*
X199475Y-30060D01*
X199571Y-30150D01*
X199596Y-30163D01*
X199617Y-30181D01*
X199734Y-30239D01*
X199851Y-30302D01*
X199877Y-30309D01*
X199902Y-30321D01*
X200031Y-30348D01*
X200159Y-30380D01*
X200187Y-30380D01*
X200213Y-30385D01*
X200345Y-30379D01*
G37*
G36*
X179650Y6603D02*
X179650Y6603D01*
X179680Y6600D01*
X179807Y6622D01*
X179936Y6637D01*
X179964Y6648D01*
X179994Y6653D01*
X180145Y6709D01*
X191451Y11734D01*
X191501Y11764D01*
X191556Y11786D01*
X191637Y11846D01*
X191723Y11898D01*
X191764Y11940D01*
X191811Y11975D01*
X191875Y12053D01*
X191946Y12125D01*
X191975Y12176D01*
X192012Y12222D01*
X192054Y12313D01*
X192105Y12400D01*
X192121Y12457D01*
X192145Y12511D01*
X192163Y12610D01*
X192191Y12707D01*
X192192Y12766D01*
X192202Y12824D01*
X192195Y12924D01*
X192198Y13025D01*
X192184Y13082D01*
X192180Y13141D01*
X192148Y13236D01*
X192125Y13334D01*
X192098Y13387D01*
X192080Y13442D01*
X192001Y13583D01*
X176787Y37096D01*
X176739Y37152D01*
X176700Y37214D01*
X176637Y37273D01*
X176582Y37339D01*
X176522Y37382D01*
X176468Y37432D01*
X176393Y37474D01*
X176323Y37523D01*
X176254Y37550D01*
X176190Y37586D01*
X176106Y37607D01*
X176026Y37638D01*
X175953Y37647D01*
X175882Y37665D01*
X175721Y37675D01*
X175276Y37675D01*
X175178Y37663D01*
X175079Y37660D01*
X175021Y37643D01*
X171312Y37643D01*
X171213Y37631D01*
X171114Y37628D01*
X171056Y37611D01*
X170996Y37603D01*
X170904Y37567D01*
X170809Y37539D01*
X170757Y37509D01*
X170700Y37486D01*
X170620Y37428D01*
X170535Y37378D01*
X170459Y37312D01*
X170443Y37300D01*
X170435Y37290D01*
X170414Y37272D01*
X164569Y31426D01*
X164486Y31320D01*
X164400Y31217D01*
X164389Y31195D01*
X164374Y31175D01*
X164321Y31052D01*
X164262Y30931D01*
X164257Y30906D01*
X164248Y30883D01*
X164226Y30750D01*
X164200Y30619D01*
X164202Y30594D01*
X164198Y30569D01*
X164210Y30435D01*
X164218Y30301D01*
X164225Y30277D01*
X164228Y30253D01*
X164273Y30126D01*
X164314Y29998D01*
X164330Y29967D01*
X164335Y29953D01*
X164347Y29935D01*
X164390Y29856D01*
X178553Y7196D01*
X178572Y7172D01*
X178586Y7146D01*
X178672Y7050D01*
X178754Y6949D01*
X178778Y6931D01*
X178798Y6909D01*
X178906Y6837D01*
X179010Y6761D01*
X179038Y6749D01*
X179063Y6733D01*
X179185Y6690D01*
X179305Y6641D01*
X179335Y6637D01*
X179363Y6627D01*
X179492Y6616D01*
X179620Y6599D01*
X179650Y6603D01*
G37*
G36*
X-56476Y34056D02*
X-56476Y34056D01*
X-56375Y34061D01*
X-56304Y34082D01*
X-56230Y34093D01*
X-56137Y34130D01*
X-56040Y34158D01*
X-55975Y34194D01*
X-55906Y34222D01*
X-55824Y34279D01*
X-55736Y34328D01*
X-55660Y34393D01*
X-55620Y34421D01*
X-55596Y34447D01*
X-55550Y34487D01*
X-54295Y35742D01*
X-54216Y35841D01*
X-54132Y35935D01*
X-54108Y35977D01*
X-54078Y36015D01*
X-54024Y36129D01*
X-53963Y36240D01*
X-53950Y36286D01*
X-53929Y36330D01*
X-53903Y36453D01*
X-53868Y36575D01*
X-53863Y36636D01*
X-53856Y36671D01*
X-53857Y36719D01*
X-53849Y36819D01*
X-53849Y59182D01*
X-53852Y59208D01*
X-53850Y59234D01*
X-53872Y59381D01*
X-53889Y59528D01*
X-53897Y59553D01*
X-53901Y59579D01*
X-53956Y59717D01*
X-54006Y59856D01*
X-54020Y59878D01*
X-54030Y59903D01*
X-54115Y60024D01*
X-54195Y60149D01*
X-54214Y60167D01*
X-54229Y60189D01*
X-54339Y60288D01*
X-54446Y60391D01*
X-54468Y60405D01*
X-54488Y60422D01*
X-54618Y60494D01*
X-54745Y60570D01*
X-54770Y60578D01*
X-54793Y60591D01*
X-54936Y60631D01*
X-55077Y60676D01*
X-55103Y60678D01*
X-55128Y60686D01*
X-55372Y60705D01*
X-56627Y60705D01*
X-56653Y60702D01*
X-56679Y60704D01*
X-56826Y60682D01*
X-56973Y60665D01*
X-56998Y60657D01*
X-57024Y60653D01*
X-57162Y60598D01*
X-57301Y60548D01*
X-57323Y60534D01*
X-57348Y60524D01*
X-57469Y60439D01*
X-57594Y60359D01*
X-57612Y60340D01*
X-57634Y60325D01*
X-57733Y60215D01*
X-57836Y60108D01*
X-57850Y60086D01*
X-57867Y60066D01*
X-57939Y59936D01*
X-58015Y59809D01*
X-58023Y59784D01*
X-58036Y59761D01*
X-58076Y59618D01*
X-58121Y59477D01*
X-58124Y59451D01*
X-58131Y59426D01*
X-58150Y59182D01*
X-58150Y56993D01*
X-59043Y56100D01*
X-67545Y56100D01*
X-67670Y56086D01*
X-67797Y56079D01*
X-67843Y56066D01*
X-67891Y56060D01*
X-68010Y56018D01*
X-68131Y55983D01*
X-68174Y55959D01*
X-68219Y55943D01*
X-68325Y55874D01*
X-68436Y55813D01*
X-68482Y55773D01*
X-68512Y55754D01*
X-68545Y55719D01*
X-68622Y55654D01*
X-76368Y47908D01*
X-76384Y47888D01*
X-76404Y47871D01*
X-76492Y47751D01*
X-76584Y47635D01*
X-76595Y47612D01*
X-76611Y47591D01*
X-76670Y47454D01*
X-76733Y47320D01*
X-76739Y47295D01*
X-76749Y47270D01*
X-76775Y47124D01*
X-76806Y46980D01*
X-76806Y46953D01*
X-76811Y46927D01*
X-76803Y46779D01*
X-76801Y46631D01*
X-76794Y46606D01*
X-76793Y46579D01*
X-76752Y46437D01*
X-76716Y46293D01*
X-76704Y46270D01*
X-76696Y46245D01*
X-76624Y46115D01*
X-76556Y45983D01*
X-76539Y45963D01*
X-76526Y45940D01*
X-76368Y45754D01*
X-70209Y39596D01*
X-70110Y39517D01*
X-70016Y39433D01*
X-69974Y39409D01*
X-69936Y39379D01*
X-69822Y39325D01*
X-69711Y39264D01*
X-69665Y39251D01*
X-69621Y39230D01*
X-69498Y39204D01*
X-69376Y39169D01*
X-69315Y39165D01*
X-69281Y39157D01*
X-69233Y39158D01*
X-69132Y39150D01*
X-59043Y39150D01*
X-58150Y38257D01*
X-58150Y35564D01*
X-58139Y35464D01*
X-58137Y35364D01*
X-58119Y35291D01*
X-58110Y35217D01*
X-58077Y35123D01*
X-58052Y35026D01*
X-58018Y34959D01*
X-57993Y34889D01*
X-57938Y34805D01*
X-57892Y34716D01*
X-57844Y34659D01*
X-57804Y34597D01*
X-57732Y34527D01*
X-57667Y34450D01*
X-57607Y34406D01*
X-57553Y34354D01*
X-57467Y34303D01*
X-57386Y34243D01*
X-57318Y34214D01*
X-57254Y34176D01*
X-57158Y34145D01*
X-57066Y34105D01*
X-56993Y34092D01*
X-56922Y34069D01*
X-56822Y34061D01*
X-56723Y34043D01*
X-56649Y34047D01*
X-56575Y34041D01*
X-56476Y34056D01*
G37*
%LPC*%
G36*
X-193519Y10438D02*
X-193519Y10438D01*
X-194823Y11742D01*
X-194922Y11820D01*
X-195016Y11905D01*
X-195058Y11928D01*
X-195096Y11958D01*
X-195210Y12012D01*
X-195321Y12073D01*
X-195367Y12087D01*
X-195411Y12107D01*
X-195534Y12134D01*
X-195656Y12168D01*
X-195717Y12173D01*
X-195752Y12181D01*
X-195800Y12180D01*
X-195900Y12188D01*
X-197899Y12188D01*
X-199838Y12991D01*
X-201322Y14475D01*
X-202125Y16413D01*
X-202125Y18512D01*
X-201322Y20450D01*
X-199838Y21934D01*
X-197899Y22737D01*
X-195900Y22737D01*
X-195774Y22752D01*
X-195648Y22758D01*
X-195602Y22772D01*
X-195554Y22777D01*
X-195435Y22820D01*
X-195313Y22855D01*
X-195271Y22878D01*
X-195226Y22895D01*
X-195119Y22963D01*
X-195009Y23025D01*
X-194963Y23064D01*
X-194933Y23084D01*
X-194899Y23118D01*
X-194823Y23183D01*
X-193519Y24487D01*
X-182256Y24487D01*
X-181363Y23594D01*
X-181363Y11331D01*
X-182256Y10438D01*
X-193519Y10438D01*
G37*
%LPD*%
%LPC*%
G36*
X254091Y62325D02*
X254091Y62325D01*
X251325Y63471D01*
X249208Y65588D01*
X248063Y68353D01*
X248063Y71347D01*
X249208Y74112D01*
X251325Y76229D01*
X254091Y77375D01*
X257084Y77375D01*
X259850Y76229D01*
X261967Y74112D01*
X263112Y71347D01*
X263112Y68353D01*
X261967Y65588D01*
X259850Y63471D01*
X257084Y62325D01*
X254091Y62325D01*
G37*
%LPD*%
%LPC*%
G36*
X-274099Y36000D02*
X-274099Y36000D01*
X-276038Y36803D01*
X-277522Y38287D01*
X-278325Y40226D01*
X-278325Y42324D01*
X-277522Y44263D01*
X-276038Y45747D01*
X-274099Y46550D01*
X-272001Y46550D01*
X-270062Y45747D01*
X-268578Y44263D01*
X-267775Y42324D01*
X-267775Y40226D01*
X-268578Y38287D01*
X-270062Y36803D01*
X-272001Y36000D01*
X-274099Y36000D01*
G37*
%LPD*%
D10*
X-66675Y35625D03*
X-66675Y47625D03*
X-66675Y59625D03*
D11*
X-193675Y90488D03*
D12*
X-152400Y125975D03*
X-152400Y108975D03*
D13*
X-170888Y17463D03*
X-187888Y17463D03*
D12*
X-57150Y132788D03*
X-57150Y149788D03*
X-75175Y76200D03*
X-58175Y76200D03*
X-75175Y87313D03*
X-58175Y87313D03*
D13*
X-176213Y65650D03*
X-176213Y48650D03*
D14*
X-74588Y101600D03*
X-55588Y101600D03*
X-74588Y119063D03*
X-55588Y119063D03*
D15*
X-188913Y66650D03*
X-188913Y47650D03*
D16*
X-193675Y166688D03*
X-193675Y141288D03*
X-193675Y115888D03*
D17*
X-90025Y84657D03*
X-90025Y79656D03*
X-90025Y74654D03*
X-90025Y69653D03*
X-90025Y64652D03*
X-90025Y59651D03*
X-90025Y54649D03*
X-90025Y49648D03*
X-90025Y44647D03*
X-90025Y39646D03*
X-90025Y34644D03*
X-90025Y29643D03*
D18*
X-96318Y23350D03*
X-101319Y23350D03*
X-106321Y23350D03*
X-111322Y23350D03*
X-116323Y23350D03*
X-121324Y23350D03*
X-126326Y23350D03*
X-131327Y23350D03*
X-136328Y23350D03*
X-141329Y23350D03*
X-146331Y23350D03*
X-151332Y23350D03*
D17*
X-157625Y29643D03*
X-157625Y34644D03*
X-157625Y39646D03*
X-157625Y44647D03*
X-157625Y49648D03*
X-157625Y54649D03*
X-157625Y59651D03*
X-157625Y64652D03*
X-157625Y69653D03*
X-157625Y74654D03*
X-157625Y79656D03*
X-157625Y84657D03*
D18*
X-151332Y90950D03*
X-146331Y90950D03*
X-141329Y90950D03*
X-136328Y90950D03*
X-131327Y90950D03*
X-126326Y90950D03*
X-121324Y90950D03*
X-116323Y90950D03*
X-111322Y90950D03*
X-106321Y90950D03*
X-101319Y90950D03*
X-96318Y90950D03*
D19*
X-123825Y57150D03*
D20*
G36*
X211925Y-22441D02*
X200755Y-28891D01*
X194305Y-17721D01*
X205475Y-11271D01*
X211925Y-22441D01*
G37*
D21*
X220435Y-10081D03*
D14*
G36*
X196270Y5120D02*
X202770Y-6138D01*
X189780Y-13638D01*
X183280Y-2380D01*
X196270Y5120D01*
G37*
G36*
X186770Y21575D02*
X193270Y10317D01*
X180280Y2817D01*
X173780Y14075D01*
X186770Y21575D01*
G37*
D22*
X173245Y34700D03*
X173245Y41200D03*
X173245Y47700D03*
X173245Y54200D03*
X201405Y54200D03*
X201405Y47700D03*
X201405Y41200D03*
X201405Y34700D03*
D12*
X158750Y127563D03*
X158750Y110563D03*
X141288Y41838D03*
X141288Y24838D03*
D13*
X157725Y58738D03*
X140725Y58738D03*
D12*
X164519Y-18606D03*
X164519Y-1606D03*
X107950Y25963D03*
X107950Y8963D03*
D13*
X157163Y24838D03*
X157163Y41838D03*
D12*
X214894Y11556D03*
X214894Y28556D03*
X92075Y8963D03*
X92075Y25963D03*
X142875Y104213D03*
X142875Y121213D03*
D23*
X-149225Y252513D03*
X1495Y164833D03*
X1495Y9793D03*
X-149225Y-77888D03*
X-220725Y211213D03*
X-77725Y211213D03*
X-77725Y-36588D03*
X-220725Y-36588D03*
X150775Y252513D03*
X293875Y169913D03*
X293875Y4713D03*
X150775Y-77888D03*
X-292292Y169913D03*
X-292292Y4713D03*
X-292325Y87313D03*
D24*
X223275Y59813D03*
D25*
X223275Y74813D03*
X223275Y99813D03*
X223275Y114813D03*
X236775Y118813D03*
X236775Y103813D03*
X236775Y70813D03*
X236775Y55813D03*
D26*
X239075Y44113D02*
X227075Y44113D01*
X227075Y130513D02*
X239075Y130513D01*
X260875Y130513D02*
X272875Y130513D01*
X272875Y44113D02*
X260875Y44113D01*
D27*
X92345Y-35506D03*
X114342Y-48206D03*
D12*
X-120650Y105800D03*
X-120650Y122800D03*
D28*
X255588Y104850D03*
D29*
X255588Y69850D03*
D30*
X-206375Y44563D03*
X-206375Y66563D03*
D31*
X-50800Y14288D03*
X-112713Y68263D03*
X-138113Y68263D03*
X-136525Y42863D03*
X-109538Y44450D03*
X-220663Y19050D03*
X-201613Y47625D03*
X-241300Y36513D03*
X-165100Y138113D03*
X-141288Y169863D03*
X-98425Y111125D03*
X-176213Y-42863D03*
X-180975Y-34925D03*
X-196850Y-20638D03*
X-201613Y-12700D03*
X28575Y11113D03*
X44450Y4763D03*
X12700Y60325D03*
X12700Y41275D03*
D32*
X-63500Y42863D03*
X-63500Y52388D03*
D31*
X-36513Y47625D03*
X-20638Y57150D03*
X-30163Y138113D03*
X-30163Y114300D03*
X-1588Y96838D03*
X14288Y96838D03*
X-241300Y155575D03*
X-255588Y142875D03*
X-107950Y146050D03*
X-219075Y142875D03*
X-219075Y101600D03*
D32*
X-77788Y131763D03*
X-71438Y131763D03*
X153988Y-1951D03*
X131763Y120650D03*
X125413Y120650D03*
X117475Y120650D03*
D31*
X157163Y138113D03*
X149225Y138113D03*
X141288Y138113D03*
X157163Y146050D03*
X149225Y146050D03*
X141288Y146050D03*
D32*
X123825Y136525D03*
X125413Y142875D03*
D31*
X107950Y171450D03*
X117475Y171450D03*
X84138Y122238D03*
X76200Y122238D03*
X68263Y122238D03*
X84138Y130175D03*
X76200Y130175D03*
X68263Y130175D03*
X58738Y114300D03*
X68263Y114300D03*
X58738Y104775D03*
X68263Y104775D03*
X68263Y95250D03*
X58738Y95250D03*
X265113Y17463D03*
X111125Y-34925D03*
X173038Y-26988D03*
X63500Y-3175D03*
X96838Y188913D03*
X149225Y225425D03*
X214313Y185738D03*
X146050Y185738D03*
X152400Y-44450D03*
X249238Y26988D03*
X241300Y166688D03*
X207963Y166688D03*
X173038Y166688D03*
X188913Y147638D03*
X169863Y185738D03*
X76200Y180975D03*
X193675Y115888D03*
D33*
X-187888Y17463D02*
X-196850Y17463D01*
D31*
X-196850Y17463D03*
D34*
X-90025Y39646D02*
X-84096Y39646D01*
D33*
X-82550Y38100D01*
D32*
X-82550Y38100D03*
D34*
X-157625Y84657D02*
X-157625Y101993D01*
D35*
X-193675Y138043D02*
X-193675Y141288D01*
X-159579Y103946D02*
X-157625Y101993D01*
X-159579Y103946D02*
X-193675Y138043D01*
X-193675Y141288D02*
X-193675Y166688D01*
X-152400Y108975D02*
X-157429Y103946D01*
X-159579Y103946D01*
D34*
X-90025Y44647D02*
X-79572Y44647D01*
D33*
X-70550Y35625D02*
X-66675Y35625D01*
X-70550Y35625D02*
X-79572Y44647D01*
X-78940Y49648D02*
X-90025Y49648D01*
X-68963Y59625D02*
X-66675Y59625D01*
X-68963Y59625D02*
X-78940Y49648D01*
D34*
X-157625Y79656D02*
X-163794Y79656D01*
X-166688Y82550D01*
D35*
X-166688Y88900D01*
X-193675Y115888D01*
D31*
X-190693Y-36320D03*
D34*
X-141329Y18341D02*
X-141329Y23350D01*
X-141329Y18341D02*
X-190693Y-31023D01*
D33*
X-190693Y-36320D01*
D34*
X-146331Y19805D02*
X-146331Y23350D01*
X-146331Y19805D02*
X-202723Y-36588D01*
D33*
X-220725Y-36588D01*
D34*
X-96318Y23350D02*
X-62375Y23350D01*
D33*
X-50800Y68263D02*
X-46038Y73025D01*
X-50800Y68263D02*
X-50800Y34925D01*
D31*
X-46038Y73025D03*
D33*
X-50800Y34925D02*
X-62375Y23350D01*
D34*
X-101319Y23350D02*
X-101319Y18769D01*
X-98425Y15875D01*
D31*
X-42863Y63500D03*
D33*
X-44641Y61722D01*
X-44641Y34619D01*
X-63384Y15875D02*
X-98425Y15875D01*
X-63384Y15875D02*
X-44641Y34619D01*
D31*
X-49239Y193815D03*
D33*
X-64243Y208819D01*
X-68389Y211213D01*
X-77725Y211213D01*
D34*
X-131327Y131989D02*
X-131327Y90950D01*
D33*
X-131327Y131989D02*
X-197073Y197735D01*
D31*
X-197073Y197735D03*
D33*
X-220725Y211213D02*
X-136328Y126816D01*
D34*
X-136328Y90950D01*
D33*
X-242099Y87313D02*
X-292325Y87313D01*
X-242099Y87313D02*
X-231387Y76600D01*
X-180552Y76600D01*
X-178150Y74198D01*
X-169950Y74198D02*
X-168165Y72413D01*
X-168165Y66565D01*
D34*
X-166252Y64652D02*
X-157625Y64652D01*
D33*
X-169950Y74198D02*
X-178150Y74198D01*
X-168165Y66565D02*
X-166252Y64652D01*
D31*
X-266020Y80115D03*
D34*
X-161170Y49648D02*
X-157625Y49648D01*
X-161170Y49648D02*
X-168165Y42654D01*
D33*
X-168165Y41888D01*
X-259106Y80518D02*
X-265617Y80518D01*
X-266020Y80115D01*
X-173538Y36515D02*
X-168165Y41888D01*
X-173538Y36515D02*
X-215103Y36515D01*
X-259106Y80518D01*
D31*
X-95720Y-17139D03*
D33*
X-106321Y-6539D01*
D34*
X-106321Y23350D01*
X-111322Y23350D02*
X-111322Y-11575D01*
D33*
X-110893Y-12004D01*
X-110893Y-12141D01*
X-98236Y-24799D01*
X-89514Y-24799D01*
X-77725Y-36588D01*
D34*
X-161169Y39646D02*
X-170888Y29928D01*
X-161169Y39646D02*
X-157625Y39646D01*
D33*
X-170888Y29928D02*
X-170888Y17463D01*
D32*
X180975Y7938D03*
D34*
X180975Y9646D01*
X183525Y12196D01*
D35*
X163383Y24838D02*
X157163Y24838D01*
X163383Y24838D02*
X173245Y34700D01*
D32*
X127000Y-1588D03*
D34*
X122161Y3252D01*
X122161Y47548D01*
X133350Y58738D01*
X140725Y58738D01*
D35*
X162263Y54200D02*
X173245Y54200D01*
X162263Y54200D02*
X157725Y58738D01*
D36*
X140526Y-4763D03*
D34*
X144463Y-4763D01*
X146050Y-2826D02*
X146050Y12700D01*
X146050Y-2826D02*
X144463Y-4763D01*
D32*
X147638Y14288D03*
D34*
X146050Y12700D01*
D32*
X206375Y26988D03*
D34*
X207944Y28556D01*
X214894Y28556D01*
D32*
X152090Y6660D03*
D34*
X153677Y5073D02*
X161015Y5073D01*
X153677Y5073D02*
X152090Y6660D01*
X161015Y5073D02*
X164006Y2081D01*
X162419Y494D02*
X164519Y-1606D01*
X162419Y494D02*
X164006Y2081D01*
X154158Y-13514D02*
X114342Y-48206D01*
X154158Y-13514D02*
X161227Y-6446D01*
X161227Y-7049D01*
X164519Y-3756D02*
X164519Y-1606D01*
X164519Y-3756D02*
X161227Y-7049D01*
X114300Y2613D02*
X107950Y8963D01*
X114300Y2613D02*
X114300Y1588D01*
D32*
X114300Y1588D03*
D34*
X158750Y127563D02*
X155802Y130511D01*
D33*
X138113Y130511D01*
D32*
X138113Y130511D03*
D36*
X140526Y238D03*
D34*
X92075Y6350D02*
X92075Y8963D01*
X92075Y6350D02*
X106890Y-8465D01*
X130236Y-8465D01*
X138938Y238D02*
X140526Y238D01*
X138938Y238D02*
X130236Y-8465D01*
D32*
X129038Y11113D03*
D34*
X129038Y12588D01*
X141288Y24838D01*
D35*
X141288Y41838D02*
X157163Y41838D01*
X157800Y41200D02*
X173245Y41200D01*
X157800Y41200D02*
X157163Y41838D01*
D32*
X132235Y136525D03*
D33*
X139700Y121213D02*
X142875Y121213D01*
X139700Y121213D02*
X137558Y123355D01*
X137394Y123355D01*
D34*
X132235Y128514D01*
D33*
X132235Y136525D01*
D31*
X196850Y90488D03*
X177800Y74613D03*
X184150Y42863D03*
D34*
X179313Y47700D01*
X173245Y47700D01*
D35*
X152400Y104213D02*
X158750Y110563D01*
X152400Y104213D02*
X142875Y104213D01*
X158750Y101600D02*
X158750Y110563D01*
D31*
X158750Y101600D03*
X215900Y87313D03*
X185738Y85725D03*
D34*
X107950Y44450D02*
X107950Y25963D01*
X138113Y74613D02*
X177800Y74613D01*
X138113Y74613D02*
X107950Y44450D01*
D31*
X76200Y140422D03*
D37*
X89766Y140422D01*
X95250Y134938D01*
X95250Y119063D01*
X85725Y109538D01*
D31*
X85725Y109538D03*
D32*
X163513Y14288D03*
D34*
X183646Y-5846D01*
X187325Y-5846D01*
X191437Y-5846D02*
X193025Y-4259D01*
X191437Y-5846D02*
X187325Y-5846D01*
D32*
X187325Y-5846D03*
D34*
X63500Y14288D02*
X63500Y20638D01*
D31*
X63500Y20638D03*
D34*
X63500Y14288D02*
X91396Y-13609D01*
D36*
X140526Y-9763D03*
D34*
X140526Y-10287D01*
X137204Y-13609D01*
X91396Y-13609D01*
X-116323Y7502D02*
X-116323Y23350D01*
D33*
X-127000Y-3175D02*
X-139700Y-3175D01*
D32*
X-139700Y-3175D03*
D33*
X-127000Y-3175D02*
X-116323Y7502D01*
D32*
X-139700Y4763D03*
D33*
X-127000Y4763D01*
D34*
X-121324Y10439D02*
X-121324Y23350D01*
D33*
X-121324Y10439D02*
X-127000Y4763D01*
D32*
X-133350Y14288D03*
D33*
X-128588Y14288D01*
D34*
X-126326Y16549D02*
X-126326Y23350D01*
D33*
X-126326Y16549D02*
X-128588Y14288D01*
D34*
X-157625Y59651D02*
X-170214Y59651D01*
D33*
X-176213Y65650D01*
D35*
X-187913Y65650D01*
X-188913Y66650D01*
D31*
X-212725Y60325D03*
X-273050Y41275D03*
X-88900Y174625D03*
X-77788Y174625D03*
X-9525Y144463D03*
X1588Y144463D03*
D37*
X-188913Y66650D02*
X-206400Y66650D01*
X-206375Y66563D02*
X-212613Y60325D01*
X-212725Y60325D01*
X-206375Y66563D02*
X-206400Y66588D01*
X-206400Y66650D01*
D33*
X-120650Y122800D02*
X-115325Y122800D01*
X-109538Y128588D01*
D32*
X-109538Y128588D03*
D34*
X-121324Y105126D02*
X-121324Y90950D01*
D33*
X-121324Y105126D02*
X-120650Y105800D01*
M02*
