G04 EAGLE Gerber RS-274X export*
G75*
%MOMM*%
%FSLAX34Y34*%
%LPD*%
%INCopper Layer 2*%
%IPPOS*%
%AMOC8*
5,1,8,0,0,1.08239X$1,22.5*%
G01*
%ADD10C,1.524000*%
%ADD11C,1.290000*%
%ADD12C,1.530000*%
%ADD13C,2.625000*%
%ADD14C,1.800000*%
%ADD15C,0.804800*%
%ADD16C,0.452400*%
%ADD17C,0.525000*%
%ADD18C,1.270000*%
%ADD19C,0.402400*%
%ADD20C,0.352400*%
%ADD21C,0.254000*%
%ADD22C,0.406400*%
%ADD23C,0.508000*%
%ADD24C,0.304800*%

G36*
X150814Y-81836D02*
X150814Y-81836D01*
X150870Y-81838D01*
X150935Y-81819D01*
X151002Y-81810D01*
X151075Y-81778D01*
X151106Y-81769D01*
X151123Y-81757D01*
X151156Y-81742D01*
X215508Y-44590D01*
X215525Y-44576D01*
X215545Y-44567D01*
X215619Y-44498D01*
X215698Y-44434D01*
X215710Y-44415D01*
X215726Y-44400D01*
X215775Y-44312D01*
X215829Y-44226D01*
X215834Y-44204D01*
X215844Y-44185D01*
X215863Y-44085D01*
X215886Y-43986D01*
X215884Y-43965D01*
X215888Y-43943D01*
X215873Y-43842D01*
X215864Y-43741D01*
X215856Y-43721D01*
X215852Y-43700D01*
X215806Y-43609D01*
X215766Y-43516D01*
X215751Y-43500D01*
X215741Y-43480D01*
X215669Y-43409D01*
X215600Y-43334D01*
X215581Y-43323D01*
X215565Y-43308D01*
X215418Y-43227D01*
X213063Y-42251D01*
X210524Y-39713D01*
X209150Y-36396D01*
X209150Y-32805D01*
X210524Y-29488D01*
X213063Y-26950D01*
X216380Y-25576D01*
X219970Y-25576D01*
X223287Y-26950D01*
X225825Y-29488D01*
X227199Y-32805D01*
X227199Y-36521D01*
X227215Y-36615D01*
X227223Y-36710D01*
X227235Y-36736D01*
X227239Y-36764D01*
X227284Y-36848D01*
X227322Y-36935D01*
X227341Y-36956D01*
X227354Y-36981D01*
X227423Y-37047D01*
X227487Y-37118D01*
X227512Y-37131D01*
X227533Y-37151D01*
X227619Y-37191D01*
X227702Y-37237D01*
X227730Y-37242D01*
X227756Y-37254D01*
X227850Y-37265D01*
X227944Y-37282D01*
X227972Y-37278D01*
X228000Y-37281D01*
X228093Y-37261D01*
X228188Y-37248D01*
X228220Y-37234D01*
X228240Y-37229D01*
X228269Y-37212D01*
X228341Y-37180D01*
X298370Y3249D01*
X298422Y3292D01*
X298480Y3327D01*
X298516Y3369D01*
X298560Y3405D01*
X298596Y3462D01*
X298640Y3514D01*
X298661Y3566D01*
X298691Y3613D01*
X298707Y3679D01*
X298732Y3742D01*
X298741Y3821D01*
X298748Y3853D01*
X298746Y3873D01*
X298750Y3909D01*
X298750Y173891D01*
X298739Y173958D01*
X298738Y174026D01*
X298720Y174079D01*
X298711Y174134D01*
X298679Y174194D01*
X298656Y174258D01*
X298622Y174302D01*
X298595Y174352D01*
X298546Y174398D01*
X298505Y174451D01*
X298441Y174498D01*
X298417Y174521D01*
X298398Y174530D01*
X298370Y174551D01*
X151156Y259542D01*
X151092Y259566D01*
X151033Y259599D01*
X150978Y259609D01*
X150926Y259629D01*
X150858Y259632D01*
X150792Y259644D01*
X150736Y259636D01*
X150680Y259638D01*
X150615Y259619D01*
X150548Y259610D01*
X150475Y259578D01*
X150444Y259569D01*
X150427Y259557D01*
X150394Y259542D01*
X60157Y207445D01*
X60120Y207415D01*
X60077Y207392D01*
X60025Y207338D01*
X59967Y207289D01*
X59941Y207249D01*
X59908Y207214D01*
X59876Y207145D01*
X59836Y207081D01*
X59825Y207034D01*
X59804Y206991D01*
X59796Y206916D01*
X59778Y206842D01*
X59783Y206794D01*
X59777Y206747D01*
X59793Y206672D01*
X59800Y206597D01*
X59819Y206553D01*
X59830Y206506D01*
X59868Y206441D01*
X59899Y206372D01*
X59931Y206336D01*
X59956Y206295D01*
X60013Y206246D01*
X60064Y206190D01*
X60106Y206166D01*
X60143Y206135D01*
X60213Y206107D01*
X60279Y206070D01*
X60326Y206061D01*
X60371Y206043D01*
X60499Y206029D01*
X60521Y206025D01*
X60528Y206026D01*
X60538Y206025D01*
X63737Y206025D01*
X67110Y204628D01*
X69690Y202047D01*
X71087Y198675D01*
X71087Y195025D01*
X69690Y191653D01*
X67110Y189072D01*
X63737Y187675D01*
X60088Y187675D01*
X56715Y189072D01*
X54135Y191653D01*
X52738Y195025D01*
X52738Y198675D01*
X54135Y202047D01*
X54592Y202504D01*
X54606Y202524D01*
X54624Y202539D01*
X54677Y202623D01*
X54735Y202704D01*
X54742Y202727D01*
X54755Y202747D01*
X54778Y202844D01*
X54807Y202939D01*
X54807Y202963D01*
X54812Y202986D01*
X54804Y203085D01*
X54801Y203185D01*
X54793Y203207D01*
X54791Y203231D01*
X54751Y203322D01*
X54717Y203416D01*
X54702Y203435D01*
X54692Y203457D01*
X54625Y203531D01*
X54563Y203608D01*
X54543Y203621D01*
X54527Y203639D01*
X54439Y203687D01*
X54356Y203741D01*
X54333Y203747D01*
X54312Y203758D01*
X54214Y203777D01*
X54118Y203801D01*
X54094Y203799D01*
X54070Y203803D01*
X53972Y203790D01*
X53872Y203782D01*
X53850Y203772D01*
X53826Y203769D01*
X53673Y203702D01*
X39919Y195761D01*
X39882Y195731D01*
X39840Y195708D01*
X39787Y195654D01*
X39729Y195605D01*
X39703Y195565D01*
X39670Y195530D01*
X39638Y195461D01*
X39598Y195397D01*
X39587Y195350D01*
X39567Y195307D01*
X39558Y195232D01*
X39540Y195158D01*
X39545Y195110D01*
X39539Y195063D01*
X39556Y194988D01*
X39562Y194913D01*
X39582Y194869D01*
X39592Y194822D01*
X39631Y194757D01*
X39661Y194688D01*
X39693Y194652D01*
X39718Y194611D01*
X39775Y194562D01*
X39826Y194506D01*
X39868Y194482D01*
X39905Y194451D01*
X39975Y194423D01*
X40041Y194386D01*
X40088Y194377D01*
X40133Y194359D01*
X40261Y194345D01*
X40283Y194341D01*
X40290Y194342D01*
X40300Y194341D01*
X40717Y194341D01*
X42302Y194090D01*
X43827Y193594D01*
X45257Y192866D01*
X46554Y191923D01*
X47688Y190789D01*
X47889Y190512D01*
X39814Y185850D01*
X39798Y185838D01*
X39780Y185830D01*
X39703Y185760D01*
X39623Y185694D01*
X39613Y185678D01*
X39598Y185664D01*
X39548Y185574D01*
X39493Y185486D01*
X39488Y185467D01*
X39478Y185449D01*
X39459Y185348D01*
X39435Y185247D01*
X39437Y185227D01*
X39433Y185207D01*
X39448Y185105D01*
X39457Y185002D01*
X39465Y184984D01*
X39468Y184964D01*
X39535Y184810D01*
X39917Y184150D01*
X39915Y184149D01*
X39534Y184809D01*
X39521Y184825D01*
X39513Y184843D01*
X39443Y184920D01*
X39378Y185000D01*
X39361Y185010D01*
X39348Y185025D01*
X39257Y185076D01*
X39170Y185131D01*
X39150Y185135D01*
X39133Y185145D01*
X39031Y185164D01*
X38930Y185188D01*
X38911Y185186D01*
X38891Y185190D01*
X38788Y185175D01*
X38685Y185166D01*
X38667Y185158D01*
X38647Y185155D01*
X38494Y185088D01*
X30412Y180422D01*
X29976Y181764D01*
X29725Y183348D01*
X29725Y184952D01*
X29976Y186536D01*
X30471Y188062D01*
X30925Y188953D01*
X30934Y188979D01*
X30949Y189003D01*
X30971Y189096D01*
X31000Y189187D01*
X30999Y189215D01*
X31006Y189242D01*
X30998Y189337D01*
X30996Y189433D01*
X30987Y189459D01*
X30984Y189487D01*
X30946Y189574D01*
X30914Y189665D01*
X30897Y189687D01*
X30886Y189712D01*
X30821Y189783D01*
X30762Y189858D01*
X30739Y189874D01*
X30720Y189894D01*
X30637Y189941D01*
X30557Y189993D01*
X30530Y190001D01*
X30505Y190014D01*
X30411Y190032D01*
X30319Y190056D01*
X30291Y190054D01*
X30263Y190059D01*
X30169Y190046D01*
X30074Y190039D01*
X30048Y190029D01*
X30020Y190025D01*
X29866Y189957D01*
X2434Y174120D01*
X2344Y174047D01*
X2255Y173976D01*
X2249Y173968D01*
X2244Y173964D01*
X2232Y173945D01*
X2155Y173841D01*
X2109Y173761D01*
X1653Y173639D01*
X1639Y173633D01*
X1623Y173631D01*
X1470Y173563D01*
X1061Y173327D01*
X972Y173351D01*
X858Y173362D01*
X744Y173376D01*
X734Y173375D01*
X727Y173375D01*
X705Y173370D01*
X578Y173351D01*
X489Y173327D01*
X80Y173563D01*
X66Y173569D01*
X53Y173578D01*
X-103Y173639D01*
X-559Y173761D01*
X-605Y173841D01*
X-678Y173930D01*
X-749Y174020D01*
X-757Y174026D01*
X-761Y174031D01*
X-780Y174043D01*
X-884Y174120D01*
X-148844Y259542D01*
X-148908Y259566D01*
X-148967Y259599D01*
X-149022Y259609D01*
X-149074Y259629D01*
X-149142Y259632D01*
X-149208Y259644D01*
X-149264Y259636D01*
X-149320Y259638D01*
X-149385Y259619D01*
X-149452Y259610D01*
X-149525Y259578D01*
X-149556Y259569D01*
X-149573Y259557D01*
X-149606Y259542D01*
X-296820Y174551D01*
X-296872Y174508D01*
X-296930Y174473D01*
X-296966Y174431D01*
X-297010Y174395D01*
X-297046Y174338D01*
X-297090Y174286D01*
X-297111Y174234D01*
X-297141Y174187D01*
X-297157Y174121D01*
X-297182Y174058D01*
X-297191Y173979D01*
X-297198Y173947D01*
X-297196Y173927D01*
X-297200Y173891D01*
X-297200Y3909D01*
X-297189Y3842D01*
X-297188Y3774D01*
X-297170Y3721D01*
X-297161Y3666D01*
X-297129Y3606D01*
X-297106Y3542D01*
X-297072Y3498D01*
X-297045Y3448D01*
X-296996Y3402D01*
X-296955Y3349D01*
X-296891Y3302D01*
X-296867Y3279D01*
X-296848Y3270D01*
X-296820Y3249D01*
X-149606Y-81742D01*
X-149542Y-81766D01*
X-149483Y-81799D01*
X-149428Y-81809D01*
X-149376Y-81829D01*
X-149308Y-81832D01*
X-149242Y-81844D01*
X-149186Y-81836D01*
X-149130Y-81838D01*
X-149065Y-81819D01*
X-148998Y-81810D01*
X-148925Y-81778D01*
X-148894Y-81769D01*
X-148877Y-81757D01*
X-148844Y-81742D01*
X-884Y3680D01*
X-794Y3753D01*
X-705Y3824D01*
X-699Y3832D01*
X-694Y3836D01*
X-682Y3855D01*
X-605Y3959D01*
X-559Y4039D01*
X-103Y4161D01*
X-89Y4167D01*
X-73Y4170D01*
X80Y4237D01*
X489Y4473D01*
X578Y4449D01*
X692Y4438D01*
X806Y4424D01*
X816Y4425D01*
X823Y4425D01*
X844Y4429D01*
X972Y4449D01*
X1061Y4473D01*
X1470Y4237D01*
X1484Y4231D01*
X1497Y4222D01*
X1653Y4161D01*
X2109Y4039D01*
X2155Y3959D01*
X2228Y3870D01*
X2299Y3780D01*
X2307Y3774D01*
X2311Y3769D01*
X2330Y3757D01*
X2434Y3680D01*
X29866Y-12157D01*
X29893Y-12167D01*
X29915Y-12183D01*
X30007Y-12211D01*
X30096Y-12244D01*
X30124Y-12245D01*
X30151Y-12253D01*
X30247Y-12250D01*
X30342Y-12253D01*
X30369Y-12245D01*
X30397Y-12244D01*
X30486Y-12211D01*
X30578Y-12184D01*
X30601Y-12167D01*
X30627Y-12158D01*
X30701Y-12097D01*
X30779Y-12042D01*
X30796Y-12020D01*
X30818Y-12002D01*
X30868Y-11921D01*
X30925Y-11844D01*
X30934Y-11817D01*
X30948Y-11794D01*
X30971Y-11701D01*
X31000Y-11610D01*
X30999Y-11582D01*
X31006Y-11554D01*
X30998Y-11459D01*
X30996Y-11364D01*
X30987Y-11337D01*
X30984Y-11309D01*
X30925Y-11153D01*
X30471Y-10262D01*
X29976Y-8736D01*
X29725Y-7152D01*
X29725Y-5548D01*
X29976Y-3964D01*
X30412Y-2622D01*
X38494Y-7288D01*
X38512Y-7295D01*
X38529Y-7307D01*
X38627Y-7338D01*
X38724Y-7375D01*
X38744Y-7376D01*
X38763Y-7382D01*
X38866Y-7380D01*
X38970Y-7384D01*
X38989Y-7378D01*
X39009Y-7378D01*
X39106Y-7344D01*
X39206Y-7314D01*
X39222Y-7303D01*
X39241Y-7296D01*
X39322Y-7232D01*
X39407Y-7173D01*
X39419Y-7157D01*
X39434Y-7145D01*
X39534Y-7009D01*
X39915Y-6349D01*
X39917Y-6350D01*
X39535Y-7010D01*
X39528Y-7029D01*
X39516Y-7045D01*
X39485Y-7144D01*
X39448Y-7240D01*
X39448Y-7260D01*
X39441Y-7279D01*
X39443Y-7383D01*
X39439Y-7486D01*
X39445Y-7505D01*
X39445Y-7525D01*
X39480Y-7623D01*
X39509Y-7722D01*
X39520Y-7738D01*
X39527Y-7757D01*
X39591Y-7839D01*
X39650Y-7923D01*
X39666Y-7935D01*
X39679Y-7951D01*
X39814Y-8050D01*
X47889Y-12712D01*
X47688Y-12989D01*
X46554Y-14123D01*
X45257Y-15066D01*
X43827Y-15794D01*
X42302Y-16290D01*
X40717Y-16541D01*
X40300Y-16541D01*
X40252Y-16548D01*
X40204Y-16547D01*
X40132Y-16568D01*
X40057Y-16580D01*
X40015Y-16603D01*
X39969Y-16617D01*
X39906Y-16660D01*
X39840Y-16696D01*
X39807Y-16730D01*
X39767Y-16758D01*
X39722Y-16819D01*
X39670Y-16874D01*
X39650Y-16917D01*
X39622Y-16956D01*
X39598Y-17028D01*
X39567Y-17097D01*
X39561Y-17145D01*
X39547Y-17190D01*
X39548Y-17266D01*
X39539Y-17341D01*
X39550Y-17388D01*
X39550Y-17436D01*
X39576Y-17508D01*
X39592Y-17582D01*
X39616Y-17623D01*
X39632Y-17668D01*
X39679Y-17728D01*
X39718Y-17793D01*
X39754Y-17824D01*
X39784Y-17862D01*
X39888Y-17938D01*
X39905Y-17953D01*
X39911Y-17955D01*
X39919Y-17961D01*
X53673Y-25902D01*
X53695Y-25910D01*
X53715Y-25924D01*
X53810Y-25953D01*
X53903Y-25989D01*
X53927Y-25989D01*
X53950Y-25997D01*
X54049Y-25994D01*
X54149Y-25998D01*
X54172Y-25991D01*
X54196Y-25990D01*
X54289Y-25956D01*
X54384Y-25928D01*
X54404Y-25914D01*
X54427Y-25906D01*
X54504Y-25844D01*
X54586Y-25786D01*
X54600Y-25767D01*
X54619Y-25752D01*
X54672Y-25669D01*
X54731Y-25588D01*
X54739Y-25565D01*
X54752Y-25545D01*
X54776Y-25449D01*
X54806Y-25354D01*
X54806Y-25330D01*
X54812Y-25307D01*
X54804Y-25208D01*
X54803Y-25108D01*
X54795Y-25085D01*
X54793Y-25061D01*
X54754Y-24970D01*
X54721Y-24876D01*
X54706Y-24857D01*
X54696Y-24835D01*
X54592Y-24704D01*
X54135Y-24247D01*
X52738Y-20875D01*
X52738Y-17225D01*
X54135Y-13853D01*
X56715Y-11272D01*
X60088Y-9875D01*
X63737Y-9875D01*
X67110Y-11272D01*
X69690Y-13853D01*
X71087Y-17225D01*
X71087Y-20875D01*
X69690Y-24247D01*
X67110Y-26828D01*
X63737Y-28225D01*
X60538Y-28225D01*
X60490Y-28232D01*
X60442Y-28231D01*
X60370Y-28252D01*
X60295Y-28264D01*
X60252Y-28287D01*
X60206Y-28301D01*
X60144Y-28344D01*
X60077Y-28380D01*
X60044Y-28414D01*
X60005Y-28442D01*
X59960Y-28503D01*
X59908Y-28558D01*
X59888Y-28601D01*
X59859Y-28640D01*
X59836Y-28712D01*
X59804Y-28781D01*
X59799Y-28829D01*
X59785Y-28874D01*
X59786Y-28950D01*
X59777Y-29025D01*
X59788Y-29072D01*
X59788Y-29120D01*
X59813Y-29192D01*
X59830Y-29266D01*
X59854Y-29307D01*
X59870Y-29352D01*
X59917Y-29412D01*
X59956Y-29477D01*
X59992Y-29508D01*
X60022Y-29546D01*
X60126Y-29622D01*
X60143Y-29637D01*
X60149Y-29639D01*
X60157Y-29645D01*
X150394Y-81742D01*
X150458Y-81766D01*
X150517Y-81799D01*
X150572Y-81809D01*
X150624Y-81829D01*
X150692Y-81832D01*
X150758Y-81844D01*
X150814Y-81836D01*
G37*
%LPC*%
G36*
X65210Y29801D02*
X65210Y29801D01*
X63138Y31873D01*
X63138Y34802D01*
X65210Y36874D01*
X66636Y36874D01*
X66706Y36886D01*
X66778Y36888D01*
X66827Y36906D01*
X66878Y36914D01*
X66942Y36948D01*
X67009Y36972D01*
X67050Y37005D01*
X67096Y37029D01*
X67145Y37081D01*
X67201Y37126D01*
X67229Y37170D01*
X67265Y37207D01*
X67295Y37272D01*
X67334Y37333D01*
X67347Y37383D01*
X67369Y37430D01*
X67377Y37502D01*
X67394Y37571D01*
X67390Y37623D01*
X67396Y37675D01*
X67381Y37745D01*
X67375Y37816D01*
X67355Y37864D01*
X67344Y37915D01*
X67307Y37977D01*
X67279Y38043D01*
X67234Y38099D01*
X67217Y38126D01*
X67200Y38142D01*
X67174Y38174D01*
X45665Y59682D01*
X43805Y61542D01*
X43805Y99583D01*
X46265Y102043D01*
X46318Y102117D01*
X46378Y102186D01*
X46390Y102216D01*
X46409Y102242D01*
X46436Y102329D01*
X46470Y102414D01*
X46474Y102455D01*
X46481Y102477D01*
X46480Y102510D01*
X46488Y102581D01*
X46488Y102961D01*
X48414Y104887D01*
X51136Y104887D01*
X52294Y103729D01*
X52352Y103688D01*
X52404Y103638D01*
X52451Y103616D01*
X52493Y103586D01*
X52562Y103565D01*
X52627Y103535D01*
X52679Y103529D01*
X52729Y103513D01*
X52800Y103515D01*
X52871Y103507D01*
X52922Y103519D01*
X52974Y103520D01*
X53042Y103544D01*
X53112Y103560D01*
X53157Y103586D01*
X53205Y103604D01*
X53261Y103649D01*
X53323Y103686D01*
X53357Y103725D01*
X53397Y103758D01*
X53436Y103818D01*
X53483Y103873D01*
X53502Y103921D01*
X53530Y103965D01*
X53548Y104034D01*
X53575Y104101D01*
X53583Y104172D01*
X53591Y104203D01*
X53589Y104227D01*
X53593Y104268D01*
X53593Y146939D01*
X53590Y146959D01*
X53592Y146978D01*
X53570Y147080D01*
X53554Y147182D01*
X53544Y147199D01*
X53540Y147219D01*
X53487Y147308D01*
X53438Y147399D01*
X53424Y147413D01*
X53414Y147430D01*
X53335Y147497D01*
X53260Y147569D01*
X53242Y147577D01*
X53227Y147590D01*
X53131Y147629D01*
X53037Y147672D01*
X53017Y147674D01*
X52999Y147682D01*
X52832Y147700D01*
X-28148Y147700D01*
X-28238Y147686D01*
X-28329Y147678D01*
X-28359Y147666D01*
X-28391Y147661D01*
X-28471Y147618D01*
X-28555Y147582D01*
X-28587Y147556D01*
X-28608Y147545D01*
X-28630Y147522D01*
X-28686Y147477D01*
X-38502Y137661D01*
X-38555Y137587D01*
X-38615Y137518D01*
X-38627Y137488D01*
X-38646Y137461D01*
X-38673Y137374D01*
X-38707Y137290D01*
X-38711Y137249D01*
X-38718Y137226D01*
X-38717Y137194D01*
X-38725Y137123D01*
X-38725Y79396D01*
X-39924Y76502D01*
X-42139Y74287D01*
X-45034Y73088D01*
X-48166Y73088D01*
X-51061Y74287D01*
X-53276Y76502D01*
X-54475Y79396D01*
X-54475Y142266D01*
X-53276Y145161D01*
X-36186Y162251D01*
X-33291Y163450D01*
X39981Y163450D01*
X40052Y163461D01*
X40124Y163463D01*
X40173Y163481D01*
X40224Y163489D01*
X40287Y163523D01*
X40355Y163548D01*
X40395Y163580D01*
X40441Y163605D01*
X40491Y163657D01*
X40547Y163701D01*
X40575Y163745D01*
X40611Y163783D01*
X40641Y163848D01*
X40680Y163908D01*
X40693Y163959D01*
X40714Y164006D01*
X40722Y164077D01*
X40740Y164147D01*
X40736Y164199D01*
X40742Y164250D01*
X40726Y164321D01*
X40721Y164392D01*
X40700Y164440D01*
X40689Y164491D01*
X40653Y164552D01*
X40624Y164618D01*
X40580Y164674D01*
X40563Y164702D01*
X40545Y164717D01*
X40520Y164749D01*
X38713Y166556D01*
X38713Y169994D01*
X41144Y172425D01*
X44581Y172425D01*
X46990Y170016D01*
X47006Y170005D01*
X47018Y169989D01*
X47106Y169933D01*
X47189Y169873D01*
X47208Y169867D01*
X47225Y169856D01*
X47326Y169831D01*
X47425Y169800D01*
X47444Y169801D01*
X47464Y169796D01*
X47567Y169804D01*
X47670Y169807D01*
X47689Y169814D01*
X47709Y169815D01*
X47804Y169856D01*
X47901Y169891D01*
X47917Y169904D01*
X47935Y169912D01*
X48066Y170016D01*
X50475Y172425D01*
X53912Y172425D01*
X56343Y169994D01*
X56343Y166556D01*
X54536Y164749D01*
X54495Y164691D01*
X54445Y164639D01*
X54423Y164592D01*
X54393Y164550D01*
X54372Y164481D01*
X54342Y164416D01*
X54336Y164364D01*
X54320Y164314D01*
X54322Y164243D01*
X54314Y164172D01*
X54325Y164121D01*
X54327Y164069D01*
X54351Y164001D01*
X54367Y163931D01*
X54393Y163886D01*
X54411Y163838D01*
X54456Y163782D01*
X54493Y163720D01*
X54532Y163686D01*
X54565Y163646D01*
X54625Y163607D01*
X54680Y163560D01*
X54728Y163541D01*
X54772Y163513D01*
X54841Y163495D01*
X54908Y163468D01*
X54979Y163460D01*
X55010Y163452D01*
X55034Y163454D01*
X55075Y163450D01*
X167936Y163450D01*
X170831Y162251D01*
X173046Y160036D01*
X174245Y157141D01*
X174245Y154009D01*
X173046Y151114D01*
X170831Y148899D01*
X167936Y147700D01*
X97769Y147700D01*
X97698Y147689D01*
X97626Y147687D01*
X97577Y147669D01*
X97526Y147661D01*
X97463Y147627D01*
X97395Y147602D01*
X97355Y147570D01*
X97309Y147545D01*
X97259Y147493D01*
X97203Y147449D01*
X97175Y147405D01*
X97139Y147367D01*
X97109Y147302D01*
X97070Y147242D01*
X97057Y147191D01*
X97036Y147144D01*
X97028Y147073D01*
X97010Y147003D01*
X97014Y146951D01*
X97008Y146900D01*
X97024Y146829D01*
X97029Y146758D01*
X97050Y146710D01*
X97061Y146659D01*
X97097Y146598D01*
X97126Y146532D01*
X97170Y146476D01*
X97187Y146448D01*
X97205Y146433D01*
X97230Y146401D01*
X99012Y144619D01*
X99012Y141181D01*
X96581Y138750D01*
X93144Y138750D01*
X90713Y141181D01*
X90713Y144619D01*
X92495Y146401D01*
X92536Y146459D01*
X92586Y146511D01*
X92608Y146558D01*
X92638Y146600D01*
X92659Y146669D01*
X92689Y146734D01*
X92695Y146786D01*
X92711Y146836D01*
X92709Y146907D01*
X92717Y146978D01*
X92706Y147029D01*
X92704Y147081D01*
X92680Y147149D01*
X92664Y147219D01*
X92638Y147264D01*
X92620Y147312D01*
X92575Y147368D01*
X92538Y147430D01*
X92499Y147464D01*
X92466Y147504D01*
X92406Y147543D01*
X92351Y147590D01*
X92303Y147609D01*
X92259Y147637D01*
X92190Y147655D01*
X92123Y147682D01*
X92052Y147690D01*
X92021Y147698D01*
X91997Y147696D01*
X91956Y147700D01*
X61468Y147700D01*
X61448Y147697D01*
X61429Y147699D01*
X61327Y147677D01*
X61225Y147661D01*
X61208Y147651D01*
X61188Y147647D01*
X61099Y147594D01*
X61008Y147545D01*
X60994Y147531D01*
X60977Y147521D01*
X60910Y147442D01*
X60838Y147367D01*
X60830Y147349D01*
X60817Y147334D01*
X60778Y147238D01*
X60735Y147144D01*
X60733Y147124D01*
X60725Y147106D01*
X60707Y146939D01*
X60707Y87427D01*
X58348Y85068D01*
X58295Y84994D01*
X58235Y84924D01*
X58223Y84894D01*
X58204Y84868D01*
X58177Y84781D01*
X58143Y84696D01*
X58139Y84655D01*
X58132Y84633D01*
X58133Y84601D01*
X58125Y84529D01*
X58125Y84006D01*
X55694Y81575D01*
X52256Y81575D01*
X50694Y83137D01*
X50636Y83179D01*
X50584Y83228D01*
X50537Y83250D01*
X50495Y83281D01*
X50426Y83302D01*
X50361Y83332D01*
X50309Y83338D01*
X50259Y83353D01*
X50188Y83351D01*
X50117Y83359D01*
X50066Y83348D01*
X50014Y83347D01*
X49946Y83322D01*
X49876Y83307D01*
X49831Y83280D01*
X49783Y83262D01*
X49727Y83217D01*
X49665Y83181D01*
X49631Y83141D01*
X49591Y83109D01*
X49552Y83048D01*
X49505Y82994D01*
X49486Y82945D01*
X49458Y82902D01*
X49440Y82832D01*
X49426Y82798D01*
X49423Y82791D01*
X49423Y82789D01*
X49413Y82766D01*
X49405Y82694D01*
X49397Y82663D01*
X49399Y82640D01*
X49395Y82599D01*
X49395Y64173D01*
X49409Y64083D01*
X49417Y63992D01*
X49429Y63962D01*
X49434Y63930D01*
X49477Y63850D01*
X49513Y63766D01*
X49539Y63734D01*
X49550Y63713D01*
X49573Y63691D01*
X49618Y63635D01*
X70338Y42915D01*
X70396Y42873D01*
X70448Y42823D01*
X70495Y42801D01*
X70537Y42771D01*
X70606Y42750D01*
X70671Y42720D01*
X70723Y42714D01*
X70773Y42699D01*
X70844Y42701D01*
X70915Y42693D01*
X70966Y42704D01*
X71018Y42705D01*
X71086Y42730D01*
X71156Y42745D01*
X71201Y42772D01*
X71249Y42790D01*
X71305Y42834D01*
X71367Y42871D01*
X71401Y42911D01*
X71441Y42943D01*
X71480Y43004D01*
X71527Y43058D01*
X71546Y43106D01*
X71574Y43150D01*
X71592Y43220D01*
X71619Y43286D01*
X71627Y43358D01*
X71635Y43389D01*
X71633Y43412D01*
X71637Y43453D01*
X71637Y46019D01*
X72406Y46788D01*
X72459Y46862D01*
X72519Y46931D01*
X72531Y46961D01*
X72550Y46987D01*
X72577Y47074D01*
X72611Y47159D01*
X72615Y47200D01*
X72622Y47222D01*
X72621Y47255D01*
X72629Y47326D01*
X72629Y51182D01*
X75603Y54155D01*
X75645Y54213D01*
X75694Y54265D01*
X75716Y54313D01*
X75746Y54355D01*
X75768Y54423D01*
X75798Y54489D01*
X75803Y54540D01*
X75819Y54590D01*
X75817Y54662D01*
X75825Y54733D01*
X75814Y54784D01*
X75812Y54836D01*
X75788Y54903D01*
X75773Y54973D01*
X75746Y55018D01*
X75728Y55067D01*
X75683Y55123D01*
X75646Y55184D01*
X75607Y55218D01*
X75574Y55259D01*
X75514Y55298D01*
X75459Y55344D01*
X75411Y55364D01*
X75367Y55392D01*
X75298Y55409D01*
X75231Y55436D01*
X75160Y55444D01*
X75129Y55452D01*
X75106Y55450D01*
X75065Y55455D01*
X73656Y55455D01*
X71584Y57527D01*
X71584Y60456D01*
X73656Y62528D01*
X76585Y62528D01*
X78657Y60456D01*
X78657Y59047D01*
X78669Y58977D01*
X78671Y58905D01*
X78689Y58856D01*
X78697Y58805D01*
X78731Y58741D01*
X78755Y58674D01*
X78788Y58633D01*
X78812Y58587D01*
X78864Y58538D01*
X78909Y58482D01*
X78953Y58454D01*
X78990Y58418D01*
X79055Y58388D01*
X79116Y58349D01*
X79166Y58336D01*
X79213Y58314D01*
X79285Y58306D01*
X79354Y58289D01*
X79406Y58293D01*
X79458Y58287D01*
X79528Y58302D01*
X79599Y58308D01*
X79647Y58328D01*
X79698Y58339D01*
X79760Y58376D01*
X79826Y58404D01*
X79882Y58449D01*
X79909Y58466D01*
X79925Y58483D01*
X79957Y58509D01*
X91666Y70219D01*
X103487Y70219D01*
X103577Y70233D01*
X103668Y70241D01*
X103697Y70253D01*
X103729Y70258D01*
X103810Y70301D01*
X103894Y70337D01*
X103926Y70363D01*
X103947Y70374D01*
X103969Y70397D01*
X104025Y70442D01*
X104794Y71211D01*
X107931Y71211D01*
X110149Y68993D01*
X110149Y65855D01*
X107931Y63637D01*
X104794Y63637D01*
X104025Y64406D01*
X103951Y64459D01*
X103882Y64519D01*
X103851Y64531D01*
X103825Y64550D01*
X103738Y64577D01*
X103653Y64611D01*
X103612Y64615D01*
X103590Y64622D01*
X103558Y64621D01*
X103487Y64629D01*
X98666Y64629D01*
X98595Y64618D01*
X98523Y64616D01*
X98474Y64598D01*
X98423Y64590D01*
X98360Y64556D01*
X98292Y64531D01*
X98252Y64499D01*
X98206Y64474D01*
X98156Y64422D01*
X98100Y64378D01*
X98072Y64334D01*
X98036Y64296D01*
X98006Y64231D01*
X97967Y64171D01*
X97955Y64120D01*
X97933Y64073D01*
X97925Y64002D01*
X97907Y63932D01*
X97911Y63880D01*
X97906Y63829D01*
X97921Y63758D01*
X97926Y63687D01*
X97947Y63639D01*
X97958Y63588D01*
X97995Y63527D01*
X98023Y63461D01*
X98068Y63405D01*
X98084Y63377D01*
X98102Y63362D01*
X98128Y63330D01*
X99813Y61645D01*
X99813Y58507D01*
X97595Y56289D01*
X94457Y56289D01*
X92239Y58507D01*
X92239Y61049D01*
X92228Y61120D01*
X92226Y61192D01*
X92208Y61241D01*
X92200Y61292D01*
X92166Y61355D01*
X92141Y61423D01*
X92109Y61463D01*
X92084Y61509D01*
X92032Y61559D01*
X91988Y61615D01*
X91944Y61643D01*
X91906Y61679D01*
X91841Y61709D01*
X91781Y61748D01*
X91730Y61760D01*
X91683Y61782D01*
X91612Y61790D01*
X91542Y61808D01*
X91490Y61804D01*
X91439Y61809D01*
X91368Y61794D01*
X91297Y61789D01*
X91249Y61768D01*
X91198Y61757D01*
X91137Y61720D01*
X91071Y61692D01*
X91015Y61647D01*
X90987Y61631D01*
X90972Y61613D01*
X90940Y61587D01*
X78442Y49089D01*
X78389Y49015D01*
X78329Y48946D01*
X78317Y48916D01*
X78298Y48890D01*
X78271Y48803D01*
X78237Y48718D01*
X78233Y48677D01*
X78226Y48655D01*
X78227Y48622D01*
X78219Y48551D01*
X78219Y47326D01*
X78233Y47236D01*
X78241Y47145D01*
X78253Y47115D01*
X78258Y47083D01*
X78301Y47002D01*
X78337Y46919D01*
X78363Y46886D01*
X78374Y46866D01*
X78397Y46844D01*
X78442Y46788D01*
X79211Y46019D01*
X79211Y42881D01*
X78286Y41957D01*
X78244Y41899D01*
X78195Y41847D01*
X78173Y41799D01*
X78142Y41757D01*
X78121Y41689D01*
X78091Y41623D01*
X78085Y41572D01*
X78070Y41522D01*
X78072Y41450D01*
X78064Y41379D01*
X78075Y41328D01*
X78076Y41276D01*
X78101Y41209D01*
X78116Y41139D01*
X78143Y41094D01*
X78161Y41045D01*
X78206Y40989D01*
X78243Y40928D01*
X78282Y40894D01*
X78315Y40853D01*
X78375Y40814D01*
X78429Y40768D01*
X78478Y40748D01*
X78522Y40720D01*
X78591Y40703D01*
X78658Y40676D01*
X78729Y40668D01*
X78760Y40660D01*
X78783Y40662D01*
X78824Y40657D01*
X81969Y40657D01*
X82059Y40672D01*
X82150Y40679D01*
X82180Y40692D01*
X82212Y40697D01*
X82292Y40740D01*
X82376Y40775D01*
X82408Y40801D01*
X82429Y40812D01*
X82451Y40835D01*
X82507Y40880D01*
X83039Y41412D01*
X83050Y41428D01*
X83066Y41440D01*
X83122Y41528D01*
X83182Y41611D01*
X83188Y41630D01*
X83199Y41647D01*
X83224Y41748D01*
X83254Y41847D01*
X83254Y41866D01*
X83259Y41886D01*
X83251Y41989D01*
X83248Y42092D01*
X83241Y42111D01*
X83240Y42131D01*
X83199Y42226D01*
X83164Y42323D01*
X83151Y42339D01*
X83143Y42357D01*
X83039Y42488D01*
X82438Y43089D01*
X82438Y45811D01*
X83039Y46412D01*
X83050Y46428D01*
X83066Y46440D01*
X83122Y46528D01*
X83182Y46611D01*
X83188Y46630D01*
X83199Y46647D01*
X83224Y46748D01*
X83254Y46847D01*
X83254Y46866D01*
X83259Y46886D01*
X83251Y46989D01*
X83248Y47092D01*
X83241Y47111D01*
X83240Y47131D01*
X83199Y47226D01*
X83164Y47323D01*
X83151Y47339D01*
X83143Y47357D01*
X83039Y47488D01*
X82438Y48089D01*
X82438Y50811D01*
X84364Y52737D01*
X87086Y52737D01*
X89012Y50811D01*
X89012Y48006D01*
X89015Y47986D01*
X89013Y47967D01*
X89035Y47865D01*
X89051Y47763D01*
X89061Y47746D01*
X89065Y47726D01*
X89118Y47637D01*
X89167Y47546D01*
X89181Y47532D01*
X89191Y47515D01*
X89270Y47448D01*
X89345Y47376D01*
X89363Y47368D01*
X89378Y47355D01*
X89474Y47316D01*
X89481Y47313D01*
X91410Y45385D01*
X91928Y44867D01*
X91986Y44825D01*
X92038Y44775D01*
X92085Y44753D01*
X92127Y44723D01*
X92196Y44702D01*
X92261Y44672D01*
X92313Y44666D01*
X92363Y44651D01*
X92434Y44653D01*
X92505Y44645D01*
X92556Y44656D01*
X92608Y44657D01*
X92676Y44682D01*
X92746Y44697D01*
X92791Y44724D01*
X92839Y44742D01*
X92895Y44786D01*
X92957Y44823D01*
X92991Y44863D01*
X93031Y44895D01*
X93070Y44955D01*
X93117Y45010D01*
X93136Y45058D01*
X93164Y45102D01*
X93182Y45171D01*
X93209Y45238D01*
X93217Y45309D01*
X93225Y45341D01*
X93223Y45364D01*
X93227Y45405D01*
X93227Y45915D01*
X95299Y47987D01*
X98229Y47987D01*
X100301Y45915D01*
X100301Y42985D01*
X99510Y42194D01*
X99468Y42136D01*
X99419Y42084D01*
X99397Y42037D01*
X99366Y41995D01*
X99345Y41926D01*
X99315Y41861D01*
X99309Y41809D01*
X99294Y41759D01*
X99296Y41688D01*
X99288Y41617D01*
X99299Y41566D01*
X99300Y41514D01*
X99325Y41446D01*
X99340Y41376D01*
X99367Y41331D01*
X99385Y41283D01*
X99430Y41227D01*
X99466Y41165D01*
X99506Y41131D01*
X99539Y41091D01*
X99599Y41052D01*
X99653Y41005D01*
X99702Y40986D01*
X99745Y40958D01*
X99815Y40940D01*
X99882Y40913D01*
X99953Y40905D01*
X99984Y40897D01*
X100007Y40899D01*
X100048Y40895D01*
X103302Y40895D01*
X103392Y40909D01*
X103483Y40917D01*
X103513Y40929D01*
X103545Y40934D01*
X103626Y40977D01*
X103709Y41013D01*
X103742Y41039D01*
X103762Y41050D01*
X103784Y41073D01*
X103840Y41118D01*
X114457Y51735D01*
X116317Y53595D01*
X178395Y53595D01*
X184343Y47647D01*
X184417Y47594D01*
X184486Y47535D01*
X184516Y47522D01*
X184542Y47504D01*
X184629Y47477D01*
X184714Y47443D01*
X184755Y47438D01*
X184777Y47431D01*
X184810Y47432D01*
X184881Y47424D01*
X185615Y47424D01*
X187687Y45352D01*
X187687Y42423D01*
X185615Y40351D01*
X182685Y40351D01*
X180613Y42423D01*
X180613Y43157D01*
X180599Y43247D01*
X180591Y43338D01*
X180579Y43367D01*
X180574Y43399D01*
X180531Y43480D01*
X180495Y43564D01*
X180469Y43596D01*
X180458Y43617D01*
X180435Y43639D01*
X180390Y43695D01*
X176303Y47782D01*
X176229Y47835D01*
X176159Y47895D01*
X176129Y47907D01*
X176103Y47926D01*
X176016Y47953D01*
X175931Y47987D01*
X175890Y47991D01*
X175868Y47998D01*
X175836Y47997D01*
X175765Y48005D01*
X118948Y48005D01*
X118858Y47991D01*
X118767Y47983D01*
X118737Y47971D01*
X118705Y47966D01*
X118624Y47923D01*
X118541Y47887D01*
X118508Y47861D01*
X118488Y47850D01*
X118466Y47827D01*
X118410Y47782D01*
X107793Y37165D01*
X105933Y35305D01*
X93584Y35305D01*
X91724Y37165D01*
X90311Y38578D01*
X90253Y38620D01*
X90201Y38670D01*
X90154Y38692D01*
X90112Y38722D01*
X90043Y38743D01*
X89978Y38773D01*
X89926Y38779D01*
X89876Y38794D01*
X89805Y38792D01*
X89734Y38800D01*
X89683Y38789D01*
X89631Y38788D01*
X89563Y38763D01*
X89493Y38748D01*
X89449Y38721D01*
X89400Y38703D01*
X89344Y38659D01*
X89282Y38622D01*
X89248Y38582D01*
X89208Y38550D01*
X89169Y38489D01*
X89122Y38435D01*
X89103Y38387D01*
X89075Y38343D01*
X89057Y38273D01*
X89030Y38207D01*
X89022Y38135D01*
X89014Y38104D01*
X89015Y38092D01*
X87086Y36163D01*
X86706Y36163D01*
X86616Y36149D01*
X86525Y36141D01*
X86495Y36129D01*
X86463Y36124D01*
X86383Y36081D01*
X86299Y36045D01*
X86267Y36019D01*
X86246Y36008D01*
X86233Y35995D01*
X86232Y35995D01*
X86221Y35983D01*
X86168Y35940D01*
X85295Y35068D01*
X70973Y35068D01*
X70953Y35065D01*
X70934Y35067D01*
X70832Y35045D01*
X70730Y35028D01*
X70713Y35019D01*
X70693Y35014D01*
X70604Y34961D01*
X70513Y34913D01*
X70499Y34899D01*
X70482Y34888D01*
X70415Y34810D01*
X70343Y34735D01*
X70335Y34717D01*
X70322Y34701D01*
X70283Y34605D01*
X70240Y34512D01*
X70238Y34492D01*
X70230Y34473D01*
X70212Y34307D01*
X70212Y31873D01*
X68140Y29801D01*
X65210Y29801D01*
G37*
%LPD*%
%LPC*%
G36*
X185270Y-27305D02*
X185270Y-27305D01*
X179886Y-25075D01*
X175765Y-20954D01*
X173535Y-15570D01*
X173535Y-9742D01*
X175765Y-4357D01*
X179239Y-883D01*
X179281Y-825D01*
X179331Y-773D01*
X179353Y-725D01*
X179383Y-683D01*
X179404Y-615D01*
X179434Y-549D01*
X179440Y-498D01*
X179455Y-448D01*
X179454Y-376D01*
X179461Y-305D01*
X179450Y-254D01*
X179449Y-202D01*
X179424Y-135D01*
X179409Y-65D01*
X179382Y-20D01*
X179365Y29D01*
X179320Y85D01*
X179283Y147D01*
X179243Y180D01*
X179211Y221D01*
X179151Y260D01*
X179096Y306D01*
X179048Y326D01*
X179004Y354D01*
X178934Y372D01*
X178868Y398D01*
X178797Y406D01*
X178765Y414D01*
X178742Y412D01*
X178701Y417D01*
X176260Y417D01*
X173829Y2848D01*
X173829Y6285D01*
X175023Y7479D01*
X175064Y7537D01*
X175114Y7589D01*
X175136Y7636D01*
X175166Y7679D01*
X175187Y7747D01*
X175217Y7812D01*
X175223Y7864D01*
X175239Y7914D01*
X175237Y7985D01*
X175245Y8057D01*
X175233Y8107D01*
X175232Y8159D01*
X175208Y8227D01*
X175192Y8297D01*
X175166Y8342D01*
X175148Y8391D01*
X175103Y8447D01*
X175066Y8508D01*
X175027Y8542D01*
X174994Y8583D01*
X174934Y8621D01*
X174879Y8668D01*
X174831Y8687D01*
X174787Y8716D01*
X174718Y8733D01*
X174651Y8760D01*
X174580Y8768D01*
X174549Y8776D01*
X174525Y8774D01*
X174484Y8778D01*
X166280Y8778D01*
X166190Y8764D01*
X166099Y8756D01*
X166069Y8744D01*
X166037Y8739D01*
X165957Y8696D01*
X165873Y8660D01*
X165841Y8634D01*
X165820Y8624D01*
X165798Y8600D01*
X165742Y8555D01*
X160661Y3475D01*
X160631Y3432D01*
X160593Y3396D01*
X160534Y3298D01*
X160518Y3275D01*
X160515Y3265D01*
X160507Y3252D01*
X160506Y3249D01*
X159469Y2282D01*
X159463Y2274D01*
X159450Y2264D01*
X158448Y1262D01*
X158446Y1261D01*
X158401Y1233D01*
X158352Y1214D01*
X158260Y1146D01*
X158237Y1131D01*
X158230Y1123D01*
X158218Y1114D01*
X134403Y-21113D01*
X131469Y-22212D01*
X128338Y-22104D01*
X125487Y-20806D01*
X123349Y-18516D01*
X122251Y-15582D01*
X122359Y-12451D01*
X123657Y-9599D01*
X148506Y13593D01*
X148512Y13601D01*
X148525Y13611D01*
X155920Y21007D01*
X158242Y23329D01*
X161137Y24528D01*
X193419Y24528D01*
X196314Y23329D01*
X200432Y19210D01*
X200506Y19157D01*
X200576Y19098D01*
X200606Y19085D01*
X200632Y19067D01*
X200719Y19040D01*
X200804Y19006D01*
X200845Y19001D01*
X200867Y18994D01*
X200899Y18995D01*
X200971Y18987D01*
X220641Y18987D01*
X223536Y17788D01*
X225751Y15573D01*
X226950Y12679D01*
X226950Y9546D01*
X225751Y6652D01*
X223536Y4437D01*
X220641Y3238D01*
X192109Y3238D01*
X189214Y4437D01*
X186999Y6652D01*
X186313Y8308D01*
X186251Y8408D01*
X186191Y8508D01*
X186187Y8512D01*
X186183Y8517D01*
X186094Y8592D01*
X186005Y8668D01*
X185999Y8670D01*
X185994Y8674D01*
X185886Y8716D01*
X185776Y8760D01*
X185769Y8761D01*
X185764Y8762D01*
X185746Y8763D01*
X185610Y8778D01*
X181474Y8778D01*
X181403Y8767D01*
X181331Y8765D01*
X181282Y8747D01*
X181231Y8739D01*
X181167Y8705D01*
X181100Y8680D01*
X181059Y8648D01*
X181013Y8624D01*
X180964Y8572D01*
X180908Y8527D01*
X180880Y8483D01*
X180844Y8445D01*
X180814Y8380D01*
X180775Y8320D01*
X180762Y8269D01*
X180740Y8222D01*
X180733Y8151D01*
X180715Y8081D01*
X180719Y8029D01*
X180713Y7978D01*
X180729Y7907D01*
X180734Y7836D01*
X180754Y7788D01*
X180766Y7737D01*
X180802Y7676D01*
X180830Y7610D01*
X180875Y7554D01*
X180892Y7526D01*
X180910Y7511D01*
X180935Y7479D01*
X182129Y6285D01*
X182129Y2848D01*
X181156Y1875D01*
X181099Y1796D01*
X181037Y1721D01*
X181028Y1696D01*
X181012Y1675D01*
X180984Y1582D01*
X180949Y1491D01*
X180948Y1465D01*
X180940Y1440D01*
X180943Y1343D01*
X180939Y1246D01*
X180946Y1220D01*
X180946Y1194D01*
X180980Y1103D01*
X181007Y1009D01*
X181022Y988D01*
X181031Y963D01*
X181092Y887D01*
X181147Y807D01*
X181168Y792D01*
X181185Y771D01*
X181267Y719D01*
X181345Y660D01*
X181370Y652D01*
X181392Y638D01*
X181486Y614D01*
X181579Y584D01*
X181605Y585D01*
X181630Y578D01*
X181727Y586D01*
X181825Y587D01*
X181856Y596D01*
X181875Y597D01*
X181906Y610D01*
X181986Y633D01*
X185270Y1994D01*
X191098Y1994D01*
X196483Y-236D01*
X200604Y-4357D01*
X202834Y-9742D01*
X202834Y-15570D01*
X200604Y-20954D01*
X196483Y-25075D01*
X191098Y-27305D01*
X185270Y-27305D01*
G37*
%LPD*%
%LPC*%
G36*
X-29731Y30775D02*
X-29731Y30775D01*
X-30101Y31145D01*
X-30175Y31198D01*
X-30245Y31258D01*
X-30275Y31270D01*
X-30301Y31289D01*
X-30388Y31316D01*
X-30473Y31350D01*
X-30514Y31354D01*
X-30536Y31361D01*
X-30568Y31360D01*
X-30640Y31368D01*
X-43773Y31368D01*
X-98807Y86402D01*
X-98807Y149748D01*
X-98821Y149838D01*
X-98829Y149929D01*
X-98841Y149959D01*
X-98846Y149991D01*
X-98889Y150071D01*
X-98925Y150155D01*
X-98951Y150187D01*
X-98962Y150208D01*
X-98985Y150230D01*
X-99030Y150286D01*
X-99438Y150694D01*
X-99439Y150704D01*
X-99482Y150784D01*
X-99518Y150868D01*
X-99544Y150900D01*
X-99555Y150921D01*
X-99578Y150943D01*
X-99623Y150999D01*
X-103086Y154462D01*
X-103160Y154515D01*
X-103229Y154575D01*
X-103259Y154587D01*
X-103285Y154606D01*
X-103372Y154633D01*
X-103457Y154667D01*
X-103498Y154671D01*
X-103521Y154678D01*
X-103553Y154677D01*
X-103624Y154685D01*
X-204104Y154685D01*
X-204175Y154674D01*
X-204246Y154672D01*
X-204295Y154654D01*
X-204347Y154646D01*
X-204410Y154612D01*
X-204477Y154587D01*
X-204518Y154555D01*
X-204564Y154530D01*
X-204613Y154478D01*
X-204669Y154434D01*
X-204697Y154390D01*
X-204733Y154352D01*
X-204764Y154287D01*
X-204802Y154227D01*
X-204815Y154176D01*
X-204837Y154129D01*
X-204845Y154058D01*
X-204862Y153988D01*
X-204858Y153936D01*
X-204864Y153885D01*
X-204849Y153814D01*
X-204843Y153743D01*
X-204823Y153695D01*
X-204812Y153644D01*
X-204775Y153583D01*
X-204747Y153517D01*
X-204702Y153461D01*
X-204686Y153433D01*
X-204668Y153418D01*
X-204642Y153386D01*
X-203813Y152556D01*
X-203813Y149119D01*
X-206244Y146688D01*
X-209681Y146688D01*
X-212112Y149119D01*
X-212112Y152556D01*
X-211283Y153386D01*
X-211241Y153444D01*
X-211192Y153496D01*
X-211170Y153543D01*
X-211139Y153585D01*
X-211118Y153654D01*
X-211088Y153719D01*
X-211082Y153771D01*
X-211067Y153821D01*
X-211069Y153892D01*
X-211061Y153963D01*
X-211072Y154014D01*
X-211073Y154066D01*
X-211098Y154134D01*
X-211113Y154204D01*
X-211140Y154249D01*
X-211158Y154297D01*
X-211203Y154353D01*
X-211239Y154415D01*
X-211279Y154449D01*
X-211311Y154489D01*
X-211372Y154528D01*
X-211426Y154575D01*
X-211475Y154594D01*
X-211518Y154622D01*
X-211588Y154640D01*
X-211654Y154667D01*
X-211726Y154675D01*
X-211757Y154683D01*
X-211780Y154681D01*
X-211821Y154685D01*
X-221606Y154685D01*
X-221696Y154671D01*
X-221787Y154663D01*
X-221817Y154651D01*
X-221849Y154646D01*
X-221929Y154603D01*
X-221935Y154600D01*
X-225444Y154600D01*
X-227875Y157031D01*
X-227875Y160469D01*
X-225444Y162900D01*
X-221952Y162900D01*
X-221944Y162894D01*
X-221857Y162867D01*
X-221773Y162833D01*
X-221732Y162829D01*
X-221709Y162822D01*
X-221677Y162823D01*
X-221606Y162815D01*
X-99941Y162815D01*
X-93874Y156748D01*
X-93800Y156695D01*
X-93731Y156635D01*
X-93701Y156623D01*
X-93675Y156604D01*
X-93588Y156577D01*
X-93581Y156575D01*
X-91100Y154094D01*
X-91100Y150656D01*
X-91470Y150286D01*
X-91523Y150212D01*
X-91583Y150143D01*
X-91595Y150113D01*
X-91614Y150086D01*
X-91641Y149999D01*
X-91675Y149915D01*
X-91679Y149874D01*
X-91686Y149851D01*
X-91685Y149819D01*
X-91693Y149748D01*
X-91693Y89664D01*
X-91679Y89573D01*
X-91671Y89483D01*
X-91659Y89453D01*
X-91654Y89421D01*
X-91611Y89340D01*
X-91575Y89256D01*
X-91549Y89224D01*
X-91538Y89203D01*
X-91515Y89181D01*
X-91470Y89125D01*
X-41050Y38705D01*
X-40976Y38652D01*
X-40906Y38592D01*
X-40876Y38580D01*
X-40850Y38561D01*
X-40763Y38534D01*
X-40678Y38500D01*
X-40637Y38496D01*
X-40615Y38489D01*
X-40583Y38490D01*
X-40511Y38482D01*
X-30640Y38482D01*
X-30550Y38496D01*
X-30459Y38504D01*
X-30429Y38516D01*
X-30397Y38521D01*
X-30316Y38564D01*
X-30232Y38600D01*
X-30200Y38626D01*
X-30180Y38637D01*
X-30157Y38660D01*
X-30101Y38705D01*
X-29731Y39075D01*
X-26294Y39075D01*
X-23863Y36644D01*
X-23863Y33206D01*
X-26294Y30775D01*
X-29731Y30775D01*
G37*
%LPD*%
%LPC*%
G36*
X41996Y-5792D02*
X41996Y-5792D01*
X45634Y508D01*
X45668Y597D01*
X45708Y684D01*
X45711Y712D01*
X45721Y738D01*
X45724Y834D01*
X45735Y928D01*
X45729Y956D01*
X45730Y984D01*
X45703Y1076D01*
X45683Y1169D01*
X45668Y1193D01*
X45660Y1220D01*
X45605Y1298D01*
X45557Y1380D01*
X45535Y1398D01*
X45519Y1421D01*
X45442Y1478D01*
X45370Y1540D01*
X45343Y1550D01*
X45321Y1567D01*
X45230Y1596D01*
X45141Y1632D01*
X45106Y1636D01*
X45086Y1642D01*
X45053Y1642D01*
X44975Y1650D01*
X43215Y1650D01*
X43148Y1639D01*
X43081Y1638D01*
X43028Y1620D01*
X42972Y1611D01*
X42913Y1579D01*
X42849Y1556D01*
X42804Y1522D01*
X42755Y1495D01*
X42708Y1447D01*
X42655Y1405D01*
X42608Y1341D01*
X42586Y1317D01*
X42577Y1298D01*
X42556Y1270D01*
X39358Y-4269D01*
X31942Y13D01*
X32142Y289D01*
X32204Y351D01*
X32246Y409D01*
X32296Y461D01*
X32317Y508D01*
X32348Y550D01*
X32369Y619D01*
X32399Y684D01*
X32405Y736D01*
X32420Y785D01*
X32418Y857D01*
X32426Y928D01*
X32415Y979D01*
X32414Y1031D01*
X32389Y1099D01*
X32374Y1169D01*
X32347Y1214D01*
X32329Y1262D01*
X32285Y1318D01*
X32248Y1380D01*
X32208Y1414D01*
X32176Y1454D01*
X32116Y1493D01*
X32061Y1540D01*
X32013Y1559D01*
X31969Y1587D01*
X31899Y1605D01*
X31833Y1632D01*
X31762Y1640D01*
X31730Y1648D01*
X31707Y1646D01*
X31666Y1650D01*
X12721Y1650D01*
X9827Y2849D01*
X-9851Y22527D01*
X-11050Y25421D01*
X-11050Y51689D01*
X-11053Y51709D01*
X-11051Y51728D01*
X-11073Y51830D01*
X-11089Y51932D01*
X-11099Y51949D01*
X-11103Y51969D01*
X-11156Y52058D01*
X-11205Y52149D01*
X-11219Y52163D01*
X-11229Y52180D01*
X-11308Y52247D01*
X-11383Y52319D01*
X-11401Y52327D01*
X-11416Y52340D01*
X-11512Y52379D01*
X-11606Y52422D01*
X-11626Y52424D01*
X-11644Y52432D01*
X-11811Y52450D01*
X-17441Y52450D01*
X-20336Y53649D01*
X-22551Y55864D01*
X-23750Y58759D01*
X-23750Y61891D01*
X-22551Y64786D01*
X-20336Y67001D01*
X-17441Y68200D01*
X-1609Y68200D01*
X1286Y67001D01*
X3501Y64786D01*
X4700Y61891D01*
X4700Y30565D01*
X4714Y30475D01*
X4722Y30384D01*
X4734Y30354D01*
X4739Y30322D01*
X4782Y30241D01*
X4818Y30157D01*
X4844Y30125D01*
X4855Y30105D01*
X4878Y30082D01*
X4923Y30026D01*
X17326Y17623D01*
X17400Y17570D01*
X17470Y17510D01*
X17500Y17498D01*
X17526Y17479D01*
X17613Y17452D01*
X17698Y17418D01*
X17739Y17414D01*
X17761Y17407D01*
X17793Y17408D01*
X17865Y17400D01*
X50779Y17400D01*
X53673Y16201D01*
X55888Y13986D01*
X57087Y11091D01*
X57087Y7959D01*
X55888Y5064D01*
X53673Y2849D01*
X50779Y1650D01*
X48165Y1650D01*
X48094Y1639D01*
X48022Y1637D01*
X47973Y1619D01*
X47922Y1611D01*
X47859Y1577D01*
X47791Y1552D01*
X47751Y1520D01*
X47705Y1495D01*
X47655Y1443D01*
X47599Y1399D01*
X47571Y1355D01*
X47535Y1317D01*
X47505Y1252D01*
X47466Y1192D01*
X47454Y1141D01*
X47432Y1094D01*
X47424Y1023D01*
X47406Y953D01*
X47410Y901D01*
X47405Y850D01*
X47420Y779D01*
X47425Y708D01*
X47446Y660D01*
X47457Y609D01*
X47494Y548D01*
X47522Y482D01*
X47567Y426D01*
X47583Y398D01*
X47601Y383D01*
X47627Y351D01*
X47689Y289D01*
X48631Y-1009D01*
X49360Y-2438D01*
X49855Y-3964D01*
X50106Y-5548D01*
X50106Y-7152D01*
X49855Y-8736D01*
X49419Y-10078D01*
X41996Y-5792D01*
G37*
%LPD*%
%LPC*%
G36*
X105100Y76326D02*
X105100Y76326D01*
X96536Y84890D01*
X96462Y84943D01*
X96392Y85003D01*
X96362Y85015D01*
X96336Y85034D01*
X96249Y85061D01*
X96164Y85095D01*
X96123Y85099D01*
X96101Y85106D01*
X96069Y85105D01*
X95997Y85113D01*
X95269Y85113D01*
X93051Y87331D01*
X93051Y90469D01*
X95269Y92687D01*
X98406Y92687D01*
X100624Y90469D01*
X100624Y89740D01*
X100639Y89650D01*
X100646Y89559D01*
X100659Y89529D01*
X100664Y89497D01*
X100707Y89417D01*
X100742Y89333D01*
X100768Y89301D01*
X100779Y89280D01*
X100802Y89258D01*
X100847Y89202D01*
X107402Y82647D01*
X107476Y82594D01*
X107546Y82534D01*
X107576Y82522D01*
X107602Y82503D01*
X107689Y82476D01*
X107774Y82442D01*
X107815Y82438D01*
X107837Y82431D01*
X107869Y82432D01*
X107941Y82424D01*
X163042Y82424D01*
X163112Y82435D01*
X163184Y82437D01*
X163233Y82455D01*
X163284Y82463D01*
X163348Y82497D01*
X163415Y82522D01*
X163456Y82554D01*
X163502Y82579D01*
X163551Y82631D01*
X163607Y82675D01*
X163635Y82719D01*
X163671Y82757D01*
X163701Y82822D01*
X163740Y82882D01*
X163753Y82933D01*
X163775Y82980D01*
X163783Y83051D01*
X163800Y83121D01*
X163796Y83173D01*
X163802Y83224D01*
X163787Y83295D01*
X163781Y83366D01*
X163761Y83414D01*
X163750Y83465D01*
X163713Y83526D01*
X163685Y83592D01*
X163640Y83648D01*
X163623Y83676D01*
X163606Y83691D01*
X163580Y83723D01*
X162337Y84966D01*
X162337Y88103D01*
X164555Y90321D01*
X167693Y90321D01*
X169911Y88103D01*
X169911Y84966D01*
X168668Y83723D01*
X168626Y83665D01*
X168577Y83613D01*
X168555Y83566D01*
X168525Y83524D01*
X168504Y83455D01*
X168473Y83390D01*
X168468Y83338D01*
X168452Y83288D01*
X168454Y83217D01*
X168446Y83146D01*
X168457Y83095D01*
X168459Y83043D01*
X168483Y82975D01*
X168498Y82905D01*
X168525Y82860D01*
X168543Y82812D01*
X168588Y82756D01*
X168625Y82694D01*
X168664Y82660D01*
X168697Y82620D01*
X168757Y82581D01*
X168812Y82534D01*
X168860Y82515D01*
X168904Y82487D01*
X168973Y82469D01*
X169040Y82442D01*
X169111Y82434D01*
X169142Y82426D01*
X169165Y82428D01*
X169206Y82424D01*
X171459Y82424D01*
X171549Y82438D01*
X171640Y82446D01*
X171670Y82458D01*
X171702Y82463D01*
X171783Y82506D01*
X171867Y82542D01*
X171899Y82568D01*
X171919Y82579D01*
X171942Y82602D01*
X171998Y82647D01*
X175378Y86027D01*
X175431Y86101D01*
X175490Y86170D01*
X175503Y86200D01*
X175521Y86227D01*
X175548Y86314D01*
X175582Y86398D01*
X175587Y86439D01*
X175594Y86462D01*
X175593Y86494D01*
X175601Y86565D01*
X175601Y87294D01*
X177819Y89512D01*
X180956Y89512D01*
X183174Y87294D01*
X183174Y84156D01*
X180956Y81938D01*
X180228Y81938D01*
X180138Y81924D01*
X180047Y81916D01*
X180017Y81904D01*
X179985Y81899D01*
X179904Y81856D01*
X179820Y81820D01*
X179788Y81794D01*
X179768Y81783D01*
X179745Y81760D01*
X179689Y81715D01*
X174300Y76326D01*
X105100Y76326D01*
G37*
%LPD*%
%LPC*%
G36*
X171453Y187278D02*
X171453Y187278D01*
X167585Y188880D01*
X164625Y191841D01*
X163022Y195709D01*
X163022Y199896D01*
X164625Y203765D01*
X167585Y206725D01*
X171453Y208328D01*
X175640Y208328D01*
X179509Y206725D01*
X182469Y203765D01*
X184072Y199896D01*
X184072Y195709D01*
X182469Y191841D01*
X179509Y188880D01*
X175640Y187278D01*
X171453Y187278D01*
G37*
%LPD*%
%LPC*%
G36*
X-239944Y35305D02*
X-239944Y35305D01*
X-243305Y36697D01*
X-245878Y39270D01*
X-247270Y42631D01*
X-247270Y46269D01*
X-245878Y49630D01*
X-243305Y52203D01*
X-239944Y53595D01*
X-236306Y53595D01*
X-232945Y52203D01*
X-230372Y49630D01*
X-228980Y46269D01*
X-228980Y42631D01*
X-230372Y39270D01*
X-232945Y36697D01*
X-236306Y35305D01*
X-239944Y35305D01*
G37*
%LPD*%
%LPC*%
G36*
X-239944Y60705D02*
X-239944Y60705D01*
X-243305Y62097D01*
X-245878Y64670D01*
X-247270Y68031D01*
X-247270Y71669D01*
X-245878Y75030D01*
X-243305Y77603D01*
X-239944Y78995D01*
X-236306Y78995D01*
X-232945Y77603D01*
X-230372Y75030D01*
X-228980Y71669D01*
X-228980Y68031D01*
X-230372Y64670D01*
X-232945Y62097D01*
X-236306Y60705D01*
X-239944Y60705D01*
G37*
%LPD*%
%LPC*%
G36*
X-239944Y111505D02*
X-239944Y111505D01*
X-243305Y112897D01*
X-245878Y115470D01*
X-247270Y118831D01*
X-247270Y122469D01*
X-245878Y125830D01*
X-243305Y128403D01*
X-239944Y129795D01*
X-236306Y129795D01*
X-232945Y128403D01*
X-230372Y125830D01*
X-228980Y122469D01*
X-228980Y118831D01*
X-230372Y115470D01*
X-232945Y112897D01*
X-236306Y111505D01*
X-239944Y111505D01*
G37*
%LPD*%
%LPC*%
G36*
X-239944Y86105D02*
X-239944Y86105D01*
X-243305Y87497D01*
X-245878Y90070D01*
X-247270Y93431D01*
X-247270Y97069D01*
X-245878Y100430D01*
X-243305Y103003D01*
X-239944Y104395D01*
X-236306Y104395D01*
X-232945Y103003D01*
X-230372Y100430D01*
X-228980Y97069D01*
X-228980Y93431D01*
X-230372Y90070D01*
X-232945Y87497D01*
X-236306Y86105D01*
X-239944Y86105D01*
G37*
%LPD*%
%LPC*%
G36*
X188596Y-48684D02*
X188596Y-48684D01*
X185665Y-47470D01*
X183422Y-45227D01*
X182208Y-42295D01*
X182208Y-39123D01*
X183422Y-36192D01*
X185665Y-33949D01*
X188596Y-32734D01*
X191769Y-32734D01*
X194700Y-33949D01*
X196943Y-36192D01*
X198157Y-39123D01*
X198157Y-42295D01*
X196943Y-45227D01*
X194700Y-47470D01*
X191769Y-48684D01*
X188596Y-48684D01*
G37*
%LPD*%
%LPC*%
G36*
X155970Y-33013D02*
X155970Y-33013D01*
X168162Y-25975D01*
X168756Y-27409D01*
X169287Y-29393D01*
X169555Y-31429D01*
X169555Y-33482D01*
X169287Y-35519D01*
X168756Y-37502D01*
X167970Y-39399D01*
X166943Y-41178D01*
X165693Y-42807D01*
X164241Y-44259D01*
X163009Y-45204D01*
X155970Y-33013D01*
G37*
%LPD*%
%LPC*%
G36*
X152863Y-48121D02*
X152863Y-48121D01*
X150827Y-47853D01*
X148843Y-47322D01*
X146946Y-46536D01*
X145168Y-45509D01*
X143538Y-44259D01*
X142086Y-42807D01*
X141141Y-41575D01*
X153332Y-34536D01*
X160371Y-46728D01*
X158936Y-47322D01*
X156953Y-47853D01*
X154916Y-48121D01*
X152863Y-48121D01*
G37*
%LPD*%
%LPC*%
G36*
X139024Y-37502D02*
X139024Y-37502D01*
X138492Y-35519D01*
X138224Y-33482D01*
X138224Y-31429D01*
X138492Y-29393D01*
X139024Y-27409D01*
X139809Y-25512D01*
X140836Y-23734D01*
X142086Y-22104D01*
X143538Y-20652D01*
X144770Y-19707D01*
X151809Y-31898D01*
X139618Y-38937D01*
X139024Y-37502D01*
G37*
%LPD*%
%LPC*%
G36*
X147409Y-18184D02*
X147409Y-18184D01*
X148843Y-17590D01*
X150827Y-17058D01*
X152863Y-16790D01*
X154916Y-16790D01*
X156953Y-17058D01*
X158936Y-17590D01*
X160833Y-18375D01*
X162612Y-19402D01*
X164241Y-20652D01*
X165693Y-22104D01*
X166638Y-23336D01*
X154447Y-30375D01*
X147409Y-18184D01*
G37*
%LPD*%
%LPC*%
G36*
X-132329Y95022D02*
X-132329Y95022D01*
X-134547Y97240D01*
X-134547Y100377D01*
X-132297Y102628D01*
X-132253Y102635D01*
X-132190Y102669D01*
X-132123Y102693D01*
X-132082Y102726D01*
X-132036Y102750D01*
X-131987Y102802D01*
X-131931Y102847D01*
X-131903Y102891D01*
X-131867Y102928D01*
X-131837Y102993D01*
X-131798Y103054D01*
X-131785Y103104D01*
X-131763Y103151D01*
X-131755Y103223D01*
X-131738Y103292D01*
X-131742Y103344D01*
X-131736Y103396D01*
X-131751Y103466D01*
X-131757Y103537D01*
X-131777Y103585D01*
X-131788Y103636D01*
X-131825Y103698D01*
X-131853Y103764D01*
X-131898Y103820D01*
X-131914Y103847D01*
X-131932Y103863D01*
X-131958Y103895D01*
X-132961Y104898D01*
X-132961Y107827D01*
X-132373Y108415D01*
X-132361Y108432D01*
X-132346Y108444D01*
X-132289Y108531D01*
X-132229Y108615D01*
X-132223Y108634D01*
X-132213Y108651D01*
X-132187Y108752D01*
X-132157Y108850D01*
X-132157Y108870D01*
X-132152Y108890D01*
X-132161Y108993D01*
X-132163Y109096D01*
X-132170Y109115D01*
X-132172Y109135D01*
X-132212Y109230D01*
X-132248Y109327D01*
X-132260Y109343D01*
X-132268Y109361D01*
X-132373Y109492D01*
X-134548Y111668D01*
X-134548Y114597D01*
X-132476Y116669D01*
X-129547Y116669D01*
X-127475Y114597D01*
X-127475Y111668D01*
X-128063Y111080D01*
X-128074Y111063D01*
X-128090Y111051D01*
X-128146Y110964D01*
X-128206Y110880D01*
X-128212Y110861D01*
X-128223Y110844D01*
X-128248Y110744D01*
X-128279Y110645D01*
X-128278Y110625D01*
X-128283Y110605D01*
X-128275Y110503D01*
X-128272Y110399D01*
X-128265Y110380D01*
X-128264Y110360D01*
X-128224Y110265D01*
X-128188Y110168D01*
X-128175Y110152D01*
X-128168Y110134D01*
X-128063Y110003D01*
X-125887Y107827D01*
X-125887Y104898D01*
X-128153Y102632D01*
X-128164Y102616D01*
X-128180Y102604D01*
X-128236Y102516D01*
X-128296Y102432D01*
X-128302Y102413D01*
X-128313Y102397D01*
X-128338Y102296D01*
X-128369Y102197D01*
X-128368Y102177D01*
X-128373Y102158D01*
X-128365Y102055D01*
X-128362Y101951D01*
X-128355Y101933D01*
X-128354Y101913D01*
X-128313Y101818D01*
X-128278Y101720D01*
X-128265Y101705D01*
X-128257Y101687D01*
X-128153Y101556D01*
X-126974Y100377D01*
X-126974Y97240D01*
X-129192Y95022D01*
X-132329Y95022D01*
G37*
%LPD*%
%LPC*%
G36*
X202810Y48125D02*
X202810Y48125D01*
X200013Y50922D01*
X200013Y54878D01*
X202810Y57675D01*
X206765Y57675D01*
X209562Y54878D01*
X209562Y50922D01*
X206765Y48125D01*
X202810Y48125D01*
G37*
%LPD*%
%LPC*%
G36*
X202810Y120125D02*
X202810Y120125D01*
X200013Y122922D01*
X200013Y126878D01*
X202810Y129675D01*
X206765Y129675D01*
X209562Y126878D01*
X209562Y122922D01*
X206765Y120125D01*
X202810Y120125D01*
G37*
%LPD*%
%LPC*%
G36*
X134087Y222344D02*
X134087Y222344D01*
X134433Y222821D01*
X135718Y224105D01*
X137188Y225173D01*
X138806Y225998D01*
X140534Y226559D01*
X142328Y226844D01*
X144144Y226844D01*
X145938Y226559D01*
X147654Y226002D01*
X142679Y217384D01*
X134087Y222344D01*
G37*
%LPD*%
%LPC*%
G36*
X145317Y215860D02*
X145317Y215860D01*
X150277Y224452D01*
X150754Y224106D01*
X152039Y222821D01*
X153107Y221351D01*
X153931Y219733D01*
X154493Y218005D01*
X154777Y216211D01*
X154777Y214395D01*
X154493Y212600D01*
X153935Y210885D01*
X145317Y215860D01*
G37*
%LPD*%
%LPC*%
G36*
X142328Y203762D02*
X142328Y203762D01*
X140534Y204046D01*
X138818Y204604D01*
X143794Y213222D01*
X152385Y208262D01*
X152039Y207784D01*
X150754Y206500D01*
X149285Y205432D01*
X147666Y204608D01*
X145938Y204046D01*
X144144Y203762D01*
X142328Y203762D01*
G37*
%LPD*%
%LPC*%
G36*
X135718Y206500D02*
X135718Y206500D01*
X134433Y207784D01*
X133365Y209254D01*
X132541Y210873D01*
X131979Y212600D01*
X131695Y214395D01*
X131695Y216211D01*
X131979Y218005D01*
X132537Y219721D01*
X141155Y214745D01*
X136195Y206153D01*
X135718Y206500D01*
G37*
%LPD*%
%LPC*%
G36*
X226881Y97450D02*
X226881Y97450D01*
X224450Y99881D01*
X224450Y103319D01*
X226881Y105750D01*
X230319Y105750D01*
X232750Y103319D01*
X232750Y99881D01*
X230319Y97450D01*
X226881Y97450D01*
G37*
%LPD*%
%LPC*%
G36*
X77656Y178413D02*
X77656Y178413D01*
X75225Y180844D01*
X75225Y184281D01*
X77656Y186712D01*
X81094Y186712D01*
X83525Y184281D01*
X83525Y180844D01*
X81094Y178413D01*
X77656Y178413D01*
G37*
%LPD*%
%LPC*%
G36*
X69719Y170475D02*
X69719Y170475D01*
X67288Y172906D01*
X67288Y176344D01*
X69719Y178775D01*
X73156Y178775D01*
X75587Y176344D01*
X75587Y172906D01*
X73156Y170475D01*
X69719Y170475D01*
G37*
%LPD*%
%LPC*%
G36*
X109406Y125000D02*
X109406Y125000D01*
X106975Y127431D01*
X106975Y130869D01*
X109406Y133300D01*
X112844Y133300D01*
X115275Y130869D01*
X115275Y127431D01*
X112844Y125000D01*
X109406Y125000D01*
G37*
%LPD*%
%LPC*%
G36*
X226881Y73638D02*
X226881Y73638D01*
X224450Y76069D01*
X224450Y79506D01*
X226881Y81937D01*
X230319Y81937D01*
X232750Y79506D01*
X232750Y76069D01*
X230319Y73638D01*
X226881Y73638D01*
G37*
%LPD*%
%LPC*%
G36*
X226881Y84750D02*
X226881Y84750D01*
X224450Y87181D01*
X224450Y90619D01*
X226881Y93050D01*
X230319Y93050D01*
X232750Y90619D01*
X232750Y87181D01*
X230319Y84750D01*
X226881Y84750D01*
G37*
%LPD*%
%LPC*%
G36*
X41996Y183592D02*
X41996Y183592D01*
X49419Y187878D01*
X49855Y186536D01*
X50106Y184952D01*
X50106Y183348D01*
X49855Y181764D01*
X49360Y180238D01*
X48631Y178809D01*
X47689Y177511D01*
X46554Y176377D01*
X46278Y176176D01*
X41996Y183592D01*
G37*
%LPD*%
%LPC*%
G36*
X39113Y173959D02*
X39113Y173959D01*
X37529Y174210D01*
X36004Y174706D01*
X34574Y175434D01*
X33277Y176377D01*
X32142Y177511D01*
X31942Y177787D01*
X39358Y182069D01*
X43644Y174646D01*
X42302Y174210D01*
X40717Y173959D01*
X39113Y173959D01*
G37*
%LPD*%
%LPC*%
G36*
X-30461Y4151D02*
X-30461Y4151D01*
X-32679Y6369D01*
X-32679Y9506D01*
X-30461Y11724D01*
X-27324Y11724D01*
X-25106Y9506D01*
X-25106Y6369D01*
X-27324Y4151D01*
X-30461Y4151D01*
G37*
%LPD*%
%LPC*%
G36*
X125431Y91463D02*
X125431Y91463D01*
X123213Y93681D01*
X123213Y96819D01*
X125431Y99037D01*
X128569Y99037D01*
X130787Y96819D01*
X130787Y93681D01*
X128569Y91463D01*
X125431Y91463D01*
G37*
%LPD*%
%LPC*%
G36*
X204806Y96226D02*
X204806Y96226D01*
X202588Y98444D01*
X202588Y101581D01*
X204806Y103799D01*
X207944Y103799D01*
X210162Y101581D01*
X210162Y98444D01*
X207944Y96226D01*
X204806Y96226D01*
G37*
%LPD*%
%LPC*%
G36*
X204806Y83526D02*
X204806Y83526D01*
X202588Y85744D01*
X202588Y88881D01*
X204806Y91099D01*
X207944Y91099D01*
X210162Y88881D01*
X210162Y85744D01*
X207944Y83526D01*
X204806Y83526D01*
G37*
%LPD*%
%LPC*%
G36*
X-192069Y137550D02*
X-192069Y137550D01*
X-194287Y139768D01*
X-194287Y142905D01*
X-192069Y145123D01*
X-188931Y145123D01*
X-186713Y142905D01*
X-186713Y139768D01*
X-188931Y137550D01*
X-192069Y137550D01*
G37*
%LPD*%
%LPC*%
G36*
X188169Y94638D02*
X188169Y94638D01*
X185951Y96856D01*
X185951Y99994D01*
X188169Y102212D01*
X191307Y102212D01*
X193525Y99994D01*
X193525Y96856D01*
X191307Y94638D01*
X188169Y94638D01*
G37*
%LPD*%
%LPC*%
G36*
X188155Y108926D02*
X188155Y108926D01*
X185937Y111144D01*
X185937Y114281D01*
X188155Y116499D01*
X191293Y116499D01*
X193511Y114281D01*
X193511Y111144D01*
X191293Y108926D01*
X188155Y108926D01*
G37*
%LPD*%
%LPC*%
G36*
X99160Y103501D02*
X99160Y103501D01*
X97088Y105573D01*
X97088Y108502D01*
X99160Y110574D01*
X102090Y110574D01*
X104162Y108502D01*
X104162Y105573D01*
X102090Y103501D01*
X99160Y103501D01*
G37*
%LPD*%
%LPC*%
G36*
X-107827Y91713D02*
X-107827Y91713D01*
X-109899Y93785D01*
X-109899Y96715D01*
X-107827Y98787D01*
X-104898Y98787D01*
X-102826Y96715D01*
X-102826Y93785D01*
X-104898Y91713D01*
X-107827Y91713D01*
G37*
%LPD*%
%LPC*%
G36*
X-77309Y117362D02*
X-77309Y117362D01*
X-79381Y119434D01*
X-79381Y122364D01*
X-77309Y124436D01*
X-74379Y124436D01*
X-72307Y122364D01*
X-72307Y119434D01*
X-74379Y117362D01*
X-77309Y117362D01*
G37*
%LPD*%
%LPC*%
G36*
X-268917Y83480D02*
X-268917Y83480D01*
X-270989Y85551D01*
X-270989Y88481D01*
X-268917Y90553D01*
X-265987Y90553D01*
X-263916Y88481D01*
X-263916Y85551D01*
X-265987Y83480D01*
X-268917Y83480D01*
G37*
%LPD*%
%LPC*%
G36*
X77348Y66313D02*
X77348Y66313D01*
X75276Y68385D01*
X75276Y71315D01*
X77348Y73387D01*
X80277Y73387D01*
X82349Y71315D01*
X82349Y68385D01*
X80277Y66313D01*
X77348Y66313D01*
G37*
%LPD*%
%LPC*%
G36*
X-145927Y59963D02*
X-145927Y59963D01*
X-147999Y62035D01*
X-147999Y64965D01*
X-145927Y67037D01*
X-142998Y67037D01*
X-140926Y64965D01*
X-140926Y62035D01*
X-142998Y59963D01*
X-145927Y59963D01*
G37*
%LPD*%
%LPC*%
G36*
X-130731Y59963D02*
X-130731Y59963D01*
X-132803Y62035D01*
X-132803Y64965D01*
X-130731Y67037D01*
X-127802Y67037D01*
X-125730Y64965D01*
X-125730Y62035D01*
X-127802Y59963D01*
X-130731Y59963D01*
G37*
%LPD*%
%LPC*%
G36*
X-168206Y55147D02*
X-168206Y55147D01*
X-170278Y57219D01*
X-170278Y60149D01*
X-168206Y62221D01*
X-165276Y62221D01*
X-163204Y60149D01*
X-163204Y57219D01*
X-165276Y55147D01*
X-168206Y55147D01*
G37*
%LPD*%
%LPC*%
G36*
X-157048Y51001D02*
X-157048Y51001D01*
X-159120Y53073D01*
X-159120Y56002D01*
X-157048Y58074D01*
X-154118Y58074D01*
X-152046Y56002D01*
X-152046Y53073D01*
X-154118Y51001D01*
X-157048Y51001D01*
G37*
%LPD*%
%LPC*%
G36*
X-130731Y44088D02*
X-130731Y44088D01*
X-132803Y46160D01*
X-132803Y49090D01*
X-130731Y51162D01*
X-127802Y51162D01*
X-125730Y49090D01*
X-125730Y46160D01*
X-127802Y44088D01*
X-130731Y44088D01*
G37*
%LPD*%
%LPC*%
G36*
X-144867Y44088D02*
X-144867Y44088D01*
X-146939Y46160D01*
X-146939Y49090D01*
X-144867Y51162D01*
X-141938Y51162D01*
X-139866Y49090D01*
X-139866Y46160D01*
X-141938Y44088D01*
X-144867Y44088D01*
G37*
%LPD*%
%LPC*%
G36*
X-200848Y-24676D02*
X-200848Y-24676D01*
X-202920Y-22605D01*
X-202920Y-19675D01*
X-200848Y-17603D01*
X-197918Y-17603D01*
X-195847Y-19675D01*
X-195847Y-22605D01*
X-197918Y-24676D01*
X-200848Y-24676D01*
G37*
%LPD*%
%LPC*%
G36*
X89023Y23451D02*
X89023Y23451D01*
X86951Y25523D01*
X86951Y28452D01*
X89023Y30524D01*
X91952Y30524D01*
X94024Y28452D01*
X94024Y25523D01*
X91952Y23451D01*
X89023Y23451D01*
G37*
%LPD*%
%LPC*%
G36*
X-91926Y-15703D02*
X-91926Y-15703D01*
X-93998Y-13631D01*
X-93998Y-10702D01*
X-91926Y-8630D01*
X-88996Y-8630D01*
X-86924Y-10702D01*
X-86924Y-13631D01*
X-88996Y-15703D01*
X-91926Y-15703D01*
G37*
%LPD*%
%LPC*%
G36*
X-196090Y203635D02*
X-196090Y203635D01*
X-198161Y205707D01*
X-198161Y208637D01*
X-196090Y210709D01*
X-193160Y210709D01*
X-191088Y208637D01*
X-191088Y205707D01*
X-193160Y203635D01*
X-196090Y203635D01*
G37*
%LPD*%
%LPC*%
G36*
X-103664Y197667D02*
X-103664Y197667D01*
X-105736Y199739D01*
X-105736Y202669D01*
X-103664Y204741D01*
X-100734Y204741D01*
X-98662Y202669D01*
X-98662Y199739D01*
X-100734Y197667D01*
X-103664Y197667D01*
G37*
%LPD*%
%LPC*%
G36*
X199585Y159976D02*
X199585Y159976D01*
X197513Y162048D01*
X197513Y164977D01*
X199585Y167049D01*
X202515Y167049D01*
X204587Y164977D01*
X204587Y162048D01*
X202515Y159976D01*
X199585Y159976D01*
G37*
%LPD*%
%LPC*%
G36*
X-161218Y135909D02*
X-161218Y135909D01*
X-163290Y137981D01*
X-163290Y140911D01*
X-161218Y142983D01*
X-158288Y142983D01*
X-156216Y140911D01*
X-156216Y137981D01*
X-158288Y135909D01*
X-161218Y135909D01*
G37*
%LPD*%
%LPC*%
G36*
X-133054Y120918D02*
X-133054Y120918D01*
X-135125Y122990D01*
X-135125Y125920D01*
X-133054Y127992D01*
X-130124Y127992D01*
X-128052Y125920D01*
X-128052Y122990D01*
X-130124Y120918D01*
X-133054Y120918D01*
G37*
%LPD*%
%LPC*%
G36*
X171976Y-59700D02*
X171976Y-59700D01*
X170239Y-59354D01*
X168603Y-58677D01*
X167130Y-57693D01*
X165916Y-56478D01*
X172304Y-52790D01*
X175977Y-59150D01*
X175484Y-59354D01*
X173747Y-59700D01*
X171976Y-59700D01*
G37*
%LPD*%
%LPC*%
G36*
X174943Y-51267D02*
X174943Y-51267D01*
X181303Y-47594D01*
X181507Y-48087D01*
X181853Y-49824D01*
X181853Y-51595D01*
X181507Y-53332D01*
X180829Y-54968D01*
X179845Y-56441D01*
X178631Y-57655D01*
X174943Y-51267D01*
G37*
%LPD*%
%LPC*%
G36*
X169747Y-42268D02*
X169747Y-42268D01*
X170239Y-42064D01*
X171976Y-41718D01*
X173747Y-41718D01*
X175484Y-42064D01*
X177120Y-42742D01*
X178593Y-43726D01*
X179808Y-44940D01*
X173419Y-48628D01*
X169747Y-42268D01*
G37*
%LPD*%
%LPC*%
G36*
X164217Y-53332D02*
X164217Y-53332D01*
X163871Y-51595D01*
X163871Y-49824D01*
X164217Y-48087D01*
X164894Y-46450D01*
X165878Y-44978D01*
X167093Y-43763D01*
X170781Y-50152D01*
X164420Y-53824D01*
X164217Y-53332D01*
G37*
%LPD*%
%LPC*%
G36*
X218537Y131449D02*
X218537Y131449D01*
X218537Y136645D01*
X219202Y136512D01*
X220397Y136018D01*
X221472Y135299D01*
X222387Y134385D01*
X223105Y133310D01*
X223600Y132115D01*
X223732Y131449D01*
X218537Y131449D01*
G37*
%LPD*%
%LPC*%
G36*
X218537Y48849D02*
X218537Y48849D01*
X218537Y54045D01*
X219202Y53912D01*
X220397Y53418D01*
X221472Y52699D01*
X222387Y51785D01*
X223105Y50710D01*
X223600Y49515D01*
X223732Y48849D01*
X218537Y48849D01*
G37*
%LPD*%
%LPC*%
G36*
X278037Y135049D02*
X278037Y135049D01*
X278037Y140245D01*
X278702Y140112D01*
X279897Y139618D01*
X280972Y138899D01*
X281887Y137985D01*
X282605Y136910D01*
X283100Y135715D01*
X283232Y135049D01*
X278037Y135049D01*
G37*
%LPD*%
%LPC*%
G36*
X278037Y45249D02*
X278037Y45249D01*
X278037Y50445D01*
X278702Y50312D01*
X279897Y49818D01*
X280972Y49099D01*
X281887Y48185D01*
X282605Y47110D01*
X283100Y45915D01*
X283232Y45249D01*
X278037Y45249D01*
G37*
%LPD*%
%LPC*%
G36*
X278037Y42751D02*
X278037Y42751D01*
X283232Y42751D01*
X283100Y42085D01*
X282605Y40890D01*
X282267Y40384D01*
X281887Y39815D01*
X280972Y38901D01*
X279897Y38182D01*
X278702Y37688D01*
X278037Y37555D01*
X278037Y42751D01*
G37*
%LPD*%
%LPC*%
G36*
X278037Y132551D02*
X278037Y132551D01*
X283232Y132551D01*
X283100Y131885D01*
X282605Y130690D01*
X282285Y130211D01*
X281887Y129615D01*
X280972Y128701D01*
X279897Y127982D01*
X278702Y127488D01*
X278037Y127355D01*
X278037Y132551D01*
G37*
%LPD*%
%LPC*%
G36*
X218537Y128951D02*
X218537Y128951D01*
X223732Y128951D01*
X223600Y128285D01*
X223105Y127090D01*
X222387Y126015D01*
X221472Y125101D01*
X220397Y124382D01*
X219202Y123888D01*
X218537Y123755D01*
X218537Y128951D01*
G37*
%LPD*%
%LPC*%
G36*
X270343Y45249D02*
X270343Y45249D01*
X270475Y45915D01*
X270970Y47110D01*
X271688Y48185D01*
X272603Y49099D01*
X273678Y49818D01*
X274873Y50312D01*
X275538Y50445D01*
X275538Y45249D01*
X270343Y45249D01*
G37*
%LPD*%
%LPC*%
G36*
X218537Y46351D02*
X218537Y46351D01*
X223732Y46351D01*
X223600Y45685D01*
X223105Y44490D01*
X222387Y43415D01*
X221472Y42501D01*
X220397Y41782D01*
X219202Y41288D01*
X218537Y41155D01*
X218537Y46351D01*
G37*
%LPD*%
%LPC*%
G36*
X270343Y135049D02*
X270343Y135049D01*
X270475Y135715D01*
X270970Y136910D01*
X271688Y137985D01*
X272603Y138899D01*
X273678Y139618D01*
X274873Y140112D01*
X275538Y140245D01*
X275538Y135049D01*
X270343Y135049D01*
G37*
%LPD*%
%LPC*%
G36*
X210843Y48849D02*
X210843Y48849D01*
X210975Y49515D01*
X211470Y50710D01*
X212188Y51785D01*
X213103Y52699D01*
X214178Y53418D01*
X215373Y53912D01*
X216038Y54045D01*
X216038Y48849D01*
X210843Y48849D01*
G37*
%LPD*%
%LPC*%
G36*
X210843Y131449D02*
X210843Y131449D01*
X210975Y132115D01*
X211470Y133310D01*
X212188Y134385D01*
X213103Y135299D01*
X214178Y136018D01*
X215373Y136512D01*
X216038Y136645D01*
X216038Y131449D01*
X210843Y131449D01*
G37*
%LPD*%
%LPC*%
G36*
X274873Y127488D02*
X274873Y127488D01*
X273678Y127982D01*
X272603Y128701D01*
X271688Y129615D01*
X270970Y130690D01*
X270475Y131885D01*
X270343Y132551D01*
X275538Y132551D01*
X275538Y127355D01*
X274873Y127488D01*
G37*
%LPD*%
%LPC*%
G36*
X215373Y41288D02*
X215373Y41288D01*
X214178Y41782D01*
X213103Y42501D01*
X212188Y43415D01*
X211470Y44490D01*
X210975Y45685D01*
X210843Y46351D01*
X216038Y46351D01*
X216038Y41155D01*
X215373Y41288D01*
G37*
%LPD*%
%LPC*%
G36*
X274873Y37688D02*
X274873Y37688D01*
X273678Y38182D01*
X272603Y38901D01*
X271688Y39815D01*
X270970Y40890D01*
X270475Y42085D01*
X270343Y42751D01*
X275538Y42751D01*
X275538Y37555D01*
X274873Y37688D01*
G37*
%LPD*%
%LPC*%
G36*
X215373Y123888D02*
X215373Y123888D01*
X214178Y124382D01*
X213103Y125101D01*
X212188Y126015D01*
X211470Y127090D01*
X210975Y128285D01*
X210843Y128951D01*
X216038Y128951D01*
X216038Y123755D01*
X215373Y123888D01*
G37*
%LPD*%
%LPC*%
G36*
X153889Y-32455D02*
X153889Y-32455D01*
X153890Y-32455D01*
X153891Y-32456D01*
X153889Y-32457D01*
X153889Y-32455D01*
G37*
%LPD*%
%LPC*%
G36*
X172861Y-50709D02*
X172861Y-50709D01*
X172862Y-50708D01*
X172863Y-50709D01*
X172861Y-50710D01*
X172861Y-50709D01*
G37*
%LPD*%
%LPC*%
G36*
X143235Y215302D02*
X143235Y215302D01*
X143236Y215304D01*
X143237Y215303D01*
X143236Y215302D01*
X143235Y215302D01*
G37*
%LPD*%
D10*
X-238125Y120650D03*
X-238125Y95250D03*
X-238125Y69850D03*
X-238125Y44450D03*
D11*
X190182Y-40709D03*
X172862Y-50709D03*
D12*
X61913Y-19050D03*
X39915Y-6350D03*
D13*
X188184Y-12656D03*
X153890Y-32456D03*
D14*
X173547Y197803D03*
X143236Y215303D03*
D12*
X61913Y196850D03*
X39915Y184150D03*
D15*
X217288Y47600D03*
X217288Y130200D03*
X276788Y133800D03*
X276788Y44000D03*
D16*
X74050Y107950D03*
D17*
X-173038Y234950D03*
X-171450Y217488D03*
X-123825Y225425D03*
X-111125Y223838D03*
X-282575Y130175D03*
X-269875Y144463D03*
X-250825Y193675D03*
X-239713Y155575D03*
X-287338Y49213D03*
X-246063Y23813D03*
X-231775Y12700D03*
X-258763Y-9525D03*
X-120650Y-42863D03*
X-176213Y-44450D03*
X-182563Y-28575D03*
X-157163Y-7938D03*
X22225Y23813D03*
X-19050Y23813D03*
X17463Y50800D03*
X-36513Y66675D03*
X-26988Y66675D03*
X-26988Y58738D03*
X-36513Y58738D03*
X-36513Y50800D03*
X-26988Y50800D03*
X-76200Y38100D03*
X-63500Y36513D03*
X-15875Y44450D03*
X-195263Y111125D03*
X-174625Y96838D03*
X-110787Y133350D03*
X-34925Y133375D03*
X77788Y14288D03*
D18*
X146658Y-39688D02*
X153890Y-32456D01*
X146658Y-39688D02*
X128588Y-39688D01*
X153890Y-32456D02*
X165100Y-21245D01*
X165100Y-9525D01*
X154608Y-32456D02*
X172862Y-50709D01*
X154608Y-32456D02*
X153890Y-32456D01*
X143236Y215303D02*
X135535Y215303D01*
X125413Y225425D01*
X141288Y217251D02*
X143236Y215303D01*
X141288Y217251D02*
X141288Y230188D01*
X147008Y219075D02*
X143236Y215303D01*
X147008Y219075D02*
X157163Y219075D01*
X144463Y214076D02*
X143236Y215303D01*
X144463Y214076D02*
X144463Y195263D01*
X134308Y206375D02*
X143236Y215303D01*
X134308Y206375D02*
X133350Y206375D01*
X143236Y215303D02*
X149822Y215303D01*
X157163Y207963D01*
X41503Y-4763D02*
X39915Y-6350D01*
X41503Y-4763D02*
X53975Y-4763D01*
X31978Y176213D02*
X39915Y184150D01*
X31978Y176213D02*
X25400Y176213D01*
X57844Y181868D02*
X60325Y179388D01*
X51053Y184150D02*
X39915Y184150D01*
X51053Y184150D02*
X53334Y181868D01*
X57844Y181868D01*
X217288Y47600D02*
X217313Y47625D01*
X239713Y47625D01*
X263975Y44000D02*
X276788Y44000D01*
X263975Y44000D02*
X263525Y44450D01*
X276788Y133800D02*
X276225Y134363D01*
X276225Y144463D01*
X217288Y144263D02*
X217288Y130200D01*
X217288Y144263D02*
X217488Y144463D01*
X217288Y130200D02*
X217488Y130000D01*
X217488Y120650D01*
X276788Y127563D02*
X276788Y133800D01*
X276788Y127563D02*
X276225Y127000D01*
X217288Y47600D02*
X215219Y47600D01*
X211603Y43984D01*
X276788Y44000D02*
X277238Y44450D01*
X285750Y44450D01*
X279400Y41388D02*
X276788Y44000D01*
X279400Y41388D02*
X279400Y36513D01*
X217288Y47600D02*
X217288Y55363D01*
X217488Y55563D01*
X217288Y47600D02*
X219075Y45813D01*
X219075Y39688D01*
D17*
X-207963Y150838D03*
D19*
X-159753Y139446D03*
X-90461Y-12167D03*
X-102199Y201204D03*
X-199383Y-21140D03*
X-267452Y87016D03*
X-155583Y54538D03*
D20*
X85725Y44450D03*
D21*
X104775Y38100D02*
X117475Y50800D01*
X94742Y38100D02*
X88392Y44450D01*
X85725Y44450D01*
X94742Y38100D02*
X104775Y38100D01*
D19*
X184150Y43888D03*
D21*
X177238Y50800D01*
X117475Y50800D01*
D19*
X90488Y26988D03*
X66675Y33338D03*
D20*
X85725Y49450D03*
D16*
X166124Y86534D03*
D17*
X-34925Y152375D03*
X166370Y155575D03*
D18*
X52388Y155575D01*
X-31725Y155575D01*
X-34925Y152375D01*
D17*
X-46600Y80963D03*
D18*
X-46600Y140700D01*
X-34925Y152375D01*
D17*
X53975Y85725D03*
D22*
X57150Y88900D02*
X57150Y150813D01*
X57150Y88900D02*
X53975Y85725D01*
D21*
X57150Y150813D02*
X52388Y155575D01*
D17*
X177979Y4567D03*
D19*
X-131012Y113133D03*
X-129424Y106363D03*
X-75844Y120899D03*
X-166741Y58684D03*
D16*
X-28893Y7938D03*
D17*
X71438Y174625D03*
X52194Y168275D03*
X79375Y182563D03*
X42863Y168275D03*
X153988Y7938D03*
D18*
X162703Y16653D01*
D17*
X193675Y11113D03*
X130175Y-14288D03*
X219075Y11113D03*
D18*
X153988Y7938D02*
X130175Y-14288D01*
D17*
X-15875Y60325D03*
X-3175Y60325D03*
X30163Y9525D03*
X49213Y9525D03*
D18*
X30163Y9525D01*
X-3175Y60325D02*
X-15875Y60325D01*
X-3175Y60325D02*
X-3175Y26988D01*
X14288Y9525D02*
X30163Y9525D01*
X14288Y9525D02*
X-3175Y26988D01*
X162703Y16653D02*
X191853Y16653D01*
X193675Y14831D02*
X193675Y11113D01*
X193675Y14831D02*
X191853Y16653D01*
X193675Y11113D02*
X219075Y11113D01*
D19*
X78813Y69850D03*
D17*
X-28013Y34925D03*
D22*
X-42300Y34925D01*
X-95250Y87875D01*
X-95250Y152375D01*
D17*
X-95250Y152375D03*
D16*
X189724Y112713D03*
D17*
X-223725Y158750D03*
D23*
X-101625Y158750D01*
X-95250Y152375D01*
D20*
X85725Y39450D03*
D21*
X84138Y37863D01*
X71438Y37863D01*
X46600Y62700D01*
X46600Y98425D01*
X49775Y101600D01*
D20*
X49775Y101600D03*
D16*
X96026Y60076D03*
X106363Y67424D03*
D21*
X92824Y67424D01*
D16*
X75424Y44450D03*
D21*
X75424Y50024D01*
X92824Y67424D01*
D19*
X75121Y58992D03*
D16*
X-130761Y98809D03*
X127000Y95250D03*
D19*
X100625Y107038D03*
X-106363Y95250D03*
D17*
X111125Y129150D03*
X94863Y142900D03*
D19*
X-144463Y63500D03*
X-129267Y63500D03*
X-131589Y124455D03*
X201050Y163513D03*
D16*
X-190500Y141337D03*
D17*
X228600Y101600D03*
X228600Y88900D03*
X228600Y77788D03*
D16*
X206375Y87313D03*
X179388Y85725D03*
D24*
X106363Y79375D02*
X96838Y88900D01*
D16*
X96838Y88900D03*
D24*
X173038Y79375D02*
X179388Y85725D01*
X173038Y79375D02*
X106363Y79375D01*
D16*
X189738Y98425D03*
X206375Y100013D03*
D19*
X-143403Y47625D03*
X-129267Y47625D03*
X96764Y44450D03*
X-194625Y207172D03*
M02*
