G04 EAGLE Gerber RS-274X export*
G75*
%MOMM*%
%FSLAX34Y34*%
%LPD*%
%INCopper Layer 15*%
%IPPOS*%
%AMOC8*
5,1,8,0,0,1.08239X$1,22.5*%
G01*
%ADD10C,1.524000*%
%ADD11C,1.290000*%
%ADD12C,1.530000*%
%ADD13C,2.625000*%
%ADD14C,1.800000*%
%ADD15C,0.804800*%
%ADD16C,0.452400*%
%ADD17C,0.525000*%
%ADD18C,1.270000*%
%ADD19C,0.402400*%
%ADD20C,0.352400*%
%ADD21C,0.304800*%
%ADD22C,0.254000*%

G36*
X150814Y-81836D02*
X150814Y-81836D01*
X150870Y-81838D01*
X150935Y-81819D01*
X151002Y-81810D01*
X151075Y-81778D01*
X151106Y-81769D01*
X151123Y-81757D01*
X151156Y-81742D01*
X215508Y-44590D01*
X215525Y-44576D01*
X215545Y-44567D01*
X215619Y-44498D01*
X215698Y-44434D01*
X215710Y-44415D01*
X215726Y-44400D01*
X215775Y-44312D01*
X215829Y-44226D01*
X215834Y-44204D01*
X215844Y-44185D01*
X215863Y-44085D01*
X215886Y-43986D01*
X215884Y-43965D01*
X215888Y-43943D01*
X215873Y-43842D01*
X215864Y-43741D01*
X215856Y-43721D01*
X215852Y-43700D01*
X215806Y-43609D01*
X215766Y-43516D01*
X215751Y-43500D01*
X215741Y-43480D01*
X215669Y-43409D01*
X215600Y-43334D01*
X215581Y-43323D01*
X215565Y-43308D01*
X215418Y-43227D01*
X213063Y-42251D01*
X210524Y-39713D01*
X209150Y-36396D01*
X209150Y-32805D01*
X210524Y-29488D01*
X213063Y-26950D01*
X216380Y-25576D01*
X219970Y-25576D01*
X223287Y-26950D01*
X225825Y-29488D01*
X227199Y-32805D01*
X227199Y-36521D01*
X227215Y-36615D01*
X227223Y-36710D01*
X227235Y-36736D01*
X227239Y-36764D01*
X227284Y-36848D01*
X227322Y-36935D01*
X227341Y-36956D01*
X227354Y-36981D01*
X227423Y-37047D01*
X227487Y-37118D01*
X227512Y-37131D01*
X227533Y-37151D01*
X227619Y-37191D01*
X227702Y-37237D01*
X227730Y-37242D01*
X227756Y-37254D01*
X227850Y-37265D01*
X227944Y-37282D01*
X227972Y-37278D01*
X228000Y-37281D01*
X228093Y-37261D01*
X228188Y-37248D01*
X228220Y-37234D01*
X228240Y-37229D01*
X228269Y-37212D01*
X228341Y-37180D01*
X298370Y3249D01*
X298422Y3292D01*
X298480Y3327D01*
X298516Y3369D01*
X298560Y3405D01*
X298596Y3462D01*
X298640Y3514D01*
X298661Y3566D01*
X298691Y3613D01*
X298707Y3679D01*
X298732Y3742D01*
X298741Y3821D01*
X298748Y3853D01*
X298746Y3873D01*
X298750Y3909D01*
X298750Y173891D01*
X298739Y173958D01*
X298738Y174026D01*
X298720Y174079D01*
X298711Y174134D01*
X298679Y174194D01*
X298656Y174258D01*
X298622Y174302D01*
X298595Y174352D01*
X298546Y174398D01*
X298505Y174451D01*
X298441Y174498D01*
X298417Y174521D01*
X298398Y174530D01*
X298370Y174551D01*
X151156Y259542D01*
X151092Y259566D01*
X151033Y259599D01*
X150978Y259609D01*
X150926Y259629D01*
X150858Y259632D01*
X150792Y259644D01*
X150736Y259636D01*
X150680Y259638D01*
X150615Y259619D01*
X150548Y259610D01*
X150475Y259578D01*
X150444Y259569D01*
X150427Y259557D01*
X150394Y259542D01*
X60157Y207445D01*
X60120Y207415D01*
X60077Y207392D01*
X60025Y207338D01*
X59967Y207289D01*
X59941Y207249D01*
X59908Y207214D01*
X59876Y207145D01*
X59836Y207081D01*
X59825Y207034D01*
X59804Y206991D01*
X59796Y206916D01*
X59778Y206842D01*
X59783Y206794D01*
X59777Y206747D01*
X59793Y206672D01*
X59800Y206597D01*
X59819Y206553D01*
X59830Y206506D01*
X59868Y206441D01*
X59899Y206372D01*
X59931Y206336D01*
X59956Y206295D01*
X60013Y206246D01*
X60064Y206190D01*
X60106Y206166D01*
X60143Y206135D01*
X60213Y206107D01*
X60279Y206070D01*
X60326Y206061D01*
X60371Y206043D01*
X60499Y206029D01*
X60521Y206025D01*
X60528Y206026D01*
X60538Y206025D01*
X63737Y206025D01*
X67110Y204628D01*
X69690Y202047D01*
X71087Y198675D01*
X71087Y195025D01*
X69690Y191653D01*
X67110Y189072D01*
X63737Y187675D01*
X60088Y187675D01*
X56715Y189072D01*
X54135Y191653D01*
X52738Y195025D01*
X52738Y198675D01*
X54135Y202047D01*
X54592Y202504D01*
X54606Y202524D01*
X54624Y202539D01*
X54677Y202623D01*
X54735Y202704D01*
X54742Y202727D01*
X54755Y202747D01*
X54778Y202844D01*
X54807Y202939D01*
X54807Y202963D01*
X54812Y202986D01*
X54804Y203085D01*
X54801Y203185D01*
X54793Y203207D01*
X54791Y203231D01*
X54751Y203322D01*
X54717Y203416D01*
X54702Y203435D01*
X54692Y203457D01*
X54625Y203531D01*
X54563Y203608D01*
X54543Y203621D01*
X54527Y203639D01*
X54439Y203687D01*
X54356Y203741D01*
X54333Y203747D01*
X54312Y203758D01*
X54214Y203777D01*
X54118Y203801D01*
X54094Y203799D01*
X54070Y203803D01*
X53972Y203790D01*
X53872Y203782D01*
X53850Y203772D01*
X53826Y203769D01*
X53673Y203702D01*
X39919Y195761D01*
X39882Y195731D01*
X39840Y195708D01*
X39787Y195654D01*
X39729Y195605D01*
X39703Y195565D01*
X39670Y195530D01*
X39638Y195461D01*
X39598Y195397D01*
X39587Y195350D01*
X39567Y195307D01*
X39558Y195232D01*
X39540Y195158D01*
X39545Y195110D01*
X39539Y195063D01*
X39556Y194988D01*
X39562Y194913D01*
X39582Y194869D01*
X39592Y194822D01*
X39631Y194757D01*
X39661Y194688D01*
X39693Y194652D01*
X39718Y194611D01*
X39775Y194562D01*
X39826Y194506D01*
X39868Y194482D01*
X39905Y194451D01*
X39975Y194423D01*
X40041Y194386D01*
X40088Y194377D01*
X40133Y194359D01*
X40261Y194345D01*
X40283Y194341D01*
X40290Y194342D01*
X40300Y194341D01*
X40717Y194341D01*
X42302Y194090D01*
X43827Y193594D01*
X45257Y192866D01*
X46554Y191923D01*
X47688Y190789D01*
X47889Y190512D01*
X39814Y185850D01*
X39798Y185838D01*
X39780Y185830D01*
X39703Y185760D01*
X39623Y185694D01*
X39613Y185678D01*
X39598Y185664D01*
X39548Y185574D01*
X39493Y185486D01*
X39488Y185467D01*
X39478Y185449D01*
X39459Y185348D01*
X39435Y185247D01*
X39437Y185227D01*
X39433Y185207D01*
X39448Y185105D01*
X39457Y185002D01*
X39465Y184984D01*
X39468Y184964D01*
X39535Y184810D01*
X39917Y184150D01*
X39915Y184149D01*
X39534Y184809D01*
X39521Y184825D01*
X39513Y184843D01*
X39443Y184920D01*
X39378Y185000D01*
X39361Y185010D01*
X39348Y185025D01*
X39257Y185076D01*
X39170Y185131D01*
X39150Y185135D01*
X39133Y185145D01*
X39031Y185164D01*
X38930Y185188D01*
X38911Y185186D01*
X38891Y185190D01*
X38788Y185175D01*
X38685Y185166D01*
X38667Y185158D01*
X38647Y185155D01*
X38494Y185088D01*
X30412Y180422D01*
X29976Y181764D01*
X29725Y183348D01*
X29725Y184952D01*
X29976Y186536D01*
X30471Y188062D01*
X30925Y188953D01*
X30934Y188979D01*
X30949Y189003D01*
X30971Y189096D01*
X31000Y189187D01*
X30999Y189215D01*
X31006Y189242D01*
X30998Y189337D01*
X30996Y189433D01*
X30987Y189459D01*
X30984Y189487D01*
X30946Y189574D01*
X30914Y189665D01*
X30897Y189687D01*
X30886Y189712D01*
X30821Y189783D01*
X30762Y189858D01*
X30739Y189874D01*
X30720Y189894D01*
X30637Y189941D01*
X30557Y189993D01*
X30530Y190001D01*
X30505Y190014D01*
X30411Y190032D01*
X30319Y190056D01*
X30291Y190054D01*
X30263Y190059D01*
X30169Y190046D01*
X30074Y190039D01*
X30048Y190029D01*
X30020Y190025D01*
X29866Y189957D01*
X2434Y174120D01*
X2344Y174047D01*
X2255Y173976D01*
X2249Y173968D01*
X2244Y173964D01*
X2232Y173945D01*
X2155Y173841D01*
X2109Y173761D01*
X1653Y173639D01*
X1639Y173633D01*
X1623Y173631D01*
X1470Y173563D01*
X1061Y173327D01*
X972Y173351D01*
X858Y173362D01*
X744Y173376D01*
X734Y173375D01*
X727Y173375D01*
X705Y173370D01*
X578Y173351D01*
X489Y173327D01*
X80Y173563D01*
X66Y173569D01*
X53Y173578D01*
X-103Y173639D01*
X-559Y173761D01*
X-605Y173841D01*
X-678Y173930D01*
X-749Y174020D01*
X-757Y174026D01*
X-761Y174031D01*
X-780Y174043D01*
X-884Y174120D01*
X-148844Y259542D01*
X-148908Y259566D01*
X-148967Y259599D01*
X-149022Y259609D01*
X-149074Y259629D01*
X-149142Y259632D01*
X-149208Y259644D01*
X-149264Y259636D01*
X-149320Y259638D01*
X-149385Y259619D01*
X-149452Y259610D01*
X-149525Y259578D01*
X-149556Y259569D01*
X-149573Y259557D01*
X-149606Y259542D01*
X-296820Y174551D01*
X-296872Y174508D01*
X-296930Y174473D01*
X-296966Y174431D01*
X-297010Y174395D01*
X-297046Y174338D01*
X-297090Y174286D01*
X-297111Y174234D01*
X-297141Y174187D01*
X-297157Y174121D01*
X-297182Y174058D01*
X-297191Y173979D01*
X-297198Y173947D01*
X-297196Y173927D01*
X-297200Y173891D01*
X-297200Y3909D01*
X-297189Y3842D01*
X-297188Y3774D01*
X-297170Y3721D01*
X-297161Y3666D01*
X-297129Y3606D01*
X-297106Y3542D01*
X-297072Y3498D01*
X-297045Y3448D01*
X-296996Y3402D01*
X-296955Y3349D01*
X-296891Y3302D01*
X-296867Y3279D01*
X-296848Y3270D01*
X-296820Y3249D01*
X-149606Y-81742D01*
X-149542Y-81766D01*
X-149483Y-81799D01*
X-149428Y-81809D01*
X-149376Y-81829D01*
X-149308Y-81832D01*
X-149242Y-81844D01*
X-149186Y-81836D01*
X-149130Y-81838D01*
X-149065Y-81819D01*
X-148998Y-81810D01*
X-148925Y-81778D01*
X-148894Y-81769D01*
X-148877Y-81757D01*
X-148844Y-81742D01*
X-884Y3680D01*
X-794Y3753D01*
X-705Y3824D01*
X-699Y3832D01*
X-694Y3836D01*
X-682Y3855D01*
X-605Y3959D01*
X-559Y4039D01*
X-103Y4161D01*
X-89Y4167D01*
X-73Y4170D01*
X80Y4237D01*
X489Y4473D01*
X578Y4449D01*
X692Y4438D01*
X806Y4424D01*
X816Y4425D01*
X823Y4425D01*
X844Y4429D01*
X972Y4449D01*
X1061Y4473D01*
X1470Y4237D01*
X1484Y4231D01*
X1497Y4222D01*
X1653Y4161D01*
X2109Y4039D01*
X2155Y3959D01*
X2228Y3870D01*
X2299Y3780D01*
X2307Y3774D01*
X2311Y3769D01*
X2330Y3757D01*
X2434Y3680D01*
X29866Y-12157D01*
X29893Y-12167D01*
X29915Y-12183D01*
X30007Y-12211D01*
X30096Y-12244D01*
X30124Y-12245D01*
X30151Y-12253D01*
X30247Y-12250D01*
X30342Y-12253D01*
X30369Y-12245D01*
X30397Y-12244D01*
X30486Y-12211D01*
X30578Y-12184D01*
X30601Y-12167D01*
X30627Y-12158D01*
X30701Y-12097D01*
X30779Y-12042D01*
X30796Y-12020D01*
X30818Y-12002D01*
X30868Y-11921D01*
X30925Y-11844D01*
X30934Y-11817D01*
X30948Y-11794D01*
X30971Y-11701D01*
X31000Y-11610D01*
X30999Y-11582D01*
X31006Y-11554D01*
X30998Y-11459D01*
X30996Y-11364D01*
X30987Y-11337D01*
X30984Y-11309D01*
X30925Y-11153D01*
X30471Y-10262D01*
X29976Y-8736D01*
X29725Y-7152D01*
X29725Y-5548D01*
X29976Y-3964D01*
X30412Y-2622D01*
X38494Y-7288D01*
X38512Y-7295D01*
X38529Y-7307D01*
X38627Y-7338D01*
X38724Y-7375D01*
X38744Y-7376D01*
X38763Y-7382D01*
X38866Y-7380D01*
X38970Y-7384D01*
X38989Y-7378D01*
X39009Y-7378D01*
X39106Y-7344D01*
X39206Y-7314D01*
X39222Y-7303D01*
X39241Y-7296D01*
X39322Y-7232D01*
X39407Y-7173D01*
X39419Y-7157D01*
X39434Y-7145D01*
X39534Y-7009D01*
X39915Y-6349D01*
X39917Y-6350D01*
X39535Y-7010D01*
X39528Y-7029D01*
X39516Y-7045D01*
X39485Y-7144D01*
X39448Y-7240D01*
X39448Y-7260D01*
X39441Y-7279D01*
X39443Y-7383D01*
X39439Y-7486D01*
X39445Y-7505D01*
X39445Y-7525D01*
X39480Y-7623D01*
X39509Y-7722D01*
X39520Y-7738D01*
X39527Y-7757D01*
X39591Y-7839D01*
X39650Y-7923D01*
X39666Y-7935D01*
X39679Y-7951D01*
X39814Y-8050D01*
X47889Y-12712D01*
X47688Y-12989D01*
X46554Y-14123D01*
X45257Y-15066D01*
X43827Y-15794D01*
X42302Y-16290D01*
X40717Y-16541D01*
X40300Y-16541D01*
X40252Y-16548D01*
X40204Y-16547D01*
X40132Y-16568D01*
X40057Y-16580D01*
X40015Y-16603D01*
X39969Y-16617D01*
X39906Y-16660D01*
X39840Y-16696D01*
X39807Y-16730D01*
X39767Y-16758D01*
X39722Y-16819D01*
X39670Y-16874D01*
X39650Y-16917D01*
X39622Y-16956D01*
X39598Y-17028D01*
X39567Y-17097D01*
X39561Y-17145D01*
X39547Y-17190D01*
X39548Y-17266D01*
X39539Y-17341D01*
X39550Y-17388D01*
X39550Y-17436D01*
X39576Y-17508D01*
X39592Y-17582D01*
X39616Y-17623D01*
X39632Y-17668D01*
X39679Y-17728D01*
X39718Y-17793D01*
X39754Y-17824D01*
X39784Y-17862D01*
X39888Y-17938D01*
X39905Y-17953D01*
X39911Y-17955D01*
X39919Y-17961D01*
X53673Y-25902D01*
X53695Y-25910D01*
X53715Y-25924D01*
X53810Y-25953D01*
X53903Y-25989D01*
X53927Y-25989D01*
X53950Y-25997D01*
X54049Y-25994D01*
X54149Y-25998D01*
X54172Y-25991D01*
X54196Y-25990D01*
X54289Y-25956D01*
X54384Y-25928D01*
X54404Y-25914D01*
X54427Y-25906D01*
X54504Y-25844D01*
X54586Y-25786D01*
X54600Y-25767D01*
X54619Y-25752D01*
X54672Y-25669D01*
X54731Y-25588D01*
X54739Y-25565D01*
X54752Y-25545D01*
X54776Y-25449D01*
X54806Y-25354D01*
X54806Y-25330D01*
X54812Y-25307D01*
X54804Y-25208D01*
X54803Y-25108D01*
X54795Y-25085D01*
X54793Y-25061D01*
X54754Y-24970D01*
X54721Y-24876D01*
X54706Y-24857D01*
X54696Y-24835D01*
X54592Y-24704D01*
X54135Y-24247D01*
X52738Y-20875D01*
X52738Y-17225D01*
X54135Y-13853D01*
X56715Y-11272D01*
X60088Y-9875D01*
X63737Y-9875D01*
X67110Y-11272D01*
X69690Y-13853D01*
X70491Y-15785D01*
X70552Y-15885D01*
X70612Y-15985D01*
X70617Y-15989D01*
X70621Y-15994D01*
X70710Y-16069D01*
X70799Y-16145D01*
X70805Y-16147D01*
X70810Y-16151D01*
X70918Y-16193D01*
X71027Y-16237D01*
X71035Y-16238D01*
X71040Y-16239D01*
X71058Y-16240D01*
X71194Y-16255D01*
X82665Y-16255D01*
X82755Y-16241D01*
X82846Y-16233D01*
X82875Y-16221D01*
X82907Y-16216D01*
X82988Y-16173D01*
X83072Y-16137D01*
X83104Y-16111D01*
X83125Y-16100D01*
X83147Y-16077D01*
X83203Y-16032D01*
X106520Y7285D01*
X106573Y7359D01*
X106632Y7428D01*
X106645Y7458D01*
X106663Y7484D01*
X106690Y7571D01*
X106724Y7656D01*
X106729Y7697D01*
X106736Y7719D01*
X106735Y7752D01*
X106743Y7823D01*
X106743Y45092D01*
X106728Y45182D01*
X106721Y45273D01*
X106708Y45302D01*
X106703Y45334D01*
X106660Y45415D01*
X106625Y45499D01*
X106599Y45531D01*
X106588Y45552D01*
X106565Y45574D01*
X106520Y45630D01*
X96083Y56066D01*
X96009Y56119D01*
X95940Y56179D01*
X95910Y56191D01*
X95884Y56210D01*
X95797Y56237D01*
X95712Y56271D01*
X95671Y56275D01*
X95649Y56282D01*
X95616Y56281D01*
X95545Y56289D01*
X94457Y56289D01*
X92239Y58507D01*
X92239Y61645D01*
X94457Y63863D01*
X97595Y63863D01*
X99813Y61645D01*
X99813Y60557D01*
X99827Y60467D01*
X99835Y60376D01*
X99847Y60346D01*
X99852Y60314D01*
X99895Y60234D01*
X99931Y60150D01*
X99957Y60118D01*
X99968Y60097D01*
X99991Y60075D01*
X100036Y60019D01*
X112332Y47722D01*
X112332Y5192D01*
X87155Y-19985D01*
X85295Y-21845D01*
X71194Y-21845D01*
X71079Y-21864D01*
X70963Y-21881D01*
X70958Y-21883D01*
X70951Y-21884D01*
X70849Y-21939D01*
X70744Y-21992D01*
X70740Y-21997D01*
X70734Y-22000D01*
X70654Y-22084D01*
X70572Y-22168D01*
X70568Y-22174D01*
X70565Y-22178D01*
X70557Y-22195D01*
X70491Y-22315D01*
X69690Y-24247D01*
X67110Y-26828D01*
X63737Y-28225D01*
X60538Y-28225D01*
X60490Y-28232D01*
X60442Y-28231D01*
X60370Y-28252D01*
X60295Y-28264D01*
X60252Y-28287D01*
X60206Y-28301D01*
X60144Y-28344D01*
X60077Y-28380D01*
X60044Y-28414D01*
X60005Y-28442D01*
X59960Y-28503D01*
X59908Y-28558D01*
X59888Y-28601D01*
X59859Y-28640D01*
X59836Y-28712D01*
X59804Y-28781D01*
X59799Y-28829D01*
X59785Y-28874D01*
X59786Y-28950D01*
X59777Y-29025D01*
X59788Y-29072D01*
X59788Y-29120D01*
X59813Y-29192D01*
X59830Y-29266D01*
X59854Y-29307D01*
X59870Y-29352D01*
X59917Y-29412D01*
X59956Y-29477D01*
X59992Y-29508D01*
X60022Y-29546D01*
X60126Y-29622D01*
X60143Y-29637D01*
X60149Y-29639D01*
X60157Y-29645D01*
X150394Y-81742D01*
X150458Y-81766D01*
X150517Y-81799D01*
X150572Y-81809D01*
X150624Y-81829D01*
X150692Y-81832D01*
X150758Y-81844D01*
X150814Y-81836D01*
G37*
%LPC*%
G36*
X-48319Y76813D02*
X-48319Y76813D01*
X-50750Y79244D01*
X-50750Y82681D01*
X-50467Y82964D01*
X-50425Y83023D01*
X-50376Y83074D01*
X-50354Y83122D01*
X-50323Y83164D01*
X-50302Y83232D01*
X-50272Y83298D01*
X-50266Y83349D01*
X-50251Y83399D01*
X-50253Y83471D01*
X-50245Y83542D01*
X-50256Y83593D01*
X-50257Y83645D01*
X-50282Y83712D01*
X-50297Y83782D01*
X-50324Y83827D01*
X-50342Y83876D01*
X-50387Y83932D01*
X-50423Y83993D01*
X-50463Y84027D01*
X-50495Y84068D01*
X-50556Y84107D01*
X-50610Y84153D01*
X-50659Y84173D01*
X-50702Y84201D01*
X-50772Y84218D01*
X-50838Y84245D01*
X-50910Y84253D01*
X-50941Y84261D01*
X-50964Y84259D01*
X-51005Y84264D01*
X-120528Y84264D01*
X-131063Y94799D01*
X-131137Y94852D01*
X-131206Y94911D01*
X-131236Y94924D01*
X-131262Y94942D01*
X-131349Y94969D01*
X-131434Y95003D01*
X-131475Y95008D01*
X-131497Y95015D01*
X-131530Y95014D01*
X-131601Y95022D01*
X-132329Y95022D01*
X-134547Y97240D01*
X-134547Y100377D01*
X-132297Y102628D01*
X-132253Y102635D01*
X-132190Y102669D01*
X-132123Y102693D01*
X-132082Y102726D01*
X-132036Y102750D01*
X-131987Y102802D01*
X-131931Y102847D01*
X-131903Y102891D01*
X-131867Y102928D01*
X-131837Y102993D01*
X-131798Y103054D01*
X-131785Y103104D01*
X-131763Y103151D01*
X-131755Y103223D01*
X-131738Y103292D01*
X-131742Y103344D01*
X-131736Y103396D01*
X-131751Y103466D01*
X-131757Y103537D01*
X-131777Y103585D01*
X-131788Y103636D01*
X-131825Y103698D01*
X-131853Y103764D01*
X-131898Y103820D01*
X-131914Y103847D01*
X-131932Y103863D01*
X-131958Y103895D01*
X-132961Y104898D01*
X-132961Y107827D01*
X-132373Y108415D01*
X-132361Y108432D01*
X-132346Y108444D01*
X-132289Y108531D01*
X-132229Y108615D01*
X-132223Y108634D01*
X-132213Y108651D01*
X-132187Y108752D01*
X-132157Y108850D01*
X-132157Y108870D01*
X-132152Y108890D01*
X-132161Y108993D01*
X-132163Y109096D01*
X-132170Y109115D01*
X-132172Y109135D01*
X-132212Y109230D01*
X-132248Y109327D01*
X-132260Y109343D01*
X-132268Y109361D01*
X-132373Y109492D01*
X-134548Y111668D01*
X-134548Y114597D01*
X-132476Y116669D01*
X-129547Y116669D01*
X-127475Y114597D01*
X-127475Y111668D01*
X-128063Y111080D01*
X-128074Y111063D01*
X-128090Y111051D01*
X-128146Y110964D01*
X-128206Y110880D01*
X-128212Y110861D01*
X-128223Y110844D01*
X-128248Y110744D01*
X-128279Y110645D01*
X-128278Y110625D01*
X-128283Y110605D01*
X-128275Y110503D01*
X-128272Y110399D01*
X-128265Y110380D01*
X-128264Y110360D01*
X-128224Y110265D01*
X-128188Y110168D01*
X-128175Y110152D01*
X-128168Y110134D01*
X-128063Y110003D01*
X-125887Y107827D01*
X-125887Y104898D01*
X-128153Y102632D01*
X-128164Y102616D01*
X-128180Y102604D01*
X-128236Y102516D01*
X-128296Y102432D01*
X-128302Y102413D01*
X-128313Y102397D01*
X-128338Y102296D01*
X-128369Y102197D01*
X-128368Y102177D01*
X-128373Y102158D01*
X-128365Y102055D01*
X-128362Y101951D01*
X-128355Y101933D01*
X-128354Y101913D01*
X-128313Y101818D01*
X-128278Y101720D01*
X-128265Y101705D01*
X-128257Y101687D01*
X-128153Y101556D01*
X-126974Y100377D01*
X-126974Y99649D01*
X-126959Y99559D01*
X-126952Y99468D01*
X-126940Y99438D01*
X-126934Y99406D01*
X-126892Y99325D01*
X-126856Y99241D01*
X-126830Y99209D01*
X-126819Y99189D01*
X-126796Y99166D01*
X-126751Y99110D01*
X-118225Y90584D01*
X-118151Y90531D01*
X-118081Y90472D01*
X-118051Y90459D01*
X-118025Y90441D01*
X-117938Y90414D01*
X-117853Y90380D01*
X-117812Y90375D01*
X-117790Y90368D01*
X-117758Y90369D01*
X-117687Y90361D01*
X-108313Y90361D01*
X-108243Y90373D01*
X-108171Y90375D01*
X-108122Y90393D01*
X-108070Y90401D01*
X-108007Y90435D01*
X-107940Y90459D01*
X-107899Y90492D01*
X-107853Y90516D01*
X-107804Y90568D01*
X-107748Y90613D01*
X-107720Y90657D01*
X-107684Y90694D01*
X-107654Y90759D01*
X-107615Y90820D01*
X-107602Y90870D01*
X-107580Y90917D01*
X-107572Y90989D01*
X-107555Y91058D01*
X-107559Y91110D01*
X-107553Y91162D01*
X-107568Y91232D01*
X-107574Y91303D01*
X-107594Y91351D01*
X-107605Y91402D01*
X-107642Y91464D01*
X-107670Y91530D01*
X-107715Y91586D01*
X-107731Y91613D01*
X-107749Y91629D01*
X-107775Y91661D01*
X-109899Y93785D01*
X-109899Y96715D01*
X-107827Y98787D01*
X-104898Y98787D01*
X-104378Y98268D01*
X-104305Y98215D01*
X-104235Y98155D01*
X-104205Y98143D01*
X-104179Y98124D01*
X-104092Y98097D01*
X-104007Y98063D01*
X-103966Y98059D01*
X-103944Y98052D01*
X-103911Y98053D01*
X-103840Y98045D01*
X-68148Y98045D01*
X-68058Y98059D01*
X-67967Y98067D01*
X-67937Y98079D01*
X-67905Y98084D01*
X-67825Y98127D01*
X-67741Y98163D01*
X-67709Y98189D01*
X-67688Y98200D01*
X-67666Y98223D01*
X-67610Y98268D01*
X-42433Y123445D01*
X88170Y123445D01*
X100818Y110797D01*
X100892Y110744D01*
X100961Y110685D01*
X100991Y110672D01*
X101017Y110654D01*
X101104Y110627D01*
X101189Y110593D01*
X101230Y110588D01*
X101252Y110581D01*
X101285Y110582D01*
X101356Y110574D01*
X102090Y110574D01*
X104162Y108502D01*
X104162Y105573D01*
X102090Y103501D01*
X99160Y103501D01*
X97088Y105573D01*
X97088Y106307D01*
X97074Y106397D01*
X97066Y106488D01*
X97054Y106517D01*
X97049Y106549D01*
X97006Y106630D01*
X96970Y106714D01*
X96944Y106746D01*
X96933Y106767D01*
X96910Y106789D01*
X96865Y106845D01*
X86078Y117632D01*
X86004Y117685D01*
X85934Y117745D01*
X85904Y117757D01*
X85878Y117776D01*
X85791Y117803D01*
X85706Y117837D01*
X85665Y117841D01*
X85643Y117848D01*
X85611Y117847D01*
X85540Y117855D01*
X-39802Y117855D01*
X-39892Y117841D01*
X-39983Y117833D01*
X-40013Y117821D01*
X-40045Y117816D01*
X-40125Y117773D01*
X-40209Y117737D01*
X-40241Y117711D01*
X-40262Y117700D01*
X-40284Y117677D01*
X-40340Y117632D01*
X-65517Y92455D01*
X-103840Y92455D01*
X-103930Y92441D01*
X-104021Y92433D01*
X-104051Y92421D01*
X-104083Y92416D01*
X-104163Y92373D01*
X-104248Y92337D01*
X-104280Y92311D01*
X-104300Y92300D01*
X-104322Y92277D01*
X-104378Y92232D01*
X-104950Y91661D01*
X-104992Y91602D01*
X-105041Y91551D01*
X-105063Y91503D01*
X-105094Y91461D01*
X-105115Y91393D01*
X-105145Y91327D01*
X-105151Y91276D01*
X-105166Y91226D01*
X-105164Y91154D01*
X-105172Y91083D01*
X-105161Y91032D01*
X-105160Y90980D01*
X-105135Y90913D01*
X-105120Y90843D01*
X-105093Y90798D01*
X-105075Y90749D01*
X-105030Y90693D01*
X-104994Y90632D01*
X-104954Y90598D01*
X-104921Y90557D01*
X-104861Y90518D01*
X-104807Y90472D01*
X-104758Y90452D01*
X-104715Y90424D01*
X-104645Y90407D01*
X-104578Y90380D01*
X-104507Y90372D01*
X-104476Y90364D01*
X-104453Y90366D01*
X-104412Y90361D01*
X39697Y90361D01*
X39787Y90376D01*
X39878Y90383D01*
X39908Y90396D01*
X39940Y90401D01*
X40020Y90444D01*
X40104Y90479D01*
X40136Y90505D01*
X40157Y90516D01*
X40179Y90539D01*
X40235Y90584D01*
X47651Y98000D01*
X47662Y98016D01*
X47678Y98028D01*
X47734Y98116D01*
X47794Y98199D01*
X47800Y98218D01*
X47811Y98235D01*
X47836Y98336D01*
X47867Y98435D01*
X47866Y98454D01*
X47871Y98474D01*
X47863Y98577D01*
X47860Y98680D01*
X47853Y98699D01*
X47852Y98719D01*
X47811Y98814D01*
X47776Y98911D01*
X47763Y98927D01*
X47755Y98945D01*
X47651Y99076D01*
X46488Y100239D01*
X46488Y102961D01*
X48414Y104887D01*
X51136Y104887D01*
X53062Y102961D01*
X53062Y100239D01*
X52421Y99598D01*
X52380Y99540D01*
X52330Y99488D01*
X52308Y99441D01*
X52278Y99399D01*
X52257Y99330D01*
X52227Y99265D01*
X52221Y99213D01*
X52205Y99163D01*
X52207Y99092D01*
X52199Y99021D01*
X52211Y98970D01*
X52212Y98918D01*
X52236Y98850D01*
X52252Y98780D01*
X52278Y98735D01*
X52296Y98687D01*
X52341Y98631D01*
X52378Y98569D01*
X52417Y98535D01*
X52450Y98495D01*
X52510Y98456D01*
X52565Y98409D01*
X52613Y98390D01*
X52657Y98362D01*
X52726Y98344D01*
X52793Y98317D01*
X52864Y98309D01*
X52895Y98301D01*
X52919Y98303D01*
X52960Y98299D01*
X124378Y98299D01*
X124468Y98313D01*
X124559Y98321D01*
X124589Y98333D01*
X124621Y98338D01*
X124702Y98381D01*
X124785Y98417D01*
X124818Y98443D01*
X124838Y98454D01*
X124860Y98477D01*
X124916Y98522D01*
X125431Y99037D01*
X128569Y99037D01*
X130787Y96819D01*
X130787Y93681D01*
X128569Y91463D01*
X125431Y91463D01*
X124916Y91978D01*
X124842Y92031D01*
X124773Y92091D01*
X124743Y92103D01*
X124717Y92122D01*
X124630Y92149D01*
X124545Y92183D01*
X124504Y92187D01*
X124482Y92194D01*
X124449Y92193D01*
X124378Y92201D01*
X100729Y92201D01*
X100659Y92190D01*
X100587Y92188D01*
X100538Y92170D01*
X100487Y92162D01*
X100423Y92128D01*
X100356Y92103D01*
X100315Y92071D01*
X100269Y92046D01*
X100220Y91995D01*
X100164Y91950D01*
X100136Y91906D01*
X100100Y91868D01*
X100070Y91803D01*
X100031Y91743D01*
X100018Y91692D01*
X99996Y91645D01*
X99988Y91574D01*
X99971Y91504D01*
X99975Y91452D01*
X99969Y91401D01*
X99984Y91330D01*
X99990Y91259D01*
X100010Y91211D01*
X100021Y91160D01*
X100058Y91099D01*
X100086Y91033D01*
X100131Y90977D01*
X100148Y90949D01*
X100165Y90934D01*
X100191Y90902D01*
X100624Y90469D01*
X100624Y87331D01*
X98406Y85113D01*
X95269Y85113D01*
X93051Y87331D01*
X93051Y90469D01*
X93484Y90902D01*
X93526Y90960D01*
X93575Y91012D01*
X93597Y91059D01*
X93628Y91101D01*
X93649Y91170D01*
X93679Y91235D01*
X93685Y91287D01*
X93700Y91337D01*
X93698Y91408D01*
X93706Y91479D01*
X93695Y91530D01*
X93694Y91582D01*
X93669Y91650D01*
X93654Y91720D01*
X93627Y91765D01*
X93609Y91813D01*
X93564Y91869D01*
X93527Y91931D01*
X93488Y91965D01*
X93455Y92005D01*
X93395Y92044D01*
X93341Y92091D01*
X93292Y92110D01*
X93248Y92138D01*
X93179Y92156D01*
X93112Y92183D01*
X93041Y92191D01*
X93010Y92199D01*
X92987Y92197D01*
X92946Y92201D01*
X50791Y92201D01*
X50701Y92187D01*
X50610Y92179D01*
X50580Y92167D01*
X50548Y92162D01*
X50467Y92119D01*
X50383Y92083D01*
X50351Y92057D01*
X50331Y92046D01*
X50308Y92023D01*
X50252Y91978D01*
X42538Y84264D01*
X-42195Y84264D01*
X-42266Y84252D01*
X-42337Y84250D01*
X-42386Y84232D01*
X-42438Y84224D01*
X-42501Y84191D01*
X-42568Y84166D01*
X-42609Y84133D01*
X-42655Y84109D01*
X-42704Y84057D01*
X-42760Y84012D01*
X-42788Y83968D01*
X-42824Y83931D01*
X-42855Y83865D01*
X-42893Y83805D01*
X-42906Y83755D01*
X-42928Y83708D01*
X-42936Y83636D01*
X-42953Y83567D01*
X-42949Y83515D01*
X-42955Y83463D01*
X-42940Y83393D01*
X-42934Y83321D01*
X-42914Y83274D01*
X-42903Y83223D01*
X-42866Y83161D01*
X-42838Y83095D01*
X-42793Y83039D01*
X-42777Y83012D01*
X-42759Y82996D01*
X-42733Y82964D01*
X-42450Y82681D01*
X-42450Y79244D01*
X-44881Y76813D01*
X-48319Y76813D01*
G37*
%LPD*%
%LPC*%
G36*
X-133054Y120918D02*
X-133054Y120918D01*
X-135125Y122990D01*
X-135125Y125920D01*
X-133054Y127992D01*
X-132320Y127992D01*
X-132230Y128006D01*
X-132139Y128014D01*
X-132109Y128026D01*
X-132077Y128031D01*
X-131996Y128074D01*
X-131912Y128110D01*
X-131880Y128136D01*
X-131860Y128147D01*
X-131837Y128170D01*
X-131781Y128215D01*
X-114608Y145388D01*
X77620Y145388D01*
X77710Y145402D01*
X77801Y145410D01*
X77831Y145422D01*
X77863Y145427D01*
X77943Y145470D01*
X78027Y145506D01*
X78059Y145532D01*
X78080Y145543D01*
X78102Y145566D01*
X78158Y145611D01*
X98855Y166307D01*
X198528Y166307D01*
X198618Y166322D01*
X198709Y166329D01*
X198738Y166342D01*
X198770Y166347D01*
X198851Y166390D01*
X198935Y166425D01*
X198967Y166451D01*
X198988Y166462D01*
X199002Y166477D01*
X199004Y166478D01*
X199013Y166488D01*
X199066Y166530D01*
X199585Y167049D01*
X202515Y167049D01*
X204587Y164977D01*
X204587Y162048D01*
X202515Y159976D01*
X199585Y159976D01*
X199066Y160495D01*
X198992Y160548D01*
X198923Y160607D01*
X198892Y160620D01*
X198866Y160638D01*
X198779Y160665D01*
X198694Y160699D01*
X198653Y160704D01*
X198631Y160711D01*
X198599Y160710D01*
X198528Y160718D01*
X168934Y160718D01*
X168863Y160706D01*
X168791Y160704D01*
X168742Y160686D01*
X168691Y160678D01*
X168628Y160644D01*
X168560Y160620D01*
X168520Y160587D01*
X168474Y160563D01*
X168424Y160511D01*
X168368Y160466D01*
X168340Y160422D01*
X168304Y160385D01*
X168274Y160320D01*
X168235Y160259D01*
X168222Y160209D01*
X168201Y160162D01*
X168193Y160090D01*
X168175Y160021D01*
X168179Y159969D01*
X168173Y159917D01*
X168189Y159847D01*
X168194Y159776D01*
X168215Y159728D01*
X168226Y159677D01*
X168262Y159615D01*
X168291Y159549D01*
X168335Y159493D01*
X168352Y159466D01*
X168370Y159450D01*
X168395Y159418D01*
X170520Y157294D01*
X170520Y153856D01*
X168089Y151425D01*
X164651Y151425D01*
X162220Y153856D01*
X162220Y157294D01*
X164345Y159418D01*
X164386Y159476D01*
X164436Y159528D01*
X164458Y159576D01*
X164488Y159618D01*
X164509Y159686D01*
X164539Y159752D01*
X164545Y159803D01*
X164561Y159853D01*
X164559Y159925D01*
X164567Y159996D01*
X164556Y160047D01*
X164554Y160099D01*
X164530Y160166D01*
X164514Y160236D01*
X164488Y160281D01*
X164470Y160330D01*
X164425Y160386D01*
X164388Y160447D01*
X164349Y160481D01*
X164316Y160522D01*
X164256Y160561D01*
X164201Y160607D01*
X164153Y160627D01*
X164109Y160655D01*
X164040Y160672D01*
X163973Y160699D01*
X163902Y160707D01*
X163871Y160715D01*
X163847Y160713D01*
X163806Y160718D01*
X101485Y160718D01*
X101395Y160703D01*
X101304Y160696D01*
X101275Y160683D01*
X101243Y160678D01*
X101162Y160635D01*
X101078Y160600D01*
X101046Y160574D01*
X101025Y160563D01*
X101003Y160540D01*
X100947Y160495D01*
X80251Y139798D01*
X-111978Y139798D01*
X-112068Y139784D01*
X-112159Y139776D01*
X-112189Y139764D01*
X-112221Y139759D01*
X-112301Y139716D01*
X-112385Y139680D01*
X-112417Y139654D01*
X-112438Y139643D01*
X-112460Y139620D01*
X-112516Y139575D01*
X-127829Y124262D01*
X-127882Y124188D01*
X-127942Y124119D01*
X-127954Y124089D01*
X-127973Y124063D01*
X-127999Y123976D01*
X-128034Y123891D01*
X-128038Y123850D01*
X-128045Y123828D01*
X-128044Y123795D01*
X-128052Y123724D01*
X-128052Y122990D01*
X-130124Y120918D01*
X-133054Y120918D01*
G37*
%LPD*%
%LPC*%
G36*
X-29731Y30775D02*
X-29731Y30775D01*
X-32162Y33206D01*
X-32162Y36644D01*
X-29731Y39075D01*
X-26294Y39075D01*
X-25416Y38197D01*
X-25342Y38144D01*
X-25272Y38084D01*
X-25242Y38072D01*
X-25216Y38053D01*
X-25129Y38026D01*
X-25044Y37992D01*
X-25003Y37988D01*
X-24981Y37981D01*
X-24949Y37982D01*
X-24877Y37974D01*
X19059Y37974D01*
X19149Y37988D01*
X19240Y37996D01*
X19270Y38008D01*
X19302Y38013D01*
X19383Y38056D01*
X19467Y38092D01*
X19499Y38118D01*
X19519Y38129D01*
X19542Y38152D01*
X19598Y38197D01*
X62237Y80836D01*
X134947Y80836D01*
X135037Y80851D01*
X135128Y80858D01*
X135158Y80871D01*
X135190Y80876D01*
X135270Y80919D01*
X135354Y80954D01*
X135386Y80980D01*
X135407Y80991D01*
X135429Y81014D01*
X135485Y81059D01*
X170187Y115761D01*
X187102Y115761D01*
X187192Y115776D01*
X187283Y115783D01*
X187313Y115796D01*
X187345Y115801D01*
X187426Y115844D01*
X187509Y115879D01*
X187542Y115905D01*
X187562Y115916D01*
X187584Y115939D01*
X187640Y115984D01*
X188155Y116499D01*
X191293Y116499D01*
X193511Y114281D01*
X193511Y111144D01*
X191293Y108926D01*
X188155Y108926D01*
X187640Y109441D01*
X187566Y109494D01*
X187497Y109553D01*
X187467Y109566D01*
X187441Y109584D01*
X187354Y109611D01*
X187269Y109645D01*
X187228Y109650D01*
X187206Y109657D01*
X187173Y109656D01*
X187102Y109664D01*
X173028Y109664D01*
X172938Y109649D01*
X172847Y109642D01*
X172817Y109629D01*
X172785Y109624D01*
X172705Y109581D01*
X172621Y109546D01*
X172589Y109520D01*
X172568Y109509D01*
X172546Y109486D01*
X172490Y109441D01*
X137788Y74739D01*
X80763Y74739D01*
X80693Y74727D01*
X80621Y74725D01*
X80572Y74707D01*
X80520Y74699D01*
X80457Y74665D01*
X80390Y74641D01*
X80349Y74608D01*
X80303Y74584D01*
X80254Y74532D01*
X80198Y74487D01*
X80170Y74443D01*
X80134Y74406D01*
X80104Y74341D01*
X80065Y74280D01*
X80052Y74230D01*
X80030Y74183D01*
X80022Y74111D01*
X80005Y74042D01*
X80009Y73990D01*
X80003Y73938D01*
X80018Y73868D01*
X80024Y73797D01*
X80044Y73749D01*
X80055Y73698D01*
X80092Y73636D01*
X80120Y73570D01*
X80165Y73514D01*
X80181Y73487D01*
X80199Y73471D01*
X80225Y73439D01*
X82349Y71315D01*
X82349Y68385D01*
X80277Y66313D01*
X77348Y66313D01*
X75276Y68385D01*
X75276Y71315D01*
X77400Y73439D01*
X77442Y73497D01*
X77491Y73549D01*
X77513Y73597D01*
X77544Y73639D01*
X77565Y73707D01*
X77595Y73773D01*
X77601Y73824D01*
X77616Y73874D01*
X77614Y73946D01*
X77622Y74017D01*
X77611Y74068D01*
X77610Y74120D01*
X77585Y74187D01*
X77570Y74257D01*
X77543Y74302D01*
X77525Y74351D01*
X77480Y74407D01*
X77444Y74468D01*
X77404Y74502D01*
X77371Y74543D01*
X77311Y74582D01*
X77257Y74628D01*
X77208Y74648D01*
X77165Y74676D01*
X77095Y74693D01*
X77028Y74720D01*
X76957Y74728D01*
X76926Y74736D01*
X76903Y74734D01*
X76862Y74739D01*
X65078Y74739D01*
X64988Y74724D01*
X64897Y74717D01*
X64867Y74704D01*
X64835Y74699D01*
X64755Y74656D01*
X64671Y74621D01*
X64639Y74595D01*
X64618Y74584D01*
X64596Y74561D01*
X64540Y74516D01*
X21900Y31876D01*
X-24877Y31876D01*
X-24967Y31862D01*
X-25058Y31854D01*
X-25088Y31842D01*
X-25120Y31837D01*
X-25201Y31794D01*
X-25285Y31758D01*
X-25317Y31732D01*
X-25337Y31721D01*
X-25360Y31698D01*
X-25416Y31653D01*
X-26294Y30775D01*
X-29731Y30775D01*
G37*
%LPD*%
%LPC*%
G36*
X185270Y-27305D02*
X185270Y-27305D01*
X179886Y-25075D01*
X175765Y-20954D01*
X173535Y-15570D01*
X173535Y-9742D01*
X175765Y-4357D01*
X179239Y-883D01*
X179281Y-825D01*
X179331Y-773D01*
X179353Y-725D01*
X179383Y-683D01*
X179404Y-615D01*
X179434Y-549D01*
X179440Y-498D01*
X179455Y-448D01*
X179454Y-376D01*
X179461Y-305D01*
X179450Y-254D01*
X179449Y-202D01*
X179424Y-135D01*
X179409Y-65D01*
X179382Y-20D01*
X179365Y29D01*
X179320Y85D01*
X179283Y147D01*
X179243Y180D01*
X179211Y221D01*
X179151Y260D01*
X179096Y306D01*
X179048Y326D01*
X179004Y354D01*
X178934Y372D01*
X178868Y398D01*
X178797Y406D01*
X178765Y414D01*
X178742Y412D01*
X178701Y417D01*
X176260Y417D01*
X173829Y2848D01*
X173829Y6285D01*
X176260Y8716D01*
X179698Y8716D01*
X182129Y6285D01*
X182129Y2848D01*
X181156Y1875D01*
X181099Y1796D01*
X181037Y1721D01*
X181028Y1696D01*
X181012Y1675D01*
X180984Y1582D01*
X180949Y1491D01*
X180948Y1465D01*
X180940Y1440D01*
X180943Y1343D01*
X180938Y1246D01*
X180946Y1220D01*
X180946Y1194D01*
X180980Y1103D01*
X181007Y1009D01*
X181022Y988D01*
X181031Y963D01*
X181092Y887D01*
X181147Y807D01*
X181168Y792D01*
X181185Y771D01*
X181267Y719D01*
X181345Y660D01*
X181369Y652D01*
X181392Y638D01*
X181486Y614D01*
X181579Y584D01*
X181605Y585D01*
X181630Y578D01*
X181727Y586D01*
X181824Y587D01*
X181856Y596D01*
X181875Y597D01*
X181906Y610D01*
X181986Y633D01*
X185270Y1994D01*
X191098Y1994D01*
X196483Y-236D01*
X200604Y-4357D01*
X202834Y-9742D01*
X202834Y-15570D01*
X200604Y-20954D01*
X196483Y-25075D01*
X191098Y-27305D01*
X185270Y-27305D01*
G37*
%LPD*%
%LPC*%
G36*
X171453Y187278D02*
X171453Y187278D01*
X167585Y188880D01*
X164625Y191841D01*
X163022Y195709D01*
X163022Y199896D01*
X164625Y203765D01*
X167585Y206725D01*
X171453Y208328D01*
X175640Y208328D01*
X179509Y206725D01*
X182469Y203765D01*
X184072Y199896D01*
X184072Y195709D01*
X182469Y191841D01*
X179509Y188880D01*
X175640Y187278D01*
X171453Y187278D01*
G37*
%LPD*%
%LPC*%
G36*
X-239944Y35305D02*
X-239944Y35305D01*
X-243305Y36697D01*
X-245878Y39270D01*
X-247270Y42631D01*
X-247270Y46269D01*
X-245878Y49630D01*
X-243305Y52203D01*
X-239944Y53595D01*
X-236306Y53595D01*
X-232945Y52203D01*
X-230372Y49630D01*
X-228980Y46269D01*
X-228980Y42631D01*
X-230372Y39270D01*
X-232945Y36697D01*
X-236306Y35305D01*
X-239944Y35305D01*
G37*
%LPD*%
%LPC*%
G36*
X-239944Y111505D02*
X-239944Y111505D01*
X-243305Y112897D01*
X-245878Y115470D01*
X-247270Y118831D01*
X-247270Y122469D01*
X-245878Y125830D01*
X-243305Y128403D01*
X-239944Y129795D01*
X-236306Y129795D01*
X-232945Y128403D01*
X-230372Y125830D01*
X-228980Y122469D01*
X-228980Y118831D01*
X-230372Y115470D01*
X-232945Y112897D01*
X-236306Y111505D01*
X-239944Y111505D01*
G37*
%LPD*%
%LPC*%
G36*
X-239944Y60705D02*
X-239944Y60705D01*
X-243305Y62097D01*
X-245878Y64670D01*
X-247270Y68031D01*
X-247270Y71669D01*
X-245878Y75030D01*
X-243305Y77603D01*
X-239944Y78995D01*
X-236306Y78995D01*
X-232945Y77603D01*
X-230372Y75030D01*
X-228980Y71669D01*
X-228980Y68031D01*
X-230372Y64670D01*
X-232945Y62097D01*
X-236306Y60705D01*
X-239944Y60705D01*
G37*
%LPD*%
%LPC*%
G36*
X-239944Y86105D02*
X-239944Y86105D01*
X-243305Y87497D01*
X-245878Y90070D01*
X-247270Y93431D01*
X-247270Y97069D01*
X-245878Y100430D01*
X-243305Y103003D01*
X-239944Y104395D01*
X-236306Y104395D01*
X-232945Y103003D01*
X-230372Y100430D01*
X-228980Y97069D01*
X-228980Y93431D01*
X-230372Y90070D01*
X-232945Y87497D01*
X-236306Y86105D01*
X-239944Y86105D01*
G37*
%LPD*%
%LPC*%
G36*
X188596Y-48684D02*
X188596Y-48684D01*
X185665Y-47470D01*
X183422Y-45227D01*
X182208Y-42295D01*
X182208Y-39123D01*
X183422Y-36192D01*
X185665Y-33949D01*
X188596Y-32734D01*
X191769Y-32734D01*
X194700Y-33949D01*
X196943Y-36192D01*
X198157Y-39123D01*
X198157Y-42295D01*
X196943Y-45227D01*
X194700Y-47470D01*
X191769Y-48684D01*
X188596Y-48684D01*
G37*
%LPD*%
%LPC*%
G36*
X155970Y-33013D02*
X155970Y-33013D01*
X168162Y-25975D01*
X168756Y-27409D01*
X169287Y-29393D01*
X169555Y-31429D01*
X169555Y-33482D01*
X169287Y-35519D01*
X168756Y-37502D01*
X167970Y-39399D01*
X166943Y-41178D01*
X165693Y-42807D01*
X164241Y-44259D01*
X163009Y-45204D01*
X155970Y-33013D01*
G37*
%LPD*%
%LPC*%
G36*
X152863Y-48121D02*
X152863Y-48121D01*
X150827Y-47853D01*
X148843Y-47322D01*
X146946Y-46536D01*
X145168Y-45509D01*
X143538Y-44259D01*
X142086Y-42807D01*
X141141Y-41575D01*
X153332Y-34536D01*
X160371Y-46728D01*
X158936Y-47322D01*
X156953Y-47853D01*
X154916Y-48121D01*
X152863Y-48121D01*
G37*
%LPD*%
%LPC*%
G36*
X139024Y-37502D02*
X139024Y-37502D01*
X138492Y-35519D01*
X138224Y-33482D01*
X138224Y-31429D01*
X138492Y-29393D01*
X139024Y-27409D01*
X139809Y-25512D01*
X140836Y-23734D01*
X142086Y-22104D01*
X143538Y-20652D01*
X144770Y-19707D01*
X151809Y-31898D01*
X139618Y-38937D01*
X139024Y-37502D01*
G37*
%LPD*%
%LPC*%
G36*
X147409Y-18184D02*
X147409Y-18184D01*
X148843Y-17590D01*
X150827Y-17058D01*
X152863Y-16790D01*
X154916Y-16790D01*
X156953Y-17058D01*
X158936Y-17590D01*
X160833Y-18375D01*
X162612Y-19402D01*
X164241Y-20652D01*
X165693Y-22104D01*
X166638Y-23336D01*
X154447Y-30375D01*
X147409Y-18184D01*
G37*
%LPD*%
%LPC*%
G36*
X41144Y164125D02*
X41144Y164125D01*
X38713Y166556D01*
X38713Y169994D01*
X41144Y172425D01*
X44581Y172425D01*
X46990Y170016D01*
X47006Y170005D01*
X47018Y169989D01*
X47106Y169933D01*
X47189Y169873D01*
X47208Y169867D01*
X47225Y169856D01*
X47326Y169831D01*
X47425Y169800D01*
X47444Y169801D01*
X47464Y169796D01*
X47567Y169804D01*
X47670Y169807D01*
X47689Y169814D01*
X47709Y169815D01*
X47804Y169856D01*
X47901Y169891D01*
X47917Y169904D01*
X47935Y169912D01*
X48066Y170016D01*
X50475Y172425D01*
X53912Y172425D01*
X56343Y169994D01*
X56343Y166556D01*
X53912Y164125D01*
X50475Y164125D01*
X48066Y166534D01*
X48050Y166545D01*
X48038Y166561D01*
X47950Y166617D01*
X47867Y166677D01*
X47848Y166683D01*
X47831Y166694D01*
X47730Y166719D01*
X47631Y166750D01*
X47612Y166749D01*
X47592Y166754D01*
X47489Y166746D01*
X47386Y166743D01*
X47367Y166736D01*
X47347Y166735D01*
X47252Y166694D01*
X47155Y166659D01*
X47139Y166646D01*
X47121Y166638D01*
X46990Y166534D01*
X44581Y164125D01*
X41144Y164125D01*
G37*
%LPD*%
%LPC*%
G36*
X84364Y36163D02*
X84364Y36163D01*
X82438Y38089D01*
X82438Y40811D01*
X83039Y41412D01*
X83050Y41428D01*
X83066Y41440D01*
X83122Y41528D01*
X83182Y41611D01*
X83188Y41630D01*
X83199Y41647D01*
X83224Y41748D01*
X83254Y41847D01*
X83254Y41866D01*
X83259Y41886D01*
X83251Y41989D01*
X83248Y42092D01*
X83241Y42111D01*
X83240Y42131D01*
X83199Y42226D01*
X83164Y42323D01*
X83151Y42339D01*
X83143Y42357D01*
X83039Y42488D01*
X82438Y43089D01*
X82438Y45811D01*
X83039Y46412D01*
X83050Y46428D01*
X83066Y46440D01*
X83122Y46528D01*
X83182Y46611D01*
X83188Y46630D01*
X83199Y46647D01*
X83224Y46748D01*
X83254Y46847D01*
X83254Y46866D01*
X83259Y46886D01*
X83251Y46989D01*
X83248Y47092D01*
X83241Y47111D01*
X83240Y47131D01*
X83199Y47226D01*
X83164Y47323D01*
X83151Y47339D01*
X83143Y47357D01*
X83039Y47488D01*
X82438Y48089D01*
X82438Y50811D01*
X84364Y52737D01*
X87086Y52737D01*
X89012Y50811D01*
X89012Y48089D01*
X88411Y47488D01*
X88400Y47472D01*
X88384Y47460D01*
X88328Y47372D01*
X88268Y47289D01*
X88262Y47270D01*
X88251Y47253D01*
X88226Y47152D01*
X88196Y47053D01*
X88196Y47034D01*
X88191Y47014D01*
X88199Y46911D01*
X88202Y46808D01*
X88209Y46789D01*
X88210Y46769D01*
X88251Y46674D01*
X88286Y46577D01*
X88299Y46561D01*
X88307Y46543D01*
X88411Y46412D01*
X89012Y45811D01*
X89012Y43089D01*
X88411Y42488D01*
X88400Y42472D01*
X88384Y42460D01*
X88328Y42372D01*
X88268Y42289D01*
X88262Y42270D01*
X88251Y42253D01*
X88226Y42152D01*
X88196Y42053D01*
X88196Y42034D01*
X88191Y42014D01*
X88199Y41911D01*
X88202Y41808D01*
X88209Y41789D01*
X88210Y41769D01*
X88251Y41674D01*
X88286Y41577D01*
X88299Y41561D01*
X88307Y41543D01*
X88411Y41412D01*
X89012Y40811D01*
X89012Y38089D01*
X87086Y36163D01*
X84364Y36163D01*
G37*
%LPD*%
%LPC*%
G36*
X202810Y48125D02*
X202810Y48125D01*
X200013Y50922D01*
X200013Y54878D01*
X202810Y57675D01*
X206765Y57675D01*
X209562Y54878D01*
X209562Y50922D01*
X206765Y48125D01*
X202810Y48125D01*
G37*
%LPD*%
%LPC*%
G36*
X202810Y120125D02*
X202810Y120125D01*
X200013Y122922D01*
X200013Y126878D01*
X202810Y129675D01*
X206765Y129675D01*
X209562Y126878D01*
X209562Y122922D01*
X206765Y120125D01*
X202810Y120125D01*
G37*
%LPD*%
%LPC*%
G36*
X134087Y222344D02*
X134087Y222344D01*
X134433Y222821D01*
X135718Y224105D01*
X137188Y225173D01*
X138806Y225998D01*
X140534Y226559D01*
X142328Y226844D01*
X144144Y226844D01*
X145938Y226559D01*
X147654Y226002D01*
X142679Y217384D01*
X134087Y222344D01*
G37*
%LPD*%
%LPC*%
G36*
X145317Y215860D02*
X145317Y215860D01*
X150277Y224452D01*
X150754Y224106D01*
X152039Y222821D01*
X153107Y221351D01*
X153931Y219733D01*
X154493Y218005D01*
X154777Y216211D01*
X154777Y214395D01*
X154493Y212600D01*
X153935Y210885D01*
X145317Y215860D01*
G37*
%LPD*%
%LPC*%
G36*
X142328Y203762D02*
X142328Y203762D01*
X140534Y204046D01*
X138818Y204604D01*
X143794Y213222D01*
X152385Y208262D01*
X152039Y207784D01*
X150754Y206500D01*
X149285Y205432D01*
X147666Y204608D01*
X145938Y204046D01*
X144144Y203762D01*
X142328Y203762D01*
G37*
%LPD*%
%LPC*%
G36*
X135718Y206500D02*
X135718Y206500D01*
X134433Y207784D01*
X133365Y209254D01*
X132541Y210873D01*
X131979Y212600D01*
X131695Y214395D01*
X131695Y216211D01*
X131979Y218005D01*
X132537Y219721D01*
X141155Y214745D01*
X136195Y206153D01*
X135718Y206500D01*
G37*
%LPD*%
%LPC*%
G36*
X47494Y5375D02*
X47494Y5375D01*
X45063Y7806D01*
X45063Y11244D01*
X47494Y13675D01*
X50931Y13675D01*
X53362Y11244D01*
X53362Y7806D01*
X50931Y5375D01*
X47494Y5375D01*
G37*
%LPD*%
%LPC*%
G36*
X28444Y5375D02*
X28444Y5375D01*
X26013Y7806D01*
X26013Y11244D01*
X28444Y13675D01*
X31881Y13675D01*
X34312Y11244D01*
X34312Y7806D01*
X31881Y5375D01*
X28444Y5375D01*
G37*
%LPD*%
%LPC*%
G36*
X152269Y3788D02*
X152269Y3788D01*
X149838Y6219D01*
X149838Y9656D01*
X152269Y12087D01*
X155706Y12087D01*
X158137Y9656D01*
X158137Y6219D01*
X155706Y3788D01*
X152269Y3788D01*
G37*
%LPD*%
%LPC*%
G36*
X226881Y84750D02*
X226881Y84750D01*
X224450Y87181D01*
X224450Y90619D01*
X226881Y93050D01*
X230319Y93050D01*
X232750Y90619D01*
X232750Y87181D01*
X230319Y84750D01*
X226881Y84750D01*
G37*
%LPD*%
%LPC*%
G36*
X77656Y178413D02*
X77656Y178413D01*
X75225Y180844D01*
X75225Y184281D01*
X77656Y186712D01*
X81094Y186712D01*
X83525Y184281D01*
X83525Y180844D01*
X81094Y178413D01*
X77656Y178413D01*
G37*
%LPD*%
%LPC*%
G36*
X52256Y81575D02*
X52256Y81575D01*
X49825Y84006D01*
X49825Y87444D01*
X52256Y89875D01*
X55694Y89875D01*
X58125Y87444D01*
X58125Y84006D01*
X55694Y81575D01*
X52256Y81575D01*
G37*
%LPD*%
%LPC*%
G36*
X69719Y170475D02*
X69719Y170475D01*
X67288Y172906D01*
X67288Y176344D01*
X69719Y178775D01*
X73156Y178775D01*
X75587Y176344D01*
X75587Y172906D01*
X73156Y170475D01*
X69719Y170475D01*
G37*
%LPD*%
%LPC*%
G36*
X-225444Y154600D02*
X-225444Y154600D01*
X-227875Y157031D01*
X-227875Y160469D01*
X-225444Y162900D01*
X-222006Y162900D01*
X-219575Y160469D01*
X-219575Y157031D01*
X-222006Y154600D01*
X-225444Y154600D01*
G37*
%LPD*%
%LPC*%
G36*
X-36644Y148225D02*
X-36644Y148225D01*
X-39075Y150656D01*
X-39075Y154094D01*
X-36644Y156525D01*
X-33206Y156525D01*
X-30775Y154094D01*
X-30775Y150656D01*
X-33206Y148225D01*
X-36644Y148225D01*
G37*
%LPD*%
%LPC*%
G36*
X-96969Y148225D02*
X-96969Y148225D01*
X-99400Y150656D01*
X-99400Y154094D01*
X-96969Y156525D01*
X-93531Y156525D01*
X-91100Y154094D01*
X-91100Y150656D01*
X-93531Y148225D01*
X-96969Y148225D01*
G37*
%LPD*%
%LPC*%
G36*
X-209681Y146688D02*
X-209681Y146688D01*
X-212112Y149119D01*
X-212112Y152556D01*
X-209681Y154987D01*
X-206244Y154987D01*
X-203813Y152556D01*
X-203813Y149119D01*
X-206244Y146688D01*
X-209681Y146688D01*
G37*
%LPD*%
%LPC*%
G36*
X93144Y138750D02*
X93144Y138750D01*
X90713Y141181D01*
X90713Y144619D01*
X93144Y147050D01*
X96581Y147050D01*
X99012Y144619D01*
X99012Y141181D01*
X96581Y138750D01*
X93144Y138750D01*
G37*
%LPD*%
%LPC*%
G36*
X226881Y73638D02*
X226881Y73638D01*
X224450Y76069D01*
X224450Y79506D01*
X226881Y81937D01*
X230319Y81937D01*
X232750Y79506D01*
X232750Y76069D01*
X230319Y73638D01*
X226881Y73638D01*
G37*
%LPD*%
%LPC*%
G36*
X226881Y97450D02*
X226881Y97450D01*
X224450Y99881D01*
X224450Y103319D01*
X226881Y105750D01*
X230319Y105750D01*
X232750Y103319D01*
X232750Y99881D01*
X230319Y97450D01*
X226881Y97450D01*
G37*
%LPD*%
%LPC*%
G36*
X-17594Y56175D02*
X-17594Y56175D01*
X-20025Y58606D01*
X-20025Y62044D01*
X-17594Y64475D01*
X-14156Y64475D01*
X-11725Y62044D01*
X-11725Y58606D01*
X-14156Y56175D01*
X-17594Y56175D01*
G37*
%LPD*%
%LPC*%
G36*
X128456Y-18437D02*
X128456Y-18437D01*
X126025Y-16006D01*
X126025Y-12569D01*
X128456Y-10138D01*
X131894Y-10138D01*
X134325Y-12569D01*
X134325Y-16006D01*
X131894Y-18437D01*
X128456Y-18437D01*
G37*
%LPD*%
%LPC*%
G36*
X217356Y6963D02*
X217356Y6963D01*
X214925Y9394D01*
X214925Y12831D01*
X217356Y15262D01*
X220794Y15262D01*
X223225Y12831D01*
X223225Y9394D01*
X220794Y6963D01*
X217356Y6963D01*
G37*
%LPD*%
%LPC*%
G36*
X191956Y6963D02*
X191956Y6963D01*
X189525Y9394D01*
X189525Y12831D01*
X191956Y15262D01*
X195394Y15262D01*
X197825Y12831D01*
X197825Y9394D01*
X195394Y6963D01*
X191956Y6963D01*
G37*
%LPD*%
%LPC*%
G36*
X109406Y125000D02*
X109406Y125000D01*
X106975Y127431D01*
X106975Y130869D01*
X109406Y133300D01*
X112844Y133300D01*
X115275Y130869D01*
X115275Y127431D01*
X112844Y125000D01*
X109406Y125000D01*
G37*
%LPD*%
%LPC*%
G36*
X-4894Y56175D02*
X-4894Y56175D01*
X-7325Y58606D01*
X-7325Y62044D01*
X-4894Y64475D01*
X-1456Y64475D01*
X975Y62044D01*
X975Y58606D01*
X-1456Y56175D01*
X-4894Y56175D01*
G37*
%LPD*%
%LPC*%
G36*
X41996Y183592D02*
X41996Y183592D01*
X49419Y187878D01*
X49855Y186536D01*
X50106Y184952D01*
X50106Y183348D01*
X49855Y181764D01*
X49360Y180238D01*
X48631Y178809D01*
X47689Y177511D01*
X46554Y176377D01*
X46278Y176176D01*
X41996Y183592D01*
G37*
%LPD*%
%LPC*%
G36*
X41996Y-5792D02*
X41996Y-5792D01*
X46278Y1624D01*
X46554Y1423D01*
X47689Y289D01*
X48631Y-1009D01*
X49360Y-2438D01*
X49855Y-3964D01*
X50106Y-5548D01*
X50106Y-7152D01*
X49855Y-8736D01*
X49419Y-10078D01*
X41996Y-5792D01*
G37*
%LPD*%
%LPC*%
G36*
X31942Y13D02*
X31942Y13D01*
X32142Y289D01*
X33277Y1423D01*
X34574Y2366D01*
X36004Y3094D01*
X37529Y3590D01*
X39113Y3841D01*
X40717Y3841D01*
X42302Y3590D01*
X43644Y3154D01*
X39358Y-4269D01*
X31942Y13D01*
G37*
%LPD*%
%LPC*%
G36*
X39113Y173959D02*
X39113Y173959D01*
X37529Y174210D01*
X36004Y174706D01*
X34574Y175434D01*
X33277Y176377D01*
X32142Y177511D01*
X31942Y177787D01*
X39358Y182069D01*
X43644Y174646D01*
X42302Y174210D01*
X40717Y173959D01*
X39113Y173959D01*
G37*
%LPD*%
%LPC*%
G36*
X-192069Y137550D02*
X-192069Y137550D01*
X-194287Y139768D01*
X-194287Y142905D01*
X-192069Y145123D01*
X-188931Y145123D01*
X-186713Y142905D01*
X-186713Y139768D01*
X-188931Y137550D01*
X-192069Y137550D01*
G37*
%LPD*%
%LPC*%
G36*
X104794Y63637D02*
X104794Y63637D01*
X102576Y65855D01*
X102576Y68993D01*
X104794Y71211D01*
X107931Y71211D01*
X110149Y68993D01*
X110149Y65855D01*
X107931Y63637D01*
X104794Y63637D01*
G37*
%LPD*%
%LPC*%
G36*
X177819Y81938D02*
X177819Y81938D01*
X175601Y84156D01*
X175601Y87294D01*
X177819Y89512D01*
X180956Y89512D01*
X183174Y87294D01*
X183174Y84156D01*
X180956Y81938D01*
X177819Y81938D01*
G37*
%LPD*%
%LPC*%
G36*
X188169Y94638D02*
X188169Y94638D01*
X185951Y96856D01*
X185951Y99994D01*
X188169Y102212D01*
X191307Y102212D01*
X193525Y99994D01*
X193525Y96856D01*
X191307Y94638D01*
X188169Y94638D01*
G37*
%LPD*%
%LPC*%
G36*
X164555Y82748D02*
X164555Y82748D01*
X162337Y84966D01*
X162337Y88103D01*
X164555Y90321D01*
X167693Y90321D01*
X169911Y88103D01*
X169911Y84966D01*
X167693Y82748D01*
X164555Y82748D01*
G37*
%LPD*%
%LPC*%
G36*
X204806Y83526D02*
X204806Y83526D01*
X202588Y85744D01*
X202588Y88881D01*
X204806Y91099D01*
X207944Y91099D01*
X210162Y88881D01*
X210162Y85744D01*
X207944Y83526D01*
X204806Y83526D01*
G37*
%LPD*%
%LPC*%
G36*
X73855Y40663D02*
X73855Y40663D01*
X71637Y42881D01*
X71637Y46019D01*
X73855Y48237D01*
X76993Y48237D01*
X79211Y46019D01*
X79211Y42881D01*
X76993Y40663D01*
X73855Y40663D01*
G37*
%LPD*%
%LPC*%
G36*
X-30461Y4151D02*
X-30461Y4151D01*
X-32679Y6369D01*
X-32679Y9506D01*
X-30461Y11724D01*
X-27324Y11724D01*
X-25106Y9506D01*
X-25106Y6369D01*
X-27324Y4151D01*
X-30461Y4151D01*
G37*
%LPD*%
%LPC*%
G36*
X204806Y96226D02*
X204806Y96226D01*
X202588Y98444D01*
X202588Y101581D01*
X204806Y103799D01*
X207944Y103799D01*
X210162Y101581D01*
X210162Y98444D01*
X207944Y96226D01*
X204806Y96226D01*
G37*
%LPD*%
%LPC*%
G36*
X-103664Y197667D02*
X-103664Y197667D01*
X-105736Y199739D01*
X-105736Y202669D01*
X-103664Y204741D01*
X-100734Y204741D01*
X-98662Y202669D01*
X-98662Y199739D01*
X-100734Y197667D01*
X-103664Y197667D01*
G37*
%LPD*%
%LPC*%
G36*
X-77309Y117362D02*
X-77309Y117362D01*
X-79381Y119434D01*
X-79381Y122364D01*
X-77309Y124436D01*
X-74379Y124436D01*
X-72307Y122364D01*
X-72307Y119434D01*
X-74379Y117362D01*
X-77309Y117362D01*
G37*
%LPD*%
%LPC*%
G36*
X95299Y40913D02*
X95299Y40913D01*
X93227Y42985D01*
X93227Y45915D01*
X95299Y47987D01*
X98229Y47987D01*
X100301Y45915D01*
X100301Y42985D01*
X98229Y40913D01*
X95299Y40913D01*
G37*
%LPD*%
%LPC*%
G36*
X182685Y40351D02*
X182685Y40351D01*
X180613Y42423D01*
X180613Y45352D01*
X182685Y47424D01*
X185615Y47424D01*
X187687Y45352D01*
X187687Y42423D01*
X185615Y40351D01*
X182685Y40351D01*
G37*
%LPD*%
%LPC*%
G36*
X-145927Y59963D02*
X-145927Y59963D01*
X-147999Y62035D01*
X-147999Y64965D01*
X-145927Y67037D01*
X-142998Y67037D01*
X-140926Y64965D01*
X-140926Y62035D01*
X-142998Y59963D01*
X-145927Y59963D01*
G37*
%LPD*%
%LPC*%
G36*
X-130731Y44088D02*
X-130731Y44088D01*
X-132803Y46160D01*
X-132803Y49090D01*
X-130731Y51162D01*
X-127802Y51162D01*
X-125730Y49090D01*
X-125730Y46160D01*
X-127802Y44088D01*
X-130731Y44088D01*
G37*
%LPD*%
%LPC*%
G36*
X-144867Y44088D02*
X-144867Y44088D01*
X-146939Y46160D01*
X-146939Y49090D01*
X-144867Y51162D01*
X-141938Y51162D01*
X-139866Y49090D01*
X-139866Y46160D01*
X-141938Y44088D01*
X-144867Y44088D01*
G37*
%LPD*%
%LPC*%
G36*
X-161218Y135909D02*
X-161218Y135909D01*
X-163290Y137981D01*
X-163290Y140911D01*
X-161218Y142983D01*
X-158288Y142983D01*
X-156216Y140911D01*
X-156216Y137981D01*
X-158288Y135909D01*
X-161218Y135909D01*
G37*
%LPD*%
%LPC*%
G36*
X-130731Y59963D02*
X-130731Y59963D01*
X-132803Y62035D01*
X-132803Y64965D01*
X-130731Y67037D01*
X-127802Y67037D01*
X-125730Y64965D01*
X-125730Y62035D01*
X-127802Y59963D01*
X-130731Y59963D01*
G37*
%LPD*%
%LPC*%
G36*
X89023Y23451D02*
X89023Y23451D01*
X86951Y25523D01*
X86951Y28452D01*
X89023Y30524D01*
X91952Y30524D01*
X94024Y28452D01*
X94024Y25523D01*
X91952Y23451D01*
X89023Y23451D01*
G37*
%LPD*%
%LPC*%
G36*
X73656Y55455D02*
X73656Y55455D01*
X71584Y57527D01*
X71584Y60456D01*
X73656Y62528D01*
X76585Y62528D01*
X78657Y60456D01*
X78657Y57527D01*
X76585Y55455D01*
X73656Y55455D01*
G37*
%LPD*%
%LPC*%
G36*
X-157048Y51001D02*
X-157048Y51001D01*
X-159120Y53073D01*
X-159120Y56002D01*
X-157048Y58074D01*
X-154118Y58074D01*
X-152046Y56002D01*
X-152046Y53073D01*
X-154118Y51001D01*
X-157048Y51001D01*
G37*
%LPD*%
%LPC*%
G36*
X-268917Y83480D02*
X-268917Y83480D01*
X-270989Y85551D01*
X-270989Y88481D01*
X-268917Y90553D01*
X-265987Y90553D01*
X-263916Y88481D01*
X-263916Y85551D01*
X-265987Y83480D01*
X-268917Y83480D01*
G37*
%LPD*%
%LPC*%
G36*
X-91926Y-15703D02*
X-91926Y-15703D01*
X-93998Y-13631D01*
X-93998Y-10702D01*
X-91926Y-8630D01*
X-88996Y-8630D01*
X-86924Y-10702D01*
X-86924Y-13631D01*
X-88996Y-15703D01*
X-91926Y-15703D01*
G37*
%LPD*%
%LPC*%
G36*
X65210Y29801D02*
X65210Y29801D01*
X63138Y31873D01*
X63138Y34802D01*
X65210Y36874D01*
X68140Y36874D01*
X70212Y34802D01*
X70212Y31873D01*
X68140Y29801D01*
X65210Y29801D01*
G37*
%LPD*%
%LPC*%
G36*
X-200848Y-24676D02*
X-200848Y-24676D01*
X-202920Y-22605D01*
X-202920Y-19675D01*
X-200848Y-17603D01*
X-197918Y-17603D01*
X-195847Y-19675D01*
X-195847Y-22605D01*
X-197918Y-24676D01*
X-200848Y-24676D01*
G37*
%LPD*%
%LPC*%
G36*
X-168206Y55147D02*
X-168206Y55147D01*
X-170278Y57219D01*
X-170278Y60149D01*
X-168206Y62221D01*
X-165276Y62221D01*
X-163204Y60149D01*
X-163204Y57219D01*
X-165276Y55147D01*
X-168206Y55147D01*
G37*
%LPD*%
%LPC*%
G36*
X-196090Y203635D02*
X-196090Y203635D01*
X-198161Y205707D01*
X-198161Y208637D01*
X-196090Y210709D01*
X-193160Y210709D01*
X-191088Y208637D01*
X-191088Y205707D01*
X-193160Y203635D01*
X-196090Y203635D01*
G37*
%LPD*%
%LPC*%
G36*
X171976Y-59700D02*
X171976Y-59700D01*
X170239Y-59354D01*
X168603Y-58677D01*
X167130Y-57693D01*
X165916Y-56478D01*
X172304Y-52790D01*
X175977Y-59150D01*
X175484Y-59354D01*
X173747Y-59700D01*
X171976Y-59700D01*
G37*
%LPD*%
%LPC*%
G36*
X174943Y-51267D02*
X174943Y-51267D01*
X181303Y-47594D01*
X181507Y-48087D01*
X181853Y-49824D01*
X181853Y-51595D01*
X181507Y-53332D01*
X180829Y-54968D01*
X179845Y-56441D01*
X178631Y-57655D01*
X174943Y-51267D01*
G37*
%LPD*%
%LPC*%
G36*
X169747Y-42268D02*
X169747Y-42268D01*
X170239Y-42064D01*
X171976Y-41718D01*
X173747Y-41718D01*
X175484Y-42064D01*
X177120Y-42742D01*
X178593Y-43726D01*
X179808Y-44940D01*
X173419Y-48628D01*
X169747Y-42268D01*
G37*
%LPD*%
%LPC*%
G36*
X164217Y-53332D02*
X164217Y-53332D01*
X163871Y-51595D01*
X163871Y-49824D01*
X164217Y-48087D01*
X164894Y-46450D01*
X165878Y-44978D01*
X167093Y-43763D01*
X170781Y-50152D01*
X164420Y-53824D01*
X164217Y-53332D01*
G37*
%LPD*%
%LPC*%
G36*
X278037Y45249D02*
X278037Y45249D01*
X278037Y50445D01*
X278702Y50312D01*
X279897Y49818D01*
X280972Y49099D01*
X281887Y48185D01*
X282605Y47110D01*
X283100Y45915D01*
X283232Y45249D01*
X278037Y45249D01*
G37*
%LPD*%
%LPC*%
G36*
X218537Y48849D02*
X218537Y48849D01*
X218537Y54045D01*
X219202Y53912D01*
X220397Y53418D01*
X221472Y52699D01*
X222387Y51785D01*
X223105Y50710D01*
X223600Y49515D01*
X223732Y48849D01*
X218537Y48849D01*
G37*
%LPD*%
%LPC*%
G36*
X218537Y131449D02*
X218537Y131449D01*
X218537Y136645D01*
X219202Y136512D01*
X220397Y136018D01*
X221472Y135299D01*
X222387Y134385D01*
X223105Y133310D01*
X223600Y132115D01*
X223732Y131449D01*
X218537Y131449D01*
G37*
%LPD*%
%LPC*%
G36*
X278037Y135049D02*
X278037Y135049D01*
X278037Y140245D01*
X278702Y140112D01*
X279897Y139618D01*
X280972Y138899D01*
X281887Y137985D01*
X282605Y136910D01*
X283100Y135715D01*
X283232Y135049D01*
X278037Y135049D01*
G37*
%LPD*%
%LPC*%
G36*
X278037Y42751D02*
X278037Y42751D01*
X283232Y42751D01*
X283100Y42085D01*
X282605Y40890D01*
X282267Y40384D01*
X281887Y39815D01*
X280972Y38901D01*
X279897Y38182D01*
X278702Y37688D01*
X278037Y37555D01*
X278037Y42751D01*
G37*
%LPD*%
%LPC*%
G36*
X278037Y132551D02*
X278037Y132551D01*
X283232Y132551D01*
X283100Y131885D01*
X282605Y130690D01*
X282285Y130211D01*
X281887Y129615D01*
X280972Y128701D01*
X279897Y127982D01*
X278702Y127488D01*
X278037Y127355D01*
X278037Y132551D01*
G37*
%LPD*%
%LPC*%
G36*
X218537Y128951D02*
X218537Y128951D01*
X223732Y128951D01*
X223600Y128285D01*
X223105Y127090D01*
X222387Y126015D01*
X221472Y125101D01*
X220397Y124382D01*
X219202Y123888D01*
X218537Y123755D01*
X218537Y128951D01*
G37*
%LPD*%
%LPC*%
G36*
X210843Y48849D02*
X210843Y48849D01*
X210975Y49515D01*
X211470Y50710D01*
X212188Y51785D01*
X213103Y52699D01*
X214178Y53418D01*
X215373Y53912D01*
X216038Y54045D01*
X216038Y48849D01*
X210843Y48849D01*
G37*
%LPD*%
%LPC*%
G36*
X218537Y46351D02*
X218537Y46351D01*
X223732Y46351D01*
X223600Y45685D01*
X223105Y44490D01*
X222387Y43415D01*
X221472Y42501D01*
X220397Y41782D01*
X219202Y41288D01*
X218537Y41155D01*
X218537Y46351D01*
G37*
%LPD*%
%LPC*%
G36*
X270343Y45249D02*
X270343Y45249D01*
X270475Y45915D01*
X270970Y47110D01*
X271688Y48185D01*
X272603Y49099D01*
X273678Y49818D01*
X274873Y50312D01*
X275538Y50445D01*
X275538Y45249D01*
X270343Y45249D01*
G37*
%LPD*%
%LPC*%
G36*
X270343Y135049D02*
X270343Y135049D01*
X270475Y135715D01*
X270970Y136910D01*
X271688Y137985D01*
X272603Y138899D01*
X273678Y139618D01*
X274873Y140112D01*
X275538Y140245D01*
X275538Y135049D01*
X270343Y135049D01*
G37*
%LPD*%
%LPC*%
G36*
X210843Y131449D02*
X210843Y131449D01*
X210975Y132115D01*
X211470Y133310D01*
X212188Y134385D01*
X213103Y135299D01*
X214178Y136018D01*
X215373Y136512D01*
X216038Y136645D01*
X216038Y131449D01*
X210843Y131449D01*
G37*
%LPD*%
%LPC*%
G36*
X274873Y127488D02*
X274873Y127488D01*
X273678Y127982D01*
X272603Y128701D01*
X271688Y129615D01*
X270970Y130690D01*
X270475Y131885D01*
X270343Y132551D01*
X275538Y132551D01*
X275538Y127355D01*
X274873Y127488D01*
G37*
%LPD*%
%LPC*%
G36*
X215373Y123888D02*
X215373Y123888D01*
X214178Y124382D01*
X213103Y125101D01*
X212188Y126015D01*
X211470Y127090D01*
X210975Y128285D01*
X210843Y128951D01*
X216038Y128951D01*
X216038Y123755D01*
X215373Y123888D01*
G37*
%LPD*%
%LPC*%
G36*
X215373Y41288D02*
X215373Y41288D01*
X214178Y41782D01*
X213103Y42501D01*
X212188Y43415D01*
X211470Y44490D01*
X210975Y45685D01*
X210843Y46351D01*
X216038Y46351D01*
X216038Y41155D01*
X215373Y41288D01*
G37*
%LPD*%
%LPC*%
G36*
X274873Y37688D02*
X274873Y37688D01*
X273678Y38182D01*
X272603Y38901D01*
X271688Y39815D01*
X270970Y40890D01*
X270475Y42085D01*
X270343Y42751D01*
X275538Y42751D01*
X275538Y37555D01*
X274873Y37688D01*
G37*
%LPD*%
%LPC*%
G36*
X153889Y-32455D02*
X153889Y-32455D01*
X153890Y-32455D01*
X153891Y-32456D01*
X153889Y-32457D01*
X153889Y-32455D01*
G37*
%LPD*%
%LPC*%
G36*
X172861Y-50709D02*
X172861Y-50709D01*
X172862Y-50708D01*
X172863Y-50709D01*
X172861Y-50710D01*
X172861Y-50709D01*
G37*
%LPD*%
%LPC*%
G36*
X143235Y215302D02*
X143235Y215302D01*
X143236Y215304D01*
X143237Y215303D01*
X143236Y215302D01*
X143235Y215302D01*
G37*
%LPD*%
D10*
X-238125Y120650D03*
X-238125Y95250D03*
X-238125Y69850D03*
X-238125Y44450D03*
D11*
X190182Y-40709D03*
X172862Y-50709D03*
D12*
X61913Y-19050D03*
X39915Y-6350D03*
D13*
X188184Y-12656D03*
X153890Y-32456D03*
D14*
X173547Y197803D03*
X143236Y215303D03*
D12*
X61913Y196850D03*
X39915Y184150D03*
D15*
X217288Y47600D03*
X217288Y130200D03*
X276788Y133800D03*
X276788Y44000D03*
D16*
X74050Y107950D03*
D17*
X-173038Y234950D03*
X-171450Y217488D03*
X-123825Y225425D03*
X-111125Y223838D03*
X-282575Y130175D03*
X-269875Y144463D03*
X-250825Y193675D03*
X-239713Y155575D03*
X-287338Y49213D03*
X-246063Y23813D03*
X-231775Y12700D03*
X-258763Y-9525D03*
X-120650Y-42863D03*
X-176213Y-44450D03*
X-182563Y-28575D03*
X-157163Y-7938D03*
X22225Y23813D03*
X-19050Y23813D03*
X17463Y50800D03*
X-36513Y66675D03*
X-26988Y66675D03*
X-26988Y58738D03*
X-36513Y58738D03*
X-36513Y50800D03*
X-26988Y50800D03*
X-76200Y38100D03*
X-63500Y36513D03*
X-15875Y44450D03*
D18*
X38100Y184150D02*
X39915Y184150D01*
X38100Y184150D02*
X7938Y153988D01*
X130175Y202242D02*
X143236Y215303D01*
X130175Y202242D02*
X130175Y190500D01*
X143236Y215303D02*
X157163Y229229D01*
X157163Y234950D01*
X276788Y44000D02*
X275650Y42863D01*
X257175Y42863D01*
X276225Y133238D02*
X276788Y133800D01*
X276225Y133238D02*
X276225Y109538D01*
X218850Y131763D02*
X217288Y130200D01*
X218850Y131763D02*
X242888Y131763D01*
X217313Y47625D02*
X217288Y47600D01*
X217313Y47625D02*
X242888Y47625D01*
X153890Y-32456D02*
X146050Y-24616D01*
X146050Y-11113D01*
X153890Y-32456D02*
X140308Y-46038D01*
X131763Y-46038D01*
X51053Y-6350D02*
X39915Y-6350D01*
X51053Y-6350D02*
X55012Y-2391D01*
X64284Y-2391D02*
X74613Y7938D01*
X64284Y-2391D02*
X55012Y-2391D01*
X53830Y-1623D02*
X60361Y4907D01*
X60361Y14143D01*
X53830Y20673D01*
X44642Y-1623D02*
X39915Y-6350D01*
X44642Y-1623D02*
X53830Y-1623D01*
X39652Y20673D02*
X36513Y23813D01*
X39652Y20673D02*
X53830Y20673D01*
D17*
X-195263Y111125D03*
X-174625Y96838D03*
X-110787Y133350D03*
X-34925Y133375D03*
X77788Y14288D03*
D18*
X163246Y-60325D02*
X172862Y-50709D01*
X163246Y-60325D02*
X152400Y-60325D01*
X143236Y215303D02*
X134701Y223838D01*
X131763Y223838D01*
X124422Y215303D02*
X143236Y215303D01*
X124422Y215303D02*
X123825Y215900D01*
X143236Y215303D02*
X143236Y228961D01*
X144463Y230188D01*
X143236Y215303D02*
X146050Y212489D01*
X146050Y195263D01*
X144226Y214313D02*
X143236Y215303D01*
X144226Y214313D02*
X160338Y214313D01*
X269875Y140713D02*
X276788Y133800D01*
X269875Y140713D02*
X269875Y142875D01*
X276788Y135500D02*
X276788Y133800D01*
X276788Y135500D02*
X282575Y141288D01*
X220663Y126825D02*
X217288Y130200D01*
X220663Y126825D02*
X220663Y122238D01*
X217288Y130200D02*
X215875Y130200D01*
X209550Y136525D01*
X215912Y128824D02*
X217288Y130200D01*
X215912Y128824D02*
X215912Y123825D01*
X57150Y179388D02*
X53507Y183031D01*
X51053Y184150D02*
X39915Y184150D01*
X51053Y184150D02*
X52172Y183031D01*
X53507Y183031D01*
D17*
X-207963Y150838D03*
D19*
X-159753Y139446D03*
X-90461Y-12167D03*
X-102199Y201204D03*
X-199383Y-21140D03*
X-267452Y87016D03*
X-155583Y54538D03*
D20*
X85725Y44450D03*
D19*
X184150Y43888D03*
X90488Y26988D03*
X66675Y33338D03*
D20*
X85725Y49450D03*
D16*
X166124Y86534D03*
D17*
X-34925Y152375D03*
X166370Y155575D03*
X-46600Y80963D03*
X53975Y85725D03*
X177979Y4567D03*
D19*
X-131012Y113133D03*
X-129424Y106363D03*
X-75844Y120899D03*
X-166741Y58684D03*
D16*
X-28893Y7938D03*
D17*
X71438Y174625D03*
X52194Y168275D03*
X79375Y182563D03*
X42863Y168275D03*
X153988Y7938D03*
X193675Y11113D03*
X130175Y-14288D03*
X219075Y11113D03*
X-15875Y60325D03*
X-3175Y60325D03*
X30163Y9525D03*
X49213Y9525D03*
D19*
X78813Y69850D03*
D17*
X-28013Y34925D03*
X-95250Y152375D03*
D21*
X-28013Y34925D02*
X20638Y34925D01*
X63500Y77788D01*
X136525Y77788D01*
X171450Y112713D01*
X189724Y112713D01*
D16*
X189724Y112713D03*
D17*
X-223725Y158750D03*
D20*
X85725Y39450D03*
X49775Y101600D03*
D16*
X96026Y60076D03*
D22*
X109538Y46565D01*
X109538Y6350D01*
X84138Y-19050D01*
X61913Y-19050D01*
D16*
X106363Y67424D03*
X75424Y44450D03*
D19*
X75121Y58992D03*
D16*
X-130761Y98809D03*
D21*
X-119265Y87313D01*
X41275Y87313D02*
X49213Y95250D01*
X127000Y95250D01*
D16*
X127000Y95250D03*
D21*
X41275Y87313D02*
X-119265Y87313D01*
D19*
X100625Y107038D03*
X-106363Y95250D03*
D22*
X-66675Y95250D02*
X-41275Y120650D01*
X-66675Y95250D02*
X-106363Y95250D01*
X87013Y120650D02*
X100625Y107038D01*
X87013Y120650D02*
X-41275Y120650D01*
D17*
X111125Y129150D03*
X94863Y142900D03*
D19*
X-144463Y63500D03*
X-129267Y63500D03*
X-131589Y124455D03*
D22*
X100013Y163513D02*
X201050Y163513D01*
D19*
X201050Y163513D03*
D22*
X100013Y163513D02*
X79093Y142593D01*
X-113451Y142593D01*
X-131589Y124455D01*
D16*
X-190500Y141337D03*
D17*
X228600Y101600D03*
X228600Y88900D03*
X228600Y77788D03*
D16*
X206375Y87313D03*
X179388Y85725D03*
X96838Y88900D03*
X189738Y98425D03*
X206375Y100013D03*
D19*
X-143403Y47625D03*
X-129267Y47625D03*
X96764Y44450D03*
X-194625Y207172D03*
M02*
