G04 EAGLE Gerber RS-274X export*
G75*
%MOMM*%
%FSLAX34Y34*%
%LPD*%
%IN*%
%IPPOS*%
%AMOC8*
5,1,8,0,0,1.08239X$1,22.5*%
G01*
%ADD10C,0.254000*%


D10*
X-299225Y2300D02*
X-149225Y-84300D01*
X775Y2300D01*
X150775Y-84300D01*
X300775Y2300D01*
X300775Y175500D01*
X150775Y262100D01*
X775Y175500D01*
X-149225Y262100D01*
X-299225Y175500D01*
X-299225Y2300D01*
X201538Y123400D02*
X201550Y123117D01*
X201587Y122836D01*
X201648Y122559D01*
X201734Y122288D01*
X201842Y122027D01*
X201973Y121775D01*
X202125Y121536D01*
X202298Y121311D01*
X202489Y121102D01*
X202698Y120910D01*
X202923Y120738D01*
X203163Y120585D01*
X203414Y120455D01*
X203676Y120346D01*
X203946Y120261D01*
X204223Y120199D01*
X204504Y120162D01*
X204788Y120150D01*
X205071Y120162D01*
X205352Y120199D01*
X205629Y120261D01*
X205899Y120346D01*
X206161Y120455D01*
X206413Y120585D01*
X206652Y120738D01*
X206877Y120910D01*
X207086Y121102D01*
X207277Y121311D01*
X207450Y121536D01*
X207602Y121775D01*
X207733Y122027D01*
X207842Y122288D01*
X207927Y122559D01*
X207988Y122836D01*
X208025Y123117D01*
X208038Y123400D01*
X208038Y126400D01*
X208025Y126683D01*
X207988Y126964D01*
X207927Y127241D01*
X207842Y127512D01*
X207733Y127774D01*
X207602Y128025D01*
X207450Y128264D01*
X207277Y128489D01*
X207086Y128698D01*
X206877Y128890D01*
X206652Y129062D01*
X206413Y129215D01*
X206161Y129346D01*
X205899Y129454D01*
X205629Y129539D01*
X205352Y129601D01*
X205071Y129638D01*
X204788Y129650D01*
X204504Y129638D01*
X204223Y129601D01*
X203946Y129539D01*
X203676Y129454D01*
X203414Y129346D01*
X203163Y129215D01*
X202923Y129062D01*
X202698Y128890D01*
X202489Y128698D01*
X202298Y128489D01*
X202125Y128264D01*
X201973Y128025D01*
X201842Y127774D01*
X201734Y127512D01*
X201648Y127241D01*
X201587Y126964D01*
X201550Y126683D01*
X201538Y126400D01*
X201538Y123400D01*
X271288Y133800D02*
X271297Y133582D01*
X271325Y133366D01*
X271373Y133153D01*
X271438Y132945D01*
X271522Y132743D01*
X271622Y132550D01*
X271740Y132366D01*
X271872Y132193D01*
X272020Y132032D01*
X272181Y131885D01*
X272354Y131752D01*
X272538Y131635D01*
X272731Y131534D01*
X272932Y131451D01*
X273140Y131385D01*
X273353Y131338D01*
X273570Y131310D01*
X273788Y131300D01*
X279788Y131300D01*
X280005Y131310D01*
X280222Y131338D01*
X280435Y131385D01*
X280643Y131451D01*
X280844Y131534D01*
X281038Y131635D01*
X281221Y131752D01*
X281394Y131885D01*
X281555Y132032D01*
X281703Y132193D01*
X281835Y132366D01*
X281953Y132550D01*
X282053Y132743D01*
X282137Y132945D01*
X282202Y133153D01*
X282250Y133366D01*
X282278Y133582D01*
X282288Y133800D01*
X282278Y134018D01*
X282250Y134234D01*
X282202Y134447D01*
X282137Y134655D01*
X282053Y134857D01*
X281953Y135050D01*
X281835Y135234D01*
X281703Y135407D01*
X281555Y135568D01*
X281394Y135715D01*
X281221Y135848D01*
X281038Y135965D01*
X280844Y136066D01*
X280643Y136149D01*
X280435Y136215D01*
X280222Y136262D01*
X280005Y136291D01*
X279788Y136300D01*
X273788Y136300D01*
X273570Y136291D01*
X273353Y136262D01*
X273140Y136215D01*
X272932Y136149D01*
X272731Y136066D01*
X272538Y135965D01*
X272354Y135848D01*
X272181Y135715D01*
X272020Y135568D01*
X271872Y135407D01*
X271740Y135234D01*
X271622Y135050D01*
X271522Y134857D01*
X271438Y134655D01*
X271373Y134447D01*
X271325Y134234D01*
X271297Y134018D01*
X271288Y133800D01*
X271288Y44000D02*
X271297Y43782D01*
X271325Y43566D01*
X271373Y43353D01*
X271438Y43145D01*
X271522Y42943D01*
X271622Y42750D01*
X271740Y42566D01*
X271872Y42393D01*
X272020Y42232D01*
X272181Y42085D01*
X272354Y41952D01*
X272538Y41835D01*
X272731Y41734D01*
X272932Y41651D01*
X273140Y41585D01*
X273353Y41538D01*
X273570Y41510D01*
X273788Y41500D01*
X279788Y41500D01*
X280005Y41510D01*
X280222Y41538D01*
X280435Y41585D01*
X280643Y41651D01*
X280844Y41734D01*
X281038Y41835D01*
X281221Y41952D01*
X281394Y42085D01*
X281555Y42232D01*
X281703Y42393D01*
X281835Y42566D01*
X281953Y42750D01*
X282053Y42943D01*
X282137Y43145D01*
X282202Y43353D01*
X282250Y43566D01*
X282278Y43782D01*
X282288Y44000D01*
X282278Y44218D01*
X282250Y44434D01*
X282202Y44647D01*
X282137Y44855D01*
X282053Y45057D01*
X281953Y45250D01*
X281835Y45434D01*
X281703Y45607D01*
X281555Y45768D01*
X281394Y45915D01*
X281221Y46048D01*
X281038Y46165D01*
X280844Y46266D01*
X280643Y46349D01*
X280435Y46415D01*
X280222Y46462D01*
X280005Y46491D01*
X279788Y46500D01*
X273788Y46500D01*
X273570Y46491D01*
X273353Y46462D01*
X273140Y46415D01*
X272932Y46349D01*
X272731Y46266D01*
X272538Y46165D01*
X272354Y46048D01*
X272181Y45915D01*
X272020Y45768D01*
X271872Y45607D01*
X271740Y45434D01*
X271622Y45250D01*
X271522Y45057D01*
X271438Y44855D01*
X271373Y44647D01*
X271325Y44434D01*
X271297Y44218D01*
X271288Y44000D01*
X211788Y130200D02*
X211797Y129982D01*
X211825Y129766D01*
X211873Y129553D01*
X211938Y129345D01*
X212022Y129143D01*
X212122Y128950D01*
X212240Y128766D01*
X212372Y128593D01*
X212520Y128432D01*
X212681Y128285D01*
X212854Y128152D01*
X213038Y128035D01*
X213231Y127934D01*
X213432Y127851D01*
X213640Y127785D01*
X213853Y127738D01*
X214070Y127710D01*
X214288Y127700D01*
X220288Y127700D01*
X220505Y127710D01*
X220722Y127738D01*
X220935Y127785D01*
X221143Y127851D01*
X221344Y127934D01*
X221538Y128035D01*
X221721Y128152D01*
X221894Y128285D01*
X222055Y128432D01*
X222203Y128593D01*
X222335Y128766D01*
X222453Y128950D01*
X222553Y129143D01*
X222637Y129345D01*
X222702Y129553D01*
X222750Y129766D01*
X222778Y129982D01*
X222788Y130200D01*
X222778Y130418D01*
X222750Y130634D01*
X222702Y130847D01*
X222637Y131055D01*
X222553Y131257D01*
X222453Y131450D01*
X222335Y131634D01*
X222203Y131807D01*
X222055Y131968D01*
X221894Y132115D01*
X221721Y132248D01*
X221538Y132365D01*
X221344Y132466D01*
X221143Y132549D01*
X220935Y132615D01*
X220722Y132662D01*
X220505Y132691D01*
X220288Y132700D01*
X214288Y132700D01*
X214070Y132691D01*
X213853Y132662D01*
X213640Y132615D01*
X213432Y132549D01*
X213231Y132466D01*
X213038Y132365D01*
X212854Y132248D01*
X212681Y132115D01*
X212520Y131968D01*
X212372Y131807D01*
X212240Y131634D01*
X212122Y131450D01*
X212022Y131257D01*
X211938Y131055D01*
X211873Y130847D01*
X211825Y130634D01*
X211797Y130418D01*
X211788Y130200D01*
X211788Y47600D02*
X211797Y47382D01*
X211825Y47166D01*
X211873Y46953D01*
X211938Y46745D01*
X212022Y46543D01*
X212122Y46350D01*
X212240Y46166D01*
X212372Y45993D01*
X212520Y45832D01*
X212681Y45685D01*
X212854Y45552D01*
X213038Y45435D01*
X213231Y45334D01*
X213432Y45251D01*
X213640Y45185D01*
X213853Y45138D01*
X214070Y45110D01*
X214288Y45100D01*
X220288Y45100D01*
X220505Y45110D01*
X220722Y45138D01*
X220935Y45185D01*
X221143Y45251D01*
X221344Y45334D01*
X221538Y45435D01*
X221721Y45552D01*
X221894Y45685D01*
X222055Y45832D01*
X222203Y45993D01*
X222335Y46166D01*
X222453Y46350D01*
X222553Y46543D01*
X222637Y46745D01*
X222702Y46953D01*
X222750Y47166D01*
X222778Y47382D01*
X222788Y47600D01*
X222778Y47818D01*
X222750Y48034D01*
X222702Y48247D01*
X222637Y48455D01*
X222553Y48657D01*
X222453Y48850D01*
X222335Y49034D01*
X222203Y49207D01*
X222055Y49368D01*
X221894Y49515D01*
X221721Y49648D01*
X221538Y49765D01*
X221344Y49866D01*
X221143Y49949D01*
X220935Y50015D01*
X220722Y50062D01*
X220505Y50091D01*
X220288Y50100D01*
X214288Y50100D01*
X214070Y50091D01*
X213853Y50062D01*
X213640Y50015D01*
X213432Y49949D01*
X213231Y49866D01*
X213038Y49765D01*
X212854Y49648D01*
X212681Y49515D01*
X212520Y49368D01*
X212372Y49207D01*
X212240Y49034D01*
X212122Y48850D01*
X212022Y48657D01*
X211938Y48455D01*
X211873Y48247D01*
X211825Y48034D01*
X211797Y47818D01*
X211788Y47600D01*
X224854Y-31170D02*
X225158Y-31841D01*
X225395Y-32539D01*
X225562Y-33256D01*
X225659Y-33987D01*
X225683Y-34723D01*
X225635Y-35459D01*
X225515Y-36186D01*
X225324Y-36898D01*
X225064Y-37587D01*
X224738Y-38248D01*
X224349Y-38874D01*
X223901Y-39459D01*
X223397Y-39996D01*
X222843Y-40482D01*
X222244Y-40912D01*
X221606Y-41280D01*
X220934Y-41584D01*
X220237Y-41821D01*
X219519Y-41988D01*
X218788Y-42085D01*
X218052Y-42109D01*
X217317Y-42060D01*
X216589Y-41940D01*
X215878Y-41750D01*
X215188Y-41490D01*
X214527Y-41164D01*
X213901Y-40775D01*
X213317Y-40326D01*
X212779Y-39823D01*
X212293Y-39269D01*
X211864Y-38670D01*
X211495Y-38032D01*
X211191Y-37360D01*
X210954Y-36662D01*
X210787Y-35945D01*
X210691Y-35214D01*
X210667Y-34478D01*
X210715Y-33742D01*
X210835Y-33015D01*
X211026Y-32304D01*
X211285Y-31614D01*
X211611Y-30953D01*
X212000Y-30327D01*
X212449Y-29743D01*
X212953Y-29205D01*
X213507Y-28719D01*
X214106Y-28290D01*
X214744Y-27921D01*
X215415Y-27617D01*
X216113Y-27380D01*
X216830Y-27213D01*
X217561Y-27117D01*
X218298Y-27093D01*
X219033Y-27141D01*
X219760Y-27261D01*
X220472Y-27452D01*
X221161Y-27711D01*
X221822Y-28037D01*
X222448Y-28426D01*
X223033Y-28875D01*
X223571Y-29378D01*
X224056Y-29933D01*
X224486Y-30532D01*
X224854Y-31170D01*
X205001Y56150D02*
X205423Y56094D01*
X205834Y55984D01*
X206228Y55821D01*
X206597Y55608D01*
X206935Y55349D01*
X207236Y55047D01*
X207496Y54709D01*
X207709Y54341D01*
X207872Y53947D01*
X207982Y53535D01*
X208038Y53113D01*
X208038Y52687D01*
X207982Y52265D01*
X207872Y51853D01*
X207709Y51459D01*
X207496Y51091D01*
X207236Y50753D01*
X206935Y50451D01*
X206597Y50192D01*
X206228Y49979D01*
X205834Y49816D01*
X205423Y49706D01*
X205001Y49650D01*
X204574Y49650D01*
X204152Y49706D01*
X203741Y49816D01*
X203347Y49979D01*
X202978Y50192D01*
X202640Y50451D01*
X202339Y50753D01*
X202079Y51091D01*
X201866Y51459D01*
X201703Y51853D01*
X201593Y52265D01*
X201538Y52687D01*
X201538Y53113D01*
X201593Y53535D01*
X201703Y53947D01*
X201866Y54341D01*
X202079Y54709D01*
X202339Y55047D01*
X202640Y55349D01*
X202978Y55608D01*
X203347Y55821D01*
X203741Y55984D01*
X204152Y56094D01*
X204574Y56150D01*
X205001Y56150D01*
X205001Y128150D02*
X205423Y128094D01*
X205834Y127984D01*
X206228Y127821D01*
X206597Y127608D01*
X206935Y127349D01*
X207236Y127047D01*
X207496Y126709D01*
X207709Y126341D01*
X207872Y125947D01*
X207982Y125535D01*
X208038Y125113D01*
X208038Y124687D01*
X207982Y124265D01*
X207872Y123853D01*
X207709Y123459D01*
X207496Y123091D01*
X207236Y122753D01*
X206935Y122451D01*
X206597Y122192D01*
X206228Y121979D01*
X205834Y121816D01*
X205423Y121706D01*
X205001Y121650D01*
X204574Y121650D01*
X204152Y121706D01*
X203741Y121816D01*
X203347Y121979D01*
X202978Y122192D01*
X202640Y122451D01*
X202339Y122753D01*
X202079Y123091D01*
X201866Y123459D01*
X201703Y123853D01*
X201593Y124265D01*
X201538Y124687D01*
X201538Y125113D01*
X201593Y125535D01*
X201703Y125947D01*
X201866Y126341D01*
X202079Y126709D01*
X202339Y127047D01*
X202640Y127349D01*
X202978Y127608D01*
X203347Y127821D01*
X203741Y127984D01*
X204152Y128094D01*
X204574Y128150D01*
X205001Y128150D01*
M02*
