G04 EAGLE Gerber RS-274X export*
G75*
%MOMM*%
%FSLAX34Y34*%
%LPD*%
%INSolderpaste Top*%
%IPPOS*%
%AMOC8*
5,1,8,0,0,1.08239X$1,22.5*%
G01*
%ADD10R,0.800000X0.800000*%
%ADD11R,1.100000X1.000000*%
%ADD12R,0.420000X0.750000*%
%ADD13R,2.230000X1.800000*%
%ADD14C,0.254000*%
%ADD15R,0.300000X0.670000*%
%ADD16R,0.800000X0.400000*%
%ADD17R,1.750000X2.500000*%
%ADD18R,0.850000X2.200000*%
%ADD19R,1.000000X1.100000*%


D10*
X-186888Y17463D03*
X-171888Y17463D03*
D11*
X-91513Y55563D03*
X-108513Y55563D03*
X-74613Y140725D03*
X-74613Y157725D03*
D12*
X204788Y80025D03*
X204788Y66025D03*
D13*
X182563Y87625D03*
X182563Y58425D03*
D14*
X145526Y5238D03*
X145526Y238D03*
X145526Y-4763D03*
X145526Y-9763D03*
X145526Y-14763D03*
X140526Y5238D03*
X140526Y238D03*
X140526Y-4763D03*
X140526Y-9763D03*
X140526Y-14763D03*
X135526Y5238D03*
X135526Y238D03*
X135526Y-4763D03*
X135526Y-9763D03*
X135526Y-14763D03*
D15*
X119500Y112649D03*
X124500Y112649D03*
X129500Y112649D03*
X134500Y112649D03*
X134500Y128651D03*
X129500Y128651D03*
X124500Y128651D03*
X119500Y128651D03*
D16*
X48500Y114275D03*
X48500Y104775D03*
X48500Y95275D03*
X78500Y95275D03*
X78500Y104775D03*
X78500Y114275D03*
D17*
X63500Y104775D03*
D18*
X137250Y82550D03*
X116750Y82550D03*
D11*
X112713Y160900D03*
X112713Y143900D03*
D19*
X85163Y144463D03*
X102163Y144463D03*
X148200Y160338D03*
X131200Y160338D03*
D11*
X148200Y28575D03*
X131200Y28575D03*
X116450Y12700D03*
X99450Y12700D03*
D19*
X131200Y44450D03*
X148200Y44450D03*
D11*
X116450Y-3175D03*
X99450Y-3175D03*
D19*
X43888Y52388D03*
X60888Y52388D03*
X43888Y34925D03*
X60888Y34925D03*
X43888Y69850D03*
X60888Y69850D03*
D11*
X123263Y-30163D03*
X140263Y-30163D03*
D19*
X149225Y127563D03*
X149225Y110563D03*
X104775Y127563D03*
X104775Y110563D03*
X93663Y127563D03*
X93663Y110563D03*
X33338Y96275D03*
X33338Y113275D03*
D11*
X189706Y21875D03*
X189706Y38875D03*
X78813Y161925D03*
X95813Y161925D03*
X-158750Y-15313D03*
X-158750Y-32313D03*
X-141288Y-15313D03*
X-141288Y-32313D03*
X-125413Y-15313D03*
X-125413Y-32313D03*
D10*
X-71438Y115450D03*
X-71438Y100450D03*
M02*
