G04 EAGLE Gerber RS-274X export*
G75*
%MOMM*%
%FSLAX34Y34*%
%LPD*%
%INSolderpaste Bottom*%
%IPPOS*%
%AMOC8*
5,1,8,0,0,1.08239X$1,22.5*%
G01*
%ADD10R,0.400000X1.399997*%
%ADD11R,1.100000X1.000000*%
%ADD12R,1.000000X1.100000*%
%ADD13R,1.500000X1.300000*%
%ADD14R,0.254000X0.550000*%
%ADD15R,0.550000X0.254000*%
%ADD16R,1.290000X0.400000*%
%ADD17R,0.460000X0.420000*%
%ADD18R,1.760000X1.390000*%
%ADD19R,0.300000X0.210000*%
%ADD20R,0.500000X0.290000*%
%ADD21R,0.870000X1.700000*%
%ADD22R,0.200000X0.210000*%
%ADD23R,1.200000X0.400000*%
%ADD24R,1.300000X1.500000*%
%ADD25R,1.168400X1.600200*%
%ADD26R,1.600000X1.803000*%
%ADD27R,1.050000X0.600000*%
%ADD28R,0.700000X0.400000*%
%ADD29R,1.750000X2.500000*%
%ADD30R,0.900000X0.800000*%

G36*
X-150350Y115111D02*
X-150350Y115111D01*
X-150348Y115110D01*
X-150305Y115130D01*
X-150261Y115149D01*
X-150261Y115151D01*
X-150259Y115152D01*
X-150226Y115237D01*
X-150226Y127461D01*
X-150227Y127463D01*
X-150226Y127465D01*
X-150246Y127508D01*
X-150264Y127551D01*
X-150266Y127552D01*
X-150267Y127554D01*
X-150352Y127587D01*
X-162576Y127587D01*
X-162578Y127586D01*
X-162580Y127587D01*
X-162623Y127567D01*
X-162667Y127548D01*
X-162667Y127546D01*
X-162669Y127545D01*
X-162702Y127461D01*
X-162702Y115237D01*
X-162701Y115235D01*
X-162702Y115232D01*
X-162682Y115189D01*
X-162664Y115146D01*
X-162662Y115145D01*
X-162661Y115143D01*
X-162576Y115110D01*
X-150352Y115110D01*
X-150350Y115111D01*
G37*
G36*
X-164574Y115111D02*
X-164574Y115111D01*
X-164572Y115110D01*
X-164529Y115130D01*
X-164485Y115149D01*
X-164485Y115151D01*
X-164483Y115152D01*
X-164450Y115237D01*
X-164450Y127461D01*
X-164451Y127463D01*
X-164450Y127465D01*
X-164470Y127508D01*
X-164488Y127551D01*
X-164490Y127552D01*
X-164491Y127554D01*
X-164576Y127587D01*
X-176800Y127587D01*
X-176802Y127586D01*
X-176804Y127587D01*
X-176847Y127567D01*
X-176891Y127548D01*
X-176891Y127546D01*
X-176893Y127545D01*
X-176926Y127461D01*
X-176926Y115237D01*
X-176925Y115235D01*
X-176926Y115232D01*
X-176906Y115189D01*
X-176888Y115146D01*
X-176886Y115145D01*
X-176885Y115143D01*
X-176800Y115110D01*
X-164576Y115110D01*
X-164574Y115111D01*
G37*
G36*
X-178798Y115111D02*
X-178798Y115111D01*
X-178796Y115110D01*
X-178753Y115130D01*
X-178709Y115149D01*
X-178709Y115151D01*
X-178707Y115152D01*
X-178674Y115237D01*
X-178674Y127461D01*
X-178675Y127463D01*
X-178674Y127465D01*
X-178694Y127508D01*
X-178712Y127551D01*
X-178714Y127552D01*
X-178715Y127554D01*
X-178800Y127587D01*
X-191024Y127587D01*
X-191026Y127586D01*
X-191028Y127587D01*
X-191071Y127567D01*
X-191115Y127548D01*
X-191115Y127546D01*
X-191117Y127545D01*
X-191150Y127461D01*
X-191150Y115237D01*
X-191149Y115235D01*
X-191150Y115232D01*
X-191130Y115189D01*
X-191112Y115146D01*
X-191110Y115145D01*
X-191109Y115143D01*
X-191024Y115110D01*
X-178800Y115110D01*
X-178798Y115111D01*
G37*
G36*
X-193022Y115111D02*
X-193022Y115111D01*
X-193020Y115110D01*
X-192977Y115130D01*
X-192933Y115149D01*
X-192933Y115151D01*
X-192931Y115152D01*
X-192898Y115237D01*
X-192898Y127461D01*
X-192899Y127463D01*
X-192898Y127465D01*
X-192918Y127508D01*
X-192936Y127551D01*
X-192938Y127552D01*
X-192939Y127554D01*
X-193024Y127587D01*
X-205248Y127587D01*
X-205250Y127586D01*
X-205252Y127587D01*
X-205295Y127567D01*
X-205339Y127548D01*
X-205339Y127546D01*
X-205341Y127545D01*
X-205374Y127461D01*
X-205374Y115237D01*
X-205373Y115235D01*
X-205374Y115232D01*
X-205354Y115189D01*
X-205336Y115146D01*
X-205334Y115145D01*
X-205333Y115143D01*
X-205248Y115110D01*
X-193024Y115110D01*
X-193022Y115111D01*
G37*
G36*
X-150350Y100887D02*
X-150350Y100887D01*
X-150348Y100886D01*
X-150305Y100906D01*
X-150261Y100925D01*
X-150261Y100927D01*
X-150259Y100928D01*
X-150226Y101013D01*
X-150226Y113237D01*
X-150227Y113239D01*
X-150226Y113241D01*
X-150246Y113284D01*
X-150264Y113327D01*
X-150266Y113328D01*
X-150267Y113330D01*
X-150352Y113363D01*
X-162576Y113363D01*
X-162578Y113362D01*
X-162580Y113363D01*
X-162623Y113343D01*
X-162667Y113324D01*
X-162667Y113322D01*
X-162669Y113321D01*
X-162702Y113237D01*
X-162702Y101013D01*
X-162701Y101011D01*
X-162702Y101008D01*
X-162682Y100965D01*
X-162664Y100922D01*
X-162662Y100921D01*
X-162661Y100919D01*
X-162576Y100886D01*
X-150352Y100886D01*
X-150350Y100887D01*
G37*
G36*
X-193022Y100887D02*
X-193022Y100887D01*
X-193020Y100886D01*
X-192977Y100906D01*
X-192933Y100925D01*
X-192933Y100927D01*
X-192931Y100928D01*
X-192898Y101013D01*
X-192898Y113237D01*
X-192899Y113239D01*
X-192898Y113241D01*
X-192918Y113284D01*
X-192936Y113327D01*
X-192938Y113328D01*
X-192939Y113330D01*
X-193024Y113363D01*
X-205248Y113363D01*
X-205250Y113362D01*
X-205252Y113363D01*
X-205295Y113343D01*
X-205339Y113324D01*
X-205339Y113322D01*
X-205341Y113321D01*
X-205374Y113237D01*
X-205374Y101013D01*
X-205373Y101011D01*
X-205374Y101008D01*
X-205354Y100965D01*
X-205336Y100922D01*
X-205334Y100921D01*
X-205333Y100919D01*
X-205248Y100886D01*
X-193024Y100886D01*
X-193022Y100887D01*
G37*
G36*
X-178798Y100887D02*
X-178798Y100887D01*
X-178796Y100886D01*
X-178753Y100906D01*
X-178709Y100925D01*
X-178709Y100927D01*
X-178707Y100928D01*
X-178674Y101013D01*
X-178674Y113237D01*
X-178675Y113239D01*
X-178674Y113241D01*
X-178694Y113284D01*
X-178712Y113327D01*
X-178714Y113328D01*
X-178715Y113330D01*
X-178800Y113363D01*
X-191024Y113363D01*
X-191026Y113362D01*
X-191028Y113363D01*
X-191071Y113343D01*
X-191115Y113324D01*
X-191115Y113322D01*
X-191117Y113321D01*
X-191150Y113237D01*
X-191150Y101013D01*
X-191149Y101011D01*
X-191150Y101008D01*
X-191130Y100965D01*
X-191112Y100922D01*
X-191110Y100921D01*
X-191109Y100919D01*
X-191024Y100886D01*
X-178800Y100886D01*
X-178798Y100887D01*
G37*
G36*
X-164574Y100887D02*
X-164574Y100887D01*
X-164572Y100886D01*
X-164529Y100906D01*
X-164485Y100925D01*
X-164485Y100927D01*
X-164483Y100928D01*
X-164450Y101013D01*
X-164450Y113237D01*
X-164451Y113239D01*
X-164450Y113241D01*
X-164470Y113284D01*
X-164488Y113327D01*
X-164490Y113328D01*
X-164491Y113330D01*
X-164576Y113363D01*
X-176800Y113363D01*
X-176802Y113362D01*
X-176804Y113363D01*
X-176847Y113343D01*
X-176891Y113324D01*
X-176891Y113322D01*
X-176893Y113321D01*
X-176926Y113237D01*
X-176926Y101013D01*
X-176925Y101011D01*
X-176926Y101008D01*
X-176906Y100965D01*
X-176888Y100922D01*
X-176886Y100921D01*
X-176885Y100919D01*
X-176800Y100886D01*
X-164576Y100886D01*
X-164574Y100887D01*
G37*
G36*
X-178798Y86663D02*
X-178798Y86663D01*
X-178796Y86662D01*
X-178753Y86682D01*
X-178709Y86701D01*
X-178709Y86703D01*
X-178707Y86704D01*
X-178674Y86789D01*
X-178674Y99013D01*
X-178675Y99015D01*
X-178674Y99017D01*
X-178694Y99060D01*
X-178712Y99103D01*
X-178714Y99104D01*
X-178715Y99106D01*
X-178800Y99139D01*
X-191024Y99139D01*
X-191026Y99138D01*
X-191028Y99139D01*
X-191071Y99119D01*
X-191115Y99100D01*
X-191115Y99098D01*
X-191117Y99097D01*
X-191150Y99013D01*
X-191150Y86789D01*
X-191149Y86787D01*
X-191150Y86784D01*
X-191130Y86741D01*
X-191112Y86698D01*
X-191110Y86697D01*
X-191109Y86695D01*
X-191024Y86662D01*
X-178800Y86662D01*
X-178798Y86663D01*
G37*
G36*
X-150350Y86663D02*
X-150350Y86663D01*
X-150348Y86662D01*
X-150305Y86682D01*
X-150261Y86701D01*
X-150261Y86703D01*
X-150259Y86704D01*
X-150226Y86789D01*
X-150226Y99013D01*
X-150227Y99015D01*
X-150226Y99017D01*
X-150246Y99060D01*
X-150264Y99103D01*
X-150266Y99104D01*
X-150267Y99106D01*
X-150352Y99139D01*
X-162576Y99139D01*
X-162578Y99138D01*
X-162580Y99139D01*
X-162623Y99119D01*
X-162667Y99100D01*
X-162667Y99098D01*
X-162669Y99097D01*
X-162702Y99013D01*
X-162702Y86789D01*
X-162701Y86787D01*
X-162702Y86784D01*
X-162682Y86741D01*
X-162664Y86698D01*
X-162662Y86697D01*
X-162661Y86695D01*
X-162576Y86662D01*
X-150352Y86662D01*
X-150350Y86663D01*
G37*
G36*
X-164574Y86663D02*
X-164574Y86663D01*
X-164572Y86662D01*
X-164529Y86682D01*
X-164485Y86701D01*
X-164485Y86703D01*
X-164483Y86704D01*
X-164450Y86789D01*
X-164450Y99013D01*
X-164451Y99015D01*
X-164450Y99017D01*
X-164470Y99060D01*
X-164488Y99103D01*
X-164490Y99104D01*
X-164491Y99106D01*
X-164576Y99139D01*
X-176800Y99139D01*
X-176802Y99138D01*
X-176804Y99139D01*
X-176847Y99119D01*
X-176891Y99100D01*
X-176891Y99098D01*
X-176893Y99097D01*
X-176926Y99013D01*
X-176926Y86789D01*
X-176925Y86787D01*
X-176926Y86784D01*
X-176906Y86741D01*
X-176888Y86698D01*
X-176886Y86697D01*
X-176885Y86695D01*
X-176800Y86662D01*
X-164576Y86662D01*
X-164574Y86663D01*
G37*
G36*
X-193022Y86663D02*
X-193022Y86663D01*
X-193020Y86662D01*
X-192977Y86682D01*
X-192933Y86701D01*
X-192933Y86703D01*
X-192931Y86704D01*
X-192898Y86789D01*
X-192898Y99013D01*
X-192899Y99015D01*
X-192898Y99017D01*
X-192918Y99060D01*
X-192936Y99103D01*
X-192938Y99104D01*
X-192939Y99106D01*
X-193024Y99139D01*
X-205248Y99139D01*
X-205250Y99138D01*
X-205252Y99139D01*
X-205295Y99119D01*
X-205339Y99100D01*
X-205339Y99098D01*
X-205341Y99097D01*
X-205374Y99013D01*
X-205374Y86789D01*
X-205373Y86787D01*
X-205374Y86784D01*
X-205354Y86741D01*
X-205336Y86698D01*
X-205334Y86697D01*
X-205333Y86695D01*
X-205248Y86662D01*
X-193024Y86662D01*
X-193022Y86663D01*
G37*
G36*
X-164574Y72439D02*
X-164574Y72439D01*
X-164572Y72438D01*
X-164529Y72458D01*
X-164485Y72477D01*
X-164485Y72479D01*
X-164483Y72480D01*
X-164450Y72565D01*
X-164450Y84789D01*
X-164451Y84791D01*
X-164450Y84793D01*
X-164470Y84836D01*
X-164488Y84879D01*
X-164490Y84880D01*
X-164491Y84882D01*
X-164576Y84915D01*
X-176800Y84915D01*
X-176802Y84914D01*
X-176804Y84915D01*
X-176847Y84895D01*
X-176891Y84876D01*
X-176891Y84874D01*
X-176893Y84873D01*
X-176926Y84789D01*
X-176926Y72565D01*
X-176925Y72563D01*
X-176926Y72560D01*
X-176906Y72517D01*
X-176888Y72474D01*
X-176886Y72473D01*
X-176885Y72471D01*
X-176800Y72438D01*
X-164576Y72438D01*
X-164574Y72439D01*
G37*
G36*
X-178798Y72439D02*
X-178798Y72439D01*
X-178796Y72438D01*
X-178753Y72458D01*
X-178709Y72477D01*
X-178709Y72479D01*
X-178707Y72480D01*
X-178674Y72565D01*
X-178674Y84789D01*
X-178675Y84791D01*
X-178674Y84793D01*
X-178694Y84836D01*
X-178712Y84879D01*
X-178714Y84880D01*
X-178715Y84882D01*
X-178800Y84915D01*
X-191024Y84915D01*
X-191026Y84914D01*
X-191028Y84915D01*
X-191071Y84895D01*
X-191115Y84876D01*
X-191115Y84874D01*
X-191117Y84873D01*
X-191150Y84789D01*
X-191150Y72565D01*
X-191149Y72563D01*
X-191150Y72560D01*
X-191130Y72517D01*
X-191112Y72474D01*
X-191110Y72473D01*
X-191109Y72471D01*
X-191024Y72438D01*
X-178800Y72438D01*
X-178798Y72439D01*
G37*
G36*
X-193022Y72439D02*
X-193022Y72439D01*
X-193020Y72438D01*
X-192977Y72458D01*
X-192933Y72477D01*
X-192933Y72479D01*
X-192931Y72480D01*
X-192898Y72565D01*
X-192898Y84789D01*
X-192899Y84791D01*
X-192898Y84793D01*
X-192918Y84836D01*
X-192936Y84879D01*
X-192938Y84880D01*
X-192939Y84882D01*
X-193024Y84915D01*
X-205248Y84915D01*
X-205250Y84914D01*
X-205252Y84915D01*
X-205295Y84895D01*
X-205339Y84876D01*
X-205339Y84874D01*
X-205341Y84873D01*
X-205374Y84789D01*
X-205374Y72565D01*
X-205373Y72563D01*
X-205374Y72560D01*
X-205354Y72517D01*
X-205336Y72474D01*
X-205334Y72473D01*
X-205333Y72471D01*
X-205248Y72438D01*
X-193024Y72438D01*
X-193022Y72439D01*
G37*
G36*
X-150350Y72439D02*
X-150350Y72439D01*
X-150348Y72438D01*
X-150305Y72458D01*
X-150261Y72477D01*
X-150261Y72479D01*
X-150259Y72480D01*
X-150226Y72565D01*
X-150226Y84789D01*
X-150227Y84791D01*
X-150226Y84793D01*
X-150246Y84836D01*
X-150264Y84879D01*
X-150266Y84880D01*
X-150267Y84882D01*
X-150352Y84915D01*
X-162576Y84915D01*
X-162578Y84914D01*
X-162580Y84915D01*
X-162623Y84895D01*
X-162667Y84876D01*
X-162667Y84874D01*
X-162669Y84873D01*
X-162702Y84789D01*
X-162702Y72565D01*
X-162701Y72563D01*
X-162702Y72560D01*
X-162682Y72517D01*
X-162664Y72474D01*
X-162662Y72473D01*
X-162661Y72471D01*
X-162576Y72438D01*
X-150352Y72438D01*
X-150350Y72439D01*
G37*
D10*
X-156275Y153988D03*
X-168275Y153988D03*
X-180275Y153988D03*
D11*
X-209550Y35950D03*
X-209550Y52950D03*
D12*
X-196850Y151838D03*
X-196850Y168838D03*
D13*
X-207963Y150838D03*
X-207963Y169838D03*
D14*
X-205307Y133813D03*
X-200306Y133813D03*
X-195304Y133813D03*
X-190303Y133813D03*
X-185302Y133813D03*
X-180301Y133813D03*
X-175299Y133813D03*
X-170298Y133813D03*
X-165297Y133813D03*
X-160296Y133813D03*
X-155294Y133813D03*
X-150293Y133813D03*
D15*
X-144000Y127520D03*
X-144000Y122519D03*
X-144000Y117517D03*
X-144000Y112516D03*
X-144000Y107515D03*
X-144000Y102514D03*
X-144000Y97512D03*
X-144000Y92511D03*
X-144000Y87510D03*
X-144000Y82509D03*
X-144000Y77507D03*
X-144000Y72506D03*
D14*
X-150293Y66213D03*
X-155294Y66213D03*
X-160296Y66213D03*
X-165297Y66213D03*
X-170298Y66213D03*
X-175299Y66213D03*
X-180301Y66213D03*
X-185302Y66213D03*
X-190303Y66213D03*
X-195304Y66213D03*
X-200306Y66213D03*
X-205307Y66213D03*
D15*
X-211600Y72506D03*
X-211600Y77507D03*
X-211600Y82509D03*
X-211600Y87510D03*
X-211600Y92511D03*
X-211600Y97512D03*
X-211600Y102514D03*
X-211600Y107515D03*
X-211600Y112516D03*
X-211600Y117517D03*
X-211600Y122519D03*
X-211600Y127520D03*
D12*
X122800Y55563D03*
X105800Y55563D03*
X122800Y73025D03*
X105800Y73025D03*
D11*
X65650Y60325D03*
X48650Y60325D03*
D12*
X65650Y74613D03*
X48650Y74613D03*
D11*
X184150Y60888D03*
X184150Y43888D03*
X65650Y28575D03*
X48650Y28575D03*
D12*
X90488Y4200D03*
X90488Y21200D03*
D11*
X122800Y39688D03*
X105800Y39688D03*
D12*
X65650Y44450D03*
X48650Y44450D03*
D11*
X90488Y-30725D03*
X90488Y-13725D03*
D16*
X138980Y50575D03*
X138980Y57075D03*
X138980Y63575D03*
X138980Y70075D03*
D17*
X169280Y70075D03*
X169280Y63575D03*
X169280Y57075D03*
X169280Y50575D03*
D18*
X158230Y52225D03*
X158230Y68425D03*
D19*
X150930Y44275D03*
X150930Y76375D03*
D20*
X174100Y128150D03*
X174100Y123150D03*
X174100Y118150D03*
X174100Y113150D03*
X156100Y113150D03*
X156100Y118150D03*
X156100Y123150D03*
X156100Y128150D03*
D21*
X165100Y120650D03*
D22*
X157600Y125650D03*
D13*
X-34925Y152375D03*
X-34925Y133375D03*
X-95250Y152375D03*
X-95250Y133375D03*
D12*
X-52950Y106363D03*
X-35950Y106363D03*
D23*
X-55588Y150963D03*
X-55588Y144463D03*
X-55588Y137963D03*
X-74588Y137963D03*
X-74588Y150963D03*
D24*
X168300Y141288D03*
X187300Y141288D03*
X149200Y141288D03*
X130200Y141288D03*
D11*
X203763Y112713D03*
X186763Y112713D03*
D12*
X23250Y123825D03*
X40250Y123825D03*
X40250Y107950D03*
X23250Y107950D03*
D11*
X23250Y92075D03*
X40250Y92075D03*
D25*
X166370Y155575D03*
X151130Y155575D03*
X-28893Y7938D03*
X-44133Y7938D03*
D24*
X-30188Y84138D03*
X-49188Y84138D03*
D13*
X0Y46063D03*
X0Y65063D03*
D11*
X-76200Y37538D03*
X-76200Y54538D03*
X142875Y124388D03*
X142875Y107388D03*
D12*
X127000Y107388D03*
X127000Y124388D03*
X202638Y26988D03*
X219638Y26988D03*
D11*
G36*
X177702Y-42343D02*
X168176Y-47843D01*
X163176Y-39183D01*
X172702Y-33683D01*
X177702Y-42343D01*
G37*
G36*
X192424Y-33843D02*
X182898Y-39343D01*
X177898Y-30683D01*
X187424Y-25183D01*
X192424Y-33843D01*
G37*
D24*
X182538Y88900D03*
X163538Y88900D03*
D26*
G36*
X174172Y-6868D02*
X166172Y6987D01*
X181786Y16002D01*
X189786Y2147D01*
X174172Y-6868D01*
G37*
G36*
X159952Y17761D02*
X151952Y31616D01*
X167566Y40631D01*
X175566Y26776D01*
X159952Y17761D01*
G37*
D12*
X122800Y23813D03*
X105800Y23813D03*
D11*
X122800Y7938D03*
X105800Y7938D03*
D12*
X95813Y127000D03*
X78813Y127000D03*
X74050Y107950D03*
X91050Y107950D03*
D27*
X94863Y142900D03*
X94863Y161900D03*
X117863Y152400D03*
D11*
X79375Y154550D03*
X79375Y137550D03*
D12*
X-79938Y111125D03*
X-62938Y111125D03*
D24*
X-34950Y119063D03*
X-53950Y119063D03*
D12*
X-103750Y55563D03*
X-86750Y55563D03*
D13*
X-63500Y36538D03*
X-63500Y55538D03*
D28*
X-16750Y68238D03*
X-16750Y58738D03*
X-16750Y49238D03*
X-46750Y49238D03*
X-46750Y58738D03*
X-46750Y68238D03*
D29*
X-31750Y58738D03*
D12*
X201050Y165100D03*
X218050Y165100D03*
D24*
X200050Y147638D03*
X219050Y147638D03*
D30*
X-106363Y109925D03*
X-106363Y86925D03*
X-120650Y109925D03*
X-120650Y86925D03*
X-92075Y109925D03*
X-92075Y86925D03*
D25*
X-77470Y84138D03*
X-62230Y84138D03*
D13*
X195263Y88875D03*
X195263Y69875D03*
D11*
X111125Y129150D03*
X111125Y112150D03*
D12*
X-45013Y34925D03*
X-28013Y34925D03*
X206375Y70875D03*
X206375Y87875D03*
D24*
G36*
X156011Y-1530D02*
X167269Y4970D01*
X174769Y-8020D01*
X163511Y-14520D01*
X156011Y-1530D01*
G37*
G36*
X139556Y-11030D02*
X150814Y-4530D01*
X158314Y-17520D01*
X147056Y-24020D01*
X139556Y-11030D01*
G37*
M02*
